<svg width="203" height="60" viewBox="0 0 203 60" fill="none" xmlns="http://www.w3.org/2000/svg">
<g clip-path="url(#clip0_51_165)">
<path d="M125.705 41.5526C118.178 41.2485 111.331 37.951 107.227 30.2159C101.441 19.2896 106.394 4.88331 120.192 1.16016C127.599 -0.845774 134.672 0.172392 140.837 4.97448C152.923 14.3963 150.243 33.5287 136.065 39.6528C133.082 40.9446 129.931 41.522 125.705 41.5526ZM118.45 20.7789C118.602 21.6907 118.647 22.6176 118.92 23.499C119.92 26.8118 122.01 29.0761 125.493 29.6385C128.795 30.1854 131.507 28.909 133.309 26.0977C135.339 22.952 135.46 19.5783 133.703 16.2655C132.309 13.6213 129.992 12.1776 126.993 12.0713C122.237 11.8889 118.556 15.7336 118.45 20.7789Z" fill="#006537"/>
<path d="M19.2563 40.7926C19.3775 40.5039 19.4684 40.2608 19.5744 40.0177C25.2543 27.2069 31.328 13.6061 36.9927 0.795471C41.1428 0.825863 46.7774 0.825866 50.9274 0.810669C56.6528 13.8037 62.7115 27.3893 68.4517 40.3823C68.4974 40.5039 68.5428 40.6254 68.6184 40.8231C68.3005 40.8382 68.043 40.8687 67.7702 40.8687C63.5597 40.8687 58.4702 40.8534 54.2597 40.8839C53.7143 39.501 52.4722 36.7808 51.912 35.4131C47.0046 35.4282 40.9914 35.4282 36.0839 35.4131C35.4932 36.8416 34.1755 39.4403 33.509 40.8382C29.0409 40.8687 24.1183 40.8534 19.6502 40.8534C19.529 40.8534 19.423 40.8231 19.2563 40.7926ZM43.945 17.0102C42.8393 19.548 41.7942 21.949 40.7339 24.4108C42.915 24.4108 44.9748 24.4108 47.1712 24.4108C46.0958 21.949 45.0507 19.548 43.945 17.0102Z" fill="#006537"/>
<path d="M68.4824 35.5651C70.6634 32.4649 72.784 29.4713 74.9347 26.4167C75.1468 26.6144 75.3286 26.7664 75.4799 26.9333C78.6001 29.9728 82.417 30.7782 86.5822 30.3223C87.0519 30.2767 87.5365 30.0638 87.9455 29.8359C89.4601 28.9697 89.6268 26.9944 88.1727 26.0672C87.2488 25.4898 86.0975 25.0947 85.007 24.9731C83.2652 24.7755 81.4932 24.8819 79.7209 24.8515C79.4029 24.8515 79.0847 24.8515 78.7214 24.8515C78.7214 21.6451 78.7214 18.5298 78.7214 15.2777C79.0242 15.2777 79.327 15.2777 79.6301 15.2777C81.2506 15.2473 82.8865 15.2777 84.4922 15.1258C85.1283 15.065 85.8552 14.6699 86.3247 14.214C87.3699 13.2262 87.0368 11.7977 85.6583 11.4026C84.8555 11.1747 83.9316 11.1595 83.0986 11.2658C80.8265 11.5698 78.797 12.5272 76.9491 13.8796C76.6917 14.062 76.5099 14.3507 76.2222 14.6395C73.7683 12.0713 71.2996 9.50305 68.664 6.75249C70.0727 5.61274 71.3299 4.32105 72.8142 3.43964C79.5696 -0.587432 86.6732 -0.98254 93.9737 1.75283C95.7914 2.43668 97.3363 3.622 98.5632 5.17205C101.698 9.16872 100.971 15.0194 96.9424 18.2258C96.7455 18.3778 96.5637 18.5146 96.2911 18.7122C96.397 18.7881 96.4729 18.8489 96.5486 18.8945C103.773 22.5721 104.924 31.69 98.8811 37.1454C96.3214 39.4554 93.2468 40.7015 89.8842 41.1726C84.4163 41.9323 79.0545 41.5221 73.9501 39.2577C72.8747 38.7867 71.8447 38.1333 70.8604 37.4646C70.0576 36.948 69.3306 36.249 68.4824 35.5651Z" fill="#006537"/>
<path d="M173.659 40.8231C169.085 40.8231 164.632 40.8231 160.042 40.8231C160.042 31.1885 160.042 21.5843 160.042 11.8889C156.225 11.8889 152.53 11.8889 148.773 11.8889C148.773 8.18097 148.773 4.54903 148.773 0.87146C160.83 0.87146 172.826 0.87146 184.898 0.87146C184.898 4.48823 184.898 8.12021 184.898 11.8433C181.202 11.8433 177.476 11.8433 173.659 11.8433C173.659 21.5387 173.659 31.1582 173.659 40.8231Z" fill="#006537"/>
<path d="M25.4956 50.7008V52.4744H21.1609V59.8306H19V50.7008H25.4956Z" fill="#006537"/>
<path d="M30.5078 59.8306H28.3469V50.7008H32.6431C33.6206 50.7008 34.4095 51.0008 35.0098 51.6006C35.6186 52.1918 35.923 52.9398 35.923 53.8439C35.923 54.7308 35.6229 55.4788 35.0226 56.0872C34.431 56.6872 33.6378 56.9872 32.6431 56.9872H30.5078V59.8306ZM30.5078 52.4744V55.2134H32.4244C32.8874 55.2134 33.239 55.0831 33.4791 54.8221C33.7278 54.5613 33.8521 54.2352 33.8521 53.8439C33.8521 53.4354 33.7235 53.1049 33.4663 52.8529C33.2176 52.6006 32.8703 52.4744 32.4244 52.4744H30.5078Z" fill="#006537"/>
<path d="M38.2332 50.7008H40.6513L43.211 55.1744L45.1146 50.7008H47.4172L44.24 58.1872C43.7255 59.3957 42.8337 60 41.5646 60C40.5699 60 39.7124 59.6523 38.9921 58.9567L39.8924 57.6262C40.0639 57.7741 40.1968 57.8829 40.2912 57.9523C40.3855 58.0131 40.5098 58.0785 40.6642 58.148C40.8271 58.2088 40.9943 58.2393 41.1658 58.2393C41.4402 58.2305 41.6503 58.1436 41.7961 57.9785C41.9419 57.8047 42.0362 57.6134 42.0791 57.4047L38.2332 50.7008Z" fill="#006537"/>
<path d="M50.4702 50.7008H58.5094V59.8306H56.3484V52.4744H52.6312V59.8306H50.4702V50.7008Z" fill="#006537"/>
<path d="M62.1411 50.7008H70.1803V59.8306H68.0193V52.4744H64.3021V59.8306H62.1411V50.7008Z" fill="#006537"/>
<path d="M73.0144 59.8306L77.1177 50.7008H79.3816L83.4718 59.8306H81.208L80.4621 58.148H76.0372L75.2913 59.8306H73.0144ZM76.809 56.4003H79.6903L78.2495 53.1918L76.809 56.4003Z" fill="#006537"/>
<path d="M93.4735 59.8306H91.3127V50.7008H93.4735V54.3788H94.4768L97.5125 50.7008H100.059L96.3033 55.2657L100.059 59.8306H97.5125L94.4768 56.1526H93.4735V59.8306Z" fill="#006537"/>
<path d="M101.755 55.2394C101.755 53.9179 102.218 52.8092 103.144 51.9135C104.079 51.0094 105.232 50.5571 106.604 50.5571C107.985 50.5571 109.138 51.0094 110.064 51.9135C110.999 52.8179 111.462 53.9264 111.453 55.2394C111.445 56.5697 110.973 57.6915 110.038 58.6043C109.112 59.5174 107.967 59.9738 106.604 59.9738C105.241 59.9738 104.092 59.513 103.157 58.5915C102.222 57.6697 101.755 56.5523 101.755 55.2394ZM104.701 53.2569C104.177 53.7961 103.916 54.4569 103.916 55.2394C103.916 56.022 104.177 56.6958 104.701 57.261C105.232 57.8261 105.867 58.1087 106.604 58.1087C107.35 58.1087 107.985 57.8261 108.508 57.261C109.039 56.6958 109.305 56.022 109.305 55.2394C109.297 54.4569 109.031 53.7961 108.508 53.2569C107.985 52.7092 107.35 52.4353 106.604 52.4353C105.858 52.4353 105.224 52.7092 104.701 53.2569Z" fill="#006537"/>
<path d="M114.642 59.8306V50.7008H116.841L119.633 55.0047L122.45 50.7008H124.649V59.8306H122.488V54.1962L119.633 58.6305L116.803 54.2093V59.8306H114.642Z" fill="#006537"/>
<path d="M128.272 50.7008H136.311V59.8306H134.15V52.4744H130.433V59.8306H128.272V50.7008Z" fill="#006537"/>
<path d="M139.146 59.8306L143.249 50.7008H145.513L149.603 59.8306H147.339L146.593 58.148H142.168L141.422 59.8306H139.146ZM142.94 56.4003H145.821L144.381 53.1918L142.94 56.4003Z" fill="#006537"/>
<path d="M152.443 50.7008H154.591L154.604 54.3918H158.772V50.7008H160.933V59.8306H158.772V56.1526H154.604V59.8306H152.443V50.7008Z" fill="#006537"/>
<path d="M164.566 59.8306V50.7008H166.727V56.4134L170.804 50.7008H173.017V59.8306H170.856V54.157L166.817 59.8306H164.566Z" fill="#006537"/>
<path d="M176.703 59.8305L176.716 50.7008H178.864V56.4133L182.942 50.7008H185.154V59.8305H182.993V54.1569L178.954 59.8305H176.703ZM182.221 49.3444C181.87 49.6921 181.398 49.8659 180.806 49.8659C180.215 49.8659 179.743 49.6921 179.391 49.3444C179.04 48.9964 178.868 48.5313 178.877 47.9487H179.816C179.816 48.1921 179.91 48.3921 180.099 48.5487C180.296 48.6964 180.532 48.7705 180.806 48.7705C181.089 48.7705 181.325 48.6964 181.514 48.5487C181.702 48.3921 181.797 48.1921 181.797 47.9487H182.749C182.749 48.5313 182.573 48.9964 182.221 49.3444Z" fill="#006537"/>
</g>
<defs>
<clipPath id="clip0_51_165">
<rect width="166.154" height="60" fill="white" transform="translate(19)"/>
</clipPath>
</defs>
</svg>
