<svg width="240" height="66" viewBox="0 0 240 66" fill="none" xmlns="http://www.w3.org/2000/svg">
<g clip-path="url(#clip0_51_166)">
<path d="M81.45 27.49H89.82V23.66H81.45V20.38H95.75V16.52H76.45V35.38H95.93V31.38H81.45V27.49Z" fill="#053869"/>
<path d="M236.23 19.79L229.04 28.85L221.86 19.79H218.45V35.38H222.78V26.38L228.47 33.55H229.54L235.23 26.38V35.38H239.55V19.79H236.23Z" fill="#053869"/>
<path d="M198.25 30.2V19.79H193.93V35.38H197.31L209.64 24.97V35.38H213.97V19.79H210.58L198.25 30.2Z" fill="#053869"/>
<path d="M188.92 16.52H183.05L177.68 22.52L172.05 16.52H165.45L174.58 25.73L165.6 35.38H171.6L177.6 28.52L184.04 35.38H190.82L180.67 25.22L188.92 16.52Z" fill="#053869"/>
<path d="M116.12 27.38C116.423 27.2406 116.703 27.055 116.95 26.83C117.225 26.5771 117.442 26.2672 117.586 25.9217C117.729 25.5763 117.795 25.2037 117.78 24.83V23.05C117.812 22.6057 117.748 22.1597 117.593 21.7422C117.438 21.3247 117.194 20.9454 116.88 20.63C116.013 19.9993 114.948 19.7012 113.88 19.79H100.16V35.38H113.16C114.333 35.4464 115.502 35.1794 116.53 34.61C116.964 34.3529 117.32 33.9825 117.559 33.5386C117.799 33.0947 117.913 32.5939 117.89 32.09V30.19C117.902 29.3598 117.586 28.5583 117.01 27.96C116.743 27.725 116.443 27.5297 116.12 27.38ZM104.45 22.99H112.17C113.04 22.99 113.17 23.13 113.17 23.13C113.24 23.2028 113.295 23.289 113.331 23.3836C113.367 23.4781 113.384 23.5789 113.38 23.68V25.09C113.38 25.37 113.38 25.48 113.23 25.58C112.893 25.7478 112.514 25.8138 112.14 25.77H104.45V22.99ZM113.52 31.06C113.534 31.1941 113.521 31.3296 113.482 31.4585C113.442 31.5874 113.377 31.707 113.29 31.81C112.99 31.9923 112.638 32.0697 112.29 32.03H104.45V28.97H112.2C112.94 28.97 113.2 29.1 113.29 29.2C113.376 29.3019 113.44 29.4198 113.48 29.5468C113.519 29.6739 113.533 29.8076 113.52 29.94V31.06Z" fill="#053869"/>
<path d="M135.53 19.79H121.77V35.38H126.09V29.64H135.53C136.544 29.7215 137.556 29.4572 138.4 28.89C138.75 28.58 139.023 28.1925 139.196 27.7585C139.37 27.3244 139.44 26.8558 139.4 26.39V23.05C139.38 21.53 138.95 19.79 135.53 19.79ZM135.27 25.44C135.27 25.8 135.27 25.93 135.06 26.06C134.801 26.2132 134.5 26.283 134.2 26.26H126.09V23.17H133.98C134.358 23.1236 134.74 23.2008 135.07 23.39C135.148 23.4697 135.206 23.5661 135.241 23.6718C135.275 23.7775 135.285 23.8898 135.27 24V25.44Z" fill="#053869"/>
<path d="M162.06 20.67C161.14 19.79 159.42 19.79 158.68 19.79H147.04C145.92 19.6585 144.79 19.9471 143.87 20.6C143.166 21.4635 142.831 22.5708 142.94 23.68V31.52C142.849 32.5901 143.151 33.6568 143.79 34.52C144.38 35.12 145.49 35.41 147.18 35.41H158.68C159.89 35.41 161.26 35.34 162.07 34.48C162.677 33.6856 162.976 32.6978 162.91 31.7V23.7C163.025 22.6184 162.721 21.534 162.06 20.67V20.67ZM158.59 31.86H147.27V23.38H158.59V31.86Z" fill="#053869"/>
<path d="M9.91992 25.97L31.1399 51.97V32.84C29.4799 32.5256 27.9895 31.6214 26.944 30.2942C25.8984 28.9671 25.3681 27.3065 25.4509 25.619C25.5338 23.9315 26.2242 22.3309 27.3947 21.1125C28.5653 19.8941 30.1371 19.1403 31.8199 18.99C33.558 19.1571 35.1708 19.9678 36.342 21.2628C37.5131 22.5579 38.1579 24.244 38.1499 25.99H52.3599L31.1499 0.0100098V19.01C29.2934 19.01 27.5129 19.7475 26.2002 21.0603C24.8874 22.373 24.1499 24.1535 24.1499 26.01L9.91992 25.97Z" fill="#053869"/>
<path d="M38.7201 0L38.4901 0.28L59.7001 25.97H52.3601L34.8201 47.44L38.4901 51.93L62.2901 25.97L38.7201 0Z" fill="#053869"/>
<path d="M27.47 4.5L23.8 0L0 25.97L23.61 51.93L23.81 51.68L2.58 25.97H9.92L27.47 4.5Z" fill="#053869"/>
<path d="M83.2101 47.54L80.7301 53.63H80.2501L77.7601 47.54V53.63H76.6101V45.96H78.2601L80.4501 51.47L82.6801 45.96H84.3201V53.63H83.2101V47.54Z" fill="#053869"/>
<path d="M87.45 45.96V51.88L91.62 45.96H92.81V53.63H91.61V47.63L87.36 53.63H86.25V45.96H87.45Z" fill="#053869"/>
<path d="M100.03 50.2H95.7799V53.63H94.6299V45.96H95.7799V49.18H100.03V45.96H101.18V53.63H100.03V50.2Z" fill="#053869"/>
<path d="M103.06 45.96H108.21V46.96H104.21V49.21H108.13V50.21H104.21V52.6H108.21V53.6H103.06V45.96Z" fill="#053869"/>
<path d="M109.78 45.96H113.02C113.646 45.96 114.246 46.2086 114.689 46.6512C115.131 47.0938 115.38 47.694 115.38 48.32C115.38 48.9459 115.131 49.5461 114.689 49.9887C114.246 50.4313 113.646 50.68 113.02 50.68H110.93V53.68H109.78V45.96ZM112.87 46.96H110.93V49.65H112.87C113.056 49.666 113.244 49.6432 113.421 49.5829C113.598 49.5226 113.761 49.4262 113.899 49.2997C114.037 49.1733 114.147 49.0196 114.222 48.8483C114.297 48.6771 114.336 48.492 114.336 48.305C114.336 48.1179 114.297 47.9329 114.222 47.7616C114.147 47.5904 114.037 47.4366 113.899 47.3102C113.761 47.1837 113.598 47.0873 113.421 47.027C113.244 46.9667 113.056 46.9439 112.87 46.96V46.96Z" fill="#053869"/>
<path d="M121.12 52.05H117.36L116.74 53.63H115.45L118.45 45.96H119.89L122.89 53.63H121.62L121.12 52.05ZM117.69 51.05H120.79L119.23 46.99L117.69 51.05Z" fill="#053869"/>
<path d="M125.83 48.28L126.03 45.96H131.03V53.63H129.87V46.97H127.06L126.94 48.31C126.52 53.25 125.4 53.77 123.94 53.77V52.64C124.81 52.64 125.51 52.06 125.83 48.28Z" fill="#053869"/>
<path d="M134.01 48.92H136.09C136.412 48.899 136.735 48.9443 137.039 49.0531C137.343 49.162 137.622 49.332 137.857 49.5528C138.093 49.7735 138.281 50.0402 138.409 50.3365C138.537 50.6327 138.604 50.9521 138.604 51.275C138.604 51.5978 138.537 51.9172 138.409 52.2135C138.281 52.5097 138.093 52.7764 137.857 52.9972C137.622 53.2179 137.343 53.388 137.039 53.4968C136.735 53.6056 136.412 53.651 136.09 53.63H132.86V45.96H134.01V48.92ZM134.01 52.62H135.94C136.126 52.636 136.314 52.6132 136.491 52.5529C136.668 52.4926 136.831 52.3962 136.969 52.2697C137.107 52.1433 137.217 51.9896 137.292 51.8183C137.367 51.6471 137.406 51.462 137.406 51.275C137.406 51.0879 137.367 50.9029 137.292 50.7316C137.217 50.5604 137.107 50.4066 136.969 50.2802C136.831 50.1537 136.668 50.0573 136.491 49.997C136.314 49.9367 136.126 49.9139 135.94 49.93H134.01V52.62Z" fill="#053869"/>
<path d="M145.25 50.2H141.01V53.63H139.86V45.96H141.01V49.18H145.25V45.96H146.45V53.63H145.25V50.2Z" fill="#053869"/>
<path d="M151.76 45.83C152.556 45.8041 153.342 46.0165 154.017 46.44C154.691 46.8635 155.224 47.4788 155.547 48.207C155.87 48.9353 155.968 49.7433 155.828 50.5276C155.689 51.3119 155.319 52.0367 154.765 52.6092C154.211 53.1817 153.499 53.5758 152.719 53.7409C151.94 53.9061 151.129 53.8349 150.391 53.5363C149.652 53.2378 149.02 52.7255 148.574 52.0652C148.129 51.4049 147.89 50.6266 147.89 49.83C147.858 49.3074 147.935 48.7838 148.116 48.2926C148.298 47.8014 148.579 47.3534 148.943 46.9771C149.307 46.6008 149.746 46.3044 150.231 46.1069C150.716 45.9094 151.237 45.8151 151.76 45.83V45.83ZM151.76 46.83C151.385 46.8282 151.014 46.9051 150.671 47.0558C150.327 47.2064 150.019 47.4274 149.767 47.7045C149.514 47.9816 149.322 48.3086 149.204 48.6644C149.086 49.0202 149.044 49.3968 149.08 49.77C149.128 50.289 149.327 50.7828 149.65 51.1913C149.974 51.5998 150.41 51.9054 150.904 52.0708C151.399 52.2363 151.93 52.2546 152.435 52.1235C152.94 51.9924 153.395 51.7174 153.746 51.3322C154.097 50.9469 154.329 50.4679 154.413 49.9534C154.497 49.4389 154.43 48.9111 154.219 48.4342C154.009 47.9572 153.664 47.5517 153.228 47.2669C152.791 46.9821 152.281 46.8303 151.76 46.83V46.83Z" fill="#053869"/>
<path d="M156.96 49.26H159.72V50.16H156.96V49.26Z" fill="#053869"/>
<path d="M163.26 50.5L160.96 53.63H159.56L162.51 49.7L159.74 45.96H161.13L163.26 48.9L165.37 45.96H166.77L164.02 49.69L166.94 53.63H165.56L163.26 50.5Z" fill="#053869"/>
<path d="M169.28 45.96V51.88L173.45 45.96H174.63V53.63H173.45V47.63L169.21 53.63H168.09V45.96H169.28Z" fill="#053869"/>
<path d="M183.12 47.54L180.64 53.63H180.16L177.67 47.54V53.63H176.52V45.96H178.16L180.45 51.47L182.68 45.96H184.32V53.63H183.17L183.12 47.54Z" fill="#053869"/>
<path d="M187.31 45.96V51.88L191.45 45.96H192.64V53.63H191.49V47.63L187.24 53.63H186.13V45.96H187.31Z" fill="#053869"/>
<path d="M196.92 49.8C197.515 49.8095 198.107 49.7007 198.66 49.48V45.96H199.81V53.63H198.66V50.38C197.995 50.6451 197.286 50.7842 196.57 50.79C194.89 50.79 194.16 50.02 194.16 48.09V45.96H195.31V48.11C195.31 49.38 195.75 49.8 196.92 49.8Z" fill="#053869"/>
<path d="M201.68 45.96H206.84V46.96H202.84V49.21H206.77V50.21H202.84V52.6H206.84V53.6H201.68V45.96Z" fill="#053869"/>
<path d="M208.07 49.8C208.048 49.2747 208.134 48.7505 208.323 48.2599C208.512 47.7693 208.799 47.3226 209.168 46.9476C209.536 46.5726 209.977 46.2773 210.465 46.0799C210.952 45.8824 211.474 45.7872 212 45.8C212.597 45.789 213.187 45.9323 213.713 46.2161C214.238 46.4999 214.682 46.9146 215 47.42L214 47.94C213.774 47.5956 213.465 47.3135 213.102 47.1196C212.738 46.9256 212.332 46.826 211.92 46.83C211.236 46.9627 210.62 47.3292 210.177 47.8665C209.734 48.4038 209.492 49.0785 209.492 49.775C209.492 50.4714 209.734 51.1461 210.177 51.6834C210.62 52.2208 211.236 52.5872 211.92 52.72C212.333 52.7237 212.74 52.623 213.104 52.4272C213.468 52.2314 213.776 51.9468 214 51.6L215 52.12C214.681 52.6247 214.237 53.0388 213.712 53.3225C213.187 53.6062 212.597 53.75 212 53.74C211.48 53.7523 210.962 53.6588 210.479 53.4651C209.996 53.2713 209.558 52.9814 209.19 52.6129C208.822 52.2444 208.534 51.805 208.341 51.3215C208.149 50.8379 208.056 50.3203 208.07 49.8Z" fill="#053869"/>
<path d="M218.23 50.3L217.5 51.11V53.63H216.35V45.96H217.5V49.77L220.71 45.96H222.14L218.97 49.6L222.39 53.6H220.96L218.23 50.3Z" fill="#053869"/>
<path d="M228.86 52.05H225.09L224.45 53.63H223.19L226.19 45.96H227.63L230.63 53.63H229.45L228.86 52.05ZM225.43 51.05H228.52L226.97 46.99L225.43 51.05Z" fill="#053869"/>
<path d="M233.72 50.56C233.176 50.5018 232.676 50.2368 232.322 49.8198C231.968 49.4029 231.789 48.8658 231.82 48.32C231.808 47.999 231.864 47.6791 231.984 47.3813C232.104 47.0834 232.285 46.8142 232.517 46.5914C232.748 46.3686 233.024 46.1972 233.326 46.0884C233.628 45.9795 233.95 45.9358 234.27 45.96H237.5V53.63H236.35V50.63H234.91L233.08 53.63H231.75L233.72 50.56ZM236.35 46.97H234.45C234.264 46.9539 234.076 46.9767 233.899 47.037C233.722 47.0973 233.559 47.1937 233.421 47.3202C233.283 47.4466 233.173 47.6004 233.098 47.7716C233.023 47.9429 232.984 48.1279 232.984 48.315C232.984 48.502 233.023 48.6871 233.098 48.8583C233.173 49.0296 233.283 49.1833 233.421 49.3098C233.559 49.4362 233.722 49.5326 233.899 49.5929C234.076 49.6532 234.264 49.676 234.45 49.66H236.38L236.35 46.97Z" fill="#053869"/>
<path d="M78.4501 62.3L77.7201 63.11V65.63H76.6101V57.96H77.7601V61.77L80.9701 57.96H82.4501L79.2801 61.6L82.7001 65.6H81.2201L78.4501 62.3Z" fill="#053869"/>
<path d="M86.7699 57.83C87.5661 57.8041 88.3518 58.0165 89.0265 58.44C89.7012 58.8635 90.234 59.4788 90.5568 60.207C90.8796 60.9353 90.9776 61.7433 90.8383 62.5276C90.6989 63.3119 90.3286 64.0367 89.7747 64.6092C89.2208 65.1817 88.5086 65.5758 87.7294 65.7409C86.9501 65.9061 86.1393 65.8349 85.4008 65.5363C84.6622 65.2378 84.0297 64.7255 83.5841 64.0652C83.1386 63.4049 82.9004 62.6266 82.8999 61.83C82.8678 61.3074 82.9448 60.7838 83.1262 60.2926C83.3076 59.8014 83.5893 59.3534 83.9534 58.9771C84.3174 58.6008 84.7559 58.3044 85.2409 58.1069C85.7258 57.9094 86.2465 57.8151 86.7699 57.83V57.83ZM86.7699 58.83C86.0863 58.9627 85.4701 59.3292 85.0271 59.8665C84.584 60.4038 84.3418 61.0786 84.3418 61.775C84.3418 62.4714 84.584 63.1461 85.0271 63.6835C85.4701 64.2208 86.0863 64.5872 86.7699 64.72C87.4536 64.5872 88.0698 64.2208 88.5128 63.6835C88.9558 63.1461 89.1981 62.4714 89.1981 61.775C89.1981 61.0786 88.9558 60.4038 88.5128 59.8665C88.0698 59.3292 87.4536 58.9627 86.7699 58.83V58.83Z" fill="#053869"/>
<path d="M98.7299 59.54L96.2499 65.63H95.7699L93.2799 59.54V65.63H92.1299V57.96H93.7799L96.0099 63.47L98.2399 57.96H99.8899V65.63H98.7299V59.54Z" fill="#053869"/>
<path d="M107.16 58.97H102.91V65.63H101.76V57.96H108.31V65.63H107.16V58.97Z" fill="#053869"/>
<path d="M115.13 64.05H111.37L110.75 65.63H109.45L112.45 57.96H113.89L116.89 65.63H115.63L115.13 64.05ZM111.71 63.05H114.8L113.25 58.99L111.71 63.05Z" fill="#053869"/>
<path d="M123.6 62.2H119.35V65.63H118.2V57.96H119.35V61.18H123.6V57.96H124.75V65.63H123.6V62.2Z" fill="#053869"/>
<path d="M127.78 57.96V63.88L131.95 57.96H133.14V65.63H131.99V59.63L127.74 65.63H126.63V57.96H127.78Z" fill="#053869"/>
<path d="M136.58 62.56C136.036 62.5018 135.536 62.2368 135.182 61.8198C134.829 61.4029 134.649 60.8658 134.68 60.32C134.668 59.999 134.724 59.6791 134.844 59.3813C134.964 59.0834 135.145 58.8142 135.377 58.5914C135.608 58.3686 135.884 58.1972 136.186 58.0884C136.488 57.9795 136.81 57.9358 137.13 57.96H140.36V65.63H139.21V62.63H137.77L135.95 65.63H134.61L136.58 62.56ZM139.21 58.97H137.28C137.094 58.9539 136.906 58.9767 136.729 59.037C136.552 59.0973 136.389 59.1937 136.251 59.3202C136.114 59.4466 136.003 59.6004 135.928 59.7716C135.853 59.9429 135.814 60.1279 135.814 60.315C135.814 60.502 135.853 60.6871 135.928 60.8583C136.003 61.0296 136.114 61.1833 136.251 61.3098C136.389 61.4362 136.552 61.5326 136.729 61.5929C136.906 61.6532 137.094 61.676 137.28 61.66H139.21V58.97Z" fill="#053869"/>
</g>
<defs>
<clipPath id="clip0_51_166">
<rect width="239.59" height="65.77" fill="white"/>
</clipPath>
</defs>
</svg>
