<svg width="329" height="96" viewBox="0 0 329 96" fill="none" xmlns="http://www.w3.org/2000/svg">
<path d="M12.1802 95.954H15.5661V82.9465H12.1802V87.7573H3.32465V82.9465H0V95.9387H3.32465V89.9482H12.1802V95.954ZM30.167 95.954H33.4917V82.9465H29.784L21.3115 92.1391V82.9465H17.9409V95.9387H21.6945L30.167 86.6542V95.954ZM58.3883 95.954L51.4785 89.0596L57.6069 82.9312H53.4702L48.2917 88.0331V82.9465H44.9671V88.0331L39.8192 82.9465H35.6826L41.811 89.0749L34.8859 95.9387H39.0225L43.818 91.1279L44.9211 92.1851V95.9387H48.2458V92.1851L49.3489 91.1279L54.1903 95.9387L58.3883 95.954ZM71.9933 95.954H75.3179V82.9465H71.9933V87.7573H63.1378V82.9465H59.7671V95.9387H63.1378V89.9482H71.9933V95.954ZM77.754 95.954H92.3089V93.7478H81.0786V89.9482H91.313V87.7573H81.0786V85.0915H92.3089V82.9465H77.7846L77.754 95.954ZM109.928 95.954L103.034 89.0596L109.162 82.9312H105.025L98.1309 89.8257V82.9465H94.6377V95.9387H98.0236V94.0542L100.873 91.1892L105.684 96L109.928 95.954ZM121.388 90.0555H116.792L119.075 85.4592L121.388 90.0555ZM124.345 95.954H127.915L121.388 82.9619H116.792L110.28 95.954H113.85L115.704 92.2004H122.415L124.345 95.954ZM144.661 95.954H148.047V82.9465H143.619L138.67 92.7979L133.767 82.9465H129.294V95.9387H132.664V87.0832L137.092 95.9387H140.156L144.584 87.0832L144.661 95.954ZM155.171 95.954H165.022V93.7478H154.941C154.374 93.7478 153.792 93.7478 153.792 93.089V85.7962C153.792 85.0915 154.374 85.0915 154.941 85.0915H165.022V82.9465H155.171C152.796 82.9465 150.421 82.9465 150.421 85.6124V93.2729C150.421 95.9387 152.796 95.9387 155.171 95.9387M182.58 95.9387L175.686 89.0443L181.814 82.9159H177.677L170.783 89.8103V82.9465H167.458V95.9387H170.783V94.0542L173.633 91.1892L178.489 96L182.58 95.9387ZM196.185 95.9387H199.571V82.9465H196.185V87.7573H187.345V82.9465H183.959V95.9387H187.345V89.9482H196.185V95.9387ZM201.946 95.9387H216.516V93.7478H205.286V89.9482H215.551V87.7573H205.286V85.0915H216.516V82.9465H201.885L201.946 95.9387ZM233.492 91.6029C233.492 92.277 232.925 92.277 232.312 92.277H229.462V86.5623H232.22C232.833 86.5623 233.4 86.5623 233.4 87.2824L233.492 91.6029ZM226.214 92.277H223.334C222.721 92.277 222.139 92.277 222.139 91.6029V87.2824C222.139 86.5623 222.721 86.5623 223.334 86.5623H226.092L226.214 92.277ZM236.832 91.8021V87.0832C236.832 84.4173 234.503 84.4174 232.113 84.4174H229.462V82.8853H226.122V84.4174H223.548C221.174 84.4174 218.845 84.4173 218.845 87.0832V91.8021C218.845 94.4679 221.174 94.4679 223.548 94.4679H226.122V96H229.462V94.4679H232.021C234.411 94.4679 236.74 94.4679 236.74 91.8021M248.399 85.0915H255.11V82.9465H238.379V85.0915H245.09V95.9387H248.43L248.399 85.0915ZM256.718 95.9387H271.273V93.7478H260.104V89.9482H270.385V87.7573H260.104V85.0915H271.335V82.9465H256.78L256.718 95.9387ZM289.842 95.9387L283.392 89.458L289.873 82.9925H285.721L281.309 87.4203L276.957 82.9465H272.821L279.255 89.458L272.744 95.9847H276.957L281.385 91.5569L285.798 95.9847L289.842 95.9387ZM303.493 95.9387H306.818V82.9465H303.064L294.592 92.1391V82.9465H291.267V95.9387H295.021L303.493 86.6542V95.9387ZM328.007 95.9387V82.9465H323.579L318.63 92.7979L313.728 82.9465H309.315V95.9387H312.686V87.0832L317.114 95.9387H320.254L324.682 87.0832V95.9387H328.007Z" fill="#0069AA"/>
<path d="M146.145 40.0689C146.457 39.953 146.747 39.7875 147.006 39.5788C146.73 38.2288 146.525 36.8654 146.391 35.4943L144.219 36.7605C138.868 39.8194 134.331 44.112 130.987 49.2784C127.643 54.4448 125.59 60.3348 125 66.4548C130.613 69.0416 136.767 70.2434 142.944 69.9591C149.121 69.6747 155.139 67.9123 160.488 64.821C168.266 60.3725 174.217 53.3271 177.29 44.9295C176.194 44.1865 175.011 43.5827 173.765 43.1324C171.024 50.8125 165.597 57.2508 158.48 61.2675C154.112 63.8067 149.234 65.3506 144.197 65.7885C139.159 66.2263 134.087 65.5472 129.344 63.7999C130.25 58.8505 132.222 54.1556 135.122 50.0379C138.022 45.9203 141.783 42.4775 146.145 39.9464M135.327 60.3689C137.608 53.6789 142.255 48.0454 148.399 44.521C147.897 43.1956 147.513 41.8289 147.252 40.4366L146.637 40.845C142.503 43.2411 138.924 46.4811 136.134 50.3527C133.345 54.2242 131.408 58.6397 130.45 63.3097C134.935 64.8236 139.691 65.3698 144.403 64.912C149.116 64.4543 153.677 63.0031 157.784 60.6548C164.664 56.6818 169.938 50.4419 172.7 43.0098C171.576 42.5947 170.426 42.2535 169.258 41.9887H168.889V42.3562C166.382 48.58 161.87 53.7959 156.062 57.183C149.77 60.7225 142.408 61.8826 135.327 60.4506M152.128 31.4506C152.119 39.3636 154.905 47.0271 159.996 53.0985C160.897 52.1999 161.799 51.4647 162.537 50.5661L162.783 50.1985L162.537 49.9534C158.346 44.6907 156.064 38.1697 156.062 31.4506C156.048 24.2636 158.672 17.3195 163.438 11.9267C168.207 17.2304 170.873 24.0842 170.938 31.2056C172.208 31.4506 173.478 31.6957 175.036 32.1042V31.4506C175.024 26.6794 173.983 21.9665 171.982 17.6321C169.981 13.2978 167.067 9.44342 163.438 6.33097C159.879 9.4834 157.031 13.3522 155.081 17.6821C153.132 22.012 152.125 26.7047 152.128 31.4506ZM157.784 36.7605C157.969 37.9314 158.27 39.0807 158.685 40.1915V40.559H159.054C165.731 39.6247 172.532 40.9171 178.396 44.2351C184.683 47.863 189.398 53.6835 191.632 60.5731C184.631 62.0078 177.346 60.8459 171.142 57.3055C170.278 58.3316 169.347 59.3002 168.356 60.2055L169.011 60.5731C173.118 62.9761 177.695 64.4713 182.432 64.9576C187.17 65.4438 191.956 64.9097 196.468 63.3914C195.543 58.7093 193.628 54.277 190.851 50.3895C188.075 46.502 184.499 43.2484 180.363 40.845C173.576 36.8165 165.558 35.3661 157.784 36.7605ZM175.773 32.676C177.187 33.0411 178.559 33.5475 179.871 34.1872V31.4506C179.875 25.2814 178.387 19.202 175.534 13.7274C172.68 8.25276 168.545 3.54405 163.48 0C158.435 3.56569 154.317 8.27896 151.466 13.7487C148.615 19.2184 147.114 25.287 147.088 31.4506C147.025 40.4225 150.195 49.1188 156.021 55.9577C157.125 55.3307 158.18 54.6206 159.176 53.8337C153.252 46.8238 150.357 37.7592 151.125 28.6258C151.893 19.4923 156.262 11.0347 163.275 5.10563C167.154 8.32433 170.267 12.3603 172.393 16.9228C174.52 21.4854 175.603 26.461 175.569 31.4915L175.773 32.676ZM202 66.6591C201.546 61.3685 199.999 56.2289 197.454 51.5636C194.91 46.8983 191.425 42.8083 187.218 39.551C183.011 36.2937 178.173 33.9397 173.009 32.6371C167.844 31.3343 162.465 31.1112 157.21 31.9816C157.21 33.3703 157.21 34.6366 157.456 36.0661C165.494 34.6024 173.793 36.0511 180.855 40.1506C185.217 42.6818 188.977 46.1245 191.878 50.2421C194.778 54.3599 196.75 59.0548 197.656 64.0041C192.899 65.721 187.818 66.366 182.78 65.8928C177.742 65.4197 172.872 63.8401 168.52 61.2675C168.21 61.1215 167.909 60.9578 167.619 60.7773C166.635 61.6351 165.488 62.5337 164.463 63.3097C165.078 63.7999 165.856 64.2084 166.471 64.6985C171.828 67.7901 177.852 69.5525 184.036 69.8368C190.219 70.1212 196.38 68.9192 202 66.3323" fill="#0069AA"/>
</svg>
