<svg width="384" height="60" viewBox="0 0 384 60" fill="none" xmlns="http://www.w3.org/2000/svg">
<path fill-rule="evenodd" clip-rule="evenodd" d="M0 38.4192C0 38.4192 11.5924 38.5302 16.8449 39.4699C33.5698 42.4325 34.2115 57.891 34.2115 57.891C34.2115 57.891 31.4868 58.0427 24.3005 58.0427C7.54161 58.0427 0 38.4192 0 38.4192Z" fill="#2DAA55"/>
<path fill-rule="evenodd" clip-rule="evenodd" d="M70.728 38.4192C70.728 38.4192 59.1369 38.5302 53.8809 39.4699C37.1628 42.4325 36.5225 57.891 36.5225 57.891C36.5225 57.891 39.2437 58.0427 46.4301 58.0427C63.1922 58.0427 70.728 38.4192 70.728 38.4192Z" fill="#2DAA55"/>
<path fill-rule="evenodd" clip-rule="evenodd" d="M41.611 36.6238C41.611 39.978 38.8143 42.6974 35.3643 42.6974C31.9131 42.6974 29.1162 39.978 29.1162 36.6238C29.1162 33.2693 31.9131 30.5502 35.3643 30.5502C38.8143 30.5502 41.611 33.2693 41.611 36.6238Z" fill="#004A86"/>
<path fill-rule="evenodd" clip-rule="evenodd" d="M54.3805 30.6453C54.3805 33.9995 51.5838 36.7189 48.1338 36.7189C44.6827 36.7189 41.8857 33.9995 41.8857 30.6453C41.8857 27.2908 44.6827 24.5717 48.1338 24.5717C51.5838 24.5717 54.3805 27.2908 54.3805 30.6453Z" fill="#004A86"/>
<path fill-rule="evenodd" clip-rule="evenodd" d="M48.6971 6.4381C48.6971 9.79242 45.9002 12.5117 42.4502 12.5117C38.9991 12.5117 36.2021 9.79242 36.2021 6.4381C36.2021 3.08375 38.9991 0.364502 42.4502 0.364502C45.9002 0.364502 48.6971 3.08375 48.6971 6.4381Z" fill="#004A86"/>
<path fill-rule="evenodd" clip-rule="evenodd" d="M34.5246 6.4381C34.5246 9.79242 31.7277 12.5117 28.2777 12.5117C24.8266 12.5117 22.0298 9.79242 22.0298 6.4381C22.0298 3.08375 24.8266 0.364502 28.2777 0.364502C31.7277 0.364502 34.5246 3.08375 34.5246 6.4381Z" fill="#004A86"/>
<path fill-rule="evenodd" clip-rule="evenodd" d="M28.8424 30.6453C28.8424 33.9995 26.0457 36.7189 22.5957 36.7189C19.1445 36.7189 16.3477 33.9995 16.3477 30.6453C16.3477 27.2908 19.1445 24.5717 22.5957 24.5717C26.0457 24.5717 28.8424 27.2908 28.8424 30.6453Z" fill="#004A86"/>
<path fill-rule="evenodd" clip-rule="evenodd" d="M57.5336 17.212C57.5336 20.5663 54.7367 23.2855 51.2867 23.2855C47.8355 23.2855 45.0386 20.5663 45.0386 17.212C45.0386 13.8577 47.8355 11.1384 51.2867 11.1384C54.7367 11.1384 57.5336 13.8577 57.5336 17.212Z" fill="#004A86"/>
<path fill-rule="evenodd" clip-rule="evenodd" d="M25.6882 17.212C25.6882 20.5663 22.8914 23.2855 19.4414 23.2855C15.9902 23.2855 13.1934 20.5663 13.1934 17.212C13.1934 13.8577 15.9902 11.1384 19.4414 11.1384C22.8914 11.1384 25.6882 13.8577 25.6882 17.212Z" fill="#004A86"/>
<path fill-rule="evenodd" clip-rule="evenodd" d="M101.863 52.6539C95.0835 52.7095 83.2222 50.7861 83.2222 37.2759C83.2222 23.9299 95.0835 21.677 101.863 21.8966V17.6672H112.934V21.8966C119.713 21.677 131.576 23.9299 131.576 37.2759C131.576 50.7861 119.713 52.7095 112.934 52.6539V58.0359H101.863V52.6539ZM102.654 29.5858C99.8865 29.5313 94.2929 30.4652 94.2929 37.2759C94.2929 44.0852 99.8865 45.0192 102.654 44.9649V29.5858ZM112.145 44.9649C114.913 45.0192 120.504 44.0852 120.504 37.2759C120.504 30.4652 114.913 29.5313 112.145 29.5858V44.9649ZM135.684 38.8122C135.684 28.542 142.462 18.4913 156.923 18.4913C171.385 18.4913 178.162 28.542 178.162 38.8122C178.162 49.0846 171.385 59.1351 156.923 59.1351C142.462 59.1351 135.684 49.0846 135.684 38.8122ZM166.751 38.8122C166.751 31.3992 162.063 27.7188 156.923 27.7188C151.782 27.7188 147.094 31.3992 147.094 38.8122C147.094 46.2272 151.782 49.9064 156.923 49.9064C162.063 49.9064 166.751 46.2272 166.751 38.8122ZM213.141 56.2789C209.581 58.6403 205.853 59.1351 202.465 59.1351C190.714 59.1351 182.24 51.1154 182.24 38.8122C182.24 25.9608 191.562 18.4913 202.295 18.4913C205.797 18.4913 209.807 19.371 213.141 21.5672V32.7159C211.108 30.4098 207.999 28.1038 203.764 28.1038C197.662 28.1038 193.652 32.8258 193.652 39.1415C193.652 44.9649 197.436 49.5226 203.764 49.5226C207.886 49.5226 211.108 47.3808 213.141 45.3487V56.2789ZM230.071 19.5906H243.515L257.582 58.0359H245.719L243.515 51.3907H230.071L227.868 58.0359H216.005L230.071 19.5906ZM232.276 42.9316H241.311L236.792 28.7615L232.276 42.9316ZM261.439 19.5906H285.164V28.8171H272.511V58.0359H261.439V19.5906ZM289.53 19.5906H306.194C317.435 19.5906 320.599 27.1698 320.599 32.442C320.599 37.7695 317.379 45.3487 306.194 45.3487H300.602V58.0359H289.53V19.5906ZM300.602 36.891H303.764C308.682 36.891 309.189 34.0902 309.189 32.442C309.189 30.5197 308.511 28.0495 303.764 28.0495H300.602V36.891ZM324.332 38.8122C324.332 28.542 331.112 18.4913 345.572 18.4913C360.032 18.4913 366.812 28.542 366.812 38.8122C366.812 49.0846 360.032 59.1351 345.572 59.1351C331.112 59.1351 324.332 49.0846 324.332 38.8122ZM355.401 38.8122C355.401 31.3992 350.712 27.7188 345.572 27.7188C340.431 27.7188 335.742 31.3992 335.742 38.8122C335.742 46.2272 340.431 49.9064 345.572 49.9064C350.712 49.9064 355.401 46.2272 355.401 38.8122ZM381.339 23.769C381.339 27.2345 378.688 29.8461 375.088 29.8461C371.49 29.8461 368.839 27.2345 368.839 23.769C368.839 20.2868 371.49 17.6581 375.088 17.6581C378.688 17.6581 381.339 20.2868 381.339 23.769ZM369.87 23.769C369.87 26.6988 372.023 28.9426 375.088 28.9426C378.152 28.9426 380.305 26.6988 380.305 23.769C380.305 20.8223 378.152 18.5627 375.088 18.5627C372.023 18.5627 369.87 20.8223 369.87 23.769ZM374.806 20.2212C375.598 20.2212 377.389 20.3536 377.389 22.3461C377.389 23.4171 376.733 24.1041 375.805 24.2875L378.212 27.2513H376.664L374.529 24.4733H374.185V27.2513H372.946V20.2212H374.806ZM374.185 23.3672H374.649C375.166 23.3672 376.147 23.3174 376.147 22.3461C376.147 21.3249 375.15 21.3249 374.684 21.3249H374.185V23.3672Z" fill="#004A86"/>
</svg>
