<svg width="399" height="60" viewBox="0 0 399 60" fill="none" xmlns="http://www.w3.org/2000/svg">
<g clip-path="url(#clip0_49_124)">
<path d="M391.589 22.5247H392.033C392.53 22.5247 393.461 22.5247 393.461 21.5278C393.461 20.5308 392.508 20.5308 392.067 20.5308H391.589V22.5247ZM392.177 19.4453C392.94 19.4453 394.635 19.5782 394.635 21.5278C394.661 21.975 394.519 22.4158 394.239 22.7655C393.958 23.1151 393.559 23.3489 393.118 23.4219L395.41 26.3241H393.936L391.911 23.6102H391.579V26.3241H390.406V19.4453H392.177ZM387.492 22.9124C387.492 24.2345 388.018 25.5021 388.951 26.4369C389.887 27.3717 391.155 27.8971 392.475 27.8971C393.797 27.8971 395.064 27.3717 396 26.4369C396.934 25.5021 397.459 24.2345 397.459 22.9124C397.459 21.5904 396.934 20.3225 396 19.3877C395.064 18.4529 393.797 17.9277 392.475 17.9277C391.155 17.9277 389.887 18.4529 388.951 19.3877C388.018 20.3225 387.492 21.5904 387.492 22.9124ZM398.4 22.9124C398.4 24.4901 397.774 26.003 396.658 27.1185C395.544 28.2341 394.03 28.8607 392.453 28.8607C390.876 28.8607 389.364 28.2341 388.248 27.1185C387.132 26.003 386.506 24.4901 386.506 22.9124C386.506 21.3348 387.132 19.8218 388.248 18.7063C389.364 17.5907 390.876 16.9641 392.453 16.9641C394.03 16.9641 395.544 17.5907 396.658 18.7063C397.774 19.8218 398.4 21.3348 398.4 22.9124ZM372.898 37.6781C372.898 30.4226 368.467 26.8226 363.55 26.8226C358.635 26.8226 354.204 30.4226 354.204 37.6781C354.204 44.9335 358.635 48.5335 363.55 48.5335C368.467 48.5335 372.898 44.9335 372.898 37.6781ZM343.351 37.6781C343.351 27.6312 349.798 17.7948 363.55 17.7948C377.304 17.7948 383.748 27.6312 383.748 37.7333C383.748 47.8356 377.304 57.6165 363.55 57.6165C349.798 57.6165 343.351 47.6472 343.351 37.6781ZM323.652 35.7948C327.418 35.7948 328.601 33.6461 328.601 31.4417C328.601 29.2373 327.418 27.1437 323.652 27.1437H321.139V35.7948H323.652ZM310.553 18.8471H326.122C338.7 18.8471 339.132 28.4177 339.132 30.1346C339.132 37.2348 334.781 40.1813 331.227 41.4221L341.758 56.4645H329.033L321.139 44.0361V56.4425H310.608L310.553 18.8471ZM304.848 34.6541C305.602 43.5156 303.077 57.539 286.157 57.539C274.707 57.539 265.471 50.616 265.471 37.9217C265.471 25.6262 273.367 17.7727 285.403 17.7727C297.163 17.7727 301.515 24.4188 302.856 26.9112L293.566 31.2643C292.798 29.8589 291.651 28.698 290.254 27.9144C288.857 27.1308 287.268 26.7561 285.67 26.8337C280.731 26.8337 276.003 30.3341 276.003 37.7445C276.003 45.155 280.675 49.2977 286.047 49.2977C287.967 49.4025 289.863 48.8237 291.396 47.664C292.93 46.5041 294.005 44.8382 294.427 42.9617H284.65V34.6317L304.848 34.6541ZM240.821 41.6657H249.413L245.117 27.7973L240.821 41.6657ZM238.717 18.8471H251.506L264.883 56.5087H253.589L251.496 50.0066H238.717L236.624 56.5087H225.34L238.717 18.8471ZM218.629 29.3813C216.857 27.7752 214.498 26.0582 211.807 26.0582C208.64 26.0582 207.887 27.9413 207.887 29.2817C207.887 31.4971 210.467 32.1837 212.317 32.6047C217.854 33.9007 224.022 36.3156 224.022 45.1771C224.022 52.6541 218.706 57.539 209.892 57.539C205.063 57.539 201.243 55.9327 195.817 51.5241L200.811 43.5156C203.768 46.3622 207.046 48.5112 210.168 48.5112C212.095 48.5112 213.867 47.603 213.867 45.3432C213.867 41.8982 210.645 41.4773 206.669 40.2367C203.668 39.3285 197.699 37.2348 197.699 29.1597C197.699 23.0896 202.129 17.817 210.922 17.817C215.029 17.8244 219.03 19.1224 222.361 21.5278L218.629 29.3813ZM182.617 37.6781C182.617 30.4226 178.187 26.8226 173.271 26.8226C168.354 26.8226 163.891 30.3782 163.891 37.6781C163.891 44.9777 168.321 48.5335 173.237 48.5335C178.154 48.5335 182.584 44.9335 182.584 37.6781H182.617ZM153.039 37.6781C153.039 27.6312 159.484 17.7948 173.237 17.7948C186.991 17.7948 193.436 27.6312 193.436 37.7333C193.436 47.8356 186.991 57.6165 173.237 57.6165C159.484 57.6165 153.072 47.6472 153.072 37.6781H153.039ZM113.395 18.8471H123.926V32.3721H136.716V18.8471H147.281V56.5087H136.75V41.3997H123.926V56.4425H113.395V18.8471ZM89.6973 35.7506H92.6872C97.3603 35.7506 97.8475 33.0146 97.8475 31.3973C97.8475 29.5253 97.2052 27.0996 92.6872 27.0996H89.6973V35.7506ZM79.144 18.8471H95.0016C105.688 18.8471 108.7 26.2687 108.7 31.4196C108.7 36.5702 105.632 44.0361 95.0016 44.0361H89.6973V56.4425H79.144V18.8471Z" fill="#00529B"/>
<path d="M0 37.2468C0 37.2468 11.0737 37.3577 16.0237 38.2771C31.9255 41.1792 32.5346 56.3103 32.5346 56.3103C32.5346 56.3103 29.8992 56.5097 23.1109 56.5097C7.17579 56.5097 0 37.2468 0 37.2468Z" fill="#2FB457"/>
<path d="M67.2629 37.2468C67.2629 37.2468 56.189 37.3577 51.2393 38.2771C35.3484 41.1792 34.7393 56.3103 34.7393 56.3103C34.7393 56.3103 37.3195 56.4543 44.1631 56.4543C60.0981 56.4543 67.2629 37.2468 67.2629 37.2468Z" fill="#2FB457"/>
<path d="M39.5778 35.4632C39.5778 36.6397 39.2289 37.7897 38.5756 38.768C37.9221 39.7462 36.9935 40.5085 35.9068 40.9587C34.8203 41.4089 33.6246 41.5268 32.4709 41.2973C31.3175 41.0677 30.2579 40.5013 29.4263 39.6694C28.5947 38.8373 28.0283 37.7775 27.7989 36.6236C27.5694 35.4699 27.687 34.2737 28.1373 33.187C28.5873 32.1001 29.3495 31.171 30.3273 30.5173C31.3053 29.8637 32.4551 29.515 33.6311 29.515C35.2081 29.515 36.7209 30.1417 37.8359 31.2572C38.9512 32.3727 39.5778 33.8857 39.5778 35.4632Z" fill="#00529B"/>
<path d="M51.7135 29.6484C51.7135 30.8253 51.3646 31.9756 50.7106 32.9541C50.0566 33.9326 49.1273 34.6951 48.0401 35.1448C46.9529 35.5948 45.7565 35.712 44.6028 35.4816C43.4489 35.2512 42.3893 34.6836 41.5582 33.8505C40.7268 33.0175 40.1614 31.9564 39.9331 30.802C39.7051 29.6474 39.8244 28.451 40.2761 27.3643C40.728 26.2776 41.4919 25.3492 42.4711 24.6972C43.4506 24.0448 44.6014 23.6978 45.7781 23.7C46.5583 23.7 47.3311 23.8539 48.0521 24.1531C48.7728 24.4521 49.4278 24.8904 49.979 25.4428C50.5303 25.9953 50.9674 26.6512 51.265 27.3729C51.5626 28.0944 51.715 28.8676 51.7135 29.6484Z" fill="#00529B"/>
<path d="M46.3086 5.95369C46.311 7.13108 45.9638 8.28268 45.3112 9.26255C44.6586 10.2424 43.7301 11.0066 42.6429 11.4582C41.5559 11.9097 40.3593 12.0285 39.2046 11.7993C38.0502 11.5701 36.9897 11.0034 36.1574 10.1709C35.325 9.33829 34.7584 8.2774 34.5292 7.12249C34.3002 5.96761 34.4188 4.77068 34.8702 3.68332C35.3217 2.59595 36.0856 1.66705 37.0653 1.01429C38.045 0.361519 39.1962 0.0142382 40.3732 0.0164288C41.9474 0.0164288 43.4572 0.641959 44.5703 1.75541C45.6834 2.86885 46.3086 4.37903 46.3086 5.95369Z" fill="#00529B"/>
<path d="M32.8321 5.95369C32.8343 7.13108 32.4873 8.28268 31.8347 9.26255C31.1819 10.2424 30.2533 11.0066 29.1664 11.4582C28.0792 11.9097 26.8828 12.0285 25.7281 11.7993C24.5735 11.5701 23.513 11.0034 22.6807 10.1709C21.8484 9.33829 21.2818 8.2774 21.0527 7.12249C20.8236 5.96761 20.9423 4.77068 21.3937 3.68332C21.8452 2.59595 22.6091 1.66705 23.5887 1.01429C24.5682 0.361519 25.7195 0.0142382 26.8967 0.0164288C28.4709 0.0164288 29.9805 0.641959 31.0936 1.75541C32.2067 2.86885 32.8321 4.37903 32.8321 5.95369Z" fill="#00529B"/>
<path d="M27.4277 29.6484C27.4277 30.8253 27.0785 31.9756 26.4248 32.9541C25.7708 33.9326 24.8415 34.6951 23.7541 35.1448C22.6669 35.5948 21.4706 35.712 20.3168 35.4816C19.163 35.2512 18.1034 34.6836 17.2722 33.8505C16.441 33.0175 15.8755 31.9564 15.6474 30.802C15.4191 29.6474 15.5385 28.451 15.9903 27.3643C16.442 26.2776 17.206 25.3492 18.1853 24.6972C19.1647 24.0448 20.3155 23.6978 21.4921 23.7C22.2725 23.7 23.0452 23.8539 23.7661 24.1531C24.487 24.4521 25.1417 24.8904 25.693 25.4428C26.2443 25.9953 26.6813 26.6512 26.9789 27.3729C27.2765 28.0944 27.4292 28.8676 27.4277 29.6484Z" fill="#00529B"/>
<path d="M54.7135 16.4982C54.7157 17.6756 54.3684 18.8272 53.7158 19.8071C53.0633 20.787 52.1347 21.5511 51.0478 22.0027C49.9606 22.4543 48.7642 22.573 47.6095 22.3438C46.4549 22.1147 45.3943 21.5479 44.562 20.7154C43.7297 19.8828 43.163 18.8219 42.9341 17.667C42.7049 16.5121 42.8237 15.3152 43.2751 14.2278C43.7266 13.1404 44.4905 12.2116 45.4702 11.5588C46.4496 10.906 47.6009 10.5587 48.7781 10.5609C50.3513 10.5639 51.8592 11.1903 52.9718 12.3032C54.0842 13.416 54.7106 14.9244 54.7135 16.4982Z" fill="#00529B"/>
<path d="M24.4277 16.4982C24.4299 17.6756 24.0826 18.8272 23.4301 19.8071C22.7775 20.787 21.8489 21.5511 20.7618 22.0027C19.6748 22.4543 18.4782 22.573 17.3236 22.3438C16.1691 22.1147 15.1085 21.5479 14.2761 20.7154C13.4438 19.8828 12.8773 18.8219 12.6482 17.667C12.419 16.5121 12.5378 15.3152 12.9892 14.2278C13.4407 13.1404 14.2046 12.2116 15.1842 11.5588C16.1638 10.906 17.315 10.5587 18.4921 10.5609C20.0654 10.5639 21.5734 11.1903 22.6859 12.3032C23.7984 13.416 24.4246 14.9244 24.4277 16.4982Z" fill="#00529B"/>
</g>
<defs>
<clipPath id="clip0_49_124">
<rect width="398.4" height="60" fill="white"/>
</clipPath>
</defs>
</svg>
