<svg width="308" height="58" viewBox="0 0 308 58" fill="none" xmlns="http://www.w3.org/2000/svg">
<path d="M57.9325 25.1459C57.9325 25.1459 59.3694 8.85281 59.5155 7.2576C59.5581 6.33014 59.4135 5.4036 59.0903 4.53321C58.7672 3.66283 58.2721 2.86641 57.6347 2.19142C56.9972 1.51643 56.2303 0.976701 55.3798 0.60439C54.5293 0.232079 53.6125 0.0348113 52.6841 0.0243452H11.5618C9.66591 -0.107059 7.79452 0.512909 6.35212 1.75023C4.90972 2.98754 4.0122 4.74281 3.85359 6.63656C3.67093 8.54838 0.261316 47.9416 0.0543033 50.2066C-0.0671731 51.1711 0.0156927 52.1505 0.297516 53.0809C0.579339 54.0113 1.05381 54.8721 1.69009 55.6071C2.32637 56.3422 3.1102 56.9351 3.99065 57.3473C4.8711 57.7596 5.82845 57.982 6.80047 58H47.6793C53.1103 58 55.217 55.1261 55.6797 50.6936C55.9598 48.039 57.2993 32.0017 57.2993 32.0017H32.5796L31.5202 44.398H25.2611L27.9523 13.6263H34.2113L33.2128 25.1459H57.9325Z" fill="#4F8586"/>
<path d="M96.0711 4.98047C95.1943 7.51333 87.9976 30.029 87.9976 30.029L91.2002 0H66.4927L61.3174 58H79.9363C84.6124 58 86.2076 55.3453 86.9869 53.2143C87.9245 50.6815 94.7803 31.7338 94.7803 31.7338L92.2596 58H116.979L122.069 0.0243549H102.671C101.18 0.01353 99.7266 0.492616 98.5343 1.388C97.3419 2.28338 96.4765 3.54551 96.0711 4.98047Z" fill="#4F8586"/>
<path d="M221.277 0.024353L218.964 26.461H212.693L215.006 0.024353H190.299C190.299 0.024353 187.924 28.0319 187.668 30.723C187.376 33.95 189.203 38.5165 194.67 38.5165H217.917L217.405 44.398H186.475L185.257 58H234.441C237.778 58 240.992 55.8202 241.431 51.1686C241.711 48.1851 245.961 0.024353 245.961 0.024353H221.277Z" fill="#4F8586"/>
<path d="M285.768 0.0365601H252.207L247.142 58H271.849L273.42 40.063H297.433C301.683 40.063 304.496 37.8955 304.959 32.9272C305.129 30.991 307.09 9.02333 307.212 7.08715C307.516 2.80078 304.106 0.0365601 299.905 0.0365601H285.768ZM274.479 28.0441L275.697 13.6628H281.895L280.678 28.0441H274.479Z" fill="#4F8586"/>
<path d="M151.38 19.4957L151.904 13.6263H182.858L184.076 0.024353H128.366L123.3 57.9878H172.617C175.759 57.9878 179.157 56.1369 179.595 51.2903C179.924 47.6372 181.446 30.4186 181.726 27.2891C182.091 23.1123 179.437 19.4957 174.237 19.4957H151.38ZM155.375 45.9324H149.067L150.284 31.5633H156.58L155.375 45.9324Z" fill="#4F8586"/>
</svg>
