<?xml version="1.0" standalone="no"?>
<!DOCTYPE svg PUBLIC "-//W3C//DTD SVG 20010904//EN"
 "http://www.w3.org/TR/2001/REC-SVG-20010904/DTD/svg10.dtd">
<svg version="1.0" xmlns="http://www.w3.org/2000/svg"
 width="300.000000pt" height="300.000000pt" viewBox="0 0 300.000000 300.000000"
 preserveAspectRatio="xMidYMid meet">
<metadata>
Created by potrace 1.14, written by Peter Selinger 2001-2017
</metadata>
<g transform="translate(0.000000,300.000000) scale(0.100000,-0.100000)"
fill="#000000" stroke="none">
<path d="M1270 2570 c-455 -97 -795 -430 -876 -856 -22 -122 -15 -336 16 -449
26 -96 92 -240 150 -324 281 -415 840 -591 1328 -419 110 38 167 67 267 133
281 186 465 508 465 814 0 95 -7 111 -50 111 -44 0 -56 -26 -69 -145 -53 -474
-445 -833 -941 -862 -291 -16 -560 83 -773 286 -137 131 -231 298 -268 476
-117 565 306 1095 911 1140 121 9 152 34 120 96 -9 17 -22 19 -103 18 -51 0
-130 -9 -177 -19z"/>
<path d="M1147 2000 c-59 -47 -40 -140 34 -160 110 -30 186 75 110 151 -37 37
-104 41 -144 9z"/>
<path d="M1658 1922 l-188 -67 0 -72 c0 -40 4 -73 8 -73 4 0 55 16 112 35 57
19 105 35 107 35 1 0 4 -170 5 -377 l3 -378 93 -3 92 -3 0 486 0 485 -22 -1
c-13 0 -107 -31 -210 -67z"/>
<path d="M1122 1383 l3 -358 93 -3 92 -3 0 361 0 360 -95 0 -95 0 2 -357z"/>
</g>
</svg>
