<svg width="18" height="22" viewBox="0 0 18 22" fill="none" xmlns="http://www.w3.org/2000/svg">
<g clip-path="url(#clip0_315_33)">
<path fill-rule="evenodd" clip-rule="evenodd" d="M1.35276 0.0485006C0.847563 0.172898 0.380803 0.560838 0.13956 1.05665L0 1.34355V11.0119V20.6803L0.127216 20.9403C0.327313 21.3491 0.554802 21.5907 0.939889 21.8032L1.2964 22H8.99024H16.6841L17.0392 21.8039C17.4337 21.5862 17.6036 21.4075 17.8286 20.9733L17.9805 20.6803L17.9964 13.9956C18.0052 10.3191 17.9973 7.24641 17.9789 7.16752C17.9415 7.00709 11.316 0.213121 11.0645 0.0773048C10.9356 0.00776143 10.1913 -0.003944 6.21708 0.000990596C3.63471 0.0042612 1.44577 0.0256064 1.35276 0.0485006ZM13.6967 4.41332L15.9508 6.70849H13.8471H11.7435L11.5787 6.54077L11.4139 6.37305V4.2456C11.4139 3.07553 11.4204 2.11816 11.4283 2.11816C11.4362 2.11816 12.457 3.15099 13.6967 4.41332Z" fill="white"/>
</g>
<defs>
<clipPath id="clip0_315_33">
<rect width="18" height="22" fill="white"/>
</clipPath>
</defs>
</svg>
