<?xml version="1.0" standalone="no"?>
<!DOCTYPE svg PUBLIC "-//W3C//DTD SVG 20010904//EN"
 "http://www.w3.org/TR/2001/REC-SVG-20010904/DTD/svg10.dtd">
<svg version="1.0" xmlns="http://www.w3.org/2000/svg"
 width="896.000000pt" height="896.000000pt" viewBox="0 0 896.000000 896.000000"
 preserveAspectRatio="xMidYMid meet">
<metadata>
Created by potrace 1.14, written by Peter Selinger 2001-2017
</metadata>
<g transform="translate(0.000000,896.000000) scale(0.100000,-0.100000)"
fill="#000000" stroke="none">
<path d="M4198 8835 c-2 -2 -41 -6 -88 -10 -47 -3 -98 -8 -115 -10 -16 -2 -52
-6 -80 -9 -27 -3 -61 -8 -75 -10 -14 -3 -45 -7 -70 -10 -25 -3 -70 -10 -100
-16 -30 -6 -68 -13 -85 -16 -198 -35 -624 -157 -772 -221 -21 -9 -42 -18 -48
-19 -16 -4 -172 -70 -197 -84 -10 -6 -25 -10 -33 -10 -8 0 -15 -3 -15 -7 0 -5
-27 -19 -60 -33 -33 -14 -60 -28 -60 -31 0 -3 -6 -6 -12 -6 -7 0 -46 -19 -87
-42 -41 -22 -78 -41 -82 -41 -5 0 -9 -5 -9 -10 0 -6 -3 -9 -7 -8 -5 1 -19 -5
-33 -13 -14 -9 -79 -49 -145 -90 -66 -40 -122 -75 -125 -79 -3 -3 -18 -14 -35
-24 -46 -29 -285 -209 -328 -247 -124 -110 -167 -150 -322 -304 -182 -182
-215 -219 -337 -378 -43 -56 -82 -107 -88 -113 -17 -22 -160 -236 -160 -240 0
-3 -16 -28 -35 -57 -19 -28 -35 -57 -35 -64 0 -7 -3 -13 -7 -13 -5 0 -13 -10
-19 -23 -6 -12 -48 -93 -92 -179 -45 -87 -79 -158 -76 -158 2 0 -2 -10 -10
-22 -42 -66 -216 -555 -216 -608 0 -9 -3 -20 -7 -24 -4 -4 -9 -19 -11 -34 -2
-15 -9 -49 -17 -77 -8 -27 -16 -66 -19 -86 -3 -20 -8 -42 -10 -50 -3 -8 -7
-30 -10 -49 -3 -19 -10 -62 -16 -95 -6 -33 -13 -82 -16 -110 -3 -27 -7 -60 -9
-73 -29 -172 -26 -720 3 -934 5 -31 7 -63 6 -72 -1 -9 1 -16 4 -16 4 0 8 -19
10 -43 1 -23 6 -62 12 -87 5 -25 12 -61 15 -80 4 -19 8 -44 10 -55 2 -11 4
-20 5 -20 1 0 3 -11 5 -25 15 -99 152 -543 190 -616 8 -16 15 -32 15 -35 0 -4
8 -24 17 -45 9 -22 17 -41 18 -44 10 -44 244 -493 266 -510 3 -3 12 -16 19
-30 11 -21 73 -116 160 -244 19 -28 73 -99 80 -106 3 -3 16 -18 28 -35 152
-202 430 -486 687 -700 33 -28 61 -53 63 -57 2 -5 8 -8 14 -8 6 0 25 -12 44
-27 90 -75 287 -206 453 -302 117 -68 220 -124 231 -126 3 0 16 -7 30 -15 14
-8 27 -15 30 -15 3 -1 43 -20 90 -42 318 -153 782 -299 1135 -357 17 -3 39 -7
50 -9 11 -3 47 -8 80 -12 32 -3 62 -8 65 -10 3 -1 37 -6 75 -9 39 -4 88 -9
110 -12 126 -16 625 -26 663 -12 13 4 22 4 22 -3 0 -6 5 -7 11 -3 6 3 39 8 73
10 69 3 173 12 226 19 19 3 55 7 80 9 25 3 55 7 66 10 12 2 38 7 58 10 20 3
52 9 72 12 20 3 44 7 53 9 9 2 52 11 96 20 44 9 87 19 95 22 8 3 24 7 36 8 11
2 40 9 65 16 24 6 51 13 59 14 8 1 22 5 30 8 18 7 223 71 230 72 3 0 30 9 60
20 30 11 57 20 60 20 3 1 16 6 30 12 14 6 72 30 130 53 58 23 161 69 230 102
69 32 127 58 129 58 2 -1 7 2 10 7 3 4 40 26 81 47 41 22 116 64 165 94 50 30
100 60 112 66 13 6 23 14 23 19 0 4 6 7 13 7 7 0 22 8 33 17 11 10 53 40 94
68 41 27 77 52 80 55 3 3 23 18 45 35 22 16 42 31 45 35 3 3 23 18 45 34 22
16 47 37 56 45 9 9 35 32 59 51 73 60 333 312 420 407 72 79 120 134 120 139
0 2 8 12 18 22 18 20 34 40 70 87 12 17 29 39 38 50 8 11 33 45 55 75 21 30
42 60 47 65 26 36 127 193 148 230 6 11 41 73 77 139 37 65 67 125 67 132 0 8
4 14 9 14 8 0 24 37 22 53 -1 4 3 7 9 7 5 0 10 5 10 11 0 6 14 40 30 76 17 35
30 66 30 67 0 2 8 21 17 42 9 22 17 41 18 44 1 3 7 19 14 35 7 17 14 35 15 40
2 6 8 21 13 35 19 45 94 277 99 306 3 15 7 31 10 36 3 4 7 16 9 25 2 10 12 56
23 103 44 187 59 260 67 340 2 14 4 25 5 25 5 0 9 110 14 385 l6 305 -52 36
c-71 48 -111 63 -165 60 -73 -2 -142 -44 -187 -113 -23 -35 -26 -55 -31 -183
-5 -146 -17 -294 -30 -375 -2 -14 -7 -44 -10 -67 -14 -101 -21 -140 -31 -183
-3 -14 -8 -38 -11 -55 -5 -33 -44 -190 -66 -270 -8 -27 -29 -90 -47 -140 -17
-49 -37 -106 -43 -125 -6 -19 -16 -38 -22 -42 -5 -4 -6 -8 -2 -8 4 0 2 -10 -5
-22 -6 -13 -13 -28 -14 -33 -1 -6 -25 -59 -53 -118 -28 -60 -51 -110 -51 -112
0 -2 -16 -31 -34 -64 -19 -34 -33 -61 -30 -61 4 0 -11 -26 -54 -95 -7 -11 -15
-28 -18 -37 -4 -10 -10 -18 -15 -18 -5 0 -9 -5 -9 -10 0 -6 -28 -52 -62 -103
-35 -51 -66 -100 -70 -109 -4 -10 -12 -18 -18 -18 -5 0 -10 -5 -10 -10 0 -15
-93 -134 -219 -279 -90 -105 -334 -346 -426 -421 -37 -30 -79 -65 -94 -78 -44
-38 -48 -41 -174 -131 -67 -48 -140 -98 -162 -111 -22 -13 -46 -30 -53 -37 -7
-7 -18 -13 -24 -13 -5 0 -22 -8 -36 -19 -97 -68 -581 -301 -627 -301 -7 0 -15
-3 -17 -7 -5 -12 -388 -138 -452 -149 -12 -2 -82 -17 -156 -33 -74 -17 -153
-33 -175 -35 -22 -3 -51 -8 -65 -10 -89 -16 -185 -27 -380 -43 -111 -9 -441
-8 -550 1 -52 5 -117 10 -145 12 -27 1 -50 3 -50 4 0 2 -40 7 -100 14 -22 2
-40 5 -40 6 0 1 -13 3 -30 5 -36 4 -86 13 -200 35 -27 6 -59 12 -70 14 -11 2
-49 12 -85 21 -36 9 -74 19 -85 21 -148 28 -589 196 -805 307 -129 66 -337
183 -350 197 -3 3 -30 21 -60 40 -30 19 -57 37 -60 40 -3 3 -24 18 -48 33 -23
15 -50 34 -60 42 -9 8 -35 28 -57 45 -63 48 -96 74 -109 85 -6 6 -41 34 -76
64 -73 62 -379 368 -425 426 -16 21 -47 56 -67 79 -21 23 -38 47 -38 54 0 6
-4 12 -8 12 -5 0 -24 21 -42 48 -19 26 -38 49 -42 50 -4 2 -8 9 -8 16 0 7 -9
21 -20 31 -11 10 -20 24 -20 32 0 7 -4 13 -9 13 -5 0 -15 12 -22 27 -8 16 -36
62 -63 103 -60 92 -87 141 -169 305 -150 299 -248 572 -303 840 -8 39 -17 81
-20 95 -9 41 -26 133 -29 160 -2 14 -4 25 -5 25 0 0 -3 20 -5 45 -3 25 -7 63
-9 85 -26 221 -26 542 0 795 9 89 13 115 14 115 1 0 3 11 5 25 5 46 16 104 31
175 8 39 16 79 18 90 9 43 29 122 43 165 8 25 17 54 19 64 2 10 9 35 16 55 7
20 13 38 13 41 11 44 20 67 28 78 5 6 6 12 2 12 -4 0 -1 7 6 17 8 9 13 19 13
22 -1 3 1 13 4 21 12 33 44 117 60 155 23 56 174 359 181 365 5 4 17 26 65
115 6 11 13 22 17 25 3 3 16 23 29 45 25 41 152 224 175 253 8 10 30 37 50 62
80 100 101 125 127 152 16 15 28 29 28 32 0 17 332 332 452 429 33 26 67 54
75 62 8 8 18 15 21 15 4 0 19 11 33 24 14 13 40 31 57 40 18 9 32 21 32 26 0
6 6 10 13 10 6 0 23 9 37 20 98 79 440 270 650 363 76 34 186 79 200 82 8 2
60 20 115 40 130 47 351 110 493 140 47 10 58 13 97 20 22 5 42 9 45 10 3 0
32 5 65 10 33 4 67 9 75 10 8 2 42 5 75 9 33 3 72 8 85 11 29 6 155 14 295 21
242 10 251 12 318 82 95 97 77 232 -41 314 l-47 33 -182 1 c-100 1 -184 0
-185 -1z"/>
<path d="M3210 6533 c-55 -16 -130 -53 -130 -65 0 -4 -5 -8 -10 -8 -27 0 -109
-123 -117 -175 -35 -213 52 -370 237 -431 119 -39 297 -23 389 34 53 32 120
113 142 170 24 63 31 146 16 207 -5 22 -10 45 -11 51 -1 7 -7 18 -14 26 -6 8
-9 18 -5 21 3 4 1 7 -5 7 -7 0 -12 5 -12 11 0 21 -85 97 -135 122 -28 13 -72
30 -99 36 -61 15 -186 12 -246 -6z"/>
<path d="M5868 6415 c-32 -13 -58 -21 -58 -18 0 3 -6 1 -12 -4 -12 -9 -71 -31
-101 -37 -7 -2 -25 -9 -42 -16 -37 -15 -135 -50 -155 -55 -8 -2 -78 -27 -155
-55 -77 -29 -156 -57 -175 -62 -19 -5 -48 -16 -65 -23 -16 -7 -133 -49 -260
-93 -424 -149 -470 -166 -475 -173 -7 -9 -5 -547 1 -553 3 -3 102 26 220 65
118 38 222 71 232 72 9 1 17 5 17 9 0 4 7 8 15 8 8 0 110 31 227 70 116 38
214 67 218 65 4 -2 6 -684 6 -1515 -1 -1503 -1 -1510 19 -1511 11 -1 170 -2
353 -3 288 -1 333 1 336 14 3 8 4 77 4 152 0 76 3 142 7 148 3 5 2 10 -3 10
-9 0 -7 123 2 147 3 7 2 13 -2 13 -8 0 -7 762 2 785 3 8 2 15 -3 15 -8 0 -5
125 3 147 3 7 2 13 -2 13 -8 0 -7 764 2 785 3 8 2 15 -3 15 -8 0 -5 125 3 147
3 7 2 13 -3 13 -8 0 -5 125 3 147 3 7 2 13 -3 13 -8 0 -5 125 3 147 3 7 2 13
-2 13 -8 0 -7 764 2 785 3 8 2 15 -3 15 -8 0 -5 125 3 147 3 7 2 13 -2 13 -4
0 -7 38 -6 85 l3 85 -47 -1 c-26 0 -73 -11 -104 -24z"/>
<path d="M2994 5441 c-7 -8 -4 -2851 4 -2852 4 -1 163 -2 354 -2 l346 -2 4 38
c2 21 0 41 -4 43 -5 3 -6 10 -3 15 5 8 9 435 4 464 -1 6 -1 14 0 19 3 12 2
447 0 461 -1 6 -1 14 0 19 3 12 2 447 0 461 -1 6 -1 14 0 19 3 12 2 447 0 461
-1 6 -1 14 0 19 3 12 2 447 0 461 -1 6 0 15 1 20 4 19 -1 349 -5 353 -6 6
-695 8 -701 3z"/>
</g>
</svg>
