<svg width="200" height="71" viewBox="0 0 200 71" fill="none" xmlns="http://www.w3.org/2000/svg">
<path d="M33.6573 0H33.4491V66.7592H33.6573V0Z" fill="#D7253D"/>
<path d="M33.5184 0H33.3102V66.7592H33.5184V0Z" fill="#D7253D"/>
<path d="M33.3795 0H33.1713V66.7592H33.3795V0Z" fill="#D6253D"/>
<path d="M33.2409 0H33.0327V66.7592H33.2409V0Z" fill="#D6253D"/>
<path d="M33.102 0H32.8938V66.7592H33.102V0Z" fill="#D6263D"/>
<path d="M32.9633 0H32.7551V66.7592H32.9633V0Z" fill="#D6263D"/>
<path d="M32.8244 0H32.6162V66.7592H32.8244V0Z" fill="#D5263D"/>
<path d="M32.6855 0H32.4773V66.7592H32.6855V0Z" fill="#D5263D"/>
<path d="M32.5469 0H32.3387V66.7592H32.5469V0Z" fill="#D5263D"/>
<path d="M32.4775 0H32.2693V66.7592H32.4775V0Z" fill="#D4253D"/>
<path d="M32.3386 0H32.1304V66.7592H32.3386V0Z" fill="#D4253D"/>
<path d="M32.1999 0H31.9917V66.7592H32.1999V0Z" fill="#D4263D"/>
<path d="M32.061 0H31.8528V66.7592H32.061V0Z" fill="#D4263D"/>
<path d="M31.9224 0H31.7142V66.7592H31.9224V0Z" fill="#D3263D"/>
<path d="M31.7835 0H31.5753V66.7592H31.7835V0Z" fill="#D3263D"/>
<path d="M31.6446 0H31.4364V66.7592H31.6446V0Z" fill="#D3263D"/>
<path d="M31.5059 0H31.2977V66.7592H31.5059V0Z" fill="#D2263D"/>
<path d="M31.367 0H31.1588V66.7592H31.367V0Z" fill="#D2273E"/>
<path d="M31.2975 0H31.0894V66.7592H31.2975V0Z" fill="#D2273E"/>
<path d="M31.159 0H30.9508V66.7592H31.159V0Z" fill="#D1273D"/>
<path d="M31.0201 0H30.8119V66.7592H31.0201V0Z" fill="#D1273D"/>
<path d="M30.8815 0H30.6733V66.7592H30.8815V0Z" fill="#D1273D"/>
<path d="M30.7425 0H30.5343V66.7592H30.7425V0Z" fill="#D1273D"/>
<path d="M30.6036 0H30.3954V66.7592H30.6036V0Z" fill="#D0263D"/>
<path d="M30.465 0H30.2568V66.7592H30.465V0Z" fill="#D0273E"/>
<path d="M30.3261 0H30.1179V66.7592H30.3261V0Z" fill="#D0273E"/>
<path d="M30.1876 0H29.9794V66.7592H30.1876V0Z" fill="#CF273D"/>
<path d="M30.1181 0H29.9099V66.7592H30.1181V0Z" fill="#CF273D"/>
<path d="M29.9791 0H29.7709V66.7592H29.9791V0Z" fill="#CF273D"/>
<path d="M29.8405 0H29.6323V66.7592H29.8405V0Z" fill="#CF273D"/>
<path d="M29.7016 0H29.4934V66.7592H29.7016V0Z" fill="#CE273D"/>
<path d="M29.5627 0H29.3545V66.7592H29.5627V0Z" fill="#CE283E"/>
<path d="M29.4241 0H29.2159V66.7592H29.4241V0Z" fill="#CE283E"/>
<path d="M29.2851 0H29.0769V66.7592H29.2851V0Z" fill="#CD273D"/>
<path d="M29.1465 0H28.9384V66.7592H29.1465V0Z" fill="#CD273D"/>
<path d="M29.0076 0H28.7994V66.7592H29.0076V0Z" fill="#CD273D"/>
<path d="M28.8687 0H28.6605V66.7592H28.8687V0Z" fill="#CD273D"/>
<path d="M28.7996 0H28.5914V66.7592H28.7996V0Z" fill="#CC283E"/>
<path d="M28.6607 0H28.4525V66.7592H28.6607V0Z" fill="#CC283E"/>
<path d="M28.5217 0H28.3135V66.7592H28.5217V0Z" fill="#CC283E"/>
<path d="M28.3831 0H28.1749V66.7592H28.3831V0Z" fill="#CB283E"/>
<path d="M28.2442 0H28.036V66.7592H28.2442V0Z" fill="#CB283E"/>
<path d="M28.1057 0H27.8975V66.7592H28.1057V0Z" fill="#CB283E"/>
<path d="M27.9667 0H27.7585V66.7592H27.9667V0Z" fill="#CB283B"/>
<path d="M27.8278 0H27.6196V66.7592H27.8278V0Z" fill="#CA283B"/>
<path d="M27.6891 0H27.481V66.7592H27.6891V0Z" fill="#CA283B"/>
<path d="M27.6197 0H27.4115V66.7592H27.6197V0Z" fill="#CA283B"/>
<path d="M27.4808 0H27.2726V66.7592H27.4808V0Z" fill="#C9283B"/>
<path d="M27.3422 0H27.134V66.7592H27.3422V0Z" fill="#C9283B"/>
<path d="M27.2033 0H26.9951V66.7592H27.2033V0Z" fill="#C9283B"/>
<path d="M27.0646 0H26.8564V66.7592H27.0646V0Z" fill="#C8283B"/>
<path d="M26.9257 0H26.7175V66.7592H26.9257V0Z" fill="#C8293B"/>
<path d="M26.7868 0H26.5786V66.7592H26.7868V0Z" fill="#C8293B"/>
<path d="M26.6483 0H26.4401V66.7592H26.6483V0Z" fill="#C8293B"/>
<path d="M26.5093 0H26.3011V66.7592H26.5093V0Z" fill="#C7293B"/>
<path d="M26.4399 0H26.2317V66.7592H26.4399V0Z" fill="#C7293B"/>
<path d="M26.3012 0H26.093V66.7592H26.3012V0Z" fill="#C7293B"/>
<path d="M26.1623 0H25.9541V66.7592H26.1623V0Z" fill="#C6283B"/>
<path d="M26.0237 0H25.8156V66.7592H26.0237V0Z" fill="#C6293B"/>
<path d="M25.8848 0H25.6766V66.7592H25.8848V0Z" fill="#C6293B"/>
<path d="M25.7459 0H25.5377V66.7592H25.7459V0Z" fill="#C6293B"/>
<path d="M25.6072 0H25.399V66.7592H25.6072V0Z" fill="#C5293B"/>
<path d="M25.4683 0H25.2601V66.7592H25.4683V0Z" fill="#C5293B"/>
<path d="M25.3298 0H25.1216V66.7592H25.3298V0Z" fill="#C5293B"/>
<path d="M25.1909 0H24.9827V66.7592H25.1909V0Z" fill="#C42A3C"/>
<path d="M25.1214 0H24.9132V66.7592H25.1214V0Z" fill="#C42A3C"/>
<path d="M24.9828 0H24.7747V66.7592H24.9828V0Z" fill="#C42A3C"/>
<path d="M24.8438 0H24.6356V66.7592H24.8438V0Z" fill="#C42A3C"/>
<path d="M24.7049 0H24.4967V66.7592H24.7049V0Z" fill="#C3293B"/>
<path d="M24.5663 0H24.3582V66.7592H24.5663V0Z" fill="#C3293B"/>
<path d="M24.4274 0H24.2192V66.7592H24.4274V0Z" fill="#C3293B"/>
<path d="M24.2889 0H24.0807V66.7592H24.2889V0Z" fill="#C22A3C"/>
<path d="M24.1498 0H23.9417V66.7592H24.1498V0Z" fill="#C22A3C"/>
<path d="M24.0109 0H23.8027V66.7592H24.0109V0Z" fill="#C22A3C"/>
<path d="M23.9418 0H23.7336V66.7592H23.9418V0Z" fill="#C22A3C"/>
<path d="M23.8029 0H23.5947V66.7592H23.8029V0Z" fill="#C12A3B"/>
<path d="M23.664 0H23.4558V66.7592H23.664V0Z" fill="#C12A3B"/>
<path d="M23.5254 0H23.3173V66.7592H23.5254V0Z" fill="#C12A3B"/>
<path d="M23.3864 0H23.1782V66.7592H23.3864V0Z" fill="#C02A3C"/>
<path d="M23.2479 0H23.0397V66.7592H23.2479V0Z" fill="#C02A3C"/>
<path d="M23.1089 0H22.9008V66.7592H23.1089V0Z" fill="#C02A3C"/>
<path d="M22.97 0H22.7618V66.7592H22.97V0Z" fill="#BF2A3B"/>
<path d="M22.8315 0H22.6233V66.7592H22.8315V0Z" fill="#BF2A3B"/>
<path d="M22.6926 0H22.4844V66.7592H22.6926V0Z" fill="#BF2A3B"/>
<path d="M22.623 0H22.4148V66.7592H22.623V0Z" fill="#BF2B3C"/>
<path d="M22.4844 0H22.2762V66.7592H22.4844V0Z" fill="#BE2A3C"/>
<path d="M22.3455 0H22.1373V66.7592H22.3455V0Z" fill="#BE2A3C"/>
<path d="M22.207 0H21.9988V66.7592H22.207V0Z" fill="#BE2A3C"/>
<path d="M22.0681 0H21.8599V66.7592H22.0681V0Z" fill="#BD2A3B"/>
<path d="M21.9291 0H21.7209V66.7592H21.9291V0Z" fill="#BD2A3B"/>
<path d="M21.7905 0H21.5823V66.7592H21.7905V0Z" fill="#BD2A3B"/>
<path d="M21.6515 0H21.4434V66.7592H21.6515V0Z" fill="#BD2B3C"/>
<path d="M21.513 0H21.3048V66.7592H21.513V0Z" fill="#BC2B3C"/>
<path d="M21.4435 0H21.2354V66.7592H21.4435V0Z" fill="#BC2B3C"/>
<path d="M21.3046 0H21.0964V66.7592H21.3046V0Z" fill="#BC2B3C"/>
<path d="M21.166 0H20.9578V66.7592H21.166V0Z" fill="#BB2B3B"/>
<path d="M21.027 0H20.8188V66.7592H21.027V0Z" fill="#BB2B3B"/>
<path d="M20.8881 0H20.6799V66.7592H20.8881V0Z" fill="#BB2B3B"/>
<path d="M20.7496 0H20.5414V66.7592H20.7496V0Z" fill="#BB2B3C"/>
<path d="M20.6107 0H20.4025V66.7592H20.6107V0Z" fill="#BA2B3C"/>
<path d="M20.472 0H20.2638V66.7592H20.472V0Z" fill="#BA2B3C"/>
<path d="M20.3331 0H20.1249V66.7592H20.3331V0Z" fill="#BA2B3C"/>
<path d="M20.2636 0H20.0554V66.7592H20.2636V0Z" fill="#B92B3B"/>
<path d="M20.1251 0H19.9169V66.7592H20.1251V0Z" fill="#B92B3B"/>
<path d="M19.9861 0H19.778V66.7592H19.9861V0Z" fill="#B92B3B"/>
<path d="M19.8472 0H19.639V66.7592H19.8472V0Z" fill="#B92C3C"/>
<path d="M19.7086 0H19.5004V66.7592H19.7086V0Z" fill="#B82B3C"/>
<path d="M19.5696 0H19.3615V66.7592H19.5696V0Z" fill="#B82B3C"/>
<path d="M19.4311 0H19.2229V66.7592H19.4311V0Z" fill="#B82B3C"/>
<path d="M19.2922 0H19.084V66.7592H19.2922V0Z" fill="#B72B3B"/>
<path d="M19.1533 0H18.9451V66.7592H19.1533V0Z" fill="#B72B3B"/>
<path d="M19.0146 0H18.8064V66.7592H19.0146V0Z" fill="#B72C3C"/>
<path d="M18.9451 0H18.7369V66.7592H18.9451V0Z" fill="#B62C3C"/>
<path d="M18.8062 0H18.598V66.7592H18.8062V0Z" fill="#B62C3C"/>
<path d="M18.6677 0H18.4595V66.7592H18.6677V0Z" fill="#B62C3C"/>
<path d="M18.5287 0H18.3206V66.7592H18.5287V0Z" fill="#B62C3C"/>
<path d="M18.3902 0H18.182V66.7592H18.3902V0Z" fill="#B52B3B"/>
<path d="M18.2512 0H18.043V66.7592H18.2512V0Z" fill="#B52B3B"/>
<path d="M18.1122 0H17.9041V66.7592H18.1122V0Z" fill="#B52C3C"/>
<path d="M17.9737 0H17.7655V66.7592H17.9737V0Z" fill="#B42C3C"/>
<path d="M17.8348 0H17.6266V66.7592H17.8348V0Z" fill="#B42C3C"/>
<path d="M17.7653 0H17.5571V66.7592H17.7653V0Z" fill="#B42C3C"/>
<path d="M17.6268 0H17.4186V66.7592H17.6268V0Z" fill="#B42C3C"/>
<path d="M17.4877 0H17.2795V66.7592H17.4877V0Z" fill="#B32C3B"/>
<path d="M17.3492 0H17.141V66.7592H17.3492V0Z" fill="#B32C3B"/>
<path d="M17.2103 0H17.0021V66.7592H17.2103V0Z" fill="#B32C3C"/>
<path d="M17.0713 0H16.8632V66.7592H17.0713V0Z" fill="#B22C3C"/>
<path d="M16.9328 0H16.7246V66.7592H16.9328V0Z" fill="#B22C3C"/>
<path d="M16.7939 0H16.5857V66.7592H16.7939V0Z" fill="#B22C39"/>
<path d="M16.6552 0H16.447V66.7592H16.6552V0Z" fill="#B22C39"/>
<path d="M16.5163 0H16.3081V66.7592H16.5163V0Z" fill="#B12C39"/>
<path d="M16.4468 0H16.2386V66.7592H16.4468V0Z" fill="#B12C3A"/>
<path d="M16.3083 0H16.1001V66.7592H16.3083V0Z" fill="#B12C3A"/>
<path d="M16.1694 0H15.9612V66.7592H16.1694V0Z" fill="#B02C39"/>
<path d="M16.0305 0H15.8223V66.7592H16.0305V0Z" fill="#B02C39"/>
<path d="M15.8918 0H15.6836V66.7592H15.8918V0Z" fill="#B02C39"/>
<path d="M15.7529 0H15.5447V66.7592H15.7529V0Z" fill="#B02C39"/>
<path d="M15.6143 0H15.4061V66.7592H15.6143V0Z" fill="#AF2C39"/>
<path d="M15.4754 0H15.2672V66.7592H15.4754V0Z" fill="#AF2D3A"/>
<path d="M15.3365 0H15.1283V66.7592H15.3365V0Z" fill="#AF2D3A"/>
<path d="M15.2673 0H15.0591V66.7592H15.2673V0Z" fill="#AE2C39"/>
<path d="M15.1284 0H14.9202V66.7592H15.1284V0Z" fill="#AE2C39"/>
<path d="M14.9894 0H14.7812V66.7592H14.9894V0Z" fill="#AE2C39"/>
<path d="M14.8509 0H14.6427V66.7592H14.8509V0Z" fill="#AE2C39"/>
<path d="M14.712 0H14.5038V66.7592H14.712V0Z" fill="#AD2C39"/>
<path d="M14.5733 0H14.3651V66.7592H14.5733V0Z" fill="#AD2D3A"/>
<path d="M14.4344 0H14.2262V66.7592H14.4344V0Z" fill="#AD2D3A"/>
<path d="M14.2955 0H14.0873V66.7592H14.2955V0Z" fill="#AC2D39"/>
<path d="M14.1569 0H13.9487V66.7592H14.1569V0Z" fill="#AC2D39"/>
<path d="M14.0875 0H13.8793V66.7592H14.0875V0Z" fill="#AC2D39"/>
<path d="M13.9485 0H13.7404V66.7592H13.9485V0Z" fill="#AB2C39"/>
<path d="M13.8099 0H13.6017V66.7592H13.8099V0Z" fill="#AB2D3A"/>
<path d="M13.671 0H13.4628V66.7592H13.671V0Z" fill="#AB2D3A"/>
<path d="M13.5324 0H13.3242V66.7592H13.5324V0Z" fill="#AB2D3A"/>
<path d="M13.3935 0H13.1853V66.7592H13.3935V0Z" fill="#AA2D39"/>
<path d="M13.2546 0H13.0464V66.7592H13.2546V0Z" fill="#AA2D39"/>
<path d="M13.1159 0H12.9077V66.7592H13.1159V0Z" fill="#AA2D39"/>
<path d="M12.977 0H12.7688V66.7592H12.977V0Z" fill="#A92C39"/>
<path d="M12.8384 0H12.6302V66.7592H12.8384V0Z" fill="#A92D39"/>
<path d="M12.769 0H12.5608V66.7592H12.769V0Z" fill="#A92D39"/>
<path d="M12.6301 0H12.4219V66.7592H12.6301V0Z" fill="#A92D39"/>
<path d="M12.4915 0H12.2833V66.7592H12.4915V0Z" fill="#A82D39"/>
<path d="M12.3525 0H12.1443V66.7592H12.3525V0Z" fill="#A82D39"/>
<path d="M12.2136 0H12.0054V66.7592H12.2136V0Z" fill="#A82D39"/>
<path d="M12.075 0H11.8668V66.7592H12.075V0Z" fill="#A72D39"/>
<path d="M11.9361 0H11.7279V66.7592H11.9361V0Z" fill="#A72D39"/>
<path d="M11.7975 0H11.5894V66.7592H11.7975V0Z" fill="#A72D39"/>
<path d="M11.6586 0H11.4504V66.7592H11.6586V0Z" fill="#A72D39"/>
<path d="M11.589 0H11.3809V66.7592H11.589V0Z" fill="#A62D39"/>
<path d="M11.4505 0H11.2423V66.7592H11.4505V0Z" fill="#A62D39"/>
<path d="M11.3116 0H11.1034V66.7592H11.3116V0Z" fill="#A62D39"/>
<path d="M11.1727 0H10.9645V66.7592H11.1727V0Z" fill="#A52D39"/>
<path d="M11.0341 0H10.8259V66.7592H11.0341V0Z" fill="#A52D39"/>
<path d="M10.8952 0H10.687V66.7592H10.8952V0Z" fill="#A52D39"/>
<path d="M10.7565 0H10.5483V66.7592H10.7565V0Z" fill="#A52D39"/>
<path d="M10.6176 0H10.4094V66.7592H10.6176V0Z" fill="#A42D39"/>
<path d="M10.4787 0H10.2705V66.7592H10.4787V0Z" fill="#A42D39"/>
<path d="M10.3401 0H10.132V66.7592H10.3401V0Z" fill="#A42D39"/>
<path d="M10.2707 0H10.0625V66.7592H10.2707V0Z" fill="#A32D39"/>
<path d="M10.1318 0H9.92358V66.7592H10.1318V0Z" fill="#A32D39"/>
<path d="M9.9931 0H9.78491V66.7592H9.9931V0Z" fill="#A32D39"/>
<path d="M9.85419 0H9.646V66.7592H9.85419V0Z" fill="#A22D39"/>
<path d="M9.71563 0H9.50745V66.7592H9.71563V0Z" fill="#A22D39"/>
<path d="M9.57672 0H9.36853V66.7592H9.57672V0Z" fill="#A22D39"/>
<path d="M9.4378 0H9.22961V66.7592H9.4378V0Z" fill="#A22D39"/>
<path d="M9.29913 0H9.09094V66.7592H9.29913V0Z" fill="#A12D39"/>
<path d="M9.16022 0H8.95203V66.7592H9.16022V0Z" fill="#A12D39"/>
<path d="M9.09076 0H8.88257V66.7592H9.09076V0Z" fill="#A12D39"/>
<path d="M8.95221 0H8.74402V66.7592H8.95221V0Z" fill="#A02D39"/>
<path d="M8.81329 0H8.6051V66.7592H8.81329V0Z" fill="#A02D39"/>
<path d="M8.67462 0H8.46643V66.7592H8.67462V0Z" fill="#A02D39"/>
<path d="M8.5357 0H8.32751V66.7592H8.5357V0Z" fill="#A02D39"/>
<path d="M8.39679 0H8.1886V66.7592H8.39679V0Z" fill="#9F2E39"/>
<path d="M8.25824 0H8.05005V66.7592H8.25824V0Z" fill="#9F2E39"/>
<path d="M8.11932 0H7.91113V66.7592H8.11932V0Z" fill="#9F2E39"/>
<path d="M7.98065 0H7.77246V66.7592H7.98065V0Z" fill="#9E2D39"/>
<path d="M7.91119 0H7.703V66.7592H7.91119V0Z" fill="#9E2D39"/>
<path d="M7.77228 0H7.56409V66.7592H7.77228V0Z" fill="#9E2D39"/>
<path d="M7.63373 0H7.42554V66.7592H7.63373V0Z" fill="#9E2E39"/>
<path d="M7.49481 0H7.28662V66.7592H7.49481V0Z" fill="#9D2E39"/>
<path d="M7.35589 0H7.14771V66.7592H7.35589V0Z" fill="#9D2E39"/>
<path d="M7.21722 0H7.00903V66.7592H7.21722V0Z" fill="#9D2E39"/>
<path d="M7.07831 0H6.87012V66.7592H7.07831V0Z" fill="#9C2D38"/>
<path d="M6.93976 0H6.73157V66.7592H6.93976V0Z" fill="#9C2D38"/>
<path d="M6.80084 0H6.59265V66.7592H6.80084V0Z" fill="#9C2D38"/>
<path d="M6.66192 0H6.45374V66.7592H6.66192V0Z" fill="#9C2E39"/>
<path d="M6.59283 0H6.38464V66.7592H6.59283V0Z" fill="#9B2E39"/>
<path d="M6.4538 0H6.24561V66.7592H6.4538V0Z" fill="#9B2E39"/>
<path d="M6.31488 0H6.10669V66.7592H6.31488V0Z" fill="#9B2E39"/>
<path d="M6.17633 0H5.96814V66.7592H6.17633V0Z" fill="#9A2D38"/>
<path d="M6.03741 0H5.82922V66.7592H6.03741V0Z" fill="#9A2D38"/>
<path d="M5.89886 0H5.69067V66.7592H5.89886V0Z" fill="#9A2D38"/>
<path d="M5.75995 0H5.55176V66.7592H5.75995V0Z" fill="#992E38"/>
<path d="M5.62091 0H5.41272V66.7592H5.62091V0Z" fill="#992E37"/>
<path d="M5.48236 0H5.27417V66.7592H5.48236V0Z" fill="#992E37"/>
<path d="M5.4129 0H5.20471V66.7592H5.4129V0Z" fill="#992E37"/>
<path d="M5.27398 0H5.0658V66.7592H5.27398V0Z" fill="#982D36"/>
<path d="M5.13543 0H4.92725V66.7592H5.13543V0Z" fill="#982D36"/>
<path d="M4.99652 0H4.78833V66.7592H4.99652V0Z" fill="#982D36"/>
<path d="M4.85785 0H4.64966V66.7592H4.85785V0Z" fill="#972E36"/>
<path d="M4.71893 0H4.51074V66.7592H4.71893V0Z" fill="#972E36"/>
<path d="M4.58002 0H4.37183V66.7592H4.58002V0Z" fill="#972E36"/>
<path d="M4.44147 0H4.23328V66.7592H4.44147V0Z" fill="#972E36"/>
<path d="M4.30255 0H4.09436V66.7592H4.30255V0Z" fill="#962D36"/>
<path d="M4.23309 0H4.0249V66.7592H4.23309V0Z" fill="#962D36"/>
<path d="M4.09442 0H3.88623V66.7592H4.09442V0Z" fill="#962E37"/>
<path d="M3.9555 0H3.74731V66.7592H3.9555V0Z" fill="#952E36"/>
<path d="M3.81695 0H3.60876V66.7592H3.81695V0Z" fill="#952E36"/>
<path d="M3.67804 0H3.46985V66.7592H3.67804V0Z" fill="#952E36"/>
<path d="M3.53912 0H3.33093V66.7592H3.53912V0Z" fill="#952E36"/>
<path d="M3.40045 0H3.19226V66.7592H3.40045V0Z" fill="#942D36"/>
<path d="M3.26153 0H3.05334V66.7592H3.26153V0Z" fill="#942D36"/>
<path d="M3.12298 0H2.91479V66.7592H3.12298V0Z" fill="#942E36"/>
<path d="M2.98407 0H2.77588V66.7592H2.98407V0Z" fill="#932E36"/>
<path d="M2.91461 0H2.70642V66.7592H2.91461V0Z" fill="#932E36"/>
<path d="M2.77594 0H2.56775V66.7592H2.77594V0Z" fill="#932E36"/>
<path d="M2.63702 0H2.42883V66.7592H2.63702V0Z" fill="#932E36"/>
<path d="M2.49811 0H2.28992V66.7592H2.49811V0Z" fill="#922D36"/>
<path d="M2.35956 0H2.15137V66.7592H2.35956V0Z" fill="#922D36"/>
<path d="M2.22064 0H2.01245V66.7592H2.22064V0Z" fill="#922E36"/>
<path d="M2.08197 0H1.87378V66.7592H2.08197V0Z" fill="#912D36"/>
<path d="M1.94305 0H1.73486V66.7592H1.94305V0Z" fill="#912D36"/>
<path d="M1.80414 0H1.59595V66.7592H1.80414V0Z" fill="#912D36"/>
<path d="M1.73504 0H1.52686V66.7592H1.73504V0Z" fill="#902D35"/>
<path d="M1.59613 0H1.38794V66.7592H1.59613V0Z" fill="#902D35"/>
<path d="M1.45721 0H1.24902V66.7592H1.45721V0Z" fill="#902E36"/>
<path d="M1.31854 0H1.11035V66.7592H1.31854V0Z" fill="#902E36"/>
<path d="M1.17962 0H0.971436V66.7592H1.17962V0Z" fill="#8F2D36"/>
<path d="M1.04107 0H0.832886V66.7592H1.04107V0Z" fill="#8F2D36"/>
<path d="M0.902159 0H0.69397V66.7592H0.902159V0Z" fill="#8F2D36"/>
<path d="M0.763243 0H0.555054V66.7592H0.763243V0Z" fill="#8E2D35"/>
<path d="M0.624693 0H0.416504V66.7592H0.624693V0Z" fill="#8E2D35"/>
<path d="M0.485655 0H0.277466V66.7592H0.485655V0Z" fill="#8E2E36"/>
<path d="M0.416197 0H0.208008V66.7592H0.416197V0Z" fill="#8E2E36"/>
<path d="M0.277647 0H0.069458V66.7592H0.277647V0Z" fill="#8D2D35"/>
<path d="M0.138793 0H0V66.7592H0.138793V0Z" fill="#8D2D35"/>
<path d="M118.112 42.8868C118.112 42.4011 117.696 41.9153 116.933 41.6377C116.308 41.3601 115.753 41.2213 115.128 41.2213C113.81 41.2213 112.075 41.9847 109.924 43.5808C107.772 45.1769 106.454 45.9403 105.899 45.9403C105.274 45.9403 104.441 45.5239 103.4 44.7605C102.36 43.9972 101.457 43.5808 100.833 43.5808C99.7225 43.5808 98.6121 44.136 97.5018 45.1769C96.3914 46.2872 95.8363 47.3282 95.8363 48.4385C95.8363 49.1325 95.9057 50.104 95.9751 51.492C96.0445 52.8105 96.1138 53.8514 96.1138 54.5454C96.1138 54.5454 95.8363 57.8764 95.2811 64.4691C95.2117 65.2324 95.4893 65.9264 96.1832 66.4815C96.8772 67.1061 97.6406 67.3837 98.3345 67.3837C99.4449 67.3837 100.486 67.0367 101.388 66.2734C102.498 65.4406 103.053 63.8445 103.123 61.485C103.192 59.1255 103.192 57.7376 103.262 57.46C103.47 55.9333 103.956 54.6842 104.788 53.6432C108.675 48.5079 111.034 45.8015 111.797 45.6627C112.977 45.3157 114.087 45.0381 115.267 44.6911C117.141 43.9972 118.112 43.442 118.112 42.8868Z" fill="#2B2A29"/>
<path d="M48.7162 49.6876C48.7162 49.2712 48.3692 48.9936 47.7446 48.7854C47.1201 48.5773 46.5649 48.5773 46.1485 48.5773L35.3921 50.6591C34.5594 50.8673 33.8654 50.5204 33.2408 49.757C32.6163 48.9936 32.2693 48.1609 32.2693 47.1893C32.2693 44.6911 37.0576 32.3385 38.8619 27.8972L42.1929 27.342C47.1895 26.5093 51.492 25.8153 55.1006 25.1907C57.3907 24.8437 59.4032 24.5662 61.0687 24.2886C62.7342 24.0804 64.1222 23.8722 65.1631 23.8028C67.245 23.7334 69.0493 23.664 70.576 23.5946C72.1027 23.5252 73.4212 23.5252 74.4622 23.4558L82.2346 23.2476C84.3165 23.0394 85.9126 22.7619 86.9535 22.4843C88.1333 22.1373 88.6884 21.5821 88.6884 21.027V20.8188V20.7494L88.619 20.68C88.2027 20.1248 87.4393 19.7084 86.3983 19.3614C85.3574 19.0839 83.9695 18.8757 82.304 18.8063C74.6704 18.5287 61.5545 21.5821 53.0188 22.7619C50.0347 23.1782 44.9688 23.9416 40.0417 24.5662C40.9438 22.1373 41.4296 20.5412 41.4296 19.7778C41.4296 19.292 41.2908 19.0145 41.0132 18.8757C40.7356 18.7369 40.5968 18.6675 40.5968 18.6675C40.1111 18.6675 39.5559 18.8757 38.9313 19.2226C36.78 20.333 35.1839 21.7903 34.0042 23.5946C33.7266 24.011 33.5184 24.4968 33.2408 25.1907C31.5753 25.3295 30.1874 25.3295 29.0077 25.3295C27.8973 25.2601 25.9542 25.2601 23.8029 25.0519C21.2353 24.7743 19.084 24.2192 16.4469 24.2192C13.7405 24.2192 11.728 24.5662 10.3401 25.0519C8.88274 25.6071 8.11938 26.5093 7.98059 27.6196C7.98059 27.689 7.98059 27.7584 7.98059 27.8278V27.8972V27.9666C8.39697 28.8687 9.22972 29.6321 10.3401 30.1179C11.4504 30.6036 12.9077 30.8812 14.712 30.9506C15.8918 31.02 17.2797 30.9506 18.8064 30.8118C20.3331 30.673 22.068 30.4648 23.9417 30.1179L31.5753 28.8687C31.4365 29.1463 31.2977 29.4933 31.2283 29.7709L23.6641 49.1324C22.9008 51.0061 7.8418 50.5897 9.78489 55.0311C10.4789 55.8639 11.8668 56.2802 13.9487 56.3496C16.5163 56.419 20.3331 56.4884 20.6107 56.5578C22.2068 56.9048 22.9702 57.8764 22.9702 59.5419C22.9702 59.7501 22.5538 62.6647 21.721 68.2164C21.9986 69.535 22.415 70.229 22.9702 70.229C25.6072 70.229 27.6891 67.453 29.2852 61.8319C29.7016 60.3746 30.3262 58.9867 31.2283 57.5988C32.2693 56.0027 33.3796 55.1005 34.49 54.8923L45.9403 52.4634C46.4261 52.3247 46.9813 51.9777 47.7446 51.3531C48.3692 50.7285 48.7162 50.1734 48.7162 49.6876Z" fill="#2B2A29"/>
<path d="M187.301 33.3796C187.995 33.7266 188.689 33.8654 189.452 33.8654C190.423 33.8654 191.326 33.5878 192.228 32.9632C193.13 32.3386 193.546 31.5753 193.546 30.7425C193.546 29.9792 193.13 29.3546 192.367 28.8688C191.742 28.5218 190.979 28.3831 190.146 28.3831C189.244 28.3831 188.342 28.73 187.439 29.424C186.537 30.118 186.052 30.8813 186.052 31.7141C186.052 32.408 186.468 32.9632 187.301 33.3796Z" fill="#2B2A29"/>
<path d="M199.792 61.277C199.445 61.0688 199.098 60.9994 198.682 60.9994C198.196 60.9994 197.363 61.1382 196.253 61.4852C195.142 61.7628 194.24 61.971 193.616 61.971C191.811 61.971 190.076 61.1382 188.48 59.5421C186.884 57.946 186.121 56.2111 186.121 54.4762C186.121 54.268 186.121 54.0598 186.19 53.8516C186.26 53.7128 186.26 53.4352 186.329 53.1577L186.468 51.6309C186.745 49.1327 187.37 44.4137 187.37 43.8586V43.4422C187.439 42.2624 187.023 41.7073 186.19 41.7073C184.941 41.7073 183.553 42.887 182.165 45.2465C181.263 46.912 179.806 51.9085 178.834 53.574C177.793 55.1008 176.752 56.5581 175.781 58.0848C174.879 59.3339 174.115 60.3055 173.491 61.0688C173.144 61.1382 172.727 61.2076 172.311 61.3464C170.854 61.6934 169.743 61.8322 168.98 61.8322C167.384 61.8322 165.996 61.277 164.816 60.2361C164.608 60.0279 163.636 58.8481 161.901 56.6275C160.444 54.8232 159.681 53.1577 159.681 51.7003L159.334 43.8586C159.334 43.581 159.195 43.3034 158.848 42.9564C158.501 42.6094 158.223 42.4706 157.877 42.4706C156.558 42.4706 154.962 43.4422 153.088 45.4547C152.255 46.2874 150.798 48.1611 148.647 51.0758C147.12 53.0883 146.079 54.0598 145.663 54.0598C145.038 54.0598 144.691 53.1577 144.483 51.4227C144.344 49.7572 144.205 48.0917 143.997 46.4262C143.72 44.6219 143.165 43.7198 142.332 43.7198C141.221 43.7198 140.25 44.6219 139.417 46.4262C138.793 47.9529 138.446 49.3409 138.446 50.6594C138.446 51.4921 138.584 52.6025 138.793 53.921C139.07 55.7947 139.278 56.9051 139.278 57.1826C139.556 60.2361 139.764 62.5262 139.903 64.0529C139.972 64.5386 140.18 65.0244 140.527 65.5102C140.944 65.996 141.291 66.2735 141.707 66.2735C143.234 66.2735 144.691 64.955 146.079 62.3874C146.287 61.971 147.398 59.6115 149.271 55.3089C150.382 52.7413 151.353 51.4921 152.117 51.4921C152.602 51.4921 153.019 52.1167 153.296 53.2964L154.892 60.0279C155.309 61.624 156.558 63.2201 158.64 64.8162C160.722 66.4123 162.595 67.2451 164.261 67.2451C165.024 67.2451 166.273 67.0369 168.008 66.7593C169.466 66.4817 170.645 66.1348 171.617 65.5796C171.686 65.5102 172.658 64.8856 174.532 63.6365C174.601 63.5671 174.74 63.5671 174.809 63.4977C175.087 63.2895 175.434 63.0813 175.711 62.8037C175.92 62.6649 176.058 62.4568 176.197 62.318C176.475 62.0404 176.752 61.7628 177.03 61.4158C177.654 60.6525 178.21 60.3055 178.626 60.3055C179.042 60.3055 179.945 60.9994 181.332 62.3874C182.165 63.1507 182.998 63.9141 183.831 64.7468C184.455 65.3714 186.051 65.7184 188.411 65.7184C190.007 65.7184 192.019 65.302 194.379 64.5386C197.016 63.7059 198.751 62.7343 199.653 61.7628C199.722 61.624 199.722 61.5546 199.722 61.5546L200 60.9994L199.792 61.277Z" fill="#2B2A29"/>
<path d="M133.379 42.3318C132.477 40.9439 131.228 40.3193 129.701 40.3193C128.452 40.3193 126.44 41.2215 123.803 43.0258L119.223 46.1486C116.794 47.8141 115.198 49.2021 114.434 50.3124C113.532 51.7697 113.046 53.921 113.046 56.6275C113.046 59.4727 113.602 61.9016 114.712 63.8447C116.03 66.2041 118.043 67.3839 120.68 67.3839C121.721 67.3839 122.97 67.1063 124.358 66.4817C125.815 65.9266 126.926 65.2326 127.758 64.5386C130.881 61.9016 132.686 60.2361 133.241 59.6115C134.976 57.599 135.878 55.3783 135.878 53.0882C135.878 51.8391 135.6 50.0348 135.114 47.6059C134.49 44.8995 133.935 43.1646 133.379 42.3318ZM130.048 59.4033C128.799 61.0688 127.203 61.9016 125.26 61.9016C123.248 61.9016 121.652 60.9994 120.472 59.1951C119.5 57.6684 118.945 55.7947 118.945 53.6434C118.945 51.6309 119.57 49.7572 120.888 48.0917C122.276 46.218 123.942 45.2465 125.885 45.2465C127.689 45.2465 129.146 46.2874 130.326 48.4387C131.228 50.243 131.714 52.1167 131.714 54.1292C131.714 56.1417 131.159 57.8766 130.048 59.4033Z" fill="#2B2A29"/>
<path d="M96.1139 42.3317C96.1139 41.8459 95.6976 41.4295 94.8648 41.152C94.2402 40.8744 93.6851 40.805 93.0605 40.805C91.742 40.8744 90.0765 41.7071 87.9946 43.442C85.9127 45.1075 84.5942 45.9404 84.1084 46.0098C83.4838 46.0098 82.6511 45.6628 81.6101 44.9688C80.4998 44.2055 79.667 43.8584 78.9731 43.9278C77.8627 43.9972 76.7524 44.5524 75.7114 45.7322C74.6705 46.8425 74.1153 47.9528 74.1847 49.0631C74.1847 49.7571 74.3235 50.7286 74.4623 52.0472C74.6011 53.3657 74.7399 54.4067 74.7399 55.0313L74.4623 61.6933C73.9765 61.7627 73.4908 61.9015 72.9356 62.0403C71.4783 62.3873 70.5761 62.5955 70.1597 62.6649C67.2451 63.0813 64.608 63.3588 62.318 63.3588C60.1667 63.3588 58.293 63.0119 56.6275 62.3179C54.4068 61.4157 53.2964 59.9583 53.2964 58.0846C53.2964 57.0437 53.9904 56.3498 55.4477 55.7946C59.5421 54.3373 61.624 53.5739 61.624 53.5739C63.4977 52.2554 64.8856 51.2144 65.8572 50.3817C68.4248 48.4386 69.674 46.7037 69.674 45.1075C69.674 43.6502 69.0494 42.4011 67.7309 41.2908C66.4123 40.2498 65.0244 39.764 63.4977 39.764C61.0688 39.764 58.7788 40.7356 56.5581 42.7481C53.5046 45.5239 51.284 48.2998 49.896 50.9369C48.3693 53.9209 47.606 57.3214 47.606 61.2769C47.606 65.4407 51.1452 67.5226 58.293 67.5226C61.0688 67.5226 65.7878 66.6898 72.5192 65.0243C73.1438 64.8855 73.6989 64.6774 74.3235 64.3998V64.9549C74.2541 65.7182 74.6011 66.4122 75.3645 66.9674C76.0584 67.5225 76.8218 67.8001 77.5851 67.8001C78.6955 67.7307 79.667 67.3144 80.5692 66.5511C81.6795 65.6489 82.1653 64.0528 82.0959 61.6933C82.0265 59.3339 82.0265 57.9459 82.0265 57.6683C82.1653 56.1416 82.5817 54.823 83.345 53.7821C87.023 48.4386 89.2437 45.6627 89.9377 45.4545C91.048 45.1075 92.2277 44.6912 93.3381 44.3443C95.2118 43.5115 96.1833 42.8869 96.1139 42.3317ZM56.8357 45.0382C57.946 44.3443 58.9869 43.9973 60.0973 43.9973C61.2076 43.9973 62.1098 44.2748 62.9425 44.83C63.9141 45.4545 64.4692 46.2873 64.4692 47.3282C64.4692 48.4386 63.9141 49.3407 62.7343 50.1041C61.624 50.8674 60.4443 51.2145 59.3339 51.2145C58.2236 51.2145 57.3214 50.9368 56.4887 50.4511C55.5171 49.8265 55.0314 48.9937 55.0314 47.8834C55.1008 46.7731 55.6559 45.871 56.8357 45.0382Z" fill="#2B2A29"/>
</svg>
