<svg width="336" height="92" viewBox="0 0 336 92" fill="none" xmlns="http://www.w3.org/2000/svg">
<path d="M157.489 31.9899H171.199L161.708 77.3383H147.998L153.271 52.7306L134.288 77.3383H120.578L130.069 31.9899H143.779L138.858 56.246L157.489 31.9899Z" fill="#00703C"/>
<path d="M169.442 65.3861C170.496 65.7377 171.551 65.7377 172.254 65.7377C174.715 65.7377 176.472 64.683 177.175 63.98C178.582 62.5738 179.285 60.4646 180.691 54.84L185.964 31.6384H222.875L213.384 76.9869H199.322L206.353 44.2938H196.862L193.346 59.7615C191.94 65.3861 190.534 72.0654 185.261 75.5807C182.097 77.69 177.527 78.0415 174.012 78.0415C171.551 78.0415 169.09 77.69 166.981 77.3384L169.442 65.3861Z" fill="#00703C"/>
<path d="M258.732 31.9899H272.442L262.951 77.3383H249.241L254.514 52.7306L235.531 77.3383H221.821L231.664 31.9899H245.374L240.101 56.246L258.732 31.9899Z" fill="#00703C"/>
<path d="M290.723 47.106H290.371L290.019 50.6214L284.395 77.3383H271.74L281.231 31.9899H300.214L302.323 57.6522L301.972 60.816H302.323L303.378 57.6522L316.033 31.9899H335.016L325.525 77.3383H312.87L318.494 50.6214L319.549 47.106H319.197L303.73 77.3383H293.535L290.723 47.106Z" fill="#00703C"/>
<path d="M110.383 0C110.031 0 109.328 0.351533 108.977 0.351533C93.5092 4.57 63.2768 0.351533 63.2768 0.351533C52.0276 0.351533 40.0753 4.56999 29.5291 13.0069C18.983 21.4438 12.3038 32.6931 9.84298 43.5908L0.35144 91.4L79.7992 54.4885C79.7992 54.4885 77.3384 61.5192 80.1507 69.2531C82.963 76.2839 87.1815 76.6354 88.5876 76.6354C95.2668 75.5808 98.0792 61.5192 98.0792 61.5192L110.735 0.351533C110.383 0.351533 110.735 0 110.383 0Z" fill="#8DC63F"/>
<path d="M80.1508 69.2531C77.3385 61.5193 79.7993 54.4885 79.7993 54.4885L0.351539 91.4001H0L88.5877 76.6354C88.5877 76.6354 88.5877 76.6354 88.2362 76.6354C87.1816 76.6354 82.6116 76.2839 80.1508 69.2531Z" fill="#00703C"/>
</svg>
