<svg width="400" height="100" viewBox="0 0 400 100" fill="none" xmlns="http://www.w3.org/2000/svg">
<path d="M125.48 29.097V70.677H134.804V37.443H157.061V70.677H166.461V29.097H125.48ZM182.776 49.925C182.776 41.3531 188.866 36.164 196.686 36.164C204.507 36.164 210.596 41.3532 210.596 49.925C210.596 58.4966 204.507 63.685 196.686 63.685C188.866 63.685 182.776 58.4968 182.776 49.925ZM219.994 49.925C219.994 36.841 209.317 28.119 196.686 28.119C184.055 28.119 173.378 36.841 173.378 49.925C173.378 63.009 184.055 71.731 196.686 71.731C209.317 71.731 219.994 63.0089 219.994 49.925ZM237.063 29.097L231.499 58.872C231.048 61.1273 229.618 62.105 227.438 62.105H222.928V70.677H227.889C234.732 70.677 239.319 67.4436 240.672 60.075L244.884 37.516H260.823V70.676H270.222V29.096L237.063 29.097ZM279.244 29.097V70.677H288.494V53.083H294.81C296.237 65.038 305.786 71.731 317.367 71.731C329.923 71.731 340.074 63.8355 340.074 49.925C340.074 36.015 329.924 28.119 317.367 28.119C306.466 28.119 297.367 34.0598 295.185 44.661H288.494V29.098L279.244 29.097ZM303.984 49.925C303.984 41.3531 308.572 36.164 317.368 36.164C326.166 36.164 330.752 41.3532 330.752 49.925C330.752 58.4966 326.166 63.685 317.368 63.685C308.572 63.685 303.984 58.4968 303.984 49.925ZM390.001 39.248C385.716 31.9534 378.65 28.119 368.95 28.119C355.865 28.119 345.714 36.4664 345.714 49.925C345.714 63.384 355.641 71.731 368.95 71.731C378.65 71.731 385.717 67.8964 390.001 60.603L382.709 56.3918C379.55 60.9035 375.417 63.3845 368.798 63.3845C360.678 63.3845 355.039 57.9708 355.039 49.9255C355.039 41.7294 360.452 36.4675 368.798 36.4675C375.416 36.4675 379.55 38.9484 382.709 43.4592L390.001 39.2492" fill="#2B2E2D"/>
<path d="M58.378 11.003L53.4634 40.532C53.3474 41.2346 52.5907 41.5509 51.9302 41.294L37.1592 35.5871C35.3306 34.8806 34.7192 33.5071 34.9706 31.9895L38.1163 13.0925C38.3699 11.5781 39.3917 10.476 41.3528 10.3998L57.1748 9.78417C57.8835 9.75807 58.4961 10.3017 58.3782 11.0032M15.9732 32.2632L42.5682 46.0042C43.1996 46.3307 43.2696 47.148 42.8229 47.6981L32.8558 60.0041C31.6221 61.527 30.1286 61.6877 28.7624 60.9821L11.7424 52.189C10.3773 51.4825 9.64457 50.1716 10.1727 48.2825L14.4445 33.0345C14.6355 32.3499 15.3421 31.9366 15.9735 32.2632M23.0884 79.0442L44.4044 58.0272C44.9118 57.5274 45.709 57.7153 46.0953 58.3113L54.6994 71.6023C55.765 73.2492 55.454 74.7199 54.3601 75.8001L40.7181 89.2491C39.6232 90.3284 38.1495 90.6186 36.5172 89.529L23.3482 80.7368C22.7576 80.3433 22.5832 79.5438 23.0884 79.044M70.0294 86.6681L56.4714 59.9781C56.149 59.3437 56.5704 58.6424 57.2543 58.4553L72.5303 54.2901C74.4225 53.7745 75.7291 54.5164 76.4253 55.888L85.1005 72.967C85.7966 74.3386 85.6264 75.8309 84.0943 77.0562L71.7193 86.9357C71.164 87.3783 70.3489 87.3022 70.0286 86.6687M91.6166 44.7587L62.0126 49.2039C61.3092 49.3081 60.7759 48.6872 60.8145 47.9795L61.6817 32.1675C61.7893 30.2106 62.9059 29.2047 64.4267 28.9761L83.3697 26.1329C84.8903 25.9034 86.2533 26.5368 86.9317 28.3768L92.4037 43.2368C92.6481 43.9028 92.3207 44.6531 91.6169 44.7584" fill="#F9AA24"/>
</svg>
