<svg width="400" height="100" viewBox="0 0 400 100" fill="none" xmlns="http://www.w3.org/2000/svg">
<path d="M122.2 29.69V70.096H131.334V61.1105H146.02C155.52 61.1105 162.68 55.0449 162.68 45.5465C162.68 36.0481 155.52 29.6905 146.02 29.6905L122.2 29.69ZM131.334 38.0199H145.654C150.331 38.0199 153.546 40.8685 153.546 45.546C153.546 50.2233 150.331 52.78 145.654 52.78H131.334V38.0199ZM177.439 49.9299C177.439 41.6 183.355 36.5589 190.954 36.5589C198.552 36.5589 204.472 41.5996 204.472 49.9299C204.472 58.2598 198.552 63.3009 190.954 63.3009C183.355 63.3009 177.439 58.2602 177.439 49.9299ZM213.605 49.9299C213.605 37.2159 203.23 28.7409 190.955 28.7409C178.681 28.7409 168.306 37.2163 168.306 49.9299C168.306 62.6435 178.681 71.1209 190.955 71.1209C203.231 71.1209 213.605 62.6439 213.605 49.9299ZM220.326 29.6899V70.0959H257.299V61.8399H229.458V29.6899H220.326ZM249.04 29.6899L267.965 60.0129V70.0959H276.955V60.0129L295.95 29.6899H285.499L273.008 51.2449H272.423L259.491 29.6899H249.04ZM300.699 29.6899V50.2949C300.699 63.6669 308.738 71.1209 321.375 71.1209C334.015 71.1209 342.051 63.6673 342.051 50.2949V29.6899H332.922V50.3669C332.922 58.2592 329.341 63.0829 321.375 63.0829C313.414 63.0829 309.833 58.2588 309.833 50.3669V29.6899H300.699ZM388.815 34.7306C382.532 30.0561 375.958 28.7406 368.43 28.7406C358.128 28.7406 349.654 32.6868 349.654 41.2346C349.654 48.7609 354.694 51.9746 362.952 52.9246L376.543 54.4595C379.977 54.8257 381.145 55.9203 381.145 58.1122C381.145 61.5453 376.466 63.1529 370.039 63.1529C363.39 63.1529 357.982 61.4014 352.431 57.5277L348.121 64.6148C354.55 69.3651 360.759 71.1195 369.019 71.1195C381.146 71.1195 389.987 67.0263 389.987 57.9655C389.987 50.5133 384.653 46.8595 376.032 45.8385L363.902 44.4491C360.759 44.0843 358.642 43.5 358.642 41.1613C358.642 38.8967 360.542 36.8503 368.431 36.8503C374.861 36.8503 379.684 38.1656 384.433 41.4551L388.816 34.7298" fill="#2B2F2D"/>
<path d="M57 12.11L52.2233 40.804C52.1106 41.4862 51.3751 41.7946 50.733 41.544L36.381 35.996C34.6029 35.311 34.0082 33.9762 34.2544 32.5037L37.3139 14.1397C37.5571 12.667 38.5506 11.5964 40.4549 11.5222L55.8319 10.926C56.52 10.8994 57.1148 11.4272 57.0005 12.1095M15.7945 32.7695L41.6375 46.1225C42.2513 46.4369 42.3197 47.2317 41.8851 47.7671L32.1997 59.7231C31.003 61.2048 29.5495 61.3635 28.2223 60.6768L11.6843 52.1304C10.3586 51.4439 9.64384 50.1714 10.1584 48.3355L14.3093 33.5185C14.4947 32.8526 15.1813 32.4507 15.7952 32.7696M22.709 78.2276L43.423 57.8036C43.9154 57.3187 44.6895 57.5011 45.0647 58.0793L53.4259 70.9963C54.461 72.5949 54.1584 74.0246 53.0951 75.0731L39.8401 88.1441C38.7767 89.1925 37.344 89.4744 35.7572 88.4154L22.9622 79.8705C22.3883 79.4893 22.2177 78.7123 22.7086 78.2273M68.3226 85.6364L55.1476 59.7004C54.8347 59.0834 55.2426 58.4012 55.9083 58.2188L70.7513 54.1718C72.5916 53.6705 73.8626 54.3928 74.5388 55.7243L82.9696 72.3223C83.6443 73.6541 83.4797 75.1044 81.9909 76.2938L69.9649 85.8962C69.4251 86.3262 68.6348 86.2522 68.3218 85.6367M89.2988 44.9077L60.5328 49.2277C59.8477 49.3315 59.3286 48.728 59.3672 48.0413L60.211 32.6763C60.3133 30.7736 61.4004 29.7963 62.8774 29.5725L81.2854 26.8112C82.7624 26.5888 84.0883 27.204 84.7453 28.9926L90.0618 43.4306C90.3005 44.0785 89.9818 44.8068 89.298 44.9076" fill="#F9AA24"/>
</svg>
