<svg width="2500" height="250" viewBox="0 0 2500 250" fill="none" xmlns="http://www.w3.org/2000/svg">
<g clip-path="url(#clip0_53_536)">
<path d="M384.9 64.8649H243.699C243.699 64.8649 223.535 85.0844 223.535 125.412C223.535 165.739 243.699 185.902 243.699 185.902H425.227C425.227 185.902 445.446 165.739 445.446 125.412C445.446 85.0844 425.227 64.8649 425.227 64.8649H384.9ZM377.002 165.683H291.979C286.587 152.929 283.88 139.201 284.026 125.356C283.908 111.512 286.614 97.7904 291.979 85.0284H377.002C382.352 97.8127 385.04 111.554 384.9 125.412C385.056 139.235 382.368 152.942 377.002 165.683V165.683ZM526.101 64.8649H485.774C485.774 64.8649 465.61 85.0284 465.61 125.412C465.61 165.795 485.774 185.902 485.774 185.902H647.194V165.683H533.998C528.642 152.92 525.954 139.196 526.101 125.356C525.954 111.515 528.642 97.7912 533.998 85.0284H647.194V64.8649H526.101ZM926.459 64.8649H886.132C886.132 64.8649 865.968 85.0284 865.968 125.412C865.968 165.795 886.132 185.902 886.132 185.902H1047.38V165.683H934.245C928.888 152.92 926.201 139.196 926.347 125.356C926.201 111.515 928.888 97.7912 934.245 85.0284H1047.38V64.8649H926.459ZM727.848 64.8649H667.301V85.0844H727.848V185.902H788.395V85.0284H848.942V64.8649H788.395H727.848ZM1864.51 111.969L1814.1 64.8649H1753.56V185.902H1814.1V93.0938L1854.43 130.788L1864.51 140.198L1874.59 130.788L1914.92 93.0938V185.902H1975.52V64.8649H1914.92L1864.51 111.969ZM2439.51 64.8649V165.739H2399.18V64.8649H2338.64V165.739H2298.25V64.8649H2237.76V185.902H2500V64.8649H2439.51ZM1450.99 64.8649H1329.95L1289.63 185.902H1350.12L1383.72 85.0844H1450.99V185.902H1511.48V64.8649H1450.99ZM1720.29 85.0284H1592.19V64.8649H1531.65V185.902H1720.46C1724.14 179.542 1727.01 172.751 1729.02 165.683C1734.77 145.929 1734.77 124.946 1729.02 105.192C1726.96 98.1329 1724.03 91.3591 1720.29 85.0284V85.0284ZM1668.48 165.683H1592.19V105.248H1668.37C1671.34 115.109 1672.84 125.36 1672.79 135.661C1672.81 145.825 1671.36 155.937 1668.48 165.683V165.683ZM188.809 64.8649H-6.10352e-05V185.902H60.4906V165.683H188.641C192.339 159.344 195.236 152.571 197.267 145.519C200.164 135.698 201.635 125.513 201.635 115.274C201.665 105.073 200.212 94.923 197.323 85.1404C195.322 78.0601 192.463 71.251 188.809 64.8649V64.8649ZM136.72 145.575H60.4906V85.0284H136.832C139.72 94.8484 141.154 105.038 141.089 115.274C141.125 125.534 139.653 135.743 136.72 145.575V145.575ZM2157.05 64.8649H2036.01L1995.69 185.902H2056.18L2062.9 165.739H2157.05V185.902H2217.54V64.8649H2157.05ZM2157.05 145.575H2069.68L2089.78 85.0844H2157L2157.05 145.575ZM1107.99 64.8649H1067.72V185.902H1269.41V165.739H1128.21V133.197H1233.11V113.033H1128.21V85.0284H1269.41V64.8649H1128.21H1107.99Z" fill="#D0043C"/>
</g>
<defs>
<clipPath id="clip0_53_536">
<rect width="2500" height="250" fill="white"/>
</clipPath>
</defs>
</svg>
