<svg width="250" height="101" viewBox="0 0 250 101" fill="none" xmlns="http://www.w3.org/2000/svg">
<path fill-rule="evenodd" clip-rule="evenodd" d="M62.6206 28.785C40.8127 13.5906 15.7166 13.3014 6.74771 28.1381C-2.22284 42.9781 8.25228 67.4724 30.0551 82.6652C51.8629 97.8629 76.9624 98.1522 85.9296 83.3138C94.9002 68.4738 84.4301 43.9761 62.6206 28.785ZM65.0964 28.7516C89.3818 45.6696 101.254 72.5679 91.5517 88.6316C81.8439 104.694 54.1198 104 29.8394 87.0836C5.56579 70.1656 -6.32194 43.2623 3.38584 27.2002C13.0953 11.1365 40.8127 11.8336 65.0964 28.7516" fill="#008490"/>
<path fill-rule="evenodd" clip-rule="evenodd" d="M65.0504 9.45369C61.8624 6.06508 53.6407 9.38348 46.7381 16.8578C39.8405 24.3288 36.8113 33.1857 39.996 36.5793C43.1857 39.9713 51.4073 36.6495 58.3099 29.1819C65.2075 21.7075 68.2384 12.8473 65.0504 9.45369ZM38.7305 18.9458L41.3585 18.5747L40.7299 16.1691L43.4565 16.3078L43.1539 13.5411L45.2637 14.3519L45.8521 13.7584L45.6766 11.1187L47.2045 12.2388L48.3547 11.311L48.3447 9.15613L49.1588 9.81981L49.3076 10.5888L50.9726 9.19792L51.1047 6.88758L51.5394 7.55126L51.8319 8.88697L53.497 7.80369L53.823 4.97845L54.3027 5.48666L54.4248 7.21189L55.9494 6.58666L56.7318 3.06765L57.3052 4.09243L57.1664 6.04168L58.3367 5.70231L59.7844 1.61825L60.3377 3.12783L59.6022 5.4131L60.5133 5.25596L62.8821 0.626912L63.3953 2.60124L61.8975 5.20079L62.5645 5.1941L65.8411 1.0352e-05L66.376 2.10139L63.8567 5.34289L64.5221 5.44319L68.9472 0.0367907L69.4805 2.03619L65.7491 6.07511L66.1771 6.38104L71.866 0.484816L72.304 2.59121L67.1116 7.33059L67.3523 7.63651L73.8755 2.22008L74.3352 1.88573L74.9738 3.96537L68.1916 9.09093L68.4072 9.61585L76.47 4.16097L77.224 6.11189L69.1846 10.8931L69.4872 11.8677L77.8141 7.24198L78.7569 9.04579L69.87 13.1232L70.0639 14.5308L78.0832 11.4314L79.4022 12.4311L79.4975 13.1767L70.0438 15.808L69.885 17.687L77.5265 16.6723L79.1364 17.2975L79.1398 18.2036L69.4002 19.3203L68.9656 21.4083L76.7743 22.5785L77.5466 23.0499L77.5299 23.8306L69.9318 23.3358L68.0578 23.1954L67.0648 25.2316L74.6227 28.8843L74.7464 29.5597L74.5141 30.1147L73.8621 30.2167L65.694 27.6188L64.6475 29.1033L70.4183 35.3005L70.537 35.7786L70.0539 36.3553L68.3236 36.1647L62.0713 32.3548L61.2321 32.9567L65.4198 41.2719L65.047 41.7718L64.5087 42.0008L61.4344 41.1783L59.7509 39.0552L58.0675 36.9354L59.5503 46.2955C58.1494 46.5997 56.6816 46.4376 55.1553 45.809L53.9751 42.6277L53.6006 49.6256L49.0869 48.6192L48.9732 47.892L48.119 51.4829L43.8477 50.4748L43.1924 51.9309L39.7787 50.54L39.3808 51.1168L35.6395 49.2812L35.7949 48.9051L33.0315 47.3152L33.5882 46.3055L31.5036 44.7307L32.2676 43.3984L30.768 41.5511L31.9299 40.0382L30.5189 38.2912L32.1037 36.6245L30.9987 34.9477L32.8376 33.3077L31.9483 31.6109L33.946 30.0412L33.2622 28.2658L35.3653 26.9535L34.8337 24.9942L37.124 23.8808L36.6074 21.8764L39.1652 21.1107L38.7305 18.9458V18.9458Z" fill="#008490"/>
<path fill-rule="evenodd" clip-rule="evenodd" d="M32.1694 55.2498V64.227H33.8946V62.6272H35.5948V66.2047H30.6213L30.6247 53.3474H35.7402L35.7369 57.0001H34.0367V55.2498H32.1694Z" fill="#008490"/>
<path fill-rule="evenodd" clip-rule="evenodd" d="M40.8857 53.3376H42.5139V66.1949L40.8857 66.1933V59.9844L38.9949 62.0741V66.1933H37.365V53.3376H38.9949V59.9978L40.8857 57.9098V53.3376Z" fill="#008490"/>
<path fill-rule="evenodd" clip-rule="evenodd" d="M44.1755 66.1904H45.8724V55.2104H47.5424V66.1954H49.2459V55.3492V53.3381H45.8724V55.177H44.1755V66.1904Z" fill="#008490"/>
<path fill-rule="evenodd" clip-rule="evenodd" d="M51.049 66.1904H56.1327V53.3381L51.0523 53.3448L51.049 66.1904ZM52.7625 55.0165H54.4326V64.4301H52.7625V55.0165Z" fill="#008490"/>
<path fill-rule="evenodd" clip-rule="evenodd" d="M68.2041 58.8237H69.911V53.3438H68.2041V58.8237Z" fill="#008490"/>
<path fill-rule="evenodd" clip-rule="evenodd" d="M66.4619 64.4024H68.1353V62.5318H66.4619V64.4024ZM66.4619 60.7848H69.7452H69.8354V65.8084V66.1577H64.7617V53.3271H66.4619V60.7848V60.7848Z" fill="#008490"/>
<path fill-rule="evenodd" clip-rule="evenodd" d="M59.6544 64.4493H61.3178V62.5803H59.6544V64.4493ZM59.6544 56.995H61.3178V55.0909H59.6544V56.995ZM59.6544 60.83H63.0179L63.0153 66.1963H59.6551H57.9482V53.3373H63.0153L63.0179 58.7403H59.6544V60.83Z" fill="#008490"/>
<path fill-rule="evenodd" clip-rule="evenodd" d="M73.2046 55.2465V58.9461H75.0635V60.6212H73.2046V64.2238H74.9281V62.6272H76.6283V64.2238V64.9861V66.1964H71.6532V53.3441H76.7637L76.7704 56.9952H75.0736V55.2465H73.2046Z" fill="#008490"/>
<path fill-rule="evenodd" clip-rule="evenodd" d="M42.4288 71.7296H44.0989V75.374H42.4288V71.7296ZM40.7286 82.6093H42.4288V77.1226H44.0989V82.6093H45.799V69.8322H42.4255V71.656H40.7286V82.6093Z" fill="#008490"/>
<path fill-rule="evenodd" clip-rule="evenodd" d="M32.1917 69.642H33.9655V71.6965H32.2469L32.2503 82.6046H30.5468V71.4641H32.1917V69.642ZM33.9153 82.6046H35.6155V71.7768H37.2822V82.6046H38.9857L38.989 69.8727H35.6155V71.6999H33.9153V82.6046V82.6046Z" fill="#008490"/>
<path fill-rule="evenodd" clip-rule="evenodd" d="M56.0593 69.8458H54.3592V80.7706H52.6891V69.8458H50.9889V80.7706H49.3189V69.8458H47.6154V82.5978H56.0693L56.0593 69.8458Z" fill="#008490"/>
<path fill-rule="evenodd" clip-rule="evenodd" d="M75.0945 75.4075H76.7913V69.9242H75.0945V75.4075Z" fill="#008490"/>
<path fill-rule="evenodd" clip-rule="evenodd" d="M73.3545 80.9326H75.0229V79.057H73.3545V80.9326ZM73.3545 77.3066H76.7247L76.7274 82.6796H71.6536L71.647 69.854H73.3538V77.3066H73.3545Z" fill="#008490"/>
<path fill-rule="evenodd" clip-rule="evenodd" d="M61.4041 69.8408H63.034V82.6062H61.4041V76.3756L59.5117 78.4653V82.6062H57.8817V69.8408H59.5117V76.3923L61.4041 74.2977V69.8408Z" fill="#008490"/>
<path fill-rule="evenodd" clip-rule="evenodd" d="M68.2774 82.6074H69.9775V69.8504H68.2774V75.4357H66.4619V69.8504H64.7617V82.6074H66.4619V77.1893H68.2774V82.6074Z" fill="#008490"/>
<path fill-rule="evenodd" clip-rule="evenodd" d="M121.667 15.4996V41.3183H126.628V36.7171H131.518V47.0061H117.214L117.224 10.0282H131.936L131.927 20.5335H127.037V15.4996H121.667Z" fill="#008490"/>
<path fill-rule="evenodd" clip-rule="evenodd" d="M146.735 10.0001H151.418V46.978L146.735 46.9732V29.1165L141.297 35.1264V46.9732H136.609V10.0001H141.297V29.155L146.735 23.1498V10.0001Z" fill="#008490"/>
<path fill-rule="evenodd" clip-rule="evenodd" d="M156.197 46.9648H161.077V15.3862H165.88V46.9792H170.779V15.7853V10.0013H161.077V15.2901H156.197V46.9648Z" fill="#008490"/>
<path fill-rule="evenodd" clip-rule="evenodd" d="M175.965 46.9648H190.586V10.0013L175.974 10.0205L175.965 46.9648ZM180.893 14.8285H185.696V41.9021H180.893V14.8285Z" fill="#008490"/>
<path fill-rule="evenodd" clip-rule="evenodd" d="M225 26.0355H230V10.0355H225V26.0355Z" fill="#008490"/>
<path fill-rule="evenodd" clip-rule="evenodd" d="M220.026 41.9736H224.974V36.5791H220.026V41.9736ZM220.026 31.5413H229.733H230V46.028V47.0355H215V10.0355H220.026V31.5413V31.5413Z" fill="#008490"/>
<path fill-rule="evenodd" clip-rule="evenodd" d="M200.712 42.0088H205.305V36.6311H200.712V42.0088ZM200.712 20.5602H205.305V15.0813H200.712V20.5602ZM200.712 31.5947H210L209.993 47.0355H200.713H196V10.0355H209.993L210 25.582H200.712V31.5947Z" fill="#008490"/>
<path fill-rule="evenodd" clip-rule="evenodd" d="M239.685 15.4901V26.1301H245.031V30.9477H239.685V41.3088H244.642V36.7172H249.531V41.3088V43.5012V46.9822H235.223V10.0186H249.921L249.94 20.5192H245.06V15.4901H239.685Z" fill="#008490"/>
<path fill-rule="evenodd" clip-rule="evenodd" d="M151.03 62.5302H155.97V73.0836H151.03V62.5302ZM146 94.0356H151.03V78.1473H155.97V94.0356H161V57.0356H151.02V62.3173H146V94.0356Z" fill="#008490"/>
<path fill-rule="evenodd" clip-rule="evenodd" d="M121.731 56.8915H126.832V62.8005H121.89L121.899 94.1724H117V62.1322H121.731V56.8915ZM126.688 94.1724H131.578V63.0313H136.371V94.1724H141.271L141.28 57.555H131.578V62.8101H126.688V94.1724V94.1724Z" fill="#008490"/>
<path fill-rule="evenodd" clip-rule="evenodd" d="M190.375 57.4778H185.485V88.8977H180.682V57.4778H175.792V88.8977H170.989V57.4778H166.09V94.1528H190.403L190.375 57.4778Z" fill="#008490"/>
<path fill-rule="evenodd" clip-rule="evenodd" d="M245 73.0356H250V58.0356H245V73.0356Z" fill="#008490"/>
<path fill-rule="evenodd" clip-rule="evenodd" d="M240.041 88.9958H244.967V83.5849H240.041V88.9958ZM240.041 78.5354H249.992L250 94.0356H235.02L235 57.0356H240.039V78.5354H240.041Z" fill="#008490"/>
<path fill-rule="evenodd" clip-rule="evenodd" d="M205.746 57.4635H210.434V94.177H205.746V76.2578L200.304 82.2677V94.177H195.616V57.4635H200.304V76.3059L205.746 70.2815V57.4635Z" fill="#008490"/>
<path fill-rule="evenodd" clip-rule="evenodd" d="M225.514 94.1804H230.404V57.491H225.514V73.5543H220.293V57.491H215.403V94.1804H220.293V78.5979H225.514V94.1804Z" fill="#008490"/>
</svg>
