<svg width="14" height="20" viewBox="0 0 14 20" fill="none" xmlns="http://www.w3.org/2000/svg">
<path fill-rule="evenodd" clip-rule="evenodd" d="M6.25283 0.540766C3.87421 0.804279 1.80609 2.2257 0.732622 4.33487C0.146051 5.48736 -0.128033 6.98645 0.0573847 8.02815C0.416057 10.0435 2.14104 13.0808 5.21787 17.1149C5.99839 18.1382 6.9646 19.3462 7.00262 19.3462C7.04379 19.3462 7.96025 18.2004 8.8169 17.078C12.3206 12.4873 14.0009 9.33672 14 7.35991C13.9992 5.7193 13.362 4.08261 12.2342 2.82424C10.7498 1.16796 8.4649 0.295693 6.25283 0.540766ZM7.69467 3.17287C8.60199 3.31789 9.42013 3.73066 10.0713 4.37194C10.5578 4.85091 10.9055 5.39988 11.1175 6.02361C11.8177 8.08277 10.8774 10.2962 8.89633 11.2523C6.78539 12.2712 4.21203 11.4284 3.13883 9.36677C2.58063 8.29446 2.50229 7.04812 2.92186 5.91525C3.62696 4.0115 5.65406 2.84674 7.69467 3.17287Z" fill="#01426A"/>
</svg>
