<svg width="16" height="16" viewBox="0 0 16 16" fill="none" xmlns="http://www.w3.org/2000/svg">
<path fill-rule="evenodd" clip-rule="evenodd" d="M3.38548 0.520257C3.23804 0.556338 2.17316 0.992135 1.82563 1.15861C1.32342 1.39912 1.13944 1.52397 0.978038 1.73372C0.225955 2.71112 0.364326 4.37352 1.37171 6.46397C2.47499 8.75333 4.64045 11.2844 7.03777 13.0866C9.05227 14.601 11.1703 15.5145 12.6751 15.5179C13.4012 15.5195 14.0298 15.3013 14.4183 14.9129C14.5497 14.7814 14.6209 14.6662 14.8106 14.2773C14.938 14.0161 15.1451 13.545 15.2708 13.2303C15.4886 12.685 15.4993 12.6473 15.5 12.423C15.5006 12.2153 15.4894 12.1647 15.4039 11.9911C15.3415 11.8642 15.2634 11.7594 15.1839 11.6955C15.0715 11.6053 12.8914 10.3342 12.5819 10.1785C12.4041 10.089 12.1155 10.0694 11.8996 10.1322C11.6589 10.2022 11.5069 10.3326 11.3 10.6466C10.9734 11.1426 10.6652 11.3819 10.2171 11.4875C9.81374 11.5827 9.32053 11.4921 8.98078 11.2606C8.31344 10.8058 7.016 9.64663 6.23998 8.81191C5.48983 8.005 4.78565 7.13573 4.64649 6.84488C4.42645 6.38485 4.4378 5.85553 4.6775 5.39938C4.80663 5.15364 5.0152 4.94669 5.36786 4.71441C5.68186 4.50758 5.81225 4.35559 5.88224 4.11484C5.94525 3.89809 5.92548 3.61011 5.83542 3.43255C5.71433 3.19388 4.41815 0.955994 4.34326 0.856344C4.14906 0.597935 3.70484 0.44205 3.38548 0.520257Z" fill="#01426A"/>
</svg>
