<svg width="70" height="70" viewBox="0 0 70 70" fill="none" xmlns="http://www.w3.org/2000/svg">
<path d="M64.9651 0.941397C63.9104 0.964797 62.9065 1.4102 62.1721 2.1719L35.0002 29.3437L7.82838 2.1719C7.07448 1.3984 6.03928 0.960898 4.95728 0.960898C3.33228 0.964798 1.86738 1.9492 1.25418 3.457C0.644777 4.9648 1.00808 6.6953 2.17208 7.8281L29.344 35L2.17208 62.1719C1.12908 63.1758 0.707276 64.668 1.07058 66.0664C1.43768 67.4688 2.53148 68.5664 3.93378 68.9297C5.33618 69.2969 6.82448 68.875 7.82838 67.8281L35.0002 40.6562L62.1721 67.8281C63.176 68.875 64.6682 69.2969 66.0667 68.9297C67.469 68.5664 68.5666 67.4688 68.9299 66.0664C69.2971 64.668 68.8752 63.1758 67.8284 62.1719L40.6565 35L67.8284 7.8281C69.0198 6.6875 69.387 4.9297 68.7542 3.4062C68.1213 1.8828 66.6174 0.902297 64.9651 0.941397Z" fill="white"/>
</svg>
