<svg width="68" height="55" viewBox="0 0 68 55" fill="none" xmlns="http://www.w3.org/2000/svg">
<path d="M64.9091 0L3.09091 0C1.38385 0 0 1.567 0 3.5C0 5.433 1.38385 7 3.09091 7L64.9091 7C66.6161 7 68 5.433 68 3.5C68 1.567 66.6161 0 64.9091 0Z" fill="white"/>
<path d="M65.5 24L15.5 24C14.1193 24 13 25.567 13 27.5C13 29.433 14.1193 31 15.5 31L65.5 31C66.8807 31 68 29.433 68 27.5C68 25.567 66.8807 24 65.5 24Z" fill="white"/>
<path d="M66.0909 48H27.9091C26.8547 48 26 49.567 26 51.5C26 53.433 26.8547 55 27.9091 55H66.0909C67.1453 55 68 53.433 68 51.5C68 49.567 67.1453 48 66.0909 48Z" fill="white"/>
</svg>
