<svg width="257" height="50" viewBox="0 0 257 50" fill="none" xmlns="http://www.w3.org/2000/svg">
<path d="M8.73114 7.26113C9.87039 7.20354 11.0146 7.23609 12.1539 7.2411C12.7899 7.19103 13.0653 7.86455 13.3007 8.33027C16.8711 15.7466 20.5143 23.128 24.0521 30.5568C24.2099 30.4066 24.345 30.2389 24.4577 30.0535C28.2561 22.6572 32.087 15.2759 35.8927 7.88208C36.0605 7.5741 36.3359 7.22106 36.729 7.24862C37.7857 7.2436 38.8498 7.17099 39.8989 7.29618C40.1418 7.53655 40.1944 7.88208 40.252 8.20256C41.6917 18.904 43.1289 29.6078 44.5685 40.3093C44.6688 40.7775 44.6111 41.5336 43.9726 41.5186C41.882 41.5536 39.7887 41.5286 37.6955 41.5312C37.2048 41.6113 36.684 41.2457 36.6589 40.7349C36.1081 33.7817 35.5346 26.8061 34.2302 19.9481C30.7273 26.5832 27.3522 33.2885 23.8744 39.9362C23.3936 40.83 22.2143 40.8526 21.3555 40.6172C20.6694 40.3994 20.4116 39.6758 20.1311 39.0873C17.2517 33.1308 14.3572 27.1791 11.4703 21.2225C11.2175 20.6817 10.9621 20.1408 10.6466 19.6326C9.26946 26.5657 8.55839 33.614 7.95746 40.6523C7.93243 41.0654 7.64949 41.4986 7.1963 41.5086C5.98694 41.5812 4.77258 41.5061 3.56323 41.5386C5.09808 30.5017 6.71807 19.4773 8.25541 8.44044C8.32803 8.02479 8.35057 7.52904 8.73114 7.26113ZM122.801 9.2066C123.036 8.42541 123.975 8.63323 124.599 8.59317C125.352 8.5531 126.339 8.63073 126.632 9.46951C128.455 13.9764 130.315 18.4684 132.105 22.9877C129.864 23.5461 127.586 23.9391 125.342 24.48C124.526 22.3618 123.762 20.2235 123.011 18.0802C121.872 20.6617 121.239 23.4635 120.134 26.0549C118.467 26.8161 116.819 27.6649 115.402 28.8391C114.996 29.1796 114.601 29.5327 114.153 29.8132C117.072 22.9602 119.901 16.0671 122.801 9.2066ZM179.968 8.77345C183.937 8.36782 188.101 8.68331 191.744 10.4135C196.005 12.4516 199.391 16.3826 200.468 21.0172C201.271 24.5426 201.165 28.3259 199.936 31.7436C198.314 36.1628 194.568 39.6884 190.156 41.2607C186.365 42.5627 182.23 42.6704 178.306 41.9894C173.777 41.1855 169.63 38.4339 167.189 34.5304C164.897 30.8723 164.359 26.3303 165.06 22.1264C165.646 18.5509 167.535 15.2208 170.294 12.8748C172.955 10.4861 176.433 9.1365 179.968 8.77345ZM180.822 11.6729C178.496 12.076 176.441 13.5332 175.149 15.4887C173.047 18.4532 172.54 22.199 172.6 25.7469C172.555 29.4376 173.286 33.3336 175.695 36.2505C179.027 40.5672 186.406 40.6573 189.878 36.4709C191.995 34.0321 192.936 30.7996 193.101 27.6248C193.209 24.5827 193.217 21.4504 192.18 18.5484C191.412 16.4377 190.144 14.4471 188.322 13.1C186.181 11.5577 183.371 11.2072 180.822 11.6729ZM50.5427 10.4836C50.4826 10.0504 50.748 9.50706 51.2363 9.50456C53.0816 9.4595 54.9294 9.48454 56.7748 9.49205C57.3105 9.43446 57.6436 10.0128 57.6111 10.4886C57.6235 17.3466 57.6135 24.2046 57.6161 31.0626C57.929 30.8248 58.212 30.5518 58.4723 30.2563C64.2837 23.819 69.5818 16.9409 74.8299 10.0429C75.7238 9.10896 77.1609 9.58719 78.3027 9.49705C78.7609 9.40691 78.9338 9.84759 78.8962 10.2232C78.9062 20.2485 78.8911 30.2739 78.9036 40.2993C78.9662 40.8326 78.7058 41.5636 78.0573 41.521C76.2847 41.5486 74.5094 41.5336 72.7341 41.5286C72.2911 41.5937 71.8253 41.2407 71.8379 40.7775C71.7927 33.8243 71.8654 26.8662 71.8003 19.9105C65.9739 25.9723 61.0138 32.7927 55.8132 39.3828C55.1522 40.114 54.7316 41.2307 53.6976 41.4911C52.7211 41.5662 51.7321 41.5737 50.758 41.4835C50.4576 41.2607 50.5777 40.835 50.5377 40.5195C50.5502 30.5067 50.5377 20.4964 50.5427 10.4836ZM86.8508 10.4911C86.7807 9.96027 87.1963 9.37937 87.7748 9.48954C90.9521 9.47703 94.1345 9.48704 97.3144 9.48704C99.8832 9.55464 102.532 9.80253 104.871 10.9568C108.016 12.5342 110.106 15.9845 110.081 19.4999C110.131 21.8835 109.576 24.3723 108.058 26.2627C106.556 28.1707 104.272 29.2873 101.961 29.8732C99.3399 30.5243 96.6082 30.7071 93.9167 30.5868C93.9267 33.8969 93.9267 37.2095 93.9191 40.5195C93.9893 41.0278 93.6162 41.5937 93.0603 41.5262C91.2175 41.5312 89.3697 41.5612 87.5294 41.5111C87.0636 41.4861 86.8058 40.9577 86.8508 40.5396C86.8458 30.5218 86.8458 20.5064 86.8508 10.4911ZM93.9241 12.3689C93.9241 17.5844 93.9141 22.7999 93.9291 28.0154C96.2152 28.1357 98.694 27.7375 100.447 26.15C102.307 24.5 102.908 21.8911 102.883 19.4949C102.915 17.5144 102.277 15.3961 100.69 14.1141C98.8192 12.5693 96.2677 12.2663 93.9241 12.3689ZM139.601 9.48203C147.365 9.51208 155.133 9.43446 162.892 9.51959C162.95 9.58218 163.063 9.70737 163.118 9.76997C163.165 10.9017 163.215 12.0535 163.09 13.1827C162.827 13.6809 162.199 13.4932 161.755 13.4455C159.472 13.0199 157.149 12.8948 154.83 12.8622C154.822 22.0863 154.835 31.3104 154.824 40.5346C154.88 41.0528 154.454 41.6387 153.891 41.5286C152.131 41.5362 150.371 41.5436 148.61 41.5262C148.064 41.5862 147.691 41.0378 147.756 40.5371C147.746 31.3104 147.762 22.0839 147.749 12.8572C145.276 12.8848 142.801 13.07 140.363 13.5082C139.88 13.6534 139.346 13.2978 139.396 12.7721C139.406 11.6829 139.162 10.5136 139.601 9.48203ZM206.659 10.466C206.58 9.99532 206.922 9.4645 207.439 9.49455C210.623 9.46701 213.808 9.49205 216.995 9.48454C219.68 9.55714 222.478 9.79 224.887 11.087C228 12.727 229.945 16.2449 229.885 19.7377C229.874 22.2917 229.162 24.9732 227.336 26.8386C225.248 29.0295 222.208 29.9434 219.294 30.354C217.456 30.5618 215.594 30.7221 213.745 30.5744C213.7 33.8994 213.755 37.2271 213.721 40.5521C213.768 41.0954 213.297 41.6187 212.739 41.5286C210.973 41.5362 209.205 41.5462 207.441 41.5236C206.924 41.5512 206.569 41.0203 206.659 40.5446C206.656 30.5193 206.654 20.4914 206.659 10.466ZM213.728 12.3765C213.732 17.5869 213.728 22.7999 213.731 28.013C215.931 28.1231 218.297 27.765 220.042 26.3203C221.763 24.9157 222.499 22.6672 222.639 20.5139C222.839 18.3131 222.396 15.8443 220.691 14.2969C218.823 12.6018 216.151 12.2588 213.728 12.3765ZM235.391 10.4836C235.328 9.98781 235.699 9.42695 236.245 9.49205C241.76 9.48203 247.28 9.47201 252.798 9.49705C253.313 9.46951 253.294 10.118 253.323 10.4736C253.331 11.3649 253.517 12.3139 253.181 13.1627C252.913 13.7011 252.237 13.4781 251.773 13.4431C248.696 12.9423 245.572 12.8998 242.462 12.8722C242.462 22.0963 242.467 31.3205 242.459 40.5446C242.524 41.073 242.091 41.6287 241.531 41.5286C239.768 41.5362 238.005 41.5462 236.245 41.5236C235.719 41.5687 235.336 41.0278 235.389 40.5396C235.389 30.5218 235.383 20.5014 235.391 10.4836ZM135.247 31.1302L135.36 31.05C136.712 34.1323 137.894 37.2921 139.201 40.3969C139.404 40.7675 139.519 41.5586 138.883 41.5161C136.792 41.5636 134.699 41.5186 132.606 41.5362C132.015 41.6012 131.406 41.2682 131.231 40.6848C130.547 38.8095 129.824 36.9441 129.203 35.0487C130.36 34.5078 131.609 34.1072 132.662 33.3436C133.637 32.7452 134.409 31.8939 135.247 31.1302Z" fill="#575656"/>
<path d="M134.528 23.6911C135.81 23.2379 136.937 22.4643 137.994 21.6255C137.373 24.9081 136.049 28.1755 133.715 30.6193C131.864 32.5423 129.326 33.6439 126.734 34.1247C123.96 34.6931 121.043 34.4952 118.364 35.5143C118.977 34.6479 119.646 33.7966 120.522 33.1807C122.683 31.5607 125.362 30.9573 127.878 30.126C129.591 29.5727 131.349 28.8641 132.586 27.5045C129.649 29.0068 126.258 29.0243 123.189 30.136C121.01 30.8772 118.985 32.2568 117.793 34.2624C116.573 36.3031 116.045 38.6591 115.136 40.8374C114.961 41.2481 114.543 41.541 114.092 41.526C112.487 41.5486 110.885 41.5386 109.282 41.5184C110.684 38.3386 111.711 34.8983 114.005 32.2068C116.193 29.5201 119.303 27.7348 122.58 26.7159C126.491 25.4264 130.668 25.1434 134.528 23.6911Z" fill="#64AF41"/>
</svg>
