<svg width="224" height="70" viewBox="0 0 224 70" fill="none" xmlns="http://www.w3.org/2000/svg">
<path d="M77.8444 4.46256H78.5128L79.5373 6.08169H80.1585L79.0907 4.42085C79.669 4.3771 80.0694 4.07094 80.0694 3.41445C80.0694 2.67129 79.6257 2.3222 78.7354 2.3222H77.2678V6.08169H77.8449V4.46256H77.8444ZM77.8444 2.80252H78.646C79.0469 2.80252 79.4915 2.88999 79.4915 3.37153C79.4915 3.93932 79.0464 3.98305 78.5569 3.98305H77.8441V2.80252H77.8444Z" fill="#C8102E"/>
<path d="M78.5567 7.52476C80.3353 7.52476 81.8938 6.08178 81.8938 4.20142C81.8938 2.32188 80.3353 0.965576 78.5567 0.965576C76.7335 0.965576 75.1313 2.32188 75.1313 4.20142C75.1313 6.08138 76.7335 7.52476 78.5567 7.52476ZM78.5567 1.49084C80.0685 1.49084 81.2268 2.67098 81.2268 4.20142C81.2268 5.77602 80.0685 6.91241 78.5567 6.91241C77.0428 6.91241 75.8432 5.77561 75.8432 4.20142C75.8437 2.67098 77.0432 1.49084 78.5567 1.49084Z" fill="#C8102E"/>
<path d="M74.4358 52.0579C74.4358 54.0472 72.8214 55.6607 70.833 55.6607C68.8441 55.6607 67.2331 54.0472 67.2331 52.0579C67.2331 50.0695 68.8441 48.4588 70.833 48.4588C72.8214 48.4588 74.4358 50.0695 74.4358 52.0579Z" fill="#C8102E"/>
<path d="M119.086 8.35771C113.776 5.39969 90.154 12.088 82.5743 37.6269C81.682 37.872 77.3953 38.9865 77.3953 38.9865L75.5214 44.0339L82.168 42.0065C82.168 42.0065 81.4387 54.25 92.5844 54.6158C101.336 54.2889 105.914 41.8437 103.111 33.0882C102.577 33.3706 95.5833 36.7356 95.5833 36.7356C95.5833 36.7356 97.2036 46.3447 93.3137 47.5208C92.0543 47.682 90.576 43.8355 91.9311 38.0732C110.524 28.4058 122.312 10.1692 119.086 8.35771ZM111.67 14.1952C115.234 13.8737 98.0954 32.1147 93.7167 33.0057C92.2996 32.1961 104.578 15.9391 111.67 14.1952Z" fill="#C8102E"/>
<path d="M108.873 31.6696V35.2763C108.873 35.2763 113.614 32.196 113.979 32.7642C114.099 34.385 108.105 48.0889 107.983 50.1548C107.86 51.4122 109.035 56.1559 114.586 53.6826C117.303 52.5081 124.587 46.5366 124.587 46.5366C124.587 46.5366 123.413 49.5833 123.911 52.0189C124.404 54.4553 127.428 55.0968 130.152 54.088C132.878 53.0771 135.989 51.0057 137.33 49.3849C137.127 48.8563 136.356 46.4248 136.356 46.4248C136.356 46.4248 133.913 48.7296 133.312 48.4291C132.709 48.127 140.247 26.0349 140.247 26.0349C140.247 26.0349 132.518 25.7357 131.747 25.7357C130.473 31.5391 123.257 46.262 118.277 46.9117C116.571 46.7897 124.314 29.5202 124.6 27.5734C125.167 25.0188 123.257 23.8443 120.991 24.3712C118.6 25.1832 108.873 31.6696 108.873 31.6696Z" fill="#C8102E"/>
<path d="M161.977 25.49C161.977 25.49 161.04 27.8016 160.866 28.2002C159.888 26.5122 156.507 23.2229 149.526 27.5793C142.239 32.2913 139.126 40.3384 140.107 48.872C141.173 55.9402 148.817 56.7825 153.972 50.7814C153.44 52.3399 147.971 69.1428 147.971 69.1428L156.461 69.1869L170.333 25.667L161.977 25.49ZM152.669 46.5149C151.47 47.1803 149.604 48.29 149.34 44.0675C149.204 39.0899 153.211 33.525 153.977 32.6526C155.977 30.3863 158.471 30.3445 158.408 33.9335C158.143 38.0661 155.471 44.6005 152.669 46.5149Z" fill="#C8102E"/>
<path d="M25.6413 54.0439C21.3959 49.5574 24.6978 41.2978 25.4097 33.9812C24.4637 34.9264 15.0222 56.8748 6.52556 55.9267C-1.02623 53.5726 -0.0826133 45.0727 2.27725 38.7013H14.5483C10.7727 49.084 15.9646 44.8369 19.5058 38.23C26.5862 23.8334 27.0588 22.6541 34.8476 0.938721C39.3311 0.938721 43.814 0.938721 48.3008 0.938721C44.289 13.2127 40.5109 25.2493 38.8613 37.9934C38.8613 38.4649 39.0959 38.9371 39.5685 38.7013C42.3986 38.23 57.9768 3.30182 59.3918 0.938721C63.4057 0.938721 68.1262 0.938721 72.3712 0.938721C72.3712 2.11886 57.9768 41.533 60.337 45.3083C61.5185 47.4321 63.1716 43.4219 64.5854 41.7679L66.7116 43.8933C62.4632 48.6154 57.5082 57.1084 50.4266 55.6942C49.4818 55.4577 48.5378 54.9888 47.8315 54.2784C40.5113 47.9071 53.7292 24.8727 52.315 23.3609C51.8752 23.4099 51.435 24.5807 50.6607 26.1921C46.6469 34.4539 37.4471 56.1657 29.8897 56.1657C28.712 56.1657 26.3485 54.9883 25.6413 54.0439Z" fill="#C8102E"/>
<path d="M178.563 47.5699C194.298 39.3008 198.074 28.8109 193.231 25.8763C186.072 21.8754 166.472 29.0323 168.694 48.6378C167.713 49.2145 165.667 50.3265 165.667 50.3265L167.092 54.238C167.092 54.238 169.981 52.5059 170.727 51.9882C180.741 60.107 191.729 46.7946 191.729 46.7946L189.807 43.8354C189.808 43.8354 181.491 51.8348 178.563 47.5699ZM180.65 35.5664C182.917 31.5655 186.564 28.4544 188.341 29.6993C190.119 30.9446 186.518 37.256 178.042 43.9626C177.703 43.3782 178.382 39.5681 180.65 35.5664Z" fill="#C8102E"/>
<path d="M204.347 26.187L213.459 25.9212C213.459 25.9212 200.658 36.0221 202.523 45.5692C203.994 51.3726 209.41 48.5459 212.392 41.9684C212.966 40.679 216.569 31.9215 214.301 31.9215C212.034 31.9215 209.667 36.4116 209.667 36.4116L207.188 33.9225C207.188 33.9225 212.211 26.7641 217.93 24.8476C218.614 24.6322 222.744 23.7882 222.791 29.699C222.972 32.4549 219.996 47.5706 209.638 52.9035C200.137 57.7893 195.968 51.9384 195.216 50.1922C190.011 37.2702 204.347 26.187 204.347 26.187Z" fill="#C8102E"/>
</svg>
