<svg width="16" height="10" viewBox="0 0 16 10" fill="none" xmlns="http://www.w3.org/2000/svg">
<rect width="16" height="10" fill="#EE1C25"/>
<path fill-rule="evenodd" clip-rule="evenodd" d="M2.38913 2.91673L1.53803 3.48481L1.83829 2.53286L1.01203 1.93199L2.04869 1.91173L2.38913 0.97229L2.72956 1.91173L3.76622 1.93199L2.93996 2.53286L3.24022 3.48481L2.38913 2.91673Z" fill="#FFFF00"/>
<path fill-rule="evenodd" clip-rule="evenodd" d="M4.78886 1.14474L4.45187 1.21838L4.66859 0.960124L4.49145 0.675455L4.81448 0.793358L5.04199 0.54379L5.02491 0.874909L5.34267 1.00534L5.00908 1.09208L4.97795 1.42225L4.78886 1.14474Z" fill="#FFFF00"/>
<path fill-rule="evenodd" clip-rule="evenodd" d="M5.92353 2.07666L5.74465 2.36033L5.70153 2.0314L5.36499 1.95588L5.67781 1.81489L5.64869 1.48455L5.88514 1.72635L6.20369 1.5977L6.03701 1.88813L6.263 2.13897L5.92353 2.07666Z" fill="#FFFF00"/>
<path fill-rule="evenodd" clip-rule="evenodd" d="M5.81603 3.51851L5.53233 3.70787L5.63242 3.39055L5.357 3.19026L5.70255 3.18351L5.81603 2.87036L5.92951 3.18351L6.27506 3.19026L5.99964 3.39055L6.09973 3.70787L5.81603 3.51851Z" fill="#FFFF00"/>
<path fill-rule="evenodd" clip-rule="evenodd" d="M4.79507 4.42487L4.46096 4.50974L4.66816 4.24439L4.48076 3.96583L4.80789 4.07284L5.02618 3.81581L5.02116 4.1473L5.34346 4.26701L5.01324 4.36487L4.99414 4.69588L4.79507 4.42487Z" fill="#FFFF00"/>
</svg>
