<svg width="17" height="12" viewBox="0 0 17 12" fill="none" xmlns="http://www.w3.org/2000/svg">
<path fill-rule="evenodd" clip-rule="evenodd" d="M1.53227 0.576623C1.82906 0.861389 8.7272 6.94704 8.75318 6.94704C8.78035 6.94704 15.661 0.876959 15.9562 0.59258L16.0523 0.5H8.75231H1.45239L1.53227 0.576623ZM0.5 5.93079V10.6256L0.685352 10.4825C2.72307 8.90962 6.09281 6.26008 6.09281 6.23084C6.09281 6.20089 3.48682 3.87248 0.70147 1.4138L0.5 1.23596V5.93079ZM14.2026 3.72107C12.6705 5.07872 11.412 6.20421 11.406 6.22217C11.396 6.25257 11.8751 6.63059 15.5974 9.52908L16.9883 10.6122L16.9966 8.2613C17.0011 6.96835 17.0011 4.86245 16.9966 3.58156L16.9883 1.25266L14.2026 3.72107ZM4.31849 9.1459L1.61656 11.2504L5.18439 11.2586C7.14671 11.2631 10.3581 11.2631 12.3209 11.2586L15.8895 11.2504L13.1883 9.14539C11.7026 7.98763 10.4751 7.04475 10.4605 7.0501C10.446 7.05548 10.1368 7.32352 9.77352 7.64574C9.4102 7.96796 9.06551 8.25615 9.00758 8.28612C8.86123 8.36178 8.61953 8.35633 8.48031 8.2742C8.41842 8.23767 8.0764 7.94952 7.7203 7.63385C7.36416 7.31813 7.06102 7.05571 7.04662 7.05061C7.03217 7.04552 5.80453 7.9884 4.31849 9.1459Z" fill="#01426A"/>
</svg>
