<svg width="50" height="51" viewBox="0 0 50 51" fill="none" xmlns="http://www.w3.org/2000/svg">
<path fill-rule="evenodd" clip-rule="evenodd" d="M0.255729 0.812052L0 1.06791V10.5651V20.0624L0.255729 20.3182L0.511354 20.5742H2.90042C5.91375 20.5742 5.75208 20.6591 5.84562 19.027C5.90177 18.0462 5.95802 17.7776 6.22802 17.1999C6.67104 16.2525 7.26729 15.6446 8.2125 15.1771C8.95625 14.8092 9.05469 14.7877 10 14.7877C10.9453 14.7877 11.0438 14.8092 11.7875 15.1771C12.7327 15.6446 13.329 16.2525 13.772 17.1999C14.042 17.7776 14.0982 18.0462 14.1544 19.027C14.2479 20.6591 14.0863 20.5742 17.0996 20.5742H19.4886L19.7443 20.3182L20 20.0624V17.4113V14.7602L21.3281 14.7184C22.553 14.6797 22.7103 14.6511 23.3521 14.35C24.3178 13.8969 24.9227 13.3052 25.3922 12.3543C25.7598 11.6098 25.7812 11.5113 25.7812 10.5651C25.7812 9.61897 25.7598 9.52044 25.3922 8.77602C24.9227 7.82506 24.3178 7.23338 23.3521 6.78026C22.7103 6.47915 22.553 6.45059 21.3281 6.41191L20 6.3701V3.71895V1.06791L19.7443 0.812052L19.4886 0.556091H10H0.511354L0.255729 0.812052ZM30.2557 0.812052L30 1.06791V3.45913C30 6.47519 29.9152 6.31338 31.5458 6.407C32.5257 6.4632 32.7941 6.5195 33.3713 6.78975C34.3178 7.23317 34.9251 7.82996 35.3922 8.77602C35.7594 9.51961 35.7812 9.6198 35.7812 10.5597C35.7812 11.4616 35.7501 11.6214 35.4516 12.2521C34.9977 13.211 34.4006 13.8259 33.4822 14.2803C32.793 14.6211 32.6157 14.662 31.56 14.7224C29.9128 14.817 30 14.6523 30 17.6711V20.0624L30.2557 20.3182L30.5114 20.5742H33.16H35.8088L35.8505 21.9035C35.8892 23.1295 35.9177 23.2869 36.2185 23.9293C36.6712 24.8959 37.2624 25.5014 38.2125 25.9713C38.9562 26.3392 39.0547 26.3607 40 26.3607C40.9453 26.3607 41.0438 26.3392 41.7875 25.9713C42.7376 25.5014 43.3288 24.8959 43.7815 23.9293C44.0823 23.2869 44.1108 23.1295 44.1495 21.9035L44.1912 20.5742H47.0956H50V10.8211V1.06791L49.7443 0.812052L49.4886 0.556091H40H30.5114L30.2557 0.812052ZM9.02271 24.8539C8.36354 25.0197 7.42542 25.5754 6.97 26.0699C6.73615 26.3239 6.39792 26.8452 6.21854 27.2281C5.91771 27.8705 5.88917 28.0279 5.85052 29.2539L5.80875 30.5832H3.16H0.511354L0.255729 30.8392L0 31.095V40.5923V50.0895L0.255729 50.3454L0.511354 50.6013H10H19.4886L19.7443 50.3454L20 50.0895V47.6983C20 44.6794 20.0872 44.8441 18.44 44.7496C17.3843 44.6891 17.207 44.6482 16.5178 44.3074C15.5994 43.853 15.0023 43.2381 14.5484 42.2792C14.2499 41.6485 14.2188 41.4887 14.2188 40.5869C14.2188 39.6469 14.2406 39.5467 14.6078 38.8032C15.0749 37.8571 15.6822 37.2603 16.6288 36.8169C17.2059 36.5466 17.4743 36.4903 18.4542 36.4341C20.0848 36.3405 20 36.5023 20 33.4863V31.095L19.7443 30.8392L19.4886 30.5832H16.84H14.1912L14.1496 29.2416C14.1091 27.9429 14.0954 27.875 13.7222 27.119C13.0219 25.7008 11.768 24.8638 10.2343 24.7907C9.79031 24.7695 9.2451 24.798 9.02271 24.8539ZM30.2557 30.8392L30 31.095V33.7461V36.3972L28.6719 36.439C27.447 36.4777 27.2897 36.5063 26.6479 36.8074C25.6822 37.2605 25.0773 37.8522 24.6078 38.8032C24.2406 39.5467 24.2188 39.6469 24.2188 40.5869C24.2188 41.4887 24.2499 41.6485 24.5484 42.2792C25.006 43.2459 25.5981 43.8524 26.5389 44.3178C27.2942 44.6914 27.3621 44.7051 28.6596 44.7456L30 44.7873V47.4385V50.0895L30.2557 50.3454L30.5114 50.6013H40H49.4886L49.7443 50.3454L50 50.0895V40.5923V31.095L49.7443 30.8392L49.4886 30.5832H47.0996C44.0863 30.5832 44.2479 30.4984 44.1544 32.1305C44.0982 33.1112 44.042 33.3798 43.772 33.9575C43.329 34.905 42.7327 35.5128 41.7875 35.9803C41.0438 36.3482 40.9453 36.3697 40 36.3697C39.0547 36.3697 38.9562 36.3482 38.2125 35.9803C37.2673 35.5128 36.671 34.905 36.228 33.9575C35.958 33.3798 35.9018 33.1112 35.8456 32.1305C35.7521 30.4984 35.9137 30.5832 32.9004 30.5832H30.5114L30.2557 30.8392Z" fill="#01426A"/>
</svg>
