<svg width="39" height="51" viewBox="0 0 39 51" fill="none" xmlns="http://www.w3.org/2000/svg">
<path fill-rule="evenodd" clip-rule="evenodd" d="M2.81989 3.71389L0 6.85702V22.4372V38.0174H5.45091H10.9019L10.8307 37.7484C10.1888 35.3267 10.2269 32.9138 10.94 30.8239C12.632 25.865 17.4074 22.6353 22.6825 22.8819C24.3125 22.9582 25.584 23.2615 27.2755 23.9775C27.4413 24.0477 27.4502 23.455 27.4502 12.3038V0.556091L16.545 0.563427L5.63977 0.570861L2.81989 3.71389ZM20.596 25.44C16.9649 26.1207 14.2516 28.5052 13.2168 31.925C12.8959 32.9854 12.7877 34.7091 12.9718 35.8274C13.5566 39.3797 16.1386 42.2037 19.7353 43.225C20.788 43.5239 23.3284 43.5437 24.3973 43.2614C25.3745 43.0032 26.306 42.61 27.0911 42.1242L27.7676 41.7055L29.1007 43.0091L30.4337 44.3126L30.1398 44.6407C29.8057 45.0134 29.7449 45.5662 29.988 46.0182C30.2273 46.4629 34.0473 50.103 34.5374 50.3532C35.2092 50.6963 36.39 50.6816 37.0917 50.3214C38.0841 49.812 38.6667 48.8788 38.6667 47.7984C38.6667 46.7092 38.4829 46.4403 36.2056 44.1973C35.0959 43.1044 34.0667 42.147 33.9185 42.0699C33.4332 41.8176 32.9596 41.9097 32.4629 42.3532L32.2351 42.5566L30.9056 41.2565L29.5761 39.9565L30.0573 39.1719C31.0654 37.5284 31.5098 35.8312 31.4101 34.0071C31.1866 29.9239 28.4192 26.6096 24.3791 25.5869C23.3692 25.3312 21.5525 25.2607 20.596 25.44Z" fill="#01426A"/>
</svg>
