<svg width="60" height="51" viewBox="0 0 60 51" fill="none" xmlns="http://www.w3.org/2000/svg">
<path d="M0.279982 5.31012C0.969635 3.10756 2.79729 1.35077 5.02767 0.747087C5.57638 0.598582 8.13667 0.566822 20.1663 0.559962C32.7774 0.552594 34.7403 0.576604 35.3875 0.746071C37.6762 1.34518 39.596 3.27461 40.1922 5.57486C40.4816 6.6919 40.4816 24.1378 40.1922 25.2549C39.596 27.5551 37.6762 29.4846 35.3875 30.0837C34.7643 30.2468 33.5334 30.2782 27.7543 30.2782H20.864L16.1833 34.9639C13.6089 37.5411 11.3697 39.6903 11.2072 39.7399C10.7102 39.8915 10.0873 39.6978 9.7406 39.2837L9.417 38.8972V34.5876V30.2782H7.61071C6.41886 30.2782 5.55869 30.2139 5.08177 30.089C2.81196 29.4949 0.978231 27.7499 0.279982 25.5196C0.00164327 24.6304 0 24.5698 0 15.4149C0 6.25997 0.00164327 6.19938 0.279982 5.31012Z" fill="#01426A"/>
<path d="M42.8547 25.8319C43.0487 25.1247 43.0889 24.3167 43.1344 20.2031L43.1876 15.4L48.5807 15.4412L53.974 15.4823L54.7975 15.8031C56.5996 16.5051 57.7926 17.5976 58.6045 19.2895C59.334 20.8097 59.368 21.3042 59.3182 29.643C59.2756 36.7738 59.268 36.9674 58.9962 37.7825C58.2588 39.9942 56.4484 41.6962 54.2102 42.2821C53.7233 42.4097 52.8741 42.4737 51.6722 42.4737H49.8659V46.0429C49.8659 49.1449 49.8383 49.6589 49.6554 49.9701C49.4003 50.4041 48.9978 50.604 48.3793 50.604C47.9395 50.604 47.7074 50.3952 43.8637 46.5389L39.8118 42.4737H34.2476C29.659 42.4737 28.553 42.4396 27.9403 42.2792C25.6515 41.6801 23.7317 39.7507 23.1356 37.4504C23.0058 36.9492 22.9421 36.1094 22.9421 34.897V33.0904L29.041 33.0411C34.4435 32.9975 35.2338 32.9656 35.9616 32.7619C39.4369 31.789 41.8993 29.3133 42.8547 25.8319Z" fill="#01426A"/>
</svg>
