<svg width="84" height="78" viewBox="0 0 84 78" fill="none" xmlns="http://www.w3.org/2000/svg">
<path d="M61.436 28.3308C63.7579 28.3308 65.9848 27.4114 67.6267 25.7747C69.2686 24.138 70.191 21.9182 70.191 19.6036C70.191 17.2889 69.2686 15.0691 67.6267 13.4324C65.9848 11.7958 63.7579 10.8763 61.436 10.8763V10.8763C59.114 10.8763 56.8872 11.7958 55.2453 13.4324C53.6034 15.0691 52.681 17.2889 52.681 19.6036C52.681 21.9182 53.6034 24.138 55.2453 25.7747C56.8872 27.4114 59.114 28.3308 61.436 28.3308ZM55.9641 19.6036C55.9641 18.1569 56.5406 16.7695 57.5668 15.7466C58.593 14.7237 59.9848 14.149 61.436 14.149V14.149C62.5182 14.149 63.5761 14.4689 64.476 15.0683C65.3758 15.6676 66.0772 16.5195 66.4913 17.5162C66.9055 18.5129 67.0138 19.6096 66.8027 20.6677C66.5916 21.7258 66.0704 22.6977 65.3052 23.4605C64.5399 24.2233 63.5649 24.7428 62.5035 24.9533C61.4421 25.1638 60.3418 25.0557 59.342 24.6429C58.3421 24.2301 57.4876 23.5309 56.8863 22.6339C56.285 21.7369 55.9641 20.6824 55.9641 19.6036V19.6036Z" fill="#101010"/>
<path d="M83.8268 75.7309L70.9132 44.8909L78.9569 32.5309C79.0511 32.375 79.1212 32.2058 79.1648 32.0291C80.9982 28.5077 82.0049 24.617 82.1087 20.6509C82.113 17.9433 81.5822 15.2613 80.5468 12.7582C79.5113 10.255 77.9914 7.97968 76.0738 6.06206C74.1562 4.14445 71.8785 2.62212 69.3707 1.58199C66.8629 0.541856 64.1741 0.00429732 61.4579 2.9238e-06V2.9238e-06C55.9711 -0.00290544 50.7073 2.16404 46.8214 6.02536C42.9355 9.88668 40.745 15.127 40.7305 20.5964C40.7031 24.3422 41.7512 28.0176 43.751 31.1891C43.7728 31.2561 43.8061 31.3189 43.8494 31.3745L49.5073 40.9091H17.0921C16.7708 40.9103 16.4568 41.0048 16.1886 41.1812C15.9203 41.3575 15.7095 41.6079 15.5818 41.9018L1.08141 75.72C0.974566 75.969 0.931368 76.2405 0.955691 76.5102C0.980014 76.7799 1.0711 77.0393 1.22078 77.2653C1.37045 77.4913 1.57405 77.6767 1.8133 77.8049C2.05256 77.9331 2.32 78.0002 2.59165 78H82.3057C82.5759 77.9985 82.8416 77.931 83.0795 77.8034C83.3175 77.6758 83.5204 77.492 83.6705 77.268C83.8207 77.0441 83.9134 76.7868 83.9407 76.5189C83.9679 76.2509 83.9288 75.9803 83.8268 75.7309ZM46.6182 29.64C44.8651 26.9494 43.9442 23.8045 43.9698 20.5964C43.9843 15.9931 45.8304 11.5836 49.103 8.33567C52.3755 5.0878 56.8071 3.26693 61.425 3.27273V3.27273C63.7133 3.27129 65.9793 3.72004 68.0932 4.59327C70.2072 5.4665 72.1274 6.74703 73.7439 8.36146C75.3604 9.97589 76.6414 11.8925 77.5134 14.0013C78.3854 16.1102 78.8313 18.3699 78.8255 20.6509V20.6509C78.8255 23.7927 77.9938 26.8691 76.0568 30.9273V31.0364L61.0967 54L46.8699 30C46.8117 29.874 46.7421 29.7535 46.662 29.64H46.6182ZM18.1755 44.1818H21.7979C22.3888 47.5527 25.4531 48.9055 27.7622 49.9091C28.8132 50.2453 29.7695 50.8247 30.5528 51.6C31.0891 52.5055 30.8155 53.1164 29.5241 54.8727C28.4298 56.4436 26.821 58.6036 27.8716 61.4182C29.4694 65.6509 37.513 66.7636 46.3227 67.6146C47.8986 67.7564 49.2556 67.8873 50.1092 68.04C56.6755 69.1309 58.8642 72.8291 59.5865 74.7491H5.07587L18.1755 44.1818ZM63.0447 74.7273C62.4866 72.5455 60.1337 66.3818 50.6783 64.7891C49.7153 64.6255 48.3035 64.4836 46.662 64.3309C42.2845 63.9055 31.9755 62.9127 30.9687 60.2509C30.5857 59.2255 31.0453 58.4073 32.2163 56.8036C33.3873 55.2 35.0945 52.8218 33.4091 49.9418C32.5008 48.4145 30.7498 47.64 29.0317 46.9091C26.8429 45.9818 25.6391 45.3055 25.1576 44.1818H50.7987C51.0005 44.1793 51.2003 44.1424 51.3897 44.0727L59.6193 57.9164C59.7619 58.1563 59.9631 58.3562 60.2043 58.4973C60.4455 58.6385 60.7187 58.7164 60.9982 58.7236V58.7236C61.2731 58.7242 61.5436 58.6555 61.7847 58.5239C62.0258 58.3923 62.2296 58.2021 62.3772 57.9709L68.7245 48.2182L79.7995 74.7273H63.0447Z" fill="#101010"/>
</svg>
