<svg width="83" height="78" viewBox="0 0 83 78" fill="none" xmlns="http://www.w3.org/2000/svg">
<path d="M81.4038 53.831H73.4231V19.2254C73.4231 18.7883 73.2549 18.3692 72.9556 18.0601C72.6562 17.7511 72.2502 17.5775 71.8269 17.5775H59.5897V1.64789C59.5897 1.21084 59.4216 0.791694 59.1222 0.482655C58.8229 0.173616 58.4169 0 57.9936 0H25.0064C24.5831 0 24.1771 0.173616 23.8778 0.482655C23.5784 0.791694 23.4103 1.21084 23.4103 1.64789V17.5775H11.1731C10.7498 17.5775 10.3438 17.7511 10.0444 18.0601C9.74509 18.3692 9.57692 18.7883 9.57692 19.2254V53.831H1.59615C1.17283 53.831 0.766839 54.0046 0.467502 54.3136C0.168166 54.6227 0 55.0418 0 55.4789V76.3521C0 76.7892 0.168166 77.2083 0.467502 77.5173C0.766839 77.8264 1.17283 78 1.59615 78H21.8141C22.2374 78 22.6434 77.8264 22.9428 77.5173C23.2421 77.2083 23.4103 76.7892 23.4103 76.3521V55.4789C23.4103 55.0418 23.2421 54.6227 22.9428 54.3136C22.6434 54.0046 22.2374 53.831 21.8141 53.831H12.7692V20.8732H23.4103V35.7042C23.4103 36.1413 23.5784 36.5604 23.8778 36.8695C24.1771 37.1785 24.5831 37.3521 25.0064 37.3521H40.4359V53.831H31.391C30.9677 53.831 30.5617 54.0046 30.2624 54.3136C29.963 54.6227 29.7949 55.0418 29.7949 55.4789V76.3521C29.7949 76.7892 29.963 77.2083 30.2624 77.5173C30.5617 77.8264 30.9677 78 31.391 78H51.609C52.0323 78 52.4383 77.8264 52.7376 77.5173C53.037 77.2083 53.2051 76.7892 53.2051 76.3521V55.4789C53.2051 55.0418 53.037 54.6227 52.7376 54.3136C52.4383 54.0046 52.0323 53.831 51.609 53.831H43.6282V37.3521H57.9936C58.4169 37.3521 58.8229 37.1785 59.1222 36.8695C59.4216 36.5604 59.5897 36.1413 59.5897 35.7042V20.8732H70.2308V53.831H61.1859C60.7626 53.831 60.3566 54.0046 60.0572 54.3136C59.7579 54.6227 59.5897 55.0418 59.5897 55.4789V76.3521C59.5897 76.7892 59.7579 77.2083 60.0572 77.5173C60.3566 77.8264 60.7626 78 61.1859 78H81.4038C81.8272 78 82.2332 77.8264 82.5325 77.5173C82.8318 77.2083 83 76.7892 83 76.3521V55.4789C83 55.0418 82.8318 54.6227 82.5325 54.3136C82.2332 54.0046 81.8272 53.831 81.4038 53.831V53.831ZM20.2179 74.7042H3.19231V57.1268H20.2179V74.7042ZM50.0128 74.7042H32.9872V57.1268H50.0128V74.7042ZM56.3974 34.0563H26.6026V3.29577H56.3974V34.0563ZM79.8077 74.7042H62.782V57.1268H79.8077V74.7042Z" fill="#101010"/>
</svg>
