<svg width="83" height="78" viewBox="0 0 83 78" fill="none" xmlns="http://www.w3.org/2000/svg">
<path d="M14.7089 8.27277H8.40506C7.9871 8.27277 7.58625 8.45954 7.2907 8.79199C6.99515 9.12444 6.82911 9.57534 6.82911 10.0455C6.82911 10.5156 6.99515 10.9665 7.2907 11.299C7.58625 11.6315 7.9871 11.8182 8.40506 11.8182H14.7089C15.1268 11.8182 15.5277 11.6315 15.8232 11.299C16.1188 10.9665 16.2848 10.5156 16.2848 10.0455C16.2848 9.57534 16.1188 9.12444 15.8232 8.79199C15.5277 8.45954 15.1268 8.27277 14.7089 8.27277Z" fill="#101010"/>
<path d="M29.4177 8.27277H23.1139C22.696 8.27277 22.2951 8.45954 21.9996 8.79199C21.704 9.12444 21.538 9.57534 21.538 10.0455C21.538 10.5156 21.704 10.9665 21.9996 11.299C22.2951 11.6315 22.696 11.8182 23.1139 11.8182H29.4177C29.8357 11.8182 30.2365 11.6315 30.5321 11.299C30.8276 10.9665 30.9937 10.5156 30.9937 10.0455C30.9937 9.57534 30.8276 9.12444 30.5321 8.79199C30.2365 8.45954 29.8357 8.27277 29.4177 8.27277Z" fill="#101010"/>
<path d="M78.2091 15.3636H75.6456V5.98C75.6428 4.39496 75.0818 2.87574 74.0854 1.75495C73.089 0.63416 71.7385 0.00312323 70.3294 0H5.3162C3.90711 0.00312323 2.55653 0.63416 1.56015 1.75495C0.563766 2.87574 0.00277654 4.39496 0 5.98V53.1109C0.00277654 54.6959 0.563766 56.2152 1.56015 57.336C2.55653 58.4567 3.90711 59.0878 5.3162 59.0909H9.4557V72.6109C9.45847 74.0392 9.96412 75.4081 10.862 76.4181C11.7598 77.4281 12.9768 77.9969 14.2466 78H28.8294C30.0991 77.9969 31.3161 77.4281 32.214 76.4181C33.1118 75.4081 33.6175 74.0392 33.6203 72.6109V59.0909H40.9747V72.6109C40.9775 74.0392 41.4831 75.4081 42.381 76.4181C43.2788 77.4281 44.4958 77.9969 45.7656 78H78.2091C79.4789 77.9969 80.6959 77.4281 81.5937 76.4181C82.4916 75.4081 82.9972 74.0392 83 72.6109V20.7527C82.9972 19.3244 82.4916 17.9555 81.5937 16.9455C80.6959 15.9355 79.4789 15.3668 78.2091 15.3636V15.3636ZM28.8294 74.4545H14.2466C13.8127 74.4514 13.3975 74.2562 13.0907 73.9111C12.7839 73.5661 12.6104 73.0989 12.6076 72.6109V37.2982C12.6104 36.8102 12.7839 36.343 13.0907 35.998C13.3975 35.6529 13.8127 35.4576 14.2466 35.4545H28.8294C29.2632 35.4576 29.6785 35.6529 29.9853 35.998C30.292 36.343 30.4656 36.8102 30.4684 37.2982V57.3064V72.6109C30.4656 73.0989 30.292 73.5661 29.9853 73.9111C29.6785 74.2562 29.2632 74.4514 28.8294 74.4545V74.4545ZM33.6203 55.5455V37.2982C33.6175 35.8699 33.1118 34.5009 32.214 33.491C31.3161 32.481 30.0991 31.9122 28.8294 31.9091H14.2466C12.9768 31.9122 11.7598 32.481 10.862 33.491C9.96412 34.5009 9.45847 35.8699 9.4557 37.2982V55.5455H5.3162C4.74219 55.5455 4.19169 55.289 3.78581 54.8324C3.37992 54.3758 3.1519 53.7566 3.1519 53.1109V5.98C3.1519 5.33432 3.37992 4.71508 3.78581 4.25852C4.19169 3.80195 4.74219 3.54545 5.3162 3.54545H70.3294C70.9034 3.54545 71.4539 3.80195 71.8598 4.25852C72.2656 4.71508 72.4937 5.33432 72.4937 5.98V15.3636H45.7656C44.4958 15.3668 43.2788 15.9355 42.381 16.9455C41.4831 17.9555 40.9775 19.3244 40.9747 20.7527V55.5455H33.6203ZM79.8481 72.6109C79.8453 73.0989 79.6718 73.5661 79.365 73.9111C79.0582 74.2562 78.643 74.4514 78.2091 74.4545H45.7656C45.3317 74.4514 44.9165 74.2562 44.6097 73.9111C44.3029 73.5661 44.1293 73.0989 44.1266 72.6109V20.7527C44.1293 20.2647 44.3029 19.7976 44.6097 19.4525C44.9165 19.1074 45.3317 18.9122 45.7656 18.9091H78.2091C78.643 18.9122 79.0582 19.1074 79.365 19.4525C79.6718 19.7976 79.8453 20.2647 79.8481 20.7527V72.6109Z" fill="#101010"/>
<path d="M61.9938 70.3203C63.4444 70.3146 64.6162 68.9872 64.6112 67.3554C64.6061 65.7237 63.4261 64.4055 61.9754 64.4112C60.5248 64.4169 59.353 65.7443 59.358 67.376C59.3631 69.0078 60.5432 70.3259 61.9938 70.3203Z" fill="#101010"/>
</svg>
