<svg width="83" height="78" viewBox="0 0 83 78" fill="none" xmlns="http://www.w3.org/2000/svg">
<path d="M83 21.6667V6.80952C82.9971 5.00453 82.3634 3.2744 81.2375 1.99808C80.1117 0.721754 78.5856 0.00327289 76.9934 0H6.00658C4.41442 0.00327289 2.8883 0.721754 1.76247 1.99808C0.636648 3.2744 0.00288696 5.00453 0 6.80952V21.6667C0.000799839 22.5957 0.169875 23.5146 0.496747 24.3664C0.82362 25.2183 1.30133 25.985 1.90026 26.619C1.30133 27.2531 0.82362 28.0198 0.496747 28.8717C0.169875 29.7235 0.000799839 30.6424 0 31.5714V46.4286C0.000799839 47.3576 0.169875 48.2765 0.496747 49.1283C0.82362 49.9802 1.30133 50.7469 1.90026 51.381C1.30133 52.015 0.82362 52.7817 0.496747 53.6336C0.169875 54.4854 0.000799839 55.4043 0 56.3333V71.1905C0.00288696 72.9955 0.636648 74.7256 1.76247 76.0019C2.8883 77.2783 4.41442 77.9967 6.00658 78H76.9934C78.5856 77.9967 80.1117 77.2783 81.2375 76.0019C82.3634 74.7256 82.9971 72.9955 83 71.1905V56.3333C82.9992 55.4043 82.8301 54.4854 82.5033 53.6336C82.1764 52.7817 81.6987 52.015 81.0997 51.381C81.6987 50.7469 82.1764 49.9802 82.5033 49.1283C82.8301 48.2765 82.9992 47.3576 83 46.4286V31.5714C82.9992 30.6424 82.8301 29.7235 82.5033 28.8717C82.1764 28.0198 81.6987 27.2531 81.0997 26.619C81.6987 25.985 82.1764 25.2183 82.5033 24.3664C82.8301 23.5146 82.9992 22.5957 83 21.6667V21.6667ZM79.7237 56.3333V71.1905C79.7237 72.0114 79.436 72.7987 78.924 73.3791C78.412 73.9596 77.7175 74.2857 76.9934 74.2857H6.00658C5.28247 74.2857 4.58802 73.9596 4.07599 73.3791C3.56397 72.7987 3.27632 72.0114 3.27632 71.1905V56.3333C3.27632 55.5124 3.56397 54.7251 4.07599 54.1447C4.58802 53.5642 5.28247 53.2381 6.00658 53.2381H76.9934C77.7175 53.2381 78.412 53.5642 78.924 54.1447C79.436 54.7251 79.7237 55.5124 79.7237 56.3333ZM79.7237 31.5714V46.4286C79.7237 47.2495 79.436 48.0368 78.924 48.6172C78.412 49.1977 77.7175 49.5238 76.9934 49.5238H6.00658C5.28247 49.5238 4.58802 49.1977 4.07599 48.6172C3.56397 48.0368 3.27632 47.2495 3.27632 46.4286V31.5714C3.27632 30.7505 3.56397 29.9632 4.07599 29.3828C4.58802 28.8023 5.28247 28.4762 6.00658 28.4762H76.9934C77.7175 28.4762 78.412 28.8023 78.924 29.3828C79.436 29.9632 79.7237 30.7505 79.7237 31.5714ZM6.00658 24.7619C5.28247 24.7619 4.58802 24.4358 4.07599 23.8553C3.56397 23.2749 3.27632 22.4876 3.27632 21.6667V6.80952C3.27632 5.98862 3.56397 5.20133 4.07599 4.62086C4.58802 4.04039 5.28247 3.71429 6.00658 3.71429H76.9934C77.7175 3.71429 78.412 4.04039 78.924 4.62086C79.436 5.20133 79.7237 5.98862 79.7237 6.80952V21.6667C79.7237 22.4876 79.436 23.2749 78.924 23.8553C78.412 24.4358 77.7175 24.7619 76.9934 24.7619H6.00658Z" fill="#101010"/>
<path d="M13.6513 17.9524C15.4608 17.9524 16.9276 16.2894 16.9276 14.2381C16.9276 12.1867 15.4608 10.5238 13.6513 10.5238C11.8419 10.5238 10.375 12.1867 10.375 14.2381C10.375 16.2894 11.8419 17.9524 13.6513 17.9524Z" fill="#101010"/>
<path d="M13.6513 42.7143C15.4608 42.7143 16.9276 41.0513 16.9276 39C16.9276 36.9486 15.4608 35.2857 13.6513 35.2857C11.8419 35.2857 10.375 36.9486 10.375 39C10.375 41.0513 11.8419 42.7143 13.6513 42.7143Z" fill="#101010"/>
<path d="M13.6513 67.4762C15.4608 67.4762 16.9276 65.8132 16.9276 63.7619C16.9276 61.7105 15.4608 60.0476 13.6513 60.0476C11.8419 60.0476 10.375 61.7105 10.375 63.7619C10.375 65.8132 11.8419 67.4762 13.6513 67.4762Z" fill="#101010"/>
<path d="M72.625 12.381H50.7829C50.3484 12.381 49.9318 12.5766 49.6245 12.9249C49.3173 13.2732 49.1447 13.7456 49.1447 14.2381C49.1447 14.7307 49.3173 15.203 49.6245 15.5513C49.9318 15.8996 50.3484 16.0953 50.7829 16.0953H72.625C73.0595 16.0953 73.4761 15.8996 73.7834 15.5513C74.0906 15.203 74.2632 14.7307 74.2632 14.2381C74.2632 13.7456 74.0906 13.2732 73.7834 12.9249C73.4761 12.5766 73.0595 12.381 72.625 12.381Z" fill="#101010"/>
<path d="M50.7829 40.8572H72.625C73.0595 40.8572 73.4761 40.6615 73.7834 40.3132C74.0906 39.9649 74.2632 39.4926 74.2632 39C74.2632 38.5075 74.0906 38.0351 73.7834 37.6868C73.4761 37.3385 73.0595 37.1429 72.625 37.1429H50.7829C50.3484 37.1429 49.9318 37.3385 49.6245 37.6868C49.3173 38.0351 49.1447 38.5075 49.1447 39C49.1447 39.4926 49.3173 39.9649 49.6245 40.3132C49.9318 40.6615 50.3484 40.8572 50.7829 40.8572V40.8572Z" fill="#101010"/>
<path d="M50.7829 65.6191H72.625C73.0595 65.6191 73.4761 65.4234 73.7834 65.0751C74.0906 64.7268 74.2632 64.2545 74.2632 63.7619C74.2632 63.2694 74.0906 62.797 73.7834 62.4487C73.4761 62.1004 73.0595 61.9048 72.625 61.9048H50.7829C50.3484 61.9048 49.9318 62.1004 49.6245 62.4487C49.3173 62.797 49.1447 63.2694 49.1447 63.7619C49.1447 64.2545 49.3173 64.7268 49.6245 65.0751C49.9318 65.4234 50.3484 65.6191 50.7829 65.6191V65.6191Z" fill="#101010"/>
</svg>
