<svg width="188" height="42" viewBox="0 0 188 42" fill="none" xmlns="http://www.w3.org/2000/svg">
<path fill-rule="evenodd" clip-rule="evenodd" d="M18.4008 3.81975C14.191 4.12458 10.3759 5.60474 7.10589 8.20186C6.46304 8.71241 5.13207 9.99274 4.60133 10.6111C1.59696 14.1116 0 18.3487 0 22.8195C0 27.2904 1.59696 31.5275 4.60133 35.0279C5.13207 35.6463 6.46304 36.9266 7.10589 37.4372C10.7447 40.3273 15.1494 41.8635 19.7971 41.8635C24.4447 41.8635 28.8494 40.3273 32.4882 37.4372C33.1311 36.9266 34.4621 35.6463 34.9928 35.0279C37.3614 32.2683 38.8174 29.1478 39.3892 25.606C39.4655 25.1338 39.4824 24.8283 39.496 23.6815L39.5122 22.3184L39.2891 22.1403C38.9464 21.8668 38.6599 21.7999 38.2864 21.906C38.0575 21.9711 37.7122 22.3032 37.6446 22.5235C37.6167 22.6142 37.5939 22.8677 37.5939 23.0868C37.5939 24.2167 37.3696 25.8266 37.036 27.091C36.6183 28.674 35.817 30.4718 34.905 31.8722C33.6976 33.7262 32.0797 35.3896 30.2038 36.7057C28.4859 37.911 26.3003 38.8989 24.2374 39.4026C20.0216 40.432 15.6225 39.9713 11.7739 38.0972C9.23417 36.8606 7.06905 35.0822 5.36176 32.8304C4.10877 31.1778 3.08177 29.0753 2.55816 27.091C1.48806 23.0353 1.9674 18.8011 3.91547 15.1016C4.53394 13.927 5.19455 12.9537 6.07889 11.9142C6.54165 11.3702 7.5639 10.3648 8.14786 9.87928C10.4731 7.94602 13.2595 6.62728 16.2614 6.03915C17.2432 5.84678 18.6548 5.69972 19.5192 5.69972C20.0646 5.69972 20.2274 5.64933 20.4862 5.40039C20.8935 5.0086 20.9056 4.5102 20.5181 4.09551C20.264 3.82364 20.0876 3.7738 19.4041 3.7809C19.1045 3.78399 18.653 3.80151 18.4008 3.81975Z" fill="white"/>
<path d="M16.5216 18.9346V31.705H13.3502V18.9346H16.5216ZM13.1348 15.5945C13.1348 15.1303 13.2943 14.7447 13.6135 14.4378C13.9406 14.131 14.3794 13.9775 14.9299 13.9775C15.4804 13.9775 15.9153 14.131 16.2344 14.4378C16.5615 14.7447 16.7251 15.1303 16.7251 15.5945C16.7251 16.0509 16.5615 16.4325 16.2344 16.7393C15.9153 17.0462 15.4804 17.1996 14.9299 17.1996C14.3794 17.1996 13.9406 17.0462 13.6135 16.7393C13.2943 16.4325 13.1348 16.0509 13.1348 15.5945Z" fill="white"/>
<path d="M26.8661 14.4732V31.705H23.6947V18.1202L19.494 19.4893V16.9636L26.5071 14.4732H26.8661Z" fill="white"/>
<path d="M63.4083 40L63.4083 0" stroke="white"/>
<path d="M89.0176 15.3935V24.8426H87.4246V15.3935H89.0176ZM87.3047 12.8871C87.3047 12.6251 87.3818 12.4039 87.5359 12.2234C87.6958 12.0429 87.9299 11.9527 88.2382 11.9527C88.5408 11.9527 88.772 12.0429 88.9319 12.2234C89.0975 12.4039 89.1803 12.6251 89.1803 12.8871C89.1803 13.1375 89.0975 13.3529 88.9319 13.5334C88.772 13.708 88.5408 13.7954 88.2382 13.7954C87.9299 13.7954 87.6958 13.708 87.5359 13.5334C87.3818 13.3529 87.3047 13.1375 87.3047 12.8871Z" fill="white"/>
<path d="M96.597 12.0575V24.8426H95.0126V14.0748L91.8181 15.2625V13.8041L96.3486 12.0575H96.597Z" fill="white"/>
<path d="M113.546 20.7992H115.19C115.105 21.6026 114.879 22.3217 114.514 22.9563C114.148 23.5909 113.631 24.0945 112.963 24.4671C112.295 24.8338 111.462 25.0172 110.463 25.0172C109.732 25.0172 109.067 24.8775 108.467 24.5981C107.873 24.3186 107.362 23.9227 106.934 23.4104C106.506 22.8922 106.175 22.2722 105.941 21.5502C105.712 20.8225 105.598 20.0132 105.598 19.1225V17.8562C105.598 16.9654 105.712 16.1591 105.941 15.4372C106.175 14.7094 106.509 14.0865 106.943 13.5683C107.382 13.0501 107.91 12.6513 108.527 12.3719C109.144 12.0924 109.837 11.9527 110.608 11.9527C111.55 11.9527 112.347 12.1332 112.998 12.4941C113.649 12.8551 114.154 13.3558 114.514 13.9962C114.879 14.6308 115.105 15.3673 115.19 16.2057H113.546C113.466 15.6118 113.317 15.1024 113.1 14.6774C112.884 14.2466 112.575 13.9147 112.176 13.6818C111.776 13.4489 111.253 13.3325 110.608 13.3325C110.054 13.3325 109.566 13.4402 109.144 13.6556C108.727 13.871 108.376 14.1767 108.09 14.5726C107.811 14.9685 107.599 15.443 107.457 15.9961C107.314 16.5492 107.242 17.1634 107.242 17.8387V19.1225C107.242 19.7454 107.305 20.3305 107.431 20.8778C107.562 21.4251 107.759 21.9054 108.022 22.3187C108.284 22.7321 108.618 23.0581 109.024 23.2968C109.429 23.5297 109.909 23.6462 110.463 23.6462C111.165 23.6462 111.724 23.5326 112.141 23.3056C112.558 23.0785 112.872 22.7525 113.083 22.3275C113.3 21.9025 113.454 21.3931 113.546 20.7992Z" fill="white"/>
<path d="M116.783 20.2228V20.022C116.783 19.3408 116.88 18.7091 117.074 18.1269C117.268 17.5389 117.548 17.0295 117.914 16.5986C118.279 16.162 118.722 15.8243 119.241 15.5856C119.761 15.3411 120.343 15.2188 120.988 15.2188C121.639 15.2188 122.224 15.3411 122.744 15.5856C123.269 15.8243 123.715 16.162 124.08 16.5986C124.451 17.0295 124.734 17.5389 124.928 18.1269C125.122 18.7091 125.219 19.3408 125.219 20.022V20.2228C125.219 20.904 125.122 21.5357 124.928 22.1179C124.734 22.7001 124.451 23.2095 124.08 23.6462C123.715 24.077 123.272 24.4147 122.752 24.6592C122.239 24.8979 121.656 25.0172 121.005 25.0172C120.354 25.0172 119.769 24.8979 119.25 24.6592C118.73 24.4147 118.285 24.077 117.914 23.6462C117.548 23.2095 117.268 22.7001 117.074 22.1179C116.88 21.5357 116.783 20.904 116.783 20.2228ZM118.368 20.022V20.2228C118.368 20.6944 118.422 21.1398 118.53 21.559C118.639 21.9723 118.801 22.3391 119.018 22.6593C119.241 22.9795 119.518 23.2328 119.849 23.4191C120.18 23.5996 120.566 23.6898 121.005 23.6898C121.439 23.6898 121.819 23.5996 122.144 23.4191C122.476 23.2328 122.75 22.9795 122.967 22.6593C123.184 22.3391 123.346 21.9723 123.455 21.559C123.569 21.1398 123.626 20.6944 123.626 20.2228V20.022C123.626 19.5562 123.569 19.1167 123.455 18.7033C123.346 18.2841 123.181 17.9144 122.958 17.5942C122.741 17.2682 122.467 17.012 122.136 16.8257C121.81 16.6394 121.428 16.5462 120.988 16.5462C120.554 16.5462 120.172 16.6394 119.841 16.8257C119.515 17.012 119.241 17.2682 119.018 17.5942C118.801 17.9144 118.639 18.2841 118.53 18.7033C118.422 19.1167 118.368 19.5562 118.368 20.022Z" fill="white"/>
<path d="M128.79 17.4108V24.8426H127.206V15.3935H128.705L128.79 17.4108ZM128.413 19.76L127.754 19.7338C127.76 19.0875 127.854 18.4908 128.037 17.9435C128.219 17.3904 128.476 16.9101 128.807 16.5026C129.139 16.095 129.533 15.7807 129.989 15.5594C130.452 15.3324 130.963 15.2188 131.522 15.2188C131.979 15.2188 132.39 15.2829 132.756 15.411C133.121 15.5332 133.432 15.7312 133.689 16.0048C133.952 16.2784 134.152 16.6336 134.289 17.0702C134.426 17.501 134.494 18.0279 134.494 18.6509V24.8426H132.901V18.6334C132.901 18.1386 132.83 17.7427 132.687 17.4457C132.544 17.143 132.336 16.9247 132.062 16.7908C131.788 16.651 131.451 16.5812 131.051 16.5812C130.657 16.5812 130.298 16.6656 129.972 16.8344C129.652 17.0033 129.376 17.2361 129.141 17.5331C128.913 17.83 128.733 18.1706 128.602 18.5548C128.476 18.9333 128.413 19.335 128.413 19.76Z" fill="white"/>
<path d="M142.296 22.3362C142.296 22.1033 142.245 21.8879 142.142 21.69C142.045 21.4862 141.842 21.3028 141.534 21.1398C141.231 20.971 140.775 20.8254 140.164 20.7031C139.65 20.5925 139.185 20.4615 138.768 20.3102C138.357 20.1588 138.006 19.9754 137.714 19.76C137.429 19.5446 137.209 19.2913 137.055 19.0002C136.901 18.7091 136.824 18.3685 136.824 17.9785C136.824 17.6058 136.904 17.2536 137.063 16.9218C137.229 16.5899 137.46 16.2959 137.757 16.0397C138.06 15.7836 138.422 15.5827 138.845 15.4372C139.267 15.2916 139.738 15.2188 140.258 15.2188C141 15.2188 141.634 15.3527 142.159 15.6205C142.685 15.8884 143.087 16.2464 143.367 16.6947C143.647 17.1372 143.786 17.6291 143.786 18.1706H142.202C142.202 17.9086 142.125 17.6553 141.971 17.4108C141.822 17.1605 141.603 16.9538 141.311 16.7908C141.026 16.6278 140.675 16.5462 140.258 16.5462C139.818 16.5462 139.461 16.6161 139.187 16.7558C138.919 16.8897 138.722 17.0615 138.596 17.2711C138.477 17.4807 138.417 17.7019 138.417 17.9348C138.417 18.1094 138.445 18.2666 138.502 18.4064C138.565 18.5403 138.674 18.6654 138.828 18.7819C138.982 18.8925 139.199 18.9973 139.479 19.0963C139.758 19.1952 140.115 19.2942 140.549 19.3932C141.309 19.5679 141.934 19.7774 142.425 20.022C142.916 20.2665 143.281 20.5663 143.521 20.9215C143.761 21.2766 143.881 21.7074 143.881 22.214C143.881 22.6273 143.795 23.0057 143.624 23.3492C143.458 23.6927 143.216 23.9897 142.896 24.24C142.582 24.4845 142.205 24.6767 141.765 24.8164C141.331 24.9503 140.843 25.0172 140.301 25.0172C139.484 25.0172 138.793 24.8688 138.228 24.5719C137.663 24.2749 137.235 23.8907 136.944 23.4191C136.652 22.9475 136.507 22.4497 136.507 21.9258H138.1C138.123 22.3682 138.248 22.7205 138.477 22.9825C138.705 23.2386 138.985 23.422 139.316 23.5326C139.647 23.6374 139.975 23.6898 140.301 23.6898C140.735 23.6898 141.097 23.6316 141.388 23.5152C141.685 23.3987 141.911 23.2386 142.065 23.0349C142.219 22.8311 142.296 22.5982 142.296 22.3362Z" fill="white"/>
<path d="M151.631 22.6593V15.3935H153.224V24.8426H151.708L151.631 22.6593ZM151.931 20.6682L152.591 20.6507C152.591 21.2795 152.525 21.8617 152.394 22.3973C152.268 22.9271 152.062 23.3871 151.777 23.7772C151.492 24.1672 151.118 24.4729 150.655 24.6941C150.193 24.9095 149.63 25.0172 148.968 25.0172C148.517 25.0172 148.103 24.9503 147.726 24.8164C147.355 24.6825 147.035 24.4758 146.767 24.1963C146.499 23.9169 146.29 23.553 146.142 23.1047C145.999 22.6564 145.928 22.1179 145.928 21.4891V15.3935H147.512V21.5066C147.512 21.9316 147.558 22.2838 147.649 22.5633C147.746 22.8369 147.875 23.0552 148.034 23.2182C148.2 23.3754 148.383 23.4861 148.583 23.5501C148.788 23.6141 148.999 23.6462 149.216 23.6462C149.89 23.6462 150.424 23.5152 150.818 23.2532C151.212 22.9854 151.494 22.6273 151.666 22.179C151.843 21.7249 151.931 21.2213 151.931 20.6682Z" fill="white"/>
<path d="M157.361 11.4287V24.8426H155.768V11.4287H157.361Z" fill="white"/>
<path d="M163.784 15.3935V16.6336H158.774V15.3935H163.784ZM160.47 13.0967H162.054V22.5021C162.054 22.8224 162.103 23.064 162.2 23.227C162.297 23.39 162.422 23.4977 162.577 23.5501C162.731 23.6025 162.896 23.6287 163.073 23.6287C163.205 23.6287 163.342 23.6171 163.484 23.5938C163.633 23.5647 163.744 23.5414 163.818 23.5239L163.827 24.8426C163.701 24.8833 163.536 24.9212 163.33 24.9561C163.13 24.9969 162.888 25.0172 162.602 25.0172C162.214 25.0172 161.857 24.9386 161.532 24.7815C161.206 24.6243 160.947 24.3623 160.752 23.9955C160.564 23.6229 160.47 23.1222 160.47 22.4934V13.0967Z" fill="white"/>
<path d="M167.364 15.3935V24.8426H165.771V15.3935H167.364ZM165.651 12.8871C165.651 12.6251 165.728 12.4039 165.882 12.2234C166.042 12.0429 166.276 11.9527 166.585 11.9527C166.887 11.9527 167.119 12.0429 167.278 12.2234C167.444 12.4039 167.527 12.6251 167.527 12.8871C167.527 13.1375 167.444 13.3529 167.278 13.5334C167.119 13.708 166.887 13.7954 166.585 13.7954C166.276 13.7954 166.042 13.708 165.882 13.5334C165.728 13.3529 165.651 13.1375 165.651 12.8871Z" fill="white"/>
<path d="M171.492 17.4108V24.8426H169.908V15.3935H171.406L171.492 17.4108ZM171.115 19.76L170.456 19.7338C170.462 19.0875 170.556 18.4908 170.738 17.9435C170.921 17.3904 171.178 16.9101 171.509 16.5026C171.84 16.095 172.234 15.7807 172.691 15.5594C173.154 15.3324 173.665 15.2188 174.224 15.2188C174.681 15.2188 175.092 15.2829 175.457 15.411C175.823 15.5332 176.134 15.7312 176.391 16.0048C176.654 16.2784 176.853 16.6336 176.99 17.0702C177.127 17.501 177.196 18.0279 177.196 18.6509V24.8426H175.603V18.6334C175.603 18.1386 175.532 17.7427 175.389 17.4457C175.246 17.143 175.038 16.9247 174.764 16.7908C174.49 16.651 174.153 16.5812 173.753 16.5812C173.359 16.5812 172.999 16.6656 172.674 16.8344C172.354 17.0033 172.077 17.2361 171.843 17.5331C171.615 17.83 171.435 18.1706 171.304 18.5548C171.178 18.9333 171.115 19.335 171.115 19.76Z" fill="white"/>
<path d="M185.606 15.3935H187.045V24.6417C187.045 25.4743 186.879 26.1846 186.548 26.7726C186.217 27.3606 185.755 27.806 185.161 28.1087C184.573 28.4173 183.893 28.5716 183.122 28.5716C182.803 28.5716 182.426 28.5192 181.992 28.4144C181.564 28.3154 181.141 28.1437 180.724 27.8991C180.313 27.6604 179.968 27.3373 179.688 26.9298L180.519 25.9691C180.907 26.4465 181.313 26.7784 181.735 26.9647C182.163 27.151 182.586 27.2442 183.003 27.2442C183.505 27.2442 183.939 27.1481 184.304 26.956C184.67 26.7638 184.952 26.4786 185.152 26.1001C185.358 25.7275 185.461 25.2676 185.461 24.7203V17.4719L185.606 15.3935ZM179.226 20.2228V20.0394C179.226 19.3175 179.308 18.6625 179.474 18.0745C179.645 17.4807 179.888 16.9712 180.202 16.5462C180.522 16.1212 180.907 15.7952 181.358 15.5681C181.809 15.3353 182.317 15.2188 182.883 15.2188C183.465 15.2188 183.973 15.3236 184.407 15.5332C184.847 15.737 185.218 16.0368 185.52 16.4327C185.829 16.8228 186.071 17.2944 186.248 17.8475C186.425 18.4005 186.548 19.0264 186.617 19.725V20.5285C186.554 21.2213 186.431 21.8443 186.248 22.3973C186.071 22.9504 185.829 23.422 185.52 23.8121C185.218 24.2022 184.847 24.502 184.407 24.7116C183.967 24.9154 183.454 25.0172 182.866 25.0172C182.312 25.0172 181.809 24.8979 181.358 24.6592C180.913 24.4205 180.53 24.0857 180.211 23.6549C179.891 23.2241 179.645 22.7176 179.474 22.1354C179.308 21.5473 179.226 20.9098 179.226 20.2228ZM180.81 20.0394V20.2228C180.81 20.6944 180.856 21.1369 180.947 21.5502C181.044 21.9636 181.19 22.3275 181.384 22.6419C181.584 22.9563 181.838 23.2037 182.146 23.3842C182.454 23.5588 182.823 23.6462 183.251 23.6462C183.776 23.6462 184.21 23.5326 184.553 23.3056C184.895 23.0785 185.166 22.7787 185.366 22.4061C185.572 22.0335 185.732 21.6288 185.846 21.1922V19.0875C185.783 18.7673 185.686 18.4588 185.555 18.1618C185.429 17.8591 185.264 17.5913 185.058 17.3584C184.858 17.1197 184.61 16.9305 184.313 16.7908C184.016 16.651 183.668 16.5812 183.268 16.5812C182.834 16.5812 182.46 16.6743 182.146 16.8606C181.838 17.0411 181.584 17.2915 181.384 17.6117C181.19 17.9261 181.044 18.2928 180.947 18.712C180.856 19.1254 180.81 19.5679 180.81 20.0394Z" fill="white"/>
</svg>
