<svg width="157" height="75" viewBox="0 0 157 75" fill="none" xmlns="http://www.w3.org/2000/svg">
<g clip-path="url(#clip0_45_8)">
<path d="M41.469 13.5484C39.8714 6.58387 35.8836 0.923615 35.3469 0C34.4795 1.29805 31.3092 6.2968 29.6742 11.8447C27.9206 18.023 27.6647 23.5085 28.27 28.9129C28.8754 34.3173 31.147 39.859 31.147 39.859C32.3639 42.7733 34.1799 45.8937 35.3594 47.4289C37.0943 45.176 41.0821 38.4423 42.3302 29.6618C43.0291 24.7816 43.0479 20.5067 41.469 13.5484V13.5484ZM35.3469 45.694C34.5668 44.2212 33.3499 41.4191 33.2313 37.0819C33.1939 32.8944 34.8789 29.3123 35.3656 28.5634C35.7962 29.3123 37.2566 32.4326 37.4313 36.7074C37.5311 40.9011 36.1395 44.19 35.3469 45.694V45.694ZM41.0009 25.362C40.951 28.0142 40.639 30.8225 40.2209 32.495C40.3769 29.6056 40.0274 25.5367 39.3534 22.354C38.6919 19.1775 36.8197 13.8667 35.3095 11.4079C33.9241 13.7481 32.2204 18.3412 31.3217 22.3228C30.4355 26.3105 30.4043 31.1345 30.4043 32.5824C30.1609 31.3655 29.5743 27.0157 29.7428 22.6473C29.8801 19.0402 30.7164 15.3395 31.1844 13.6358C32.9505 7.94433 34.9475 4.30604 35.3095 3.72566C35.6902 4.30604 38.2051 8.78058 39.5094 13.486C40.8075 18.1977 41.0696 22.7034 41.0009 25.362Z" fill="#236AB3"/>
<path d="M38.0305 49.0514H25.9423V57.1643C25.9611 57.1518 25.9798 57.1393 25.9798 57.133C28.8255 54.2873 33.4561 54.2873 36.2956 57.133C39.1413 59.985 39.1413 64.6031 36.2956 67.4488C36.2768 67.4613 36.2768 67.4738 36.2581 67.48V67.4863C36.2394 67.4988 36.2207 67.5112 36.2082 67.5237C33.3812 70.3445 29.6555 71.7549 25.9423 71.7549C22.2167 71.7549 18.4848 70.332 15.639 67.4863C10.634 62.4688 10.0412 54.7179 13.8542 49.0514C14.3722 48.2838 14.9651 47.5599 15.639 46.8797C18.4848 44.0339 22.2104 42.6111 25.9423 42.6111V23.1028C11.6201 23.1028 0 34.7229 0 49.0514C0 63.3799 11.6201 74.9938 25.9423 74.9938C33.4186 74.9938 40.146 71.836 44.8827 66.7811V49.0514H38.0305ZM60.2159 70.3694C60.2159 72.1855 59.9913 75 56.3467 75H52.0469C48.4211 75 48.1965 72.1855 48.1965 70.3694V53.6882C48.1965 51.8722 48.4211 49.0514 52.0469 49.0514H56.3467C59.9913 49.0514 60.2159 51.8659 60.2159 53.6882V57.3577H55.0112V53.1266C55.0112 52.6835 54.6805 52.2778 54.1937 52.2778C53.9004 52.2778 53.3762 52.4588 53.3762 53.1266V70.8188C53.3762 71.4865 53.8942 71.6675 54.1937 71.6675C54.6805 71.6675 55.0112 71.2619 55.0112 70.8188V65.1398H54.2312V62.2878H60.2159V70.3694ZM68.0167 65.2521L68.9029 52.2841H69.1962L70.0949 65.2521H68.0167ZM62.2753 75H67.3552L67.8233 68.1103H70.2696L70.7564 75H75.8362L73.1278 49.0577H64.9775L62.2753 75ZM77.7646 71.7361L82.7446 52.2841H78.2888V49.0514H88.0679V52.2778L83.1066 71.6675H88.3799V74.9938H77.7646V71.7361ZM96.0122 62.9431V52.2716H96.6737C97.2479 52.2716 97.6473 52.7521 97.6473 53.5696V61.645C97.6473 62.4626 97.2479 62.9431 96.6737 62.9431H96.0122ZM90.8075 75H96.0122V66.182H98.9765C102.602 66.182 102.827 63.3674 102.827 61.5514V53.6882C102.827 51.8722 102.602 49.0514 98.9765 49.0514H90.8075V75ZM110.684 62.163V52.2716H111.358C111.913 52.2716 112.313 52.7521 112.313 53.5696V60.8649C112.313 61.6825 111.913 62.163 111.358 62.163H110.684ZM118.173 75L115.62 64.8839C117.461 64.1413 117.493 62.4376 117.493 61.7324V53.6882C117.493 51.8722 117.287 49.0514 113.642 49.0514H105.492V74.9938H110.678V65.4019H111.058L112.825 75H118.173ZM127.783 70.8188C127.783 71.2619 127.453 71.6737 126.966 71.6737C126.672 71.6737 126.148 71.4865 126.148 70.8188V53.1266C126.148 52.4588 126.666 52.2778 126.966 52.2778C127.453 52.2778 127.783 52.6835 127.783 53.1266V70.8188ZM120.969 70.3694C120.969 72.1855 121.193 75 124.838 75H129.119C132.763 75 132.988 72.1855 132.988 70.3694V53.6882C132.988 51.8722 132.763 49.0514 129.119 49.0514H124.838C121.193 49.0514 120.969 51.8659 120.969 53.6882V70.3694ZM149.27 49.0577H156.016V75H150.83V58.7307H150.637L147.966 75H143.822L141.151 58.7307H140.957V75H135.771V49.0577H142.517L145.881 67.2928L149.27 49.0577Z" fill="#236AB3"/>
</g>
<defs>
<clipPath id="clip0_45_8">
<rect width="156.016" height="75" fill="white"/>
</clipPath>
</defs>
</svg>
