<svg width="148" height="80" viewBox="0 0 148 80" fill="none" xmlns="http://www.w3.org/2000/svg">
<path fill-rule="evenodd" clip-rule="evenodd" d="M37.9676 52.9556V52.9867C43.4672 44.768 46.2511 36.4223 46.283 26.5417C46.283 16.725 43.3082 8.18673 37.9676 0H37.9357C33.1072 7.7065 30.0382 15.7662 29.7506 24.7511C29.4283 34.7862 32.306 44.6638 37.9676 52.9556V52.9556ZM37.9676 51.0363V51.0043C36.4335 47.9993 35.6329 44.7369 35.6329 41.4114C35.6329 38.1498 36.4344 34.7293 37.9676 31.8495V31.8184C39.4394 34.8563 40.3024 38.0211 40.3024 41.4114C40.3024 44.8967 39.4394 47.9026 37.9676 51.0363V51.0363ZM31.796 24.5266C32.3393 17.2355 34.5462 10.6804 37.9357 4.09337L37.9676 4.12533C41.8684 11.1607 43.9155 18.0682 44.2998 26.0623C44.4916 29.5804 44.14 33.0018 43.405 36.4551C43.5639 32.9059 43.3713 29.5804 42.733 26.1271C41.8692 21.3306 40.2065 17.0446 37.9676 12.6956L37.9357 12.6636C35.9533 16.5972 34.4504 20.466 33.5235 24.7192C32.6606 28.6838 32.4672 32.3617 32.4672 36.4551C31.8919 32.4576 31.5075 28.5552 31.796 24.5266V24.5266Z" fill="#236AB3"/>
<path fill-rule="evenodd" clip-rule="evenodd" d="M29.5252 62.7075C31.124 61.1415 32.6278 60.3425 34.8986 60.5662C38.5428 60.9186 40.8767 63.0919 41.0693 66.7059C41.4217 73.6134 32.2754 77.8026 26.5521 77.4813C18.2695 77.0667 12.7699 71.7269 11.4578 64.1146C10.6588 59.4779 12.3847 54.393 15.6479 50.8766C18.8775 47.4232 23.2585 46.0481 27.7985 45.9522V25.1986C12.2888 25.1986 0.841318 36.1986 0.0431661 51.2609C-0.819746 68.049 11.3628 79.4334 26.9045 79.9775C35.1551 80.2971 41.3259 77.1945 46.9861 71.8547V53.9783H29.5252V62.7075ZM51.1215 79.3787H56.3065V58.0658H58.6951V54.0111H51.1215V79.3787V79.3787ZM61.368 54.0111L58.9146 79.3787H63.537L64.0702 74.7278H66.082L66.648 79.3787H71.2696L68.786 54.0111H61.368ZM64.2603 70.0742L64.9508 60.9262H65.204L65.9273 70.0742H64.2603ZM83.4353 66.3013V66.0187C84.5673 65.8303 84.5362 63.599 84.5362 62.5923V58.5385C84.5362 55.4249 84.3159 54.0111 80.7019 54.0111H76.3932C72.7473 54.0111 72.5278 55.8337 72.5278 58.5385V61.869H77.7145V59.0103C77.7145 58.3501 78.2502 58.16 78.5328 58.16C79.0358 58.16 79.3495 58.5696 79.3495 59.0103V62.028C79.3495 63.5999 78.8466 63.9128 77.3697 63.9128H76.3941V68.3459H77.2746C79.2242 68.3459 79.3495 69.2273 79.3495 70.012V74.6335C79.3495 75.0717 79.0358 75.4822 78.5328 75.4822C78.2502 75.4822 77.7145 75.2921 77.7145 74.6335V70.1684H72.5278V74.8211C72.5278 78.4351 72.7473 79.3787 76.3932 79.3787H80.7019C84.0316 79.3787 84.5362 78.7496 84.5362 74.8211V69.7286C84.5362 68.8169 84.6918 66.3013 83.4353 66.3013V66.3013ZM86.8617 79.3787H92.0476V58.1289H93.6826V79.3787H98.871V54.0111H86.8617V79.3787ZM109.716 54.0111H101.575V79.3787H106.761V70.7353H109.716C113.361 70.7353 113.58 69.1003 113.58 66.2071V58.5385C113.58 56.3063 113.361 54.0111 109.716 54.0111V54.0111ZM108.394 65.5158C108.394 66.3341 107.985 66.8059 107.42 66.8059H106.762V58.0658H107.42C107.985 58.0658 108.394 58.5385 108.394 59.3232V65.5158V65.5158ZM123.924 54.0111H119.619C116.003 54.0111 115.782 56.0851 115.782 58.4754V74.8219C115.782 77.7757 116.004 79.3796 119.619 79.3796H123.924C127.571 79.3796 127.791 77.9641 127.791 74.8219V58.5393C127.79 56.0851 127.571 54.0111 123.924 54.0111V54.0111ZM122.604 74.5074C122.605 74.6152 122.584 74.7221 122.543 74.8217C122.502 74.9214 122.441 75.0119 122.365 75.0879C122.288 75.164 122.197 75.2241 122.097 75.2648C121.998 75.3055 121.891 75.3259 121.783 75.3249C121.471 75.3249 120.966 75.1668 120.966 74.5074V58.9464C120.966 58.2862 121.471 58.128 121.783 58.128C122.257 58.128 122.604 58.5057 122.604 58.9464V74.5074ZM140.928 54.0111L138.854 65.61L136.968 54.0111H130.212V79.3787H135.429V67.8741H135.618L137.346 79.3787H140.521L142.313 67.8741H142.501V79.3787H147.687V54.0111H140.928V54.0111Z" fill="#236AB3"/>
</svg>
