<svg width="249" height="50" viewBox="0 0 249 50" fill="none" xmlns="http://www.w3.org/2000/svg">
<path d="M58.4271 5.37899H69.0264V34.1513H80.3821V43.2377H58.4271V5.37899Z" fill="#231F20"/>
<path d="M84.6445 27.9316V5.37919H95.2438V27.7148C95.2438 30.0418 95.6774 35.2307 101.3 35.2307C106.927 35.2307 107.361 30.0418 107.361 27.7148V5.37919H117.96V27.9316C117.96 31.9882 117.093 44.3171 101.3 44.3171C85.5117 44.3171 84.6445 31.9882 84.6445 27.9316Z" fill="#231F20"/>
<path d="M124.87 5.37899H135.469V21.2779L146.882 5.37899H159.322L144.936 23.7109L159.698 43.2377H146.449L135.469 26.9582V43.2377H124.87V5.37899Z" fill="#231F20"/>
<path d="M207.809 5.37689H218.408V43.2358H207.809V5.37689Z" fill="#231F20"/>
<path d="M226.173 5.37899H236.772V34.1513H248.133V43.2377H226.173V5.37899Z" fill="#231F20"/>
<path d="M190.524 24.3359C190.524 16.8634 185.927 13.1585 180.893 13.1585C175.858 13.1585 171.262 16.8634 171.262 24.3359C171.262 31.8084 175.858 35.5134 180.893 35.5134C185.927 35.5134 190.524 31.8084 190.524 24.3359ZM160.084 24.3359C160.084 13.9872 166.728 3.86002 180.893 3.86002C195.062 3.86002 201.701 13.9872 201.701 24.3359C201.701 34.6847 195.062 44.8118 180.893 44.8118C166.728 44.8118 160.084 34.6847 160.084 24.3359Z" fill="#231F20"/>
<path d="M0 -1.75467e-06H49.8937V50H0V-1.75467e-06Z" fill="#E22739"/>
<path d="M44.3744 9.49054L38.7712 18.5529C38.1594 19.5695 38.2509 20.3693 38.5351 21.1401L47.0435 42.9072H11.8057C8.64514 42.9072 6.19767 40.3682 6.19767 37.3426L6.16394 8.36798C6.25066 4.6245 11.7045 4.56187 11.8057 8.35353V35.5118C11.796 36.3742 12.5524 37.3426 13.5497 37.3185H39.359L32.6766 21.593C32.5032 20.9908 32.3827 20.3934 32.3827 19.7911C32.3827 19.1263 32.6766 18.0615 33.1151 17.1943L39.2482 7.09606C39.7011 6.19031 40.6165 5.57844 41.7053 5.53508C43.2326 5.46763 44.5382 6.51792 44.6056 8.14154C44.6105 8.46434 44.5334 9.17256 44.3744 9.49054Z" fill="white"/>
<path d="M24.9388 27.7896V8.35432C24.9388 4.56266 30.4697 4.53376 30.5323 8.35432V28.0016C30.5323 32.4966 27.1743 35.4692 23.0598 35.4692C18.9502 35.4692 15.5825 32.4244 15.5825 28.0016V8.35432C15.5825 4.56266 21.1761 4.56266 21.1761 8.35432V27.7896C21.1761 30.396 24.9388 30.555 24.9388 27.7896Z" fill="white"/>
</svg>
