<svg width="277" height="55" viewBox="0 0 277 55" fill="none" xmlns="http://www.w3.org/2000/svg">
<path d="M50.6616 4.36664H0V55H50.6616V4.36664Z" fill="#ED1B34"/>
<path d="M42.4829 9.41973C41.3184 9.41973 40.4327 10.1837 39.992 11.1096L33.6134 21.6104C33.1727 22.5807 32.8515 23.6706 32.8515 24.3943C32.8515 25.0412 32.9353 25.6074 33.1738 26.133L40.0702 42.6021H13.2761C12.3139 42.6021 11.5179 41.6397 11.5179 40.7462V12.3599C11.3157 8.48249 5.73922 8.48245 5.61792 12.4772L5.73514 42.6021C5.73514 45.8771 8.26712 48.5021 11.5179 48.5021H48.0507L39.152 25.7325C38.9094 24.8834 38.788 24.1157 39.3864 23.1049L45.2863 13.5321C45.3713 13.33 45.4817 12.4813 45.4817 12.2427C45.3645 10.5041 44.0072 9.33886 42.4829 9.41973ZM28.0163 9.4295C26.5829 9.43961 25.1542 10.4212 25.1542 12.3599V32.6777C25.1542 35.6252 21.1786 35.3866 21.1786 32.6777V12.3599C21.1786 8.48249 15.4447 8.48249 15.4447 12.3599V32.834C15.4447 37.516 18.9303 40.6289 23.1029 40.6289C27.3928 40.6289 30.8881 37.516 30.8881 32.834V12.3599C30.8881 10.3808 29.4496 9.41939 28.0163 9.4295Z" fill="white"/>
<path d="M69.7576 10.2455V31.3228C69.7576 36.5911 69.2199 39.5184 64.9341 39.5184C64.1295 39.5184 63.5917 39.5184 62.7871 39.2273V48.3003C64.3963 48.8866 65.4678 48.8866 66.8101 48.8866C78.8711 48.8866 79.4088 39.8136 79.4088 34.5412V19.3225H86.3753V48.3003H96.0265V10.2455H69.7576Z" fill="black"/>
<path d="M99.241 10.2455L112.377 37.7637L107.554 48.3003H118.006L133.552 10.2455H123.1L117.472 26.3456L110.768 10.2455H99.241Z" fill="black"/>
<path d="M136.499 48.3003H146.15V31.9091L156.068 48.3003H168.4L154.73 28.6866L168.129 10.2455H156.606L146.15 26.3456V10.2455H136.499V48.3003Z" fill="black"/>
<path d="M184.213 49.4729C197.079 49.4729 202.978 39.5184 202.978 29.2729C202.978 19.3225 197.079 9.3681 184.213 9.3681C171.615 9.3681 165.72 19.3225 165.72 29.2729C165.72 39.5184 171.615 49.4729 184.213 49.4729ZM184.213 40.3958C179.924 40.3958 175.638 36.5911 175.638 29.2729C175.638 21.9547 179.924 18.4411 184.213 18.4411C188.77 18.4411 193.06 21.9547 193.06 29.2729C193.06 36.5911 188.77 40.3958 184.213 40.3958Z" fill="black"/>
<path d="M207.802 10.2455V48.3004H217.186L230.585 25.4683V48.3004H239.97V10.2455H230.585L217.186 33.0776V10.2455H207.802ZM224.153 8.19562C228.176 8.19562 232.195 6.73197 234.071 2.34103L228.442 0C227.638 2.9273 225.224 3.22245 224.153 3.22245C223.348 3.22245 220.667 2.9273 220.134 0L214.505 2.34103C216.111 6.73197 220.4 8.19562 224.153 8.19562Z" fill="black"/>
<path d="M250.155 10.2455V31.3228C250.155 36.5911 249.617 39.5184 245.331 39.5184C244.526 39.5184 243.989 39.5184 243.184 39.2273V48.3003C244.793 48.8866 245.865 48.8866 247.207 48.8866C259.268 48.8866 259.806 39.8136 259.806 34.5412V19.3225H266.772V48.3003H276.423V10.2455H250.155Z" fill="black"/>
</svg>
