<svg width="286" height="60" viewBox="0 0 286 60" fill="none" xmlns="http://www.w3.org/2000/svg">
<g clip-path="url(#clip0_47_62)">
<path d="M195.007 30.1047V19.9677H188.911V39.9714H194.569L201.173 29.9181V39.9714H207.267V19.9677H201.611L195.007 30.1047ZM159.846 28.0549C159.846 28.7819 159.483 30.1866 157.613 30.1866H155.454V24.8916H157.886C158.533 24.8916 159.846 25.4206 159.846 26.9833V28.0549ZM158.539 19.9677H149.021V39.9714H155.454V35.0609H158.539C162.699 35.0609 166.107 32.7674 166.107 28.6829V26.3419C166.107 22.2611 162.699 19.9677 158.539 19.9677ZM249.68 30.552C249.68 33.5973 248.881 34.0389 247.73 34.566C247.23 34.8001 245.869 34.7487 245.869 34.7487V39.9714H248.391C253.807 39.9714 255.807 36.8157 255.889 29.7621C255.909 28.1633 255.877 26.5911 255.889 25.1846H259.497V39.9714H265.933V19.9677H249.68V30.552ZM140.375 33.2413C140.375 34.566 139.294 35.651 137.969 35.651H137.419C136.094 35.651 135.01 34.566 135.01 33.2413V26.7549C135.01 25.4283 136.094 24.349 137.419 24.349H137.969C139.294 24.349 140.375 25.4283 140.375 26.7549V33.2413ZM139.269 19.6421H136.119C131.955 19.6421 128.546 22.6094 128.546 27.2097V32.7921C128.546 37.4171 131.955 40.3654 136.119 40.3654H139.269C143.426 40.3654 146.84 37.3906 146.84 32.7921V27.2097C146.84 22.3639 143.426 19.6421 139.269 19.6421ZM228.461 19.9677H221.496L218.1 27.5239H216.519V19.9677H210.079V39.9714H216.519V32.8587H218.094L221.569 39.9714H228.953L223.496 29.8801L228.461 19.9677ZM236.433 32.3753H243.684V27.617H236.433V25.1846H244.341V19.9677H230.004V39.9714H244.937V34.7487H236.433V32.3753ZM277.241 35.0437H274.819V30.6776H276.977C278.797 30.6776 279.21 32.0119 279.21 32.8779C279.21 34.6746 277.73 35.0437 277.241 35.0437ZM277.899 25.8013H274.819V19.9677H268.383V39.9714H277.899C282.061 39.9714 285.47 37.6703 285.47 33.5916V32.1811C285.47 28.0967 282.061 25.8013 277.899 25.8013ZM179.66 27.3677H174.171V19.9677H167.736V39.9714H174.171V32.8587H179.66V39.9714H186.096V19.9677H179.66V27.3677ZM119.928 27.3677H114.44V19.9677H108.005V39.9714H114.44V32.8587H119.928V39.9714H126.367V19.9677H119.928V27.3677ZM76.6711 46.6597C73.7781 49.5566 70.2664 51.6044 66.4409 52.6856V7.31823C70.2664 8.39741 73.7781 10.4454 76.6711 13.3365C81.1173 17.7864 83.5649 23.7077 83.5649 29.9981C83.5649 36.2961 81.1173 42.2136 76.6711 46.6597ZM30.0039 32.008V7.76361L59.9981 28.0016V52.2401L30.0039 32.008ZM23.5706 52.6856C19.743 51.6101 16.2296 49.5566 13.3384 46.6597C8.88847 42.2136 6.4351 36.2961 6.4351 30.0019C6.4351 23.7077 8.88847 17.7864 13.3384 13.3365C16.2296 10.4454 19.743 8.39741 23.5706 7.31823V52.6856ZM59.9981 0V20.236L30.0039 0.00190331C13.4336 0.00190331 0 13.4336 0 30.0019C0 46.574 13.4336 60 30.0039 60V39.764L59.9981 60C76.5721 60 90.0057 46.574 90.0057 29.9981C90.0057 13.4336 76.5721 0 59.9981 0Z" fill="#0080C8"/>
</g>
<defs>
<clipPath id="clip0_47_62">
<rect width="285.714" height="60" fill="white"/>
</clipPath>
</defs>
</svg>
