<svg width="286" height="60" viewBox="0 0 286 60" fill="none" xmlns="http://www.w3.org/2000/svg">
<path d="M76.6711 46.6597C73.7781 49.5566 70.2664 51.6044 66.4409 52.6856V7.31823C70.2664 8.39741 73.7781 10.4454 76.6711 13.3365C81.1173 17.7864 83.5649 23.7077 83.5649 29.9981C83.5649 36.2961 81.1173 42.2136 76.6711 46.6597ZM30.0039 32.008V7.76361L59.9981 28.0016V52.2401L30.0039 32.008ZM23.5706 52.6856C19.743 51.6101 16.2296 49.5566 13.3384 46.6597C8.88847 42.2136 6.4351 36.2961 6.4351 30.0019C6.4351 23.7077 8.88847 17.7864 13.3384 13.3365C16.2296 10.4454 19.743 8.39741 23.5706 7.31823V52.6856ZM59.9981 0V20.236L30.0039 0.00190331C13.4336 0.00190331 0 13.4336 0 30.0019C0 46.574 13.4336 60 30.0039 60V39.764L59.9981 60C76.5721 60 90.0057 46.574 90.0057 29.9981C90.0057 13.4336 76.5721 0 59.9981 0Z" fill="#0080C8"/>
<path d="M180.326 30.5344L173.914 20.2981H168.25V40.2739H174.313V30.2363L180.623 40.2739H186.289V20.2981H180.276V30.5344H180.326ZM139.777 20H136.647C132.473 20 129.094 22.9814 129.094 27.553V33.1184C129.094 37.7397 132.473 40.6714 136.647 40.6714H139.777C143.952 40.6714 147.33 37.69 147.33 33.1184V27.553C147.33 22.733 143.902 20 139.777 20ZM140.871 33.5656C140.871 34.9073 139.777 35.9509 138.486 35.9509H137.939C136.597 35.9509 135.554 34.8576 135.554 33.5656V27.1059C135.554 25.7641 136.647 24.7206 137.939 24.7206H138.486C139.827 24.7206 140.871 25.8139 140.871 27.1059V33.5656ZM189.12 40.2739H195.53V20.2981H189.12V40.2739ZM260.924 34.9073V20.3479H254.514V40.3236H268.527V34.9073H260.924ZM208.152 20H205.27C201.096 20 197.717 22.9814 197.717 27.553V33.1184C197.717 37.7397 201.096 40.6714 205.27 40.6714H208.152C212.326 40.6714 215.706 37.69 215.706 33.1184V32.87H209.246V33.5656C209.246 34.9073 208.152 35.9509 206.86 35.9509H206.562C205.22 35.9509 204.177 34.8576 204.177 33.5656V27.1059C204.177 25.7641 205.27 24.7206 206.562 24.7206H206.86C208.202 24.7206 209.246 25.8139 209.246 27.1059V28.0996H215.706V27.6027C215.706 22.733 212.326 20 208.152 20ZM166.462 27.6524V26.7083C166.462 22.6336 163.083 20.3479 158.909 20.3479H149.517V40.3236H155.827V34.4104H157.716L160.399 40.3236H167.057L163.332 33.019C165.219 31.9259 166.462 30.0873 166.462 27.6524ZM160.2 27.404C160.2 28.1493 159.853 29.7394 157.964 29.7394H155.827V24.7703H158.263C158.909 24.7703 160.2 25.5157 160.2 27.0561V27.404ZM120.796 30.3357L114.187 20.2981H108.572V40.2739H114.634V30.137L121.243 40.2739H126.908V20.2981H120.796V30.3357ZM243.93 32.7209H251.184V27.9506H243.93V25.5157H251.83V20.2981H237.52V40.2739H252.427V35.0563H243.93V32.7209ZM235.979 20.2981H229.023L225.643 27.8511H224.053V20.2981H217.643V40.2739H224.053V33.1681H225.643L229.122 40.2739H236.476L231.01 30.1866L235.979 20.2981Z" fill="#0080C8"/>
</svg>
