<svg width="240" height="80" viewBox="0 0 240 80" fill="none" xmlns="http://www.w3.org/2000/svg">
<g clip-path="url(#clip0_47_65)">
<path d="M68.7543 79.5986H63.2214L51.8557 52.4143H59.7943L66.1914 69.7215H66.3043L72.5857 52.4143H80.0671L68.7543 79.5986Z" fill="#002F6C"/>
<path d="M122.233 59.4414C120.861 58.64 119.553 58.4671 118.809 58.4671C117.21 58.4671 115.727 59.0386 113.84 60.5814V79.4286H106.127V52.4129H112.64L113.497 55.2143C115.959 53.0429 118.063 51.7886 120.92 51.7886C122.234 51.7886 123.837 52.1871 125.031 53.0443L122.233 59.4414Z" fill="#002F6C"/>
<path d="M133.582 80C128.956 80 125.472 78.9143 122.899 77.3157L125.302 71.7186C127.584 73.3143 130.272 74.23 132.84 74.23C135.467 74.23 137.123 73.3757 137.123 71.7743C137.123 67.4914 124.613 69.2071 124.613 60.07C124.613 55.1 128.612 51.7886 135.177 51.7886C138.78 51.7886 141.292 52.3014 143.516 53.1586V59.5543C141.063 58.58 138.436 57.7271 135.524 57.7271C133.296 57.7271 132.096 58.3529 132.096 59.6686C132.096 63.38 144.83 62.01 144.83 71.4343C144.83 77.6586 139.349 80 133.582 80Z" fill="#002F6C"/>
<path d="M156.844 80C151.814 80 149.93 77.1457 149.93 73.4872V59.1829H144.961V53.1257H149.93V46.1329L157.641 43.8472V53.1243H166.093L164.571 59.1814H157.641V70.5772C157.641 72.5714 158.439 73.5429 160.211 73.5429C161.864 73.5429 163.579 72.8029 164.607 72.1729L166.607 76.9743C163.527 79.2015 159.524 80 156.844 80Z" fill="#002F6C"/>
<path d="M184.608 79.4315L183.408 77.0872C181.638 78.6858 179.244 80 175.754 80C170.614 80 166.737 76.5743 166.737 71.2C166.737 65.4943 171.358 62.5229 178.207 62.2943L182.78 62.1272C182.78 62.01 182.78 61.7843 182.78 61.6672C182.78 58.8158 180.496 57.6158 177.813 57.6158C175.07 57.6158 172.724 58.4143 170.901 59.4429L168.553 54.7586C172.268 52.3558 175.81 51.79 179.466 51.79C186.664 51.79 190.661 54.7 190.661 61.84V79.4658L184.608 79.4315ZM182.723 67.2072L179.356 67.3186C176.043 67.4358 174.443 68.58 174.443 70.6329C174.443 72.6858 175.926 74 178.558 74C180.613 74 181.983 73.3143 182.724 72.7443V67.2072H182.723Z" fill="#002F6C"/>
<path d="M201.827 79.4643V58.8557V36.0557L194.063 38.4029V58.8557V79.4643H201.827Z" fill="#002F6C"/>
<path d="M12.5857 80C7.15143 80 3.27143 78.2286 0 76.2272L3.43286 69.7872C6.03714 71.55 9.73714 73.54 12.1386 73.54C14.61 73.54 17.8371 72.7315 17.8371 69.8657C17.8371 64.8957 8.92571 64.0086 4.35429 58.8143C2.93143 57.1572 1.95714 55.0415 1.95714 52.1286C1.95714 46.42 6.46857 41.3886 14.75 41.3886C18.7486 41.3886 22.0571 42.4215 24.2329 43.6772L24.1186 50.8872C20.92 49.1743 17.8814 47.67 14.7957 47.67C11.9971 47.67 10.1529 48.9143 10.1529 51.0829C10.1529 57.5958 26.3443 57.04 26.3443 68.8643C26.3443 75.7172 20.29 80 12.5857 80Z" fill="#002F6C"/>
<path d="M86.2942 68.0357C86.4642 71.6743 89.8771 73.8372 93.4599 73.8372C96.0771 73.8372 98.0728 73.3272 101.096 71.9029L102.86 76.7972C99.0956 79.1272 95.3956 79.9243 92.2085 79.9243C82.5428 79.9243 78.5542 73.0943 78.5542 66.0429C78.5542 58.42 83.1085 51.8186 91.1856 51.8186C98.5813 51.8186 103.704 57.3372 103.704 65.7029C103.704 66.2186 103.704 67.0086 103.704 68.0357H86.2942V68.0357ZM90.9613 57.4558C87.8885 57.4558 86.1242 60.2957 86.1242 62.7457H95.8528C95.6799 60.1843 94.2585 57.4558 90.9613 57.4558Z" fill="#002F6C"/>
<path d="M35.9328 68.0357C36.1057 71.6743 39.52 73.8372 43.1057 73.8372C45.7228 73.8372 47.7128 73.3272 50.74 71.9029L52.5042 76.7972C48.7357 79.1272 45.0357 79.9243 41.8514 79.9243C32.18 79.9243 28.2 73.0943 28.2 66.0429C28.2 58.42 32.7528 51.8186 40.8242 51.8186C48.2214 51.8186 53.3442 57.3372 53.3442 65.7029C53.3442 66.2186 53.3442 67.0086 53.3442 68.0357H35.9328V68.0357ZM40.6014 57.4558C37.5285 57.4558 35.7671 60.2957 35.7671 62.7457H45.4971C45.3257 60.1843 43.8985 57.4558 40.6014 57.4558Z" fill="#002F6C"/>
<path d="M234.244 29.1072C234.741 28.95 235.221 28.69 235.689 28.3572C236.407 26.5072 237.071 24.4472 237.666 22.1572H237.664C238.45 19.1229 238.926 16.3843 239.159 13.9229C239.391 11.4272 239.376 9.21859 239.177 7.27002C238.964 5.23145 238.429 3.15288 237.211 1.95859C235.996 0.764309 233.916 0.261452 231.869 0.0857378C229.923 -0.0585479 227.716 -0.0356907 225.233 0.234309C225.757 0.471452 226.224 0.762881 226.611 1.10859C227.829 2.22574 228.397 4.12431 228.644 5.98859C228.824 7.34431 228.901 8.83431 228.847 10.4643C228.761 13.1 228.341 16.1029 227.457 19.5115C226.777 22.1415 225.974 24.4229 225.094 26.4072C226.459 27.2472 227.766 27.9157 229.004 28.4272C230.743 29.1486 232.674 29.6057 234.244 29.1072Z" fill="#002F6C"/>
<path d="M205.454 23.4643C205.343 23.97 205.329 24.5229 205.383 25.0986C206.624 26.6386 208.07 28.2372 209.752 29.8929C211.999 32.0972 214.146 33.8743 216.172 35.3029C218.21 36.7443 220.124 37.8314 221.896 38.6429C223.759 39.5057 225.834 40.0572 227.476 39.6043C229.116 39.1457 230.596 37.5872 231.77 35.9043C232.89 34.3014 233.974 32.3743 234.977 30.0814C234.502 30.4229 234.01 30.6929 233.506 30.8486C231.933 31.3486 230.004 30.8886 228.264 30.17C227 29.65 225.672 28.9714 224.282 28.11C222.049 26.7186 219.659 24.8514 217.146 22.3857V22.3814C215.212 20.4786 213.64 18.6472 212.36 16.89C210.953 17.6486 209.724 18.4443 208.663 19.2614C207.173 20.4129 205.809 21.8514 205.454 23.4643Z" fill="#002F6C"/>
<path d="M224.72 1.3129C224.356 0.981472 223.907 0.701472 223.413 0.4729C221.437 0.770043 219.31 1.21719 217.006 1.85576C213.996 2.69147 211.389 3.64719 209.141 4.67576C206.884 5.71433 204.99 6.82147 203.409 7.95861C201.724 9.16576 200.171 10.6829 199.741 12.3486C199.314 14.0143 199.937 16.0929 200.819 17.9643C201.649 19.7243 202.771 21.6158 204.244 23.6172C204.186 23.0286 204.201 22.4672 204.316 21.9515C204.67 20.3443 206.033 18.8986 207.521 17.75C208.603 16.92 209.851 16.1115 211.293 15.3386C213.613 14.0958 216.434 12.96 219.827 12.0172C222.436 11.2943 224.806 10.85 226.961 10.62C227.01 9.00719 226.933 7.53147 226.754 6.1929C226.507 4.33004 225.937 2.42719 224.72 1.3129Z" fill="#002F6C"/>
</g>
<defs>
<clipPath id="clip0_47_65">
<rect width="239.329" height="80" fill="white"/>
</clipPath>
</defs>
</svg>
