<svg width="200" height="64" viewBox="0 0 200 64" fill="none" xmlns="http://www.w3.org/2000/svg">
<g clip-path="url(#clip0_54_740)">
<path d="M40.9844 34.0007H49.0186C50.1596 33.9538 51.3024 33.9905 52.4382 34.1107C54.9643 34.4549 57.5231 35.588 57.5231 38.7003C57.5231 41.3057 56.0131 42.5248 54.1881 42.9216V43.0795C56.827 43.5575 58.3415 44.9917 58.3415 47.8172C58.3415 52.4545 53.9859 53.7357 50.4532 53.9079C49.5924 53.9079 48.487 53.9079 47.7438 53.9079H40.9844V34.0007ZM46.629 50.1454H48.9197C50.8578 50.1454 52.7628 49.5526 52.7628 47.6595C52.7628 45.8809 51.3235 45.269 48.6422 45.269H46.6148L46.629 50.1454ZM46.7465 41.7361H48.4494C50.8013 41.7361 52.1748 41.258 52.1748 39.7233C52.1748 38.5042 51.3235 37.8111 49.0279 37.8111H46.7324L46.7465 41.7361Z" fill="#002F6C"/>
<path d="M13.1237 54.3234C4.62389 54.3234 0 48.1084 0 40.268C0 32.3749 5.43766 25.9017 14.3702 25.9017C16.7222 25.9017 18.7919 26.2173 20.5841 27.1639V32.2554C18.7838 31.119 16.701 30.53 14.5819 30.5582C8.52339 30.5582 6.15735 35.0951 6.15735 39.8759C6.15735 45.2017 9.11136 49.4375 14.0362 49.4375C16.1648 49.4403 18.2558 48.8676 20.0949 47.7786L21.5719 51.804C19.076 53.4889 16.1385 54.3701 13.1426 54.333L13.1237 54.3234ZM109.05 54.3234C102.76 54.3234 99.5383 49.624 99.5383 44.0209C99.5383 37.7438 103.809 33.5988 109.52 33.5988C112.041 33.5988 113.368 34.1104 114.411 34.7414V39.2449C113.256 38.3121 111.814 37.823 110.338 37.8632C107.116 37.8632 105.136 40.2537 105.136 43.7436C105.136 46.8607 106.646 49.9013 110.254 49.9013C111.592 49.8142 112.895 49.4221 114.064 48.7539L115.381 52.4255C113.47 53.6113 111.288 54.2704 109.05 54.3378V54.3234ZM126.453 38.4943V53.9266H120.861V38.4943H115.423V33.9956H132.588L131.176 38.4943H126.453ZM153.345 36.3334C153.345 43.2799 153.073 46.9084 151.831 48.5674C151.189 49.3989 150.258 49.9496 149.23 50.1068L150.782 54.333C152.505 54.2542 154.143 53.5523 155.401 52.3538C157.189 50.5801 157.777 48.3331 158.044 45.9618C158.294 43.8133 158.425 41.6522 158.435 39.4887V38.4943H162.806V53.9266H168.398V33.9956H153.345V36.3334ZM26.525 45.5173C26.6426 48.204 29.131 49.8582 31.7322 49.8582C33.6137 49.8582 35.0673 49.5045 37.2875 48.424L38.5293 52.0191C36.2234 53.5218 33.5401 54.317 30.8008 54.3091C23.8062 54.3091 20.9227 49.2558 20.9227 44.0065C20.9227 38.4034 24.2155 33.5845 30.0859 33.5845C35.4483 33.5845 39.1784 37.6099 39.1784 43.7675V45.5029L26.525 45.5173ZM29.9448 37.7676C27.6916 37.7676 26.4075 39.8186 26.4075 41.6353H33.4632C33.3457 39.723 32.2967 37.7676 29.9307 37.7676H29.9448ZM65.0497 45.5412C65.1673 48.228 67.6556 49.8821 70.2568 49.8821C72.1383 49.8821 73.5966 49.5283 75.812 48.4479L77.0539 52.043C74.7484 53.5467 72.0648 54.342 69.3255 54.333C62.3355 54.333 59.4474 49.2797 59.4474 44.0305C59.4474 38.4274 62.74 33.6083 68.6105 33.6083C73.9682 33.6083 77.6983 37.6338 77.6983 43.7914V45.5268L65.0497 45.5412ZM68.4693 37.7676C66.2161 37.7676 64.9132 39.7947 64.9132 41.5923H71.969C71.8514 39.6799 70.7977 37.7246 68.4317 37.7246L68.4693 37.7676ZM143.308 52.1768C142.597 52.8879 141.752 53.4463 140.824 53.8192C139.897 54.1921 138.905 54.3716 137.908 54.3473C134.182 54.3473 131.383 51.8183 131.383 47.8695C131.383 43.648 134.728 41.4775 139.695 41.3198L142.988 41.2003V40.8082C142.988 38.7142 141.323 37.8872 139.385 37.8872C137.633 37.8788 135.912 38.3565 134.408 39.2688L132.7 35.7932C135.382 34.0195 137.941 33.6228 140.622 33.6228C145.797 33.6228 148.548 35.712 148.548 40.9659V53.9266H144.197L143.308 52.1768ZM140.485 45.0057C138.077 45.087 136.958 45.9141 136.958 47.3962C136.958 48.8781 138.002 49.8821 139.902 49.8821C140.985 49.9339 142.053 49.614 142.936 48.9738V44.9388L140.485 45.0057ZM85.0927 53.4916V61.9009L79.4951 63.6364V33.9956H84.199L84.8199 35.8075C86.2547 34.6649 87.9292 33.5988 90.1024 33.5988C94.6086 33.5988 98.1413 37.0697 98.1413 43.3898C98.1413 49.3084 94.6463 54.3234 88.8606 54.3234C87.5585 54.3587 86.2675 54.0732 85.0975 53.4916H85.0927ZM85.0927 39.9907V49.428C85.7952 49.9298 86.6331 50.1987 87.4917 50.1976C91.2972 50.1976 92.539 46.6838 92.539 43.2895C92.5484 39.2018 91.2548 37.7676 88.9734 37.7676C87.5011 37.7676 85.756 38.9915 85.0927 40.0146V39.9907Z" fill="#002F6C"/>
<path d="M176.315 40.4832V33.1399L170.722 34.8992V53.9602H177.867C183.069 53.9602 187.924 52.5259 187.924 47.0519C187.924 42.3955 184.006 40.5023 179.189 40.5023L176.315 40.4832ZM176.315 49.9969V44.4321H178.197C180.181 44.4321 182.355 44.7476 182.355 47.1141C182.355 49.4806 180.473 49.9826 178.276 49.9826L176.315 49.9969Z" fill="#002F6C"/>
<path d="M196.4 20.9682C196.765 20.8401 197.111 20.6581 197.425 20.428C197.979 18.9667 198.451 17.4742 198.836 15.958C199.339 14.0164 199.69 12.0373 199.885 10.0394C200.038 8.44952 200.038 6.8484 199.885 5.25858C199.735 3.7861 199.359 2.28972 198.475 1.43395C197.589 0.578202 196.151 0.190959 194.739 0.0618786C193.171 -0.0481763 191.596 -0.0113685 190.035 0.171836C190.379 0.32995 190.696 0.541218 190.976 0.798117C191.842 1.60128 192.242 2.97336 192.415 4.31676C192.553 5.38475 192.602 6.46267 192.561 7.53901C192.47 9.74278 192.14 11.9297 191.578 14.06C191.154 15.7585 190.593 17.4183 189.898 19.0224C190.785 19.5818 191.713 20.0693 192.675 20.4806C193.921 20.9969 195.289 21.3267 196.4 20.9682Z" fill="#002F6C"/>
<path d="M176 16.9C175.923 17.2885 175.906 17.6868 175.948 18.0808C176.916 19.2831 177.949 20.4291 179.044 21.5134C180.455 22.9352 181.975 24.2398 183.592 25.4146C184.871 26.3343 186.23 27.1343 187.652 27.8049C188.973 28.4216 190.44 28.8184 191.607 28.4933C192.774 28.1683 193.819 27.0591 194.65 25.8305C195.542 24.5109 196.304 23.1049 196.923 21.633C196.606 21.8731 196.254 22.0604 195.879 22.1875C194.769 22.5508 193.399 22.2161 192.167 21.7094C191.188 21.2922 190.245 20.795 189.345 20.2226C187.517 19.0377 185.822 17.6543 184.288 16.0968C183.053 14.8743 181.919 13.5504 180.897 12.1383C179.98 12.6423 179.104 13.2194 178.277 13.8642C177.219 14.7008 176.249 15.7431 176 16.9Z" fill="#002F6C"/>
<path d="M189.65 0.955893C189.368 0.708401 189.051 0.505347 188.709 0.353516C187.178 0.594374 185.662 0.928028 184.17 1.3527C182.268 1.86802 180.409 2.5346 178.61 3.34627C177.183 4.00824 175.821 4.80875 174.545 5.73666C173.355 6.60676 172.25 7.70156 171.948 8.90154C171.648 10.1015 172.085 11.5932 172.711 12.9461C173.389 14.3784 174.202 15.7409 175.138 17.0145C175.093 16.6159 175.111 16.2124 175.189 15.8193C175.439 14.6576 176.409 13.6153 177.462 12.7883C178.312 12.1341 179.213 11.552 180.158 11.0481C182.08 10.0271 184.11 9.22539 186.206 8.65772C187.854 8.18143 189.537 7.84404 191.239 7.64897C191.278 6.58377 191.229 5.5172 191.094 4.4602C190.92 3.1168 190.505 1.74472 189.65 0.955893Z" fill="#002F6C"/>
</g>
<defs>
<clipPath id="clip0_54_740">
<rect width="200" height="63.6364" fill="white"/>
</clipPath>
</defs>
</svg>
