<svg width="252" height="80" viewBox="0 0 252 80" fill="none" xmlns="http://www.w3.org/2000/svg">
<g clip-path="url(#clip0_46_52)">
<path d="M51.5237 42.7437H61.6238C63.0583 42.6847 64.495 42.7308 65.9228 42.882C69.0984 43.3147 72.3153 44.7391 72.3153 48.6517C72.3153 51.9271 70.417 53.4597 68.1227 53.9586V54.157C71.4401 54.758 73.3441 56.561 73.3441 60.113C73.3441 65.9427 67.8684 67.5534 63.4274 67.7698C62.3453 67.7698 60.9555 67.7698 60.0213 67.7698H51.5237V42.7437ZM58.6198 63.0398H61.4995C63.936 63.0398 66.3308 62.2947 66.3308 59.9147C66.3308 57.6788 64.5214 56.9096 61.1507 56.9096H58.602L58.6198 63.0398ZM58.7675 52.4681H60.9083C63.865 52.4681 65.5917 51.8671 65.5917 49.9378C65.5917 48.4053 64.5214 47.5338 61.6355 47.5338H58.7498L58.7675 52.4681Z" fill="#002F6C"/>
<path d="M16.4984 68.2923C5.81289 68.2923 0 60.4791 0 50.6226C0 40.6998 6.83591 32.5621 18.0654 32.5621C21.0221 32.5621 23.6241 32.9588 25.8771 34.1488V40.5496C23.6139 39.121 20.9956 38.3806 18.3316 38.416C10.7151 38.416 7.74067 44.1196 7.74067 50.1297C7.74067 56.825 11.4543 62.15 17.6456 62.15C20.3214 62.1534 22.9501 61.4336 25.2621 60.0644L27.119 65.125C23.9813 67.2431 20.2884 68.351 16.5221 68.3043L16.4984 68.2923ZM137.091 68.2923C129.185 68.2923 125.134 62.3844 125.134 55.3406C125.134 47.4493 130.503 42.2384 137.682 42.2384C140.852 42.2384 142.519 42.8816 143.831 43.6748V49.3364C142.379 48.1637 140.566 47.5488 138.711 47.5994C134.66 47.5994 132.171 50.6046 132.171 54.9918C132.171 58.9106 134.069 62.733 138.605 62.733C140.288 62.6236 141.925 62.1306 143.394 61.2906L145.05 65.9063C142.648 67.397 139.904 68.2256 137.091 68.3103V68.2923ZM158.97 48.3928V67.7934H151.94V48.3928H145.103V42.7373H166.681L164.907 48.3928H158.97ZM192.777 45.6763C192.777 54.409 192.434 58.9706 190.873 61.0561C190.066 62.1014 188.896 62.7937 187.603 62.9914L189.554 68.3043C191.72 68.2053 193.78 67.3228 195.361 65.8161C197.609 63.5864 198.349 60.7616 198.684 57.7806C198.999 55.0796 199.163 52.3627 199.176 49.6428V48.3928H204.67V67.7934H211.7V42.7373H192.777V45.6763ZM33.3457 57.2217C33.4936 60.5993 36.6219 62.6788 39.8919 62.6788C42.2573 62.6788 44.0846 62.2341 46.8757 60.8758L48.4369 65.3954C45.538 67.2846 42.1647 68.2841 38.721 68.2743C29.9279 68.2743 26.3029 61.9216 26.3029 55.3224C26.3029 48.2786 30.4423 42.2204 37.8223 42.2204C44.5636 42.2204 49.2529 47.281 49.2529 55.022V57.2036L33.3457 57.2217ZM37.6449 47.4793C34.8123 47.4793 33.198 50.0576 33.198 52.3414H42.068C41.9203 49.9374 40.6016 47.4793 37.6271 47.4793H37.6449ZM81.7767 57.2517C81.9246 60.6294 85.0527 62.7088 88.3229 62.7088C90.6881 62.7088 92.5214 62.2641 95.3066 60.9059L96.8677 65.4254C93.9694 67.3158 90.5957 68.3156 87.152 68.3043C78.3646 68.3043 74.7339 61.9516 74.7339 55.3526C74.7339 48.3087 78.8731 42.2504 86.2531 42.2504C92.9886 42.2504 97.6779 47.311 97.6779 55.052V57.2337L81.7767 57.2517ZM86.0757 47.4793C83.2431 47.4793 81.6051 50.0276 81.6051 52.2874H90.4753C90.3274 49.8833 89.0029 47.4251 86.0284 47.4251L86.0757 47.4793ZM180.159 65.5937C179.264 66.4876 178.203 67.1896 177.036 67.6584C175.87 68.1271 174.623 68.3528 173.37 68.3223C168.686 68.3223 165.167 65.143 165.167 60.1787C165.167 54.8717 169.373 52.1431 175.617 51.9448L179.756 51.7946V51.3017C179.756 48.6693 177.663 47.6296 175.227 47.6296C173.024 47.619 170.861 48.2196 168.97 49.3664L166.823 44.9971C170.194 42.7673 173.411 42.2686 176.781 42.2686C183.287 42.2686 186.746 44.895 186.746 51.5V67.7934H181.276L180.159 65.5937ZM176.61 56.5786C173.583 56.6807 172.176 57.7206 172.176 59.5837C172.176 61.4467 173.489 62.7088 175.877 62.7088C177.239 62.774 178.581 62.3718 179.691 61.567V56.4944L176.61 56.5786ZM106.974 67.2466V77.8183L99.9367 80V42.7373H105.85L106.631 45.0151C108.434 43.5787 110.54 42.2384 113.272 42.2384C118.937 42.2384 123.378 46.6018 123.378 54.5471C123.378 61.9877 118.984 68.2923 111.71 68.2923C110.074 68.3366 108.451 67.9777 106.98 67.2466H106.974ZM106.974 50.274V62.138C107.857 62.7688 108.91 63.1068 109.99 63.1056C114.774 63.1056 116.335 58.6881 116.335 54.421C116.347 49.2823 114.72 47.4793 111.852 47.4793C110.001 47.4793 107.808 49.0178 106.974 50.304V50.274Z" fill="#002F6C"/>
<path d="M221.653 50.8931V41.6616L214.621 43.8733V67.8357H223.604C230.144 67.8357 236.247 66.0326 236.247 59.151C236.247 53.2971 231.321 50.9171 225.266 50.9171L221.653 50.8931ZM221.653 62.8533V55.8574H224.018C226.513 55.8574 229.246 56.2541 229.246 59.2291C229.246 62.2041 226.88 62.8353 224.118 62.8353L221.653 62.8533Z" fill="#002F6C"/>
<path d="M246.903 26.36C247.363 26.199 247.797 25.9701 248.191 25.6809C248.889 23.8439 249.481 21.9676 249.966 20.0614C250.599 17.6206 251.04 15.1326 251.284 12.6209C251.477 10.6223 251.477 8.60941 251.284 6.61079C251.096 4.75967 250.623 2.8785 249.511 1.80269C248.399 0.726883 246.59 0.240063 244.816 0.0777903C242.844 -0.0605644 240.864 -0.0142919 238.901 0.216023C239.334 0.414794 239.733 0.680389 240.084 1.00335C241.173 2.01304 241.676 3.73794 241.894 5.42679C242.067 6.7694 242.129 8.1245 242.077 9.47761C241.963 12.2481 241.549 14.9973 240.841 17.6754C240.309 19.8107 239.603 21.8973 238.73 23.9139C239.844 24.6171 241.011 25.23 242.22 25.747C243.787 26.3961 245.507 26.8107 246.903 26.36Z" fill="#002F6C"/>
<path d="M221.257 21.2457C221.16 21.7342 221.139 22.2349 221.191 22.7302C222.409 24.2416 223.707 25.6823 225.083 27.0454C226.857 28.8329 228.769 30.4729 230.801 31.9497C232.409 33.106 234.117 34.1117 235.904 34.9547C237.566 35.73 239.41 36.2289 240.877 35.8202C242.344 35.4116 243.657 34.0172 244.703 32.4726C245.824 30.8137 246.781 29.0462 247.56 27.1957C247.161 27.4976 246.719 27.733 246.247 27.8929C244.851 28.3496 243.13 27.9289 241.581 27.2919C240.35 26.7673 239.164 26.1423 238.033 25.4227C235.736 23.9332 233.604 22.194 231.676 20.236C230.123 18.6992 228.697 17.0347 227.413 15.2596C226.26 15.8932 225.159 16.6187 224.119 17.4293C222.789 18.481 221.57 19.7913 221.257 21.2457Z" fill="#002F6C"/>
<path d="M238.417 1.20173C238.063 0.890599 237.664 0.635332 237.234 0.444458C235.31 0.747251 233.404 1.1667 231.529 1.70057C229.137 2.34841 226.8 3.1864 224.539 4.20678C222.744 5.03897 221.033 6.04533 219.429 7.21184C217.933 8.30568 216.543 9.682 216.164 11.1905C215.787 12.6991 216.336 14.5743 217.123 16.2752C217.976 18.0757 218.997 19.7886 220.174 21.3897C220.117 20.8886 220.14 20.3813 220.239 19.8872C220.553 18.4267 221.771 17.1164 223.096 16.0767C224.164 15.2543 225.297 14.5226 226.484 13.8891C228.901 12.6055 231.453 11.5977 234.089 10.884C236.16 10.2853 238.276 9.86111 240.416 9.61588C240.464 8.27678 240.403 6.93594 240.233 5.60714C240.014 3.9183 239.493 2.1934 238.417 1.20173Z" fill="#002F6C"/>
</g>
<defs>
<clipPath id="clip0_46_52">
<rect width="251.429" height="80" fill="white"/>
</clipPath>
</defs>
</svg>
