<svg width="265" height="60" viewBox="0 0 265 60" fill="none" xmlns="http://www.w3.org/2000/svg">
<path fill-rule="evenodd" clip-rule="evenodd" d="M63 48.5875H66.2518V43.3161L69.645 48.5934H73.7111L69.1869 42.2642L73.5979 36.3294H69.7863L66.2857 41.4813V36.3234H63.0339V48.5875H63ZM80.3277 48.9401C81.0946 48.9436 81.8576 48.8226 82.5898 48.5815C83.2208 48.3619 83.8116 48.0305 84.3373 47.6013C84.8217 47.193 85.2384 46.7021 85.5702 46.149C85.9003 45.5952 86.1464 44.9902 86.2997 44.356C86.6241 43.0898 86.6241 41.7553 86.2997 40.4891C86.1437 39.8653 85.8976 39.2706 85.5702 38.726C85.2384 38.1975 84.8278 37.7292 84.3543 37.3395C83.83 36.9081 83.2386 36.5765 82.6068 36.3593C81.8759 36.1124 81.112 35.9913 80.3447 36.0007C79.5772 35.9896 78.8132 36.1107 78.0826 36.3593C77.4485 36.5751 76.8551 36.9069 76.3294 37.3395C75.8437 37.744 75.4268 38.2331 75.0966 38.7858C74.7696 39.3314 74.5218 39.9257 74.3615 40.5489C74.0448 41.8161 74.0448 43.1485 74.3615 44.4158C74.5191 45.0493 74.767 45.6539 75.0966 46.2088C75.4266 46.7633 75.8435 47.2544 76.3294 47.6611C76.8564 48.0915 77.4494 48.4231 78.0826 48.6412C78.8144 48.8841 79.5776 49.0051 80.3447 48.9998L80.3277 48.9401ZM80.3277 45.9936C79.9555 45.9961 79.5865 45.921 79.2419 45.7725C78.8936 45.623 78.5793 45.3969 78.3201 45.1091C78.0374 44.7909 77.8199 44.4145 77.6811 44.0034C77.3645 42.9965 77.3645 41.9084 77.6811 40.9015C77.8212 40.4911 78.0386 40.115 78.3201 39.7959C78.5808 39.5099 78.8946 39.2841 79.2419 39.1325C79.9408 38.8374 80.7202 38.8374 81.4192 39.1325C81.7664 39.2841 82.0803 39.5099 82.341 39.7959C82.6312 40.1204 82.8546 40.505 82.997 40.9254C83.3136 41.9323 83.3136 43.0204 82.997 44.0273C82.8582 44.4384 82.6406 44.8148 82.358 45.133C82.0988 45.4208 81.7845 45.6469 81.4361 45.7964C81.0897 45.9457 80.7188 46.0208 80.3447 46.0175L80.3277 45.9936ZM87.3289 48.5875H90.445L91.3046 41.4753L93.2612 48.5875H95.3537L97.3105 41.4753L98.1701 48.5875H101.292L99.5952 36.3234H96.3434L94.3075 43.8062L92.2716 36.3234H89.0199L87.3233 48.5875H87.3289ZM102.564 36.3234V48.5875H105.816V39.2639H109.662V48.5875H112.913V36.3234H102.564ZM113.841 48.5875H117.324L117.969 46.4658H121.928L122.572 48.5875H126.056L121.928 36.3234H117.969L113.841 48.5875ZM119.943 39.246L121.272 43.7703H118.625L119.949 39.246H119.943ZM126.972 48.5875H130.224V43.6807H134.183V48.5875H137.435V36.3234H134.183V40.7342H130.224V36.3234H126.972V48.5875ZM139.51 36.3234V48.5875H142.694L147.19 41.2302V48.5875H150.295V36.3234H147.111L142.614 43.6807V36.3234H139.51ZM151.601 48.5875H155.079L157.454 44.4038H157.748V48.5875H161V36.3234H156.244C156.105 36.3156 155.965 36.3156 155.825 36.3234C155.601 36.3401 155.378 36.37 155.158 36.4131C154.885 36.4666 154.616 36.5446 154.355 36.6462C154.063 36.7597 153.785 36.9081 153.524 37.0885C153.245 37.2896 152.997 37.5356 152.788 37.8176C152.558 38.1428 152.38 38.5064 152.263 38.8934C152.123 39.3794 152.056 39.8856 152.065 40.3935C152.06 40.858 152.127 41.3202 152.263 41.7622C152.388 42.1521 152.58 42.5146 152.829 42.832C153.063 43.1324 153.348 43.3838 153.671 43.5731C154.002 43.7671 154.361 43.9005 154.734 43.9675L151.601 48.5755V48.5875ZM157.748 41.9654H156.855C156.665 41.968 156.476 41.952 156.289 41.9176C156.1 41.8911 155.917 41.8261 155.752 41.7263C155.577 41.6233 155.434 41.4699 155.339 41.284C155.22 41.0387 155.163 40.7647 155.175 40.4891C155.167 40.2525 155.212 40.0172 155.305 39.8018C155.379 39.6304 155.492 39.4806 155.633 39.3655C155.761 39.2624 155.904 39.1835 156.058 39.1325C156.197 39.0853 156.341 39.0532 156.487 39.0368H156.832H157.726L157.748 41.9654Z" fill="#1B53BC"/>
<path fill-rule="evenodd" clip-rule="evenodd" d="M72.0306 24.9319C71.8157 25.1484 71.5797 25.3438 71.3259 25.5154C71.0408 25.7087 70.7297 25.8625 70.4014 25.9723C70.0392 26.0967 69.658 26.16 69.274 26.1594C68.8485 26.1623 68.4268 26.0818 68.0338 25.9227C67.6931 25.7775 67.3877 25.5637 67.1376 25.2952C66.8851 25.0103 66.6934 24.6791 66.5738 24.3209C66.4404 23.9363 66.3738 23.5326 66.3765 23.1265C66.3711 22.6869 66.4417 22.2496 66.5851 21.833C66.7023 21.461 66.8896 21.1138 67.1376 20.8091C67.3939 20.5169 67.7135 20.2838 68.0733 20.1266C68.4553 19.9628 68.8681 19.8784 69.2853 19.8789C69.6707 19.8788 70.0529 19.9478 70.4126 20.0826C70.7394 20.2074 71.0467 20.376 71.3259 20.5835C71.5816 20.7775 71.8158 20.9971 72.0249 21.2385V17.9359C71.7071 17.7123 71.3625 17.5275 70.9989 17.3854C70.6467 17.2544 70.2823 17.1567 69.911 17.0937C68.9527 16.9276 67.9678 16.9842 67.0361 17.2588C66.4656 17.4472 65.9292 17.7221 65.4464 18.0735C64.9514 18.4081 64.5169 18.8211 64.1612 19.2954C63.7867 19.7967 63.4993 20.3545 63.3099 20.9467C62.8562 22.4315 62.9017 24.0192 63.4396 25.4769C63.7142 26.1793 64.1324 26.8198 64.6685 27.3594C65.2014 27.8843 65.8408 28.2949 66.5456 28.5648C67.3016 28.8534 68.1073 28.9972 68.9189 28.9886C69.2602 28.9935 69.6015 28.9715 69.9391 28.9226C70.2971 28.8787 70.6488 28.7956 70.9876 28.6749C71.3604 28.5451 71.7146 28.3694 72.0418 28.152V24.9319H72.0306ZM75.2718 28.6584H78.5076V20.0936H81.0555V17.3799H72.7239V20.0936H75.2718V28.6749V28.6584ZM81.0555 28.6584L85.1763 17.3799H89.1222L93.2373 28.6749H89.748L89.1222 26.7263H85.1763L84.5337 28.6749L81.0555 28.6584ZM87.138 20.0605L85.8133 24.2219H88.4627L87.138 20.0605ZM95.4189 17.3634V23.6109C95.427 23.9639 95.41 24.317 95.3682 24.6677C95.3417 24.9363 95.2694 25.1987 95.1539 25.4438C95.0466 25.6469 94.8771 25.8124 94.6692 25.9172C94.4023 26.0351 94.1106 26.0898 93.8179 26.0768C93.7016 26.085 93.5848 26.085 93.4685 26.0768L93.1077 25.9943V28.7025C93.2634 28.7443 93.4216 28.7773 93.5812 28.8015C93.7221 28.8015 93.8687 28.8346 94.0096 28.84H94.4606C95.0311 28.8457 95.5997 28.7772 96.1517 28.6364C96.5744 28.5263 96.9722 28.3396 97.3242 28.0859C97.618 27.8742 97.8669 27.6087 98.0571 27.3043C98.2319 27.02 98.3629 26.7121 98.446 26.3906C98.5329 26.0793 98.5876 25.7603 98.6095 25.4383C98.6095 25.1246 98.6433 24.8328 98.6433 24.5576V20.1046H100.96V28.6749H104.201V17.3799L95.4189 17.3634ZM106.293 28.6749H113.238V25.9667H109.534V24.1558H112.917V21.6733H109.534V20.0936H113.238V17.3799H106.293V28.6749ZM114.974 17.3799V28.6749H118.21V20.0936H122.048V28.6749H125.284V17.3799H114.974ZM127.376 28.6749H130.612V24.9319H132.252C132.825 24.9374 133.396 24.8557 133.943 24.6897C134.383 24.5507 134.792 24.3322 135.149 24.0457C135.453 23.7996 135.71 23.5034 135.911 23.1705C136.096 22.8518 136.234 22.5089 136.322 22.1522C136.408 21.827 136.45 21.4919 136.446 21.1559C136.452 20.4552 136.268 19.7654 135.911 19.1578C135.708 18.8173 135.447 18.5137 135.138 18.2606C134.781 17.9779 134.374 17.7615 133.937 17.6221C133.39 17.455 132.819 17.3733 132.246 17.3799H127.37V28.6749H127.376ZM130.612 19.8679H131.541C131.825 19.8578 132.108 19.8989 132.376 19.989C132.56 20.0497 132.725 20.1559 132.855 20.2972C132.958 20.4196 133.033 20.5623 133.075 20.7156C133.113 20.8591 133.13 21.0075 133.126 21.1559C133.128 21.293 133.114 21.43 133.081 21.5632C133.043 21.7195 132.972 21.866 132.872 21.9926C132.746 22.144 132.58 22.2599 132.392 22.3283C132.12 22.4262 131.831 22.4729 131.541 22.466H130.612V19.8679ZM143.673 28.9997C144.438 29.0063 145.199 28.8947 145.927 28.6694C146.557 28.4694 147.147 28.1639 147.67 27.7667C148.155 27.3956 148.57 26.9448 148.898 26.4347C149.225 25.9229 149.472 25.3663 149.631 24.7833C149.946 23.6162 149.946 22.3891 149.631 21.222C149.474 20.6385 149.226 20.0817 148.898 19.5707C148.57 19.0588 148.155 18.6062 147.67 18.2331C147.147 17.8358 146.557 17.5304 145.927 17.3304C144.446 16.8899 142.865 16.8899 141.384 17.3304C140.752 17.5291 140.16 17.8347 139.637 18.2331C139.153 18.6092 138.739 19.0612 138.407 19.5707C138.081 20.0819 137.836 20.6387 137.681 21.222C137.357 22.3881 137.357 23.6172 137.681 24.7833C137.837 25.3662 138.082 25.9228 138.407 26.4347C138.739 26.9423 139.154 27.3925 139.637 27.7667C140.16 28.1651 140.752 28.4706 141.384 28.6694C142.113 28.8951 142.874 29.0066 143.639 28.9997H143.673ZM143.673 26.286C143.302 26.2883 142.935 26.2211 142.59 26.0878C142.243 25.9495 141.93 25.7413 141.672 25.4769C141.388 25.1844 141.172 24.8376 141.034 24.4585C140.869 23.9992 140.788 23.5145 140.798 23.0274C140.787 22.5421 140.868 22.0591 141.034 21.6018C141.17 21.2221 141.387 20.875 141.672 20.5835C141.927 20.3155 142.241 20.1068 142.59 19.9725C142.934 19.8348 143.301 19.7656 143.673 19.7688C144.043 19.7665 144.412 19.8357 144.754 19.9725C145.103 20.1081 145.417 20.3167 145.674 20.5835C145.958 20.875 146.174 21.2221 146.311 21.6018C146.475 22.0598 146.554 22.5423 146.548 23.0274C146.554 23.5143 146.474 23.9985 146.311 24.4585C146.173 24.8376 145.956 25.1844 145.674 25.4769C145.414 25.7402 145.101 25.9482 144.754 26.0878C144.41 26.2201 144.043 26.2873 143.673 26.286ZM150.646 28.6749H153.752L154.614 22.1247L156.564 28.6749H158.645L160.595 22.1247L161.457 28.6749H164.564L162.872 17.3799H159.632L157.602 24.2714L155.567 17.3799H152.325L150.635 28.6749H150.646ZM165.866 28.6749H170.804C171.081 28.6749 171.368 28.6749 171.711 28.6419C172.049 28.6069 172.384 28.5518 172.715 28.4768C173.055 28.3972 173.384 28.279 173.696 28.1244C174.011 27.9685 174.294 27.7599 174.536 27.508C174.787 27.2351 174.979 26.9147 175.099 26.5667C175.255 26.1354 175.331 25.6808 175.324 25.2237C175.33 24.7688 175.256 24.3165 175.105 23.8861C174.976 23.5378 174.774 23.2193 174.514 22.9503C174.272 22.7002 173.988 22.4933 173.673 22.3394C173.363 22.1825 173.034 22.0641 172.693 21.9871C172.362 21.9067 172.027 21.8515 171.689 21.8219C171.362 21.8219 171.058 21.7834 170.776 21.7834H169.084V17.3799H165.849V28.6749H165.866ZM169.102 26.4181V24.0457H170.494C170.789 24.0365 171.083 24.0718 171.368 24.1503C171.593 24.2103 171.792 24.342 171.932 24.5246C172.07 24.7316 172.137 24.9766 172.123 25.2237C172.136 25.4747 172.067 25.7232 171.926 25.9337C171.788 26.1182 171.589 26.2505 171.362 26.308C171.081 26.3887 170.788 26.4258 170.494 26.4181H169.102ZM176.046 28.6749H179.288V17.3799H176.046V28.6749ZM181.368 28.6749H196.639V17.3799H193.403V25.9667H190.59V17.3799H187.349V25.9667H184.575V17.3799H181.334V28.6749H181.368ZM199.97 17.3799V23.6109C199.973 23.9638 199.956 24.3166 199.92 24.6677C199.892 24.9366 199.817 25.199 199.699 25.4438C199.596 25.6495 199.426 25.8159 199.215 25.9172C198.948 26.0361 198.657 26.0909 198.364 26.0768C198.247 26.0848 198.13 26.0848 198.014 26.0768L197.654 25.9943V28.7025C197.81 28.7437 197.968 28.7768 198.127 28.8015C198.274 28.8015 198.415 28.8346 198.561 28.84H199.012C199.583 28.8451 200.151 28.7766 200.703 28.6364C201.126 28.5263 201.523 28.3396 201.875 28.0859C202.167 27.8729 202.414 27.6076 202.603 27.3043C202.779 27.0202 202.912 26.7123 202.997 26.3906C203.079 26.0781 203.133 25.7596 203.161 25.4383C203.161 25.1246 203.195 24.8328 203.189 24.5576V20.1046H205.506V28.6749H208.742V17.3799H199.97ZM210.844 28.6749H217.784V25.9667H214.085V24.1558H217.44V21.6733H214.085V20.0936H217.784V17.3799H210.839V28.6749H210.844ZM219.519 28.6749H222.761V24.1558H226.707V28.6749H229.943V17.3799H226.668V21.4476H222.722V17.3799H219.48V28.6749H219.519ZM232.018 28.6749H235.259V24.1558H239.204V28.6749H242.452V17.3799H239.182V21.4476H235.236V17.3799H231.995V28.6749H232.018ZM243.353 28.6749H246.826L247.468 26.7263H251.414L252.035 28.6749H255.501L251.387 17.3799H247.44L243.326 28.6749H243.353ZM249.436 20.0771L250.76 24.2384H248.088L249.408 20.0771H249.436ZM255.637 28.6749H259.109L261.471 24.8218H261.77V28.6749H265V17.3799H260.259C260.122 17.3728 259.984 17.3728 259.848 17.3799C259.623 17.3946 259.399 17.4241 259.176 17.468C258.904 17.5147 258.636 17.5866 258.376 17.6826C258.083 17.7827 257.805 17.9196 257.548 18.09C257.27 18.2765 257.023 18.5029 256.815 18.7615C256.585 19.0599 256.409 19.3952 256.297 19.7523C256.152 20.1972 256.084 20.662 256.094 21.1284C256.087 21.5568 256.156 21.9831 256.297 22.3889C256.42 22.7487 256.611 23.0828 256.86 23.3742C257.092 23.6524 257.378 23.8842 257.7 24.0567C258.028 24.2394 258.387 24.3625 258.76 24.42L255.637 28.6639V28.6749ZM261.77 22.576H260.874C260.685 22.5802 260.497 22.5673 260.31 22.5375C260.122 22.5098 259.941 22.4502 259.775 22.3614C259.602 22.2619 259.46 22.1194 259.363 21.9485C259.247 21.7234 259.191 21.4737 259.199 21.222C259.196 21.0025 259.24 20.7848 259.329 20.5835C259.403 20.4272 259.515 20.2911 259.656 20.1871C259.782 20.09 259.925 20.0172 260.079 19.9725C260.218 19.9274 260.362 19.896 260.507 19.8789C260.622 19.8714 260.737 19.8714 260.851 19.8789H261.747V22.5871L261.77 22.576Z" fill="#1B53BC"/>
<path fill-rule="evenodd" clip-rule="evenodd" d="M58.0414 0.17526C59.0231 0.176767 59.9827 0.478369 60.7983 1.04195C61.614 1.60553 62.2494 2.40578 62.6242 3.3416C62.9988 4.2774 63.0961 5.30676 62.9037 6.29956C62.7113 7.29236 62.2377 8.20407 61.5429 8.91944C60.8481 9.63482 59.9632 10.1217 59.0001 10.3187C58.0369 10.5157 57.0388 10.4138 56.1318 10.026C55.2247 9.63825 54.4497 8.98191 53.9043 8.14C53.3589 7.29807 53.0678 6.30836 53.0678 5.29591C53.0698 3.93713 53.5947 2.63469 54.5271 1.6746C55.4596 0.714511 56.7236 0.175259 58.0414 0.17526ZM58.0414 0.670562C57.1542 0.670562 56.2867 0.941833 55.5491 1.45007C54.8115 1.95831 54.2365 2.68069 53.8971 3.52587C53.5576 4.37104 53.4687 5.30104 53.6418 6.19827C53.8148 7.09551 54.2421 7.91965 54.8694 8.56653C55.4967 9.2134 56.2961 9.65391 57.1662 9.83238C58.0363 10.0109 58.9383 9.91925 59.7579 9.56918C60.5776 9.21909 61.2781 8.62625 61.771 7.86562C62.264 7.10498 62.527 6.21071 62.527 5.29591C62.5252 4.06982 62.0518 2.89451 61.211 2.02753C60.3702 1.16053 59.2305 0.672576 58.0414 0.670562ZM56.7702 4.99873H58.1744C58.4244 5.01 58.6744 4.97647 58.9133 4.89967C59.071 4.84553 59.2063 4.73815 59.2976 4.59487C59.3856 4.45976 59.4319 4.3004 59.4306 4.13767C59.4328 4.02504 59.4108 3.91333 59.366 3.81055C59.3214 3.70778 59.2549 3.61651 59.172 3.54331C58.9408 3.3716 58.6579 3.29055 58.3738 3.31471H56.8071V4.99873H56.7702ZM56.1199 7.841H56.7702V5.555H57.5093C57.6297 5.54396 57.7509 5.54396 57.8713 5.555C57.9755 5.58642 58.075 5.63256 58.1668 5.69215C58.2941 5.78827 58.4062 5.90391 58.4995 6.03505C58.6251 6.19507 58.7803 6.43129 58.9725 6.73609L59.6227 7.79527H60.4431L59.5858 6.40844C59.4351 6.15929 59.2539 5.93133 59.0463 5.73025C58.9279 5.62782 58.7961 5.54316 58.6546 5.47878C59.0458 5.44642 59.4151 5.28011 59.704 5.00635C59.9271 4.75787 60.0487 4.43045 60.0441 4.09195C60.0459 3.82295 59.974 3.55887 59.8371 3.32995C59.7111 3.11216 59.5188 2.9434 59.2902 2.84989C58.9655 2.74391 58.6253 2.69749 58.2851 2.71273H56.0682V7.80289L56.1199 7.841ZM2.71953 26.2205V57.1958H17.9134L17.8691 33.0556C17.8691 28.0416 15.6521 26.1976 10.9077 26.1976L2.71953 26.2205ZM0 23.4164L10.9003 23.3476C17.507 23.302 20.6255 26.7005 20.633 33.1165V60H0V23.424V23.4164ZM2.71953 2.79655H17.9134V11.6053C17.9134 16.7717 15.7408 19.012 10.8486 19.012H2.71953V2.79655ZM0 0V21.8313H10.8781C17.3075 21.8313 20.633 18.7833 20.633 11.5977V0H0ZM49.2397 23.622L49.1659 35.2045H35.2652C34.2454 35.2045 33.7133 35.8751 33.7207 37.2315V60H22.5027V33.4138C22.6948 26.4185 25.7911 23.5916 32.4718 23.5764L49.2397 23.6525V23.622ZM24.8897 2.79655H46.5129V19.0196H32.1763C27.077 19.0196 24.8897 16.3145 24.8897 11.3995V2.79655ZM22.1774 0V11.6053C22.1774 18.8671 25.6655 21.8695 32.1392 21.8695H49.2397V0H22.1774Z" fill="#1B53BC"/>
</svg>
