<svg width="180" height="70" viewBox="0 0 180 70" fill="none" xmlns="http://www.w3.org/2000/svg">
<g clip-path="url(#clip0_47_83)">
<path d="M153.057 42.2469V28.2338H155.924V36.9814L160.141 28.2338H163.281V42.2469H160.456V33.6252L156.325 42.2469H153.057ZM158.433 26.9753C157.295 26.9753 156.114 26.2409 155.398 25.5067L156.22 24.0385C156.936 24.6467 157.716 25.1499 158.391 25.1499C159.023 25.1499 159.845 24.6466 160.625 24.1011L161.362 25.5067C160.815 26.157 159.571 26.9752 158.433 26.9752V26.9753Z" fill="black"/>
<path fill-rule="evenodd" clip-rule="evenodd" d="M6.26782 31.6148C6.26782 46.3826 18.2968 58.3542 33.1352 58.3542C47.9735 58.3542 60.0022 46.3826 60.0022 31.6148C60.0022 16.8473 47.9735 4.87561 33.1352 4.87561C18.2968 4.87561 6.26782 16.8473 6.26782 31.6148Z" fill="url(#paint0_radial_47_83)"/>
<path d="M35.1683 0C15.7452 0 0 15.67 0 35.0002C0 54.33 15.7452 69.9999 35.1683 69.9999C54.5912 69.9999 70.3366 54.33 70.3366 35.0002C70.3366 15.67 54.5911 0 35.1683 0ZM8.84187 31.5408C8.84187 18.2778 19.4049 7.47653 32.6145 6.99993C27.6631 15.8387 15.3661 26.7789 15.1147 37.2031C14.9471 44.1532 17.5072 49.6102 21.6263 53.0639C14.0058 48.8827 8.84182 40.8132 8.84182 31.5408H8.84187ZM45.4409 53.0521C49.3253 49.7627 51.8483 44.6461 52.0063 38.0839C52.1805 30.8593 46.593 22.8623 41.6427 15.5655C41.3385 15.0841 41.1209 14.7937 41.1209 14.7937C41.1209 14.7937 37.4799 21.2021 33.5474 26.7421C29.6137 32.2828 27.9683 41.582 34.9073 45.4008C34.9073 45.4008 31.1637 41.548 35.9387 34.7746C37.2928 32.8545 39.3934 30.1265 41.0573 27.5018C43.3363 31.3208 45.046 35.0128 44.9766 37.9161C44.7923 45.5672 40.192 50.4048 33.257 50.2392C26.322 50.0735 21.9602 45.0221 22.1445 37.3712C22.2344 33.6465 25.3088 28.7647 28.7586 24.0014C29.0239 23.6095 29.4288 23.0569 29.9947 22.3178L29.9951 22.3171C30.129 22.1367 30.263 21.9568 30.3971 21.7777C34.861 15.6398 34.9247 10.0738 34.4536 7.00028C47.653 7.4882 58.2049 18.2851 58.2049 31.5407C58.2049 40.8044 53.05 48.8677 45.441 53.052L45.4409 53.0521Z" fill="black"/>
<path d="M87.224 13.4068C87.9817 14.0351 88.4658 15.1878 88.4658 16.0675V16.9054C88.4658 19.6708 87.0555 20.5091 83.8558 20.5091H83.1823C82.5504 20.5091 81.8139 20.4668 81.2035 20.4668H80.8877V18.4976C81.7928 18.4976 82.6981 18.5399 83.5823 18.5399C85.0136 18.5399 85.6242 18.0996 85.6242 16.801V16.0467C85.6242 14.8735 85.119 14.4752 84.2766 14.4752H81.8139V12.4011H84.2766C85.119 12.4011 85.6242 12.0032 85.6242 10.8298V9.9709C85.6242 8.46259 84.6769 8.35789 83.5823 8.35789C82.9088 8.35789 81.5192 8.44175 80.8877 8.46259V6.45145C82.0034 6.43067 83.1403 6.34656 84.2137 6.34656C86.5502 6.34656 88.4658 6.8286 88.4658 9.82438V10.8719C88.4029 12.1497 87.9818 12.8204 87.224 13.4068Z" fill="black"/>
<path d="M89.3308 20.4878L93.1834 6.51416H97.0141L100.95 20.4878H98.2559L97.2251 17.0102H93.0362L92.089 20.4878H89.3308ZM93.6041 14.7056H96.6354L95.1203 8.92346L93.6041 14.7056Z" fill="black"/>
<path d="M110.64 6.51416V8.67201H105.293V20.4878H102.451V6.51416H110.64Z" fill="black"/>
<path d="M111.01 13.4697C111.01 8.16934 111.578 6.28394 115.977 6.28394C119.724 6.28394 121.092 7.16365 121.092 13.4697C121.092 19.4825 119.808 20.6557 115.977 20.6557C112.23 20.5929 111.01 19.3988 111.01 13.4697ZM118.292 13.4697C118.23 9.65686 117.956 8.3161 116.041 8.3161C114.23 8.3161 113.872 9.02808 113.872 13.4697C113.872 18.4558 114.419 18.6236 116.041 18.6236C117.977 18.6236 118.25 17.7852 118.292 13.4697Z" fill="black"/>
<path d="M123.004 20.4878V6.51416H127.951C130.456 6.51416 132.476 7.24717 132.476 10.0758V11.6888C132.476 13.3856 131.129 14.9152 129.32 15.2082C128.835 15.292 128.582 15.292 125.867 15.292V20.4877H123.004V20.4878ZM125.867 13.2181H127.888C128.835 13.2181 129.699 13.0298 129.699 11.6889V10.0967C129.699 8.71387 128.793 8.5253 127.888 8.5253H125.867V13.2181Z" fill="black"/>
<path d="M140.569 18.728C141.474 18.7072 142.399 18.6442 143.368 18.5814V20.2365C142.042 20.4878 140.736 20.7183 138.843 20.6765C135.979 20.6346 133.958 19.5873 133.958 14.2239C133.958 9.5521 134.21 6.34652 138.822 6.32593C138.968 6.32593 141.347 6.36754 143.368 6.63973V8.48333C140.905 8.2952 139.768 8.31603 139.453 8.31603C137.01 8.31603 136.779 9.95006 136.779 14.3078C136.779 18.3089 138.105 18.8539 140.569 18.728Z" fill="black"/>
<path d="M145.114 20.488V6.4931H147.935V12.3596H148.903L152.039 6.4931H155.112L151.408 13.2601L155.281 20.488H152.25L148.966 14.4333H147.935V20.488H145.114Z" fill="black"/>
<path d="M156.655 20.488V6.4931H159.518V15.2294L163.728 6.4931H166.865V20.488H164.044V11.8773L159.918 20.488H156.655Z" fill="black"/>
<path d="M169.106 20.4878V6.49293H171.968V15.2292L176.179 6.49293H179.315V20.4878H176.494V11.8772L172.368 20.4878H169.106ZM174.474 5.23632C173.336 5.23632 172.158 4.50286 171.443 3.76962L172.263 2.30292C172.98 2.91044 173.757 3.41351 174.431 3.41351C175.063 3.41351 175.884 2.91044 176.663 2.366L177.399 3.76962C176.852 4.4192 175.61 5.23632 174.474 5.23632Z" fill="black"/>
<path d="M84.5342 42.2469V30.3947H80.8877V28.2549H91.0684V30.3947H87.422V42.2469H84.5342Z" fill="black"/>
<path d="M92.6392 42.2469V28.2549H97.5925C100.101 28.2549 102.124 28.9891 102.124 31.8209V33.4364C102.124 35.1355 100.775 36.6671 98.9628 36.9605C98.4775 37.0445 98.2244 37.0444 95.5055 37.0444V42.2469H92.6392ZM95.5055 34.9678H97.5292C98.4775 34.9678 99.3415 34.7792 99.3415 33.4364V31.8425C99.3415 30.4576 98.4354 30.2686 97.5292 30.2686H95.5055V34.9678Z" fill="black"/>
<path d="M108.055 42.2049H105.652L106.685 38.3663H106.073L102.827 28.1499H105.673L107.591 34.884L109.509 28.1499H112.313L108.055 42.2049Z" fill="black"/>
<path d="M113.766 42.2469V28.2549H121.818V30.3529H116.633V33.457C119.479 33.457 119.943 33.4783 120.449 33.5413C122.219 33.7509 123.632 34.6109 123.632 37.0656V38.6806C123.632 41.4918 121.608 42.2469 119.1 42.2469H113.766ZM116.633 40.2328H119.015C119.943 40.2328 120.849 40.0232 120.849 38.6598V37.0656C120.849 35.7019 119.964 35.5341 119.015 35.5341H116.633V40.2328Z" fill="black"/>
<path d="M132.377 42.2471V36.1427H128.224V42.2471H125.357V28.2339H128.224V34.0448H132.377V28.2339H135.244V42.2471H132.377Z" fill="black"/>
<path d="M140.33 28.255V33.4577C141.573 33.4577 142.437 33.4159 143.112 33.4159C145.62 33.4159 147.348 34.4855 147.348 37.0657V38.6809C147.348 41.4919 145.346 42.2469 142.816 42.2469H137.505V28.2549H140.33V28.255ZM140.33 40.2331H142.753C143.681 40.2331 144.566 40.0235 144.566 38.6601V37.0657C144.566 35.7024 143.702 35.5344 142.753 35.5344H140.33V40.2331ZM151.164 42.247H148.382V28.255H151.164V42.247Z" fill="black"/>
<path d="M87.2844 56.9504C88.0493 57.585 88.538 58.7481 88.538 59.6367V60.4827C88.538 63.2745 87.1145 64.1201 83.8842 64.1201H83.2043C82.5668 64.1201 81.8228 64.078 81.2067 64.078H80.8879V62.09C81.8017 62.09 82.7153 62.1323 83.6083 62.1323C85.0528 62.1323 85.6692 61.6881 85.6692 60.3768V59.6157C85.6692 58.4311 85.1592 58.0294 84.3091 58.0294H81.8228V55.9353H84.3091C85.1592 55.9353 85.6692 55.5335 85.6692 54.3492V53.4819C85.6692 51.9596 84.7132 51.8538 83.6083 51.8538C82.9278 51.8538 81.5254 51.9379 80.8879 51.9596V49.9288C82.0141 49.908 83.1618 49.8232 84.2454 49.8232C86.6047 49.8232 88.5381 50.3098 88.5381 53.3341V54.3913C88.4744 55.6816 88.0493 56.3588 87.2845 56.9504H87.2844Z" fill="black"/>
<path d="M89.4119 64.0993L93.3012 49.9929H97.1685L101.142 64.0993H98.4228L97.3814 60.5886H93.1522L92.1961 64.0993H89.4119ZM93.7258 58.2624H96.7859L95.2563 52.4246L93.7258 58.2624Z" fill="black"/>
<path d="M102.656 64.0989V49.9709H106.482C109.117 49.9709 111.476 50.2886 111.476 53.5876V54.4966C111.476 55.7236 110.986 56.4004 110.243 56.9717C111.051 57.5849 111.476 58.7697 111.476 59.6574V60.5036C111.476 63.3587 109.924 64.099 106.482 64.099H102.656V64.0989ZM105.504 51.98V56.0198H107.289C108.076 56.0198 108.629 55.6179 108.629 54.4548V53.7571C108.629 52.0858 107.863 51.98 106.567 51.98H105.504ZM105.504 62.1109H106.567C107.948 62.1109 108.628 61.6881 108.628 60.3767V59.6365C108.628 58.452 108.076 58.0715 107.289 58.0715H105.504V62.1109Z" fill="black"/>
<path d="M113.203 57.0143C113.203 51.6632 113.778 49.76 118.218 49.76C122.001 49.76 123.383 50.6481 123.383 57.0143C123.383 63.084 122.087 64.2683 118.218 64.2683C114.436 64.2049 113.203 62.9994 113.203 57.0143ZM120.556 57.0143C120.493 53.1648 120.217 51.8114 118.283 51.8114C116.455 51.8114 116.094 52.5301 116.094 57.0143C116.094 62.0476 116.646 62.2167 118.283 62.2167C120.238 62.2167 120.514 61.3709 120.556 57.0143Z" fill="black"/>
<path d="M135.281 49.9929V62.0692H136.641V66.9757H133.815V64.0994H126.845V66.9757H124.039V62.0692H125.314C126.653 59.6792 126.695 57.6911 126.695 54.6452V49.9929H135.281ZM129.543 52.0227V55.9147C129.543 57.9238 129.437 59.6158 128.268 62.0692H132.433V52.0227H129.543Z" fill="black"/>
</g>
<defs>
<radialGradient id="paint0_radial_47_83" cx="0" cy="0" r="1" gradientUnits="userSpaceOnUse" gradientTransform="translate(33.1352 31.6149) scale(52.3987 52.1482)">
<stop stop-color="#F37032"/>
<stop offset="0.0392157" stop-color="#F37032"/>
<stop offset="0.831373" stop-color="#F04C2F"/>
<stop offset="1" stop-color="#F04C2F"/>
</radialGradient>
<clipPath id="clip0_47_83">
<rect width="179.315" height="70" fill="white"/>
</clipPath>
</defs>
</svg>
