<svg width="188" height="40" viewBox="0 0 188 40" fill="none" xmlns="http://www.w3.org/2000/svg">
<path fill-rule="evenodd" clip-rule="evenodd" d="M18.4008 1.08208C14.191 1.38691 10.3759 2.86707 7.10589 5.46419C6.46304 5.97474 5.13207 7.25507 4.60133 7.87347C1.59696 11.3739 0 15.611 0 20.0819C0 24.5527 1.59696 28.7898 4.60133 32.2902C5.13207 32.9086 6.46304 34.189 7.10589 34.6995C10.7447 37.5896 15.1494 39.1258 19.7971 39.1258C24.4447 39.1258 28.8494 37.5896 32.4882 34.6995C33.1311 34.189 34.4621 32.9086 34.9928 32.2902C37.3614 29.5306 38.8174 26.4102 39.3892 22.8683C39.4655 22.3961 39.4824 22.0906 39.496 20.9439L39.5122 19.5807L39.2891 19.4026C38.9464 19.1292 38.6599 19.0622 38.2864 19.1684C38.0575 19.2334 37.7122 19.5656 37.6446 19.7858C37.6167 19.8766 37.5939 20.13 37.5939 20.3491C37.5939 21.4791 37.3696 23.089 37.036 24.3533C36.6183 25.9363 35.817 27.7341 34.905 29.1345C33.6976 30.9885 32.0797 32.6519 30.2038 33.968C28.4859 35.1733 26.3003 36.1613 24.2374 36.665C20.0216 37.6943 15.6225 37.2336 11.7739 35.3596C9.23417 34.1229 7.06905 32.3445 5.36176 30.0927C4.10877 28.4401 3.08177 26.3377 2.55816 24.3533C1.48806 20.2976 1.9674 16.0634 3.91547 12.3639C4.53394 11.1894 5.19455 10.2161 6.07889 9.1765C6.54165 8.63251 7.5639 7.6271 8.14786 7.14161C10.4731 5.20835 13.2595 3.88961 16.2614 3.30148C17.2432 3.10911 18.6548 2.96205 19.5192 2.96205C20.0646 2.96205 20.2274 2.91165 20.4862 2.66272C20.8935 2.27092 20.9056 1.77253 20.5181 1.35784C20.264 1.08597 20.0876 1.03613 19.4041 1.04323C19.1045 1.04632 18.653 1.06384 18.4008 1.08208Z" fill="#01426A"/>
<path d="M16.5216 16.1971V28.9675H13.3502V16.1971H16.5216ZM13.1348 12.8569C13.1348 12.3927 13.2943 12.0072 13.6135 11.7003C13.9406 11.3934 14.3794 11.24 14.9299 11.24C15.4804 11.24 15.9153 11.3934 16.2344 11.7003C16.5615 12.0072 16.7251 12.3927 16.7251 12.8569C16.7251 13.3133 16.5615 13.6949 16.2344 14.0018C15.9153 14.3087 15.4804 14.4621 14.9299 14.4621C14.3794 14.4621 13.9406 14.3087 13.6135 14.0018C13.2943 13.6949 13.1348 13.3133 13.1348 12.8569Z" fill="#01426A"/>
<path d="M26.8661 11.7357V28.9675H23.6947V15.3827L19.494 16.7518V14.226L26.5071 11.7357H26.8661Z" fill="#01426A"/>
<path d="M63.4083 40L63.4083 0" stroke="black"/>
<path d="M89.0176 15.3934V24.8425H87.4246V15.3934H89.0176ZM87.3047 12.887C87.3047 12.625 87.3818 12.4038 87.5359 12.2233C87.6958 12.0428 87.9299 11.9526 88.2382 11.9526C88.5408 11.9526 88.772 12.0428 88.9319 12.2233C89.0975 12.4038 89.1803 12.625 89.1803 12.887C89.1803 13.1373 89.0975 13.3528 88.9319 13.5332C88.772 13.7079 88.5408 13.7952 88.2382 13.7952C87.9299 13.7952 87.6958 13.7079 87.5359 13.5332C87.3818 13.3528 87.3047 13.1373 87.3047 12.887Z" fill="black"/>
<path d="M96.597 12.0574V24.8425H95.0126V14.0747L91.8181 15.2624V13.804L96.3486 12.0574H96.597Z" fill="black"/>
<path d="M113.546 20.7991H115.19C115.105 21.6025 114.879 22.3215 114.514 22.9561C114.148 23.5907 113.631 24.0943 112.963 24.4669C112.295 24.8337 111.462 25.0171 110.463 25.0171C109.732 25.0171 109.067 24.8774 108.467 24.5979C107.873 24.3185 107.362 23.9226 106.934 23.4102C106.506 22.8921 106.175 22.272 105.941 21.5501C105.712 20.8224 105.598 20.0131 105.598 19.1224V17.8561C105.598 16.9653 105.712 16.159 105.941 15.437C106.175 14.7093 106.509 14.0863 106.943 13.5682C107.382 13.05 107.91 12.6512 108.527 12.3718C109.144 12.0923 109.837 11.9526 110.608 11.9526C111.55 11.9526 112.347 12.133 112.998 12.494C113.649 12.855 114.154 13.3557 114.514 13.9961C114.879 14.6307 115.105 15.3672 115.19 16.2055H113.546C113.466 15.6117 113.317 15.1023 113.1 14.6773C112.884 14.2464 112.575 13.9146 112.176 13.6817C111.776 13.4488 111.253 13.3324 110.608 13.3324C110.054 13.3324 109.566 13.4401 109.144 13.6555C108.727 13.8709 108.376 14.1766 108.09 14.5725C107.811 14.9684 107.599 15.4429 107.457 15.9959C107.314 16.549 107.242 17.1633 107.242 17.8386V19.1224C107.242 19.7453 107.305 20.3304 107.431 20.8777C107.562 21.4249 107.759 21.9053 108.022 22.3186C108.284 22.732 108.618 23.058 109.024 23.2967C109.429 23.5296 109.909 23.646 110.463 23.646C111.165 23.646 111.724 23.5325 112.141 23.3055C112.558 23.0784 112.872 22.7524 113.083 22.3274C113.3 21.9024 113.454 21.3929 113.546 20.7991Z" fill="black"/>
<path d="M116.783 20.2227V20.0218C116.783 19.3407 116.88 18.709 117.074 18.1268C117.268 17.5388 117.548 17.0293 117.914 16.5985C118.279 16.1619 118.722 15.8242 119.241 15.5855C119.761 15.341 120.343 15.2187 120.988 15.2187C121.639 15.2187 122.224 15.341 122.744 15.5855C123.269 15.8242 123.715 16.1619 124.08 16.5985C124.451 17.0293 124.734 17.5388 124.928 18.1268C125.122 18.709 125.219 19.3407 125.219 20.0218V20.2227C125.219 20.9039 125.122 21.5356 124.928 22.1178C124.734 22.7 124.451 23.2094 124.08 23.646C123.715 24.0769 123.272 24.4145 122.752 24.6591C122.239 24.8978 121.656 25.0171 121.005 25.0171C120.354 25.0171 119.769 24.8978 119.25 24.6591C118.73 24.4145 118.285 24.0769 117.914 23.646C117.548 23.2094 117.268 22.7 117.074 22.1178C116.88 21.5356 116.783 20.9039 116.783 20.2227ZM118.368 20.0218V20.2227C118.368 20.6943 118.422 21.1397 118.53 21.5589C118.639 21.9722 118.801 22.339 119.018 22.6592C119.241 22.9794 119.518 23.2327 119.849 23.419C120.18 23.5995 120.566 23.6897 121.005 23.6897C121.439 23.6897 121.819 23.5995 122.144 23.419C122.476 23.2327 122.75 22.9794 122.967 22.6592C123.184 22.339 123.346 21.9722 123.455 21.5589C123.569 21.1397 123.626 20.6943 123.626 20.2227V20.0218C123.626 19.5561 123.569 19.1165 123.455 18.7032C123.346 18.284 123.181 17.9143 122.958 17.5941C122.741 17.268 122.467 17.0119 122.136 16.8256C121.81 16.6393 121.428 16.5461 120.988 16.5461C120.554 16.5461 120.172 16.6393 119.841 16.8256C119.515 17.0119 119.241 17.268 119.018 17.5941C118.801 17.9143 118.639 18.284 118.53 18.7032C118.422 19.1165 118.368 19.5561 118.368 20.0218Z" fill="black"/>
<path d="M128.79 17.4107V24.8425H127.206V15.3934H128.705L128.79 17.4107ZM128.413 19.7599L127.754 19.7337C127.76 19.0874 127.854 18.4907 128.037 17.9434C128.219 17.3903 128.476 16.91 128.807 16.5025C129.139 16.0949 129.533 15.7805 129.989 15.5593C130.452 15.3322 130.963 15.2187 131.522 15.2187C131.979 15.2187 132.39 15.2827 132.756 15.4108C133.121 15.5331 133.432 15.731 133.689 16.0047C133.952 16.2783 134.152 16.6335 134.289 17.0701C134.426 17.5009 134.494 18.0278 134.494 18.6508V24.8425H132.901V18.6333C132.901 18.1384 132.83 17.7425 132.687 17.4456C132.544 17.1429 132.336 16.9245 132.062 16.7906C131.788 16.6509 131.451 16.5811 131.051 16.5811C130.657 16.5811 130.298 16.6655 129.972 16.8343C129.652 17.0031 129.376 17.236 129.141 17.5329C128.913 17.8299 128.733 18.1705 128.602 18.5547C128.476 18.9331 128.413 19.3349 128.413 19.7599Z" fill="black"/>
<path d="M142.296 22.3361C142.296 22.1032 142.245 21.8878 142.142 21.6899C142.045 21.4861 141.842 21.3027 141.534 21.1397C141.231 20.9708 140.775 20.8253 140.164 20.703C139.65 20.5924 139.185 20.4614 138.768 20.31C138.357 20.1587 138.006 19.9753 137.714 19.7599C137.429 19.5444 137.209 19.2912 137.055 19.0001C136.901 18.709 136.824 18.3684 136.824 17.9783C136.824 17.6057 136.904 17.2535 137.063 16.9216C137.229 16.5898 137.46 16.2958 137.757 16.0396C138.06 15.7834 138.422 15.5826 138.845 15.437C139.267 15.2915 139.738 15.2187 140.258 15.2187C141 15.2187 141.634 15.3526 142.159 15.6204C142.685 15.8882 143.087 16.2463 143.367 16.6946C143.647 17.1371 143.786 17.629 143.786 18.1705H142.202C142.202 17.9085 142.125 17.6552 141.971 17.4107C141.822 17.1603 141.603 16.9537 141.311 16.7906C141.026 16.6276 140.675 16.5461 140.258 16.5461C139.818 16.5461 139.461 16.616 139.187 16.7557C138.919 16.8896 138.722 17.0614 138.596 17.271C138.477 17.4805 138.417 17.7018 138.417 17.9347C138.417 18.1093 138.445 18.2665 138.502 18.4062C138.565 18.5402 138.674 18.6653 138.828 18.7818C138.982 18.8924 139.199 18.9972 139.479 19.0962C139.758 19.1951 140.115 19.2941 140.549 19.3931C141.309 19.5677 141.934 19.7773 142.425 20.0218C142.916 20.2664 143.281 20.5662 143.521 20.9213C143.761 21.2765 143.881 21.7073 143.881 22.2138C143.881 22.6272 143.795 23.0056 143.624 23.3491C143.458 23.6926 143.216 23.9895 142.896 24.2399C142.582 24.4844 142.205 24.6765 141.765 24.8163C141.331 24.9502 140.843 25.0171 140.301 25.0171C139.484 25.0171 138.793 24.8687 138.228 24.5717C137.663 24.2748 137.235 23.8906 136.944 23.419C136.652 22.9474 136.507 22.4496 136.507 21.9256H138.1C138.123 22.3681 138.248 22.7203 138.477 22.9823C138.705 23.2385 138.985 23.4219 139.316 23.5325C139.647 23.6373 139.975 23.6897 140.301 23.6897C140.735 23.6897 141.097 23.6315 141.388 23.515C141.685 23.3986 141.911 23.2385 142.065 23.0347C142.219 22.831 142.296 22.5981 142.296 22.3361Z" fill="black"/>
<path d="M151.631 22.6592V15.3934H153.224V24.8425H151.708L151.631 22.6592ZM151.931 20.6681L152.591 20.6506C152.591 21.2794 152.525 21.8616 152.394 22.3972C152.268 22.927 152.062 23.387 151.777 23.777C151.492 24.1671 151.118 24.4728 150.655 24.694C150.193 24.9094 149.63 25.0171 148.968 25.0171C148.517 25.0171 148.103 24.9502 147.726 24.8163C147.355 24.6824 147.035 24.4757 146.767 24.1962C146.499 23.9168 146.29 23.5529 146.142 23.1046C145.999 22.6563 145.928 22.1178 145.928 21.489V15.3934H147.512V21.5065C147.512 21.9315 147.558 22.2837 147.649 22.5631C147.746 22.8368 147.875 23.0551 148.034 23.2181C148.2 23.3753 148.383 23.4859 148.583 23.55C148.788 23.614 148.999 23.646 149.216 23.646C149.89 23.646 150.424 23.515 150.818 23.2531C151.212 22.9852 151.494 22.6272 151.666 22.1789C151.843 21.7248 151.931 21.2212 151.931 20.6681Z" fill="black"/>
<path d="M157.361 11.4286V24.8425H155.768V11.4286H157.361Z" fill="black"/>
<path d="M163.784 15.3934V16.6335H158.774V15.3934H163.784ZM160.47 13.0966H162.054V22.502C162.054 22.8222 162.103 23.0638 162.2 23.2269C162.297 23.3899 162.422 23.4976 162.577 23.55C162.731 23.6024 162.896 23.6286 163.073 23.6286C163.205 23.6286 163.342 23.6169 163.484 23.5936C163.633 23.5645 163.744 23.5412 163.818 23.5238L163.827 24.8425C163.701 24.8832 163.536 24.9211 163.33 24.956C163.13 24.9967 162.888 25.0171 162.602 25.0171C162.214 25.0171 161.857 24.9385 161.532 24.7813C161.206 24.6241 160.947 24.3621 160.752 23.9954C160.564 23.6228 160.47 23.1221 160.47 22.4933V13.0966Z" fill="black"/>
<path d="M167.364 15.3934V24.8425H165.771V15.3934H167.364ZM165.651 12.887C165.651 12.625 165.728 12.4038 165.882 12.2233C166.042 12.0428 166.276 11.9526 166.585 11.9526C166.887 11.9526 167.119 12.0428 167.278 12.2233C167.444 12.4038 167.527 12.625 167.527 12.887C167.527 13.1373 167.444 13.3528 167.278 13.5332C167.119 13.7079 166.887 13.7952 166.585 13.7952C166.276 13.7952 166.042 13.7079 165.882 13.5332C165.728 13.3528 165.651 13.1373 165.651 12.887Z" fill="black"/>
<path d="M171.492 17.4107V24.8425H169.908V15.3934H171.406L171.492 17.4107ZM171.115 19.7599L170.456 19.7337C170.462 19.0874 170.556 18.4907 170.738 17.9434C170.921 17.3903 171.178 16.91 171.509 16.5025C171.84 16.0949 172.234 15.7805 172.691 15.5593C173.154 15.3322 173.665 15.2187 174.224 15.2187C174.681 15.2187 175.092 15.2827 175.457 15.4108C175.823 15.5331 176.134 15.731 176.391 16.0047C176.654 16.2783 176.853 16.6335 176.99 17.0701C177.127 17.5009 177.196 18.0278 177.196 18.6508V24.8425H175.603V18.6333C175.603 18.1384 175.532 17.7425 175.389 17.4456C175.246 17.1429 175.038 16.9245 174.764 16.7906C174.49 16.6509 174.153 16.5811 173.753 16.5811C173.359 16.5811 172.999 16.6655 172.674 16.8343C172.354 17.0031 172.077 17.236 171.843 17.5329C171.615 17.8299 171.435 18.1705 171.304 18.5547C171.178 18.9331 171.115 19.3349 171.115 19.7599Z" fill="black"/>
<path d="M185.606 15.3934H187.045V24.6416C187.045 25.4741 186.879 26.1844 186.548 26.7724C186.217 27.3605 185.755 27.8059 185.161 28.1086C184.573 28.4172 183.893 28.5714 183.122 28.5714C182.803 28.5714 182.426 28.519 181.992 28.4143C181.564 28.3153 181.141 28.1435 180.724 27.899C180.313 27.6603 179.968 27.3372 179.688 26.9296L180.519 25.969C180.907 26.4464 181.313 26.7783 181.735 26.9646C182.163 27.1509 182.586 27.244 183.003 27.244C183.505 27.244 183.939 27.148 184.304 26.9558C184.67 26.7637 184.952 26.4784 185.152 26.1C185.358 25.7274 185.461 25.2675 185.461 24.7202V17.4718L185.606 15.3934ZM179.226 20.2227V20.0393C179.226 19.3174 179.308 18.6624 179.474 18.0744C179.645 17.4805 179.888 16.9711 180.202 16.5461C180.522 16.1211 180.907 15.7951 181.358 15.568C181.809 15.3351 182.317 15.2187 182.883 15.2187C183.465 15.2187 183.973 15.3235 184.407 15.5331C184.847 15.7369 185.218 16.0367 185.52 16.4326C185.829 16.8227 186.071 17.2942 186.248 17.8473C186.425 18.4004 186.548 19.0263 186.617 19.7249V20.5284C186.554 21.2212 186.431 21.8441 186.248 22.3972C186.071 22.9503 185.829 23.4219 185.52 23.812C185.218 24.202 184.847 24.5019 184.407 24.7115C183.967 24.9152 183.454 25.0171 182.866 25.0171C182.312 25.0171 181.809 24.8978 181.358 24.6591C180.913 24.4204 180.53 24.0856 180.211 23.6548C179.891 23.2239 179.645 22.7174 179.474 22.1352C179.308 21.5472 179.226 20.9097 179.226 20.2227ZM180.81 20.0393V20.2227C180.81 20.6943 180.856 21.1368 180.947 21.5501C181.044 21.9635 181.19 22.3274 181.384 22.6417C181.584 22.9561 181.838 23.2036 182.146 23.3841C182.454 23.5587 182.823 23.646 183.251 23.646C183.776 23.646 184.21 23.5325 184.553 23.3055C184.895 23.0784 185.166 22.7786 185.366 22.406C185.572 22.0333 185.732 21.6287 185.846 21.1921V19.0874C185.783 18.7672 185.686 18.4586 185.555 18.1617C185.429 17.859 185.264 17.5912 185.058 17.3583C184.858 17.1196 184.61 16.9304 184.313 16.7906C184.016 16.6509 183.668 16.5811 183.268 16.5811C182.834 16.5811 182.46 16.6742 182.146 16.8605C181.838 17.041 181.584 17.2913 181.384 17.6115C181.19 17.9259 181.044 18.2927 180.947 18.7119C180.856 19.1253 180.81 19.5677 180.81 20.0393Z" fill="black"/>
</svg>
