<svg width="241" height="71" viewBox="0 0 241 71" fill="none" xmlns="http://www.w3.org/2000/svg">
<path d="M101.57 22.21V45.5H98.48V22.21H101.57ZM115.31 22.21V45.5H112.31V22.21H115.31ZM122.8 22.21V24.74H104.8V22.21H122.8ZM141.26 42L148.12 22.24H151.47L142.84 45.5H140.46L141.26 42ZM134.84 22.24L141.64 42L142.49 45.53H140.11L131.5 22.21L134.84 22.24ZM160.63 45.85C159.507 45.8669 158.392 45.6596 157.35 45.24C156.399 44.8445 155.544 44.2514 154.84 43.5C154.135 42.7324 153.591 41.8314 153.24 40.85C152.86 39.7709 152.671 38.634 152.68 37.49V36.81C152.655 35.513 152.865 34.2221 153.3 33C153.682 31.9634 154.259 31.0095 155 30.19C155.679 29.4457 156.507 28.8529 157.43 28.45C158.318 28.0548 159.278 27.8504 160.25 27.85C161.351 27.8265 162.443 28.045 163.45 28.49C164.326 28.9 165.088 29.518 165.67 30.29C166.291 31.095 166.743 32.0166 167 33C167.288 34.0964 167.43 35.2263 167.42 36.36V37.69H154.44V35.26H164.44V35C164.39 34.2339 164.228 33.4793 163.96 32.76C163.69 32.066 163.237 31.4578 162.65 31C161.954 30.499 161.107 30.2519 160.25 30.3C159.604 30.2911 158.966 30.4386 158.39 30.73C157.806 31.0228 157.307 31.46 156.94 32C156.507 32.6049 156.185 33.2822 155.99 34C155.757 34.9012 155.646 35.8294 155.66 36.76V37.44C155.656 38.2253 155.767 39.0071 155.99 39.76C156.209 40.4413 156.547 41.078 156.99 41.64C157.431 42.1794 157.983 42.6162 158.61 42.92C159.288 43.2403 160.03 43.4011 160.78 43.39C161.708 43.416 162.626 43.1951 163.44 42.75C164.177 42.3074 164.822 41.7268 165.34 41.04L167.13 42.46C166.727 43.0551 166.25 43.5961 165.71 44.07C165.083 44.6145 164.361 45.0383 163.58 45.32C162.635 45.6653 161.636 45.8348 160.63 45.82V45.85ZM177.75 43.42C178.424 43.4304 179.09 43.2868 179.7 43C180.277 42.7294 180.781 42.3248 181.17 41.82C181.552 41.3112 181.781 40.7042 181.83 40.07H184.64C184.596 41.1041 184.248 42.1023 183.64 42.94C182.967 43.8562 182.085 44.599 181.068 45.1067C180.05 45.6145 178.927 45.8727 177.79 45.86C176.616 45.8866 175.451 45.6509 174.38 45.17C173.445 44.738 172.623 44.0943 171.98 43.29C171.341 42.4686 170.86 41.5363 170.56 40.54C170.244 39.4618 170.085 38.3436 170.09 37.22V36.55C170.085 35.4362 170.243 34.3278 170.56 33.26C170.856 32.2558 171.337 31.3162 171.98 30.49C172.626 29.6854 173.446 29.0389 174.38 28.6C175.451 28.1191 176.616 27.8834 177.79 27.91C179.026 27.8815 180.248 28.1707 181.34 28.75C182.312 29.2707 183.122 30.0492 183.68 31C184.292 31.9551 184.637 33.0565 184.68 34.19H181.87C181.822 33.5076 181.613 32.8463 181.26 32.26C180.922 31.6821 180.435 31.2055 179.85 30.88C179.224 30.5213 178.511 30.3414 177.79 30.36C176.992 30.3332 176.202 30.5196 175.5 30.9C174.888 31.2255 174.371 31.7045 174 32.29C173.642 32.912 173.385 33.5872 173.24 34.29C173.088 35.0202 173.011 35.7641 173.01 36.51V37.18C173.011 37.9325 173.088 38.683 173.24 39.42C173.376 40.1241 173.629 40.8002 173.99 41.42C174.346 42.0131 174.844 42.508 175.44 42.86C176.15 43.2381 176.947 43.421 177.75 43.39V43.42ZM195.22 28.22V30.5H185.86V28.19L195.22 28.22ZM189 24H192V41.22C191.972 41.6761 192.066 42.1314 192.27 42.54C192.423 42.8182 192.672 43.0314 192.97 43.14C193.271 43.2334 193.585 43.2806 193.9 43.28C194.158 43.2788 194.415 43.2587 194.67 43.22L195.29 43.09V45.5C194.986 45.5946 194.675 45.6648 194.36 45.71C193.912 45.7931 193.456 45.8299 193 45.82C192.309 45.8296 191.626 45.6826 191 45.39C190.383 45.0903 189.876 44.604 189.55 44C189.147 43.1236 188.958 42.1638 189 41.2V24ZM209.28 41.5V28.19H212.28V45.5H209.45L209.28 41.5ZM209.84 37.86H211.07C211.081 38.9379 210.957 40.013 210.7 41.06C210.494 41.9732 210.103 42.8344 209.55 43.59C209.006 44.3212 208.283 44.8999 207.45 45.27C206.455 45.6932 205.38 45.8945 204.3 45.86C203.511 45.8696 202.727 45.7445 201.98 45.49C201.303 45.2579 200.69 44.871 200.19 44.36C199.655 43.7894 199.255 43.1059 199.02 42.36C198.733 41.3865 198.598 40.3746 198.62 39.36V28.19H201.62V39.39C201.604 40.0463 201.692 40.7011 201.88 41.33C202.029 41.7782 202.274 42.188 202.6 42.53C202.885 42.8041 203.226 43.0123 203.6 43.14C203.987 43.2517 204.387 43.3089 204.79 43.31C205.839 43.3657 206.881 43.1156 207.79 42.59C208.514 42.1061 209.067 41.4062 209.37 40.59C209.697 39.7176 209.856 38.7915 209.84 37.86V37.86ZM219.72 30.91V45.5H216.72V28.19H219.6L219.72 30.91ZM225.13 28.1V30.85C224.896 30.7985 224.659 30.765 224.42 30.75C224.21 30.75 223.96 30.75 223.69 30.75C223.072 30.7391 222.457 30.8477 221.88 31.07C221.375 31.2672 220.921 31.5747 220.55 31.97C220.178 32.3674 219.886 32.8325 219.69 33.34C219.475 33.8947 219.34 34.4773 219.29 35.07L218.45 35.55C218.447 34.5617 218.551 33.576 218.76 32.61C218.957 31.7504 219.295 30.9293 219.76 30.18C220.171 29.4942 220.744 28.9206 221.43 28.51C222.17 28.091 223.01 27.8802 223.86 27.9C224.109 27.9055 224.356 27.9323 224.6 27.98C224.781 27.9981 224.959 28.0384 225.13 28.1V28.1ZM237.43 42.54V33.63C237.444 33.015 237.303 32.4063 237.02 31.86C236.75 31.3442 236.322 30.9275 235.8 30.67C235.174 30.3809 234.489 30.2406 233.8 30.26C233.114 30.2425 232.432 30.3721 231.8 30.64C231.288 30.8601 230.837 31.2037 230.49 31.64C230.179 32.0256 230.006 32.5046 230 33H227C227.007 32.3566 227.171 31.7246 227.48 31.16C227.826 30.5269 228.295 29.9694 228.86 29.52C229.504 28.9936 230.24 28.5902 231.03 28.33C231.948 28.0208 232.911 27.8686 233.88 27.88C235.022 27.8602 236.156 28.0781 237.21 28.52C238.147 28.9204 238.939 29.5972 239.48 30.46C240.068 31.4246 240.356 32.5415 240.31 33.67V41.74C240.313 42.3562 240.364 42.9713 240.46 43.58C240.543 44.157 240.697 44.7213 240.92 45.26V45.51H237.83C237.657 45.073 237.54 44.6161 237.48 44.15C237.426 43.6151 237.41 43.0772 237.43 42.54V42.54ZM237.94 35.01V37.09H234.94C234.181 37.0814 233.424 37.1518 232.68 37.3C232.095 37.3932 231.533 37.5932 231.02 37.89C230.606 38.1316 230.262 38.476 230.02 38.89C229.779 39.313 229.658 39.7935 229.67 40.28C229.662 40.8004 229.79 41.3138 230.04 41.77C230.295 42.2256 230.678 42.5972 231.14 42.84C231.716 43.1074 232.346 43.2375 232.98 43.22C233.816 43.2382 234.642 43.042 235.38 42.65C236.023 42.3008 236.585 41.8204 237.03 41.24C237.41 40.7788 237.643 40.2147 237.7 39.62L239 41.06C238.897 41.5872 238.693 42.0897 238.4 42.54C238.035 43.1253 237.587 43.6542 237.07 44.11C236.475 44.6267 235.799 45.0422 235.07 45.34C234.268 45.6703 233.407 45.8336 232.54 45.82C231.469 45.8425 230.409 45.6058 229.45 45.13C228.635 44.7009 227.945 44.0667 227.45 43.29C226.972 42.5076 226.723 41.6069 226.73 40.69C226.714 39.8411 226.903 39.0008 227.28 38.24C227.642 37.5221 228.183 36.9092 228.85 36.46C229.596 35.9507 230.43 35.5845 231.31 35.38C232.363 35.1205 233.445 34.9962 234.53 35.01H237.94Z" fill="#010101"/>
<path d="M100.7 61.12V61.88H97.14V61.12H100.7ZM97.32 54.77V61.88H96.38V54.77H97.32ZM101.4 59.3V59.19C101.398 58.8264 101.455 58.465 101.57 58.12C101.674 57.8083 101.837 57.5196 102.05 57.27C102.256 57.0281 102.512 56.8336 102.8 56.7C103.116 56.5648 103.456 56.4967 103.8 56.5C104.144 56.4955 104.484 56.5636 104.8 56.7C105.096 56.8306 105.359 57.0253 105.57 57.27C105.783 57.5196 105.946 57.8083 106.05 58.12C106.165 58.465 106.222 58.8264 106.22 59.19V59.3C106.221 59.6602 106.164 60.0182 106.05 60.36C105.946 60.6717 105.783 60.9604 105.57 61.21C105.358 61.4493 105.099 61.6432 104.81 61.78C104.493 61.912 104.153 61.98 103.81 61.98C103.467 61.98 103.127 61.912 102.81 61.78C102.519 61.6457 102.26 61.4515 102.05 61.21C101.837 60.9604 101.674 60.6717 101.57 60.36C101.456 60.0182 101.399 59.6602 101.4 59.3V59.3ZM102.31 59.19V59.3C102.309 59.5527 102.339 59.8046 102.4 60.05C102.454 60.2692 102.549 60.4761 102.68 60.66C102.802 60.8466 102.97 60.9983 103.168 61.1C103.366 61.2018 103.587 61.25 103.81 61.24C104.036 61.246 104.26 61.1944 104.46 61.09C104.648 60.985 104.809 60.8378 104.93 60.66C105.057 60.4739 105.152 60.2677 105.21 60.05C105.274 59.8051 105.308 59.5532 105.31 59.3V59.19C105.309 58.94 105.275 58.6913 105.21 58.45C105.153 58.2289 105.058 58.0192 104.93 57.83C104.807 57.6442 104.639 57.4927 104.441 57.3896C104.243 57.2864 104.023 57.2349 103.8 57.24C103.573 57.2333 103.348 57.2886 103.15 57.4C102.958 57.4988 102.795 57.6473 102.68 57.83C102.547 58.0165 102.452 58.2271 102.4 58.45C102.338 58.6917 102.308 58.9405 102.31 59.19V59.19ZM110.78 56.59H111.6V61.77C111.611 62.1854 111.511 62.5963 111.31 62.96C111.131 63.286 110.855 63.5481 110.52 63.71C110.16 63.8883 109.762 63.9775 109.36 63.97C109.141 63.965 108.923 63.9348 108.71 63.88C108.456 63.8227 108.213 63.7248 107.99 63.59C107.755 63.4571 107.553 63.2724 107.4 63.05L107.87 62.51C108.056 62.7488 108.296 62.9405 108.57 63.07C108.796 63.1751 109.041 63.2297 109.29 63.23C109.546 63.2347 109.799 63.18 110.03 63.07C110.237 62.9616 110.407 62.7946 110.52 62.59C110.643 62.3524 110.701 62.0871 110.69 61.82V57.76L110.78 56.59ZM107.13 59.3V59.2C107.124 58.8279 107.175 58.457 107.28 58.1C107.359 57.7893 107.498 57.4971 107.69 57.24C107.867 57.0027 108.098 56.8116 108.364 56.6828C108.631 56.5539 108.924 56.4913 109.22 56.5C109.519 56.4953 109.815 56.5532 110.09 56.67C110.341 56.787 110.56 56.9618 110.73 57.18C110.914 57.4162 111.053 57.6839 111.14 57.97C111.246 58.3117 111.317 58.6636 111.35 59.02V59.47C111.324 59.8111 111.253 60.1473 111.14 60.47C111.05 60.7583 110.912 61.0289 110.73 61.27C110.557 61.4825 110.338 61.6534 110.09 61.77C109.812 61.8876 109.512 61.9455 109.21 61.94C108.916 61.9449 108.624 61.8783 108.361 61.746C108.098 61.6136 107.871 61.4194 107.7 61.18C107.505 60.9271 107.363 60.6383 107.28 60.33C107.182 59.9955 107.131 59.6487 107.13 59.3V59.3ZM108.04 59.2V59.3C108.04 59.5488 108.067 59.7969 108.12 60.04C108.166 60.2566 108.251 60.4632 108.37 60.65C108.476 60.8234 108.624 60.9677 108.8 61.07C108.996 61.1654 109.212 61.2134 109.43 61.21C109.693 61.2212 109.954 61.1552 110.18 61.02C110.375 60.8967 110.533 60.7242 110.64 60.52C110.761 60.3067 110.852 60.0779 110.91 59.84V58.66C110.877 58.4812 110.823 58.3067 110.75 58.14C110.681 57.9739 110.583 57.8215 110.46 57.69C110.344 57.5573 110.201 57.4515 110.04 57.38C109.851 57.2963 109.646 57.2553 109.44 57.26C109.216 57.252 108.994 57.3074 108.8 57.42C108.624 57.5223 108.476 57.6666 108.37 57.84C108.251 58.0268 108.166 58.2334 108.12 58.45C108.053 58.6949 108.013 58.9464 108 59.2H108.04ZM114 56.59V61.88H113V56.59H114ZM113 55.19C112.995 55.0547 113.042 54.9227 113.13 54.82C113.182 54.7676 113.244 54.727 113.314 54.7011C113.383 54.6752 113.456 54.6646 113.53 54.67C113.602 54.6654 113.674 54.6764 113.741 54.7023C113.809 54.7282 113.87 54.7683 113.92 54.82C113.969 54.8684 114.007 54.9261 114.033 54.9897C114.058 55.0533 114.071 55.1214 114.07 55.19C114.071 55.2571 114.058 55.3236 114.032 55.3856C114.007 55.4475 113.968 55.5035 113.92 55.55C113.87 55.6017 113.809 55.6418 113.741 55.6677C113.674 55.6936 113.602 55.7046 113.53 55.7C113.456 55.7054 113.383 55.6948 113.314 55.6689C113.244 55.643 113.182 55.6024 113.13 55.55C113.042 55.4509 112.996 55.3222 113 55.19V55.19ZM118.51 60.48C118.511 60.3543 118.48 60.2304 118.42 60.12C118.341 59.9806 118.218 59.8715 118.07 59.81C117.822 59.6948 117.56 59.6141 117.29 59.57C116.99 59.5 116.73 59.43 116.49 59.35C116.278 59.2712 116.077 59.1671 115.89 59.04C115.733 58.9268 115.603 58.7799 115.51 58.61C115.423 58.4328 115.378 58.2376 115.38 58.04C115.381 57.8353 115.429 57.6335 115.52 57.45C115.612 57.2595 115.745 57.092 115.91 56.96C116.093 56.8081 116.304 56.6926 116.53 56.62C116.792 56.5381 117.065 56.4976 117.34 56.5C117.716 56.4874 118.089 56.5627 118.43 56.72C118.71 56.8532 118.949 57.0607 119.12 57.32C119.279 57.5676 119.362 57.8559 119.36 58.15H118.45C118.45 57.9969 118.405 57.8472 118.32 57.72C118.225 57.5757 118.094 57.4586 117.94 57.38C117.755 57.2823 117.549 57.2341 117.34 57.24C117.13 57.232 116.921 57.2731 116.73 57.36C116.59 57.4204 116.472 57.5214 116.39 57.65C116.322 57.7614 116.288 57.8897 116.29 58.02C116.275 58.106 116.275 58.194 116.29 58.28C116.334 58.3657 116.399 58.4382 116.48 58.49C116.595 58.5658 116.719 58.6263 116.85 58.67C117.05 58.7345 117.254 58.7879 117.46 58.83C117.829 58.9086 118.188 59.0294 118.53 59.19C118.78 59.2951 118.994 59.4684 119.15 59.69C119.294 59.902 119.367 60.1539 119.36 60.41C119.363 60.6323 119.311 60.852 119.21 61.05C119.115 61.2466 118.974 61.4179 118.8 61.55C118.601 61.69 118.382 61.798 118.15 61.87C117.88 61.9453 117.6 61.9823 117.32 61.98C116.909 61.9938 116.501 61.9081 116.13 61.73C115.834 61.5859 115.582 61.3648 115.4 61.09C115.238 60.8399 115.151 60.5482 115.15 60.25H116.06C116.057 60.4655 116.132 60.6748 116.27 60.84C116.399 60.9846 116.565 61.0916 116.75 61.15C116.934 61.2092 117.127 61.2395 117.32 61.24C117.531 61.2467 117.742 61.2127 117.94 61.14C118.091 61.0908 118.224 60.9966 118.32 60.87C118.422 60.7651 118.483 60.6264 118.49 60.48H118.51ZM122.81 56.59V57.29H119.95V56.59H122.81ZM120.92 55.31H121.82V60.57C121.811 60.7124 121.842 60.8545 121.91 60.98C121.954 61.0649 122.029 61.1294 122.12 61.16C122.216 61.176 122.314 61.176 122.41 61.16C122.486 61.1695 122.564 61.1695 122.64 61.16H122.83V61.89C122.736 61.9227 122.639 61.9461 122.54 61.96C122.404 61.9718 122.266 61.9718 122.13 61.96C121.919 61.9645 121.711 61.92 121.52 61.83C121.327 61.7356 121.169 61.5813 121.07 61.39C120.951 61.1267 120.896 60.8387 120.91 60.55L120.92 55.31ZM124.85 56.59V61.88H123.95V56.59H124.85ZM123.85 55.19C123.845 55.0547 123.892 54.9227 123.98 54.82C124.032 54.7676 124.094 54.727 124.164 54.7011C124.233 54.6752 124.306 54.6646 124.38 54.67C124.453 54.6665 124.527 54.678 124.595 54.7038C124.664 54.7296 124.727 54.7691 124.78 54.82C124.871 54.9217 124.921 55.0536 124.92 55.19C124.921 55.3235 124.871 55.4524 124.78 55.55C124.727 55.6009 124.664 55.6404 124.595 55.6662C124.527 55.692 124.453 55.7035 124.38 55.7C124.306 55.7054 124.233 55.6948 124.164 55.6689C124.094 55.643 124.032 55.6024 123.98 55.55C123.896 55.4494 123.853 55.3208 123.86 55.19H123.85ZM128.39 61.24C128.597 61.2394 128.801 61.1951 128.99 61.11C129.167 61.0242 129.322 60.8973 129.44 60.74C129.556 60.5863 129.626 60.4023 129.64 60.21H130.5C130.482 60.5283 130.37 60.8343 130.18 61.09C129.975 61.371 129.705 61.5985 129.394 61.7534C129.082 61.9083 128.738 61.986 128.39 61.98C128.046 61.9814 127.705 61.9098 127.39 61.77C127.104 61.6369 126.854 61.4381 126.66 61.19C126.463 60.9395 126.314 60.6547 126.22 60.35C126.128 60.0247 126.081 59.6882 126.08 59.35V59.15C126.081 58.8118 126.128 58.4753 126.22 58.15C126.316 57.843 126.465 57.5553 126.66 57.3C126.857 57.0571 127.107 56.8621 127.39 56.73C127.705 56.5902 128.046 56.5186 128.39 56.52C128.769 56.509 129.144 56.595 129.48 56.77C129.78 56.9319 130.031 57.1699 130.21 57.46C130.39 57.7634 130.49 58.1075 130.5 58.46H129.64C129.624 58.2511 129.559 58.049 129.45 57.87C129.346 57.6947 129.198 57.5498 129.02 57.45C128.829 57.3387 128.611 57.2833 128.39 57.29C128.146 57.2842 127.904 57.3428 127.69 57.46C127.506 57.5639 127.354 57.716 127.25 57.9C127.136 58.0883 127.055 58.2945 127.01 58.51C126.97 58.7344 126.95 58.962 126.95 59.19V59.39C126.951 59.5943 126.968 59.7982 127 60C127.049 60.2126 127.127 60.4177 127.23 60.61C127.341 60.7921 127.495 60.9434 127.68 61.05C127.9 61.1737 128.148 61.2391 128.4 61.24H128.39ZM134.6 60.48C134.601 60.3543 134.57 60.2304 134.51 60.12C134.431 59.9806 134.308 59.8715 134.16 59.81C133.912 59.6948 133.65 59.6141 133.38 59.57C133.09 59.5 132.82 59.43 132.58 59.35C132.373 59.2571 132.179 59.1396 132 59C131.843 58.8868 131.713 58.7399 131.62 58.57C131.533 58.3928 131.488 58.1976 131.49 58C131.491 57.7953 131.539 57.5935 131.63 57.41C131.728 57.2522 131.853 57.1133 132 57C132.185 56.8461 132.4 56.7305 132.63 56.66C132.889 56.5774 133.159 56.5368 133.43 56.54C133.806 56.5274 134.179 56.6027 134.52 56.76C134.8 56.8932 135.039 57.1007 135.21 57.36C135.369 57.6076 135.452 57.8959 135.45 58.19H134.54C134.54 58.0369 134.495 57.8872 134.41 57.76C134.315 57.6157 134.184 57.4986 134.03 57.42C133.845 57.3223 133.639 57.2741 133.43 57.28C133.22 57.272 133.011 57.3131 132.82 57.4C132.682 57.4629 132.564 57.5634 132.48 57.69C132.417 57.8033 132.382 57.9303 132.38 58.06C132.381 58.1489 132.398 58.237 132.43 58.32C132.474 58.4057 132.539 58.4781 132.62 58.53C132.735 58.6058 132.859 58.6663 132.99 58.71C133.19 58.7745 133.394 58.8279 133.6 58.87C133.969 58.9486 134.328 59.0694 134.67 59.23C134.92 59.3351 135.134 59.5084 135.29 59.73C135.434 59.942 135.507 60.1939 135.5 60.45C135.503 60.6723 135.451 60.892 135.35 61.09C135.255 61.2866 135.114 61.4579 134.94 61.59C134.741 61.73 134.522 61.838 134.29 61.91C134.02 61.9853 133.74 62.0223 133.46 62.02C133.049 62.0338 132.641 61.9481 132.27 61.77C131.974 61.6259 131.722 61.4048 131.54 61.13C131.378 60.8799 131.291 60.5882 131.29 60.29H132.2C132.2 60.5067 132.278 60.7162 132.42 60.88C132.544 61.0262 132.707 61.1338 132.89 61.19C133.074 61.2492 133.267 61.2795 133.46 61.28C133.671 61.2867 133.882 61.2527 134.08 61.18C134.233 61.1339 134.366 61.0391 134.46 60.91C134.565 60.792 134.618 60.6375 134.61 60.48H134.6ZM138.93 59.3V59.19C138.928 58.8264 138.985 58.465 139.1 58.12C139.204 57.8083 139.367 57.5196 139.58 57.27C139.784 57.0259 140.04 56.8311 140.33 56.7C140.646 56.5648 140.986 56.4967 141.33 56.5C141.674 56.4955 142.014 56.5636 142.33 56.7C142.626 56.8306 142.889 57.0253 143.1 57.27C143.313 57.5196 143.476 57.8083 143.58 58.12C143.695 58.465 143.752 58.8264 143.75 59.19V59.3C143.751 59.6602 143.694 60.0182 143.58 60.36C143.476 60.6717 143.313 60.9604 143.1 61.21C142.888 61.4493 142.629 61.6432 142.34 61.78C142.023 61.912 141.683 61.98 141.34 61.98C140.997 61.98 140.657 61.912 140.34 61.78C140.049 61.6457 139.79 61.4515 139.58 61.21C139.367 60.9604 139.204 60.6717 139.1 60.36C138.99 60.0177 138.936 59.6597 138.94 59.3H138.93ZM139.83 59.19V59.3C139.832 59.5532 139.866 59.8051 139.93 60.05C139.984 60.2692 140.079 60.4761 140.21 60.66C140.332 60.8466 140.5 60.9983 140.698 61.1C140.896 61.2018 141.117 61.25 141.34 61.24C141.566 61.246 141.79 61.1944 141.99 61.09C142.178 60.985 142.339 60.8378 142.46 60.66C142.587 60.4739 142.682 60.2677 142.74 60.05C142.804 59.8051 142.838 59.5532 142.84 59.3V59.19C142.839 58.94 142.805 58.6913 142.74 58.45C142.683 58.2289 142.588 58.0192 142.46 57.83C142.339 57.6517 142.178 57.5044 141.99 57.4C141.788 57.2887 141.56 57.2334 141.33 57.24C141.103 57.2333 140.878 57.2886 140.68 57.4C140.488 57.4988 140.325 57.6473 140.21 57.83C140.077 58.0165 139.982 58.2271 139.93 58.45C139.868 58.6917 139.838 58.9405 139.84 59.19H139.83ZM146.23 61.88H145.32V56C145.305 55.6544 145.378 55.3105 145.53 55C145.663 54.7453 145.873 54.5389 146.13 54.41C146.418 54.2637 146.737 54.1916 147.06 54.2H147.37L147.69 54.26V55C147.61 54.989 147.53 54.989 147.45 55H147.2C147.027 54.9927 146.854 55.0306 146.7 55.11C146.566 55.186 146.457 55.3011 146.39 55.44C146.309 55.6114 146.271 55.8004 146.28 55.99L146.23 61.88ZM147.35 56.59V57.29H144.5V56.59H147.35ZM152.35 61.34L153.82 56.59H154.82L152.7 62.7C152.642 62.8439 152.575 62.9841 152.5 63.12C152.416 63.2771 152.316 63.4247 152.2 63.56C152.067 63.6919 151.916 63.8031 151.75 63.89C151.557 63.983 151.344 64.0276 151.13 64.02H150.85L150.62 63.97V63.24H150.87C151.048 63.2445 151.224 63.2139 151.39 63.15C151.534 63.1028 151.66 63.0119 151.75 62.89C151.866 62.7331 151.954 62.5571 152.01 62.37L152.35 61.34ZM151.27 56.59L152.64 60.7L152.88 61.65L152.23 61.99L150.28 56.59H151.27ZM155.27 59.3V59.19C155.265 58.827 155.319 58.4656 155.43 58.12C155.534 57.8083 155.697 57.5196 155.91 57.27C156.118 57.0257 156.377 56.831 156.67 56.7C156.987 56.568 157.327 56.5 157.67 56.5C158.013 56.5 158.353 56.568 158.67 56.7C158.963 56.831 159.222 57.0257 159.43 57.27C159.643 57.5215 159.809 57.8095 159.92 58.12C160.031 58.4656 160.085 58.827 160.08 59.19V59.3C160.084 59.6597 160.03 60.0177 159.92 60.36C159.809 60.6705 159.643 60.9585 159.43 61.21C159.22 61.4515 158.961 61.6457 158.67 61.78C158.355 61.9175 158.014 61.9857 157.67 61.98C157.327 61.9819 156.986 61.9139 156.67 61.78C156.381 61.6432 156.122 61.4493 155.91 61.21C155.697 60.9604 155.534 60.6717 155.43 60.36C155.323 60.0171 155.272 59.6591 155.28 59.3H155.27ZM156.17 59.19V59.3C156.169 59.5527 156.199 59.8046 156.26 60.05C156.323 60.266 156.417 60.4716 156.54 60.66C156.667 60.836 156.831 60.9826 157.02 61.09C157.224 61.1884 157.448 61.2395 157.675 61.2395C157.902 61.2395 158.126 61.1884 158.33 61.09C158.516 60.9822 158.676 60.8355 158.8 60.66C158.924 60.4732 159.015 60.267 159.07 60.05C159.139 59.806 159.173 59.5535 159.17 59.3V59.19C159.174 58.9397 159.14 58.6903 159.07 58.45C159.018 58.2271 158.923 58.0165 158.79 57.83C158.675 57.6473 158.512 57.4988 158.32 57.4C158.122 57.2876 157.897 57.2322 157.67 57.24C157.44 57.2334 157.212 57.2887 157.01 57.4C156.822 57.5044 156.661 57.6517 156.54 57.83C156.415 58.021 156.321 58.2301 156.26 58.45C156.202 58.6922 156.175 58.9409 156.18 59.19H156.17ZM164.45 60.66V56.59H165.36V61.88H164.5L164.45 60.66ZM164.62 59.55H165C165.004 59.8866 164.967 60.2223 164.89 60.55C164.824 60.8316 164.701 61.0969 164.53 61.33C164.366 61.5543 164.145 61.7304 163.89 61.84C163.358 62.0534 162.768 62.0781 162.22 61.91C162.001 61.827 161.805 61.6929 161.649 61.519C161.492 61.3451 161.38 61.1363 161.32 60.91C161.235 60.6178 161.194 60.3144 161.2 60.01V56.59H162.1V60C162.097 60.1996 162.124 60.3984 162.18 60.59C162.224 60.7254 162.3 60.8487 162.4 60.95C162.488 61.0352 162.594 61.1001 162.71 61.14C162.826 61.1762 162.948 61.193 163.07 61.19C163.392 61.2191 163.715 61.1531 164 61C164.217 60.8534 164.385 60.6441 164.48 60.4C164.585 60.1291 164.636 59.8404 164.63 59.55H164.62ZM167.62 57.43V61.88H166.72V56.59H167.6L167.62 57.43ZM169.28 56.57V57.41C169.207 57.4002 169.133 57.4002 169.06 57.41H168.84C168.653 57.4065 168.466 57.437 168.29 57.5C168.135 57.5637 167.996 57.6591 167.88 57.78C167.767 57.9019 167.679 58.0446 167.62 58.2C167.557 58.3706 167.516 58.5488 167.5 58.73L167.24 58.87C167.238 58.5677 167.268 58.266 167.33 57.97C167.393 57.71 167.494 57.4606 167.63 57.23C167.758 57.0223 167.932 56.8475 168.14 56.72C168.367 56.596 168.622 56.534 168.88 56.54H169.11C169.178 56.5378 169.246 56.5479 169.31 56.57H169.28ZM173.5 57.57V63.88H172.59V56.59H173.42L173.5 57.57ZM177.06 59.16V59.26C177.064 59.6208 177.02 59.9807 176.93 60.33C176.842 60.6345 176.704 60.9219 176.52 61.18C176.357 61.4173 176.137 61.6098 175.88 61.74C175.611 61.8763 175.312 61.9449 175.01 61.94C174.706 61.9477 174.403 61.8933 174.12 61.78C173.867 61.6668 173.642 61.4995 173.46 61.29C173.272 61.0647 173.126 60.8072 173.03 60.53C172.924 60.2051 172.854 59.8699 172.82 59.53V59C172.851 58.6425 172.925 58.29 173.04 57.95C173.135 57.665 173.277 57.3979 173.46 57.16C173.634 56.9414 173.856 56.7667 174.11 56.65C174.389 56.5344 174.688 56.4765 174.99 56.48C175.298 56.4719 175.603 56.537 175.88 56.67C176.137 56.799 176.36 56.9876 176.53 57.22C176.714 57.4801 176.85 57.7715 176.93 58.08C177.035 58.4441 177.089 58.8211 177.09 59.2L177.06 59.16ZM176.15 59.26V59.16C176.155 58.9076 176.128 58.6556 176.07 58.41C176.02 58.1928 175.932 57.9862 175.81 57.8C175.703 57.624 175.551 57.4791 175.37 57.38C175.176 57.2674 174.954 57.212 174.73 57.22C174.524 57.2153 174.319 57.2563 174.13 57.34C173.972 57.4167 173.83 57.5218 173.71 57.65C173.591 57.7841 173.493 57.9359 173.42 58.1C173.347 58.2667 173.293 58.4412 173.26 58.62V59.89C173.323 60.1137 173.414 60.3287 173.53 60.53C173.649 60.7257 173.809 60.8929 174 61.02C174.225 61.1472 174.481 61.2095 174.74 61.2C174.959 61.2048 175.176 61.1532 175.37 61.05C175.549 60.9443 175.7 60.7967 175.81 60.62C175.93 60.4326 176.018 60.2264 176.07 60.01C176.134 59.7784 176.171 59.5401 176.18 59.3L176.15 59.26ZM179.15 57.39V61.84H178.25V56.59H179.13L179.15 57.39ZM180.8 56.53V57.37H180.58H180.36C180.169 57.3664 179.98 57.3969 179.8 57.46C179.65 57.5264 179.514 57.6215 179.4 57.74C179.287 57.8641 179.196 58.006 179.13 58.16C179.067 58.3306 179.026 58.5088 179.01 58.69L178.76 58.83C178.758 58.5277 178.788 58.226 178.85 57.93C178.913 57.67 179.014 57.4206 179.15 57.19C179.272 56.9781 179.448 56.8022 179.66 56.68C179.886 56.5551 180.142 56.493 180.4 56.5H180.63C180.691 56.5108 180.749 56.5347 180.8 56.57V56.53ZM181.3 59.26V59.15C181.298 58.7864 181.355 58.425 181.47 58.08C181.574 57.7683 181.737 57.4796 181.95 57.23C182.154 56.9859 182.41 56.7911 182.7 56.66C183.016 56.5248 183.356 56.4567 183.7 56.46C184.044 56.4555 184.384 56.5236 184.7 56.66C184.994 56.7882 185.255 56.9834 185.46 57.23C185.68 57.4766 185.847 57.766 185.95 58.08C186.061 58.4256 186.115 58.787 186.11 59.15V59.26C186.114 59.6197 186.06 59.9777 185.95 60.32C185.847 60.6341 185.68 60.9234 185.46 61.17C185.253 61.4112 184.998 61.6056 184.71 61.74C184.394 61.8752 184.054 61.9433 183.71 61.94C183.366 61.9445 183.026 61.8764 182.71 61.74C182.419 61.6057 182.16 61.4115 181.95 61.17C181.737 60.9204 181.574 60.6317 181.47 60.32C181.36 59.991 181.303 59.6468 181.3 59.3V59.26ZM182.2 59.15V59.26C182.202 59.5132 182.236 59.7651 182.3 60.01C182.354 60.2292 182.449 60.4361 182.58 60.62C182.702 60.8066 182.87 60.9583 183.068 61.0601C183.266 61.1618 183.487 61.21 183.71 61.2C183.936 61.2047 184.159 61.1532 184.36 61.05C184.548 60.945 184.709 60.7978 184.83 60.62C184.957 60.4339 185.052 60.2277 185.11 60.01C185.174 59.7651 185.208 59.5132 185.21 59.26V59.15C185.209 58.9 185.175 58.6513 185.11 58.41C185.055 58.1864 184.956 57.9758 184.82 57.79C184.706 57.61 184.547 57.4621 184.36 57.36C184.158 57.2487 183.93 57.1934 183.7 57.2C183.473 57.1922 183.248 57.2476 183.05 57.36C182.858 57.4588 182.695 57.6073 182.58 57.79C182.447 57.9765 182.352 58.1871 182.3 58.41C182.231 58.6642 182.198 58.9267 182.2 59.19V59.15ZM189.37 61.2C189.574 61.1986 189.775 61.1543 189.96 61.07C190.137 60.9842 190.292 60.8573 190.41 60.7C190.531 60.5491 190.601 60.3634 190.61 60.17H191.47C191.456 60.4892 191.344 60.7964 191.15 61.05C190.948 61.3321 190.681 61.5606 190.37 61.7157C190.06 61.8708 189.717 61.9478 189.37 61.94C189.009 61.9479 188.65 61.8763 188.32 61.73C188.036 61.5947 187.786 61.3963 187.59 61.15C187.392 60.9014 187.246 60.6158 187.16 60.31C187.059 59.9862 187.009 59.649 187.01 59.31V59.11C187.009 58.771 187.059 58.4338 187.16 58.11C187.248 57.802 187.394 57.5136 187.59 57.26C187.789 57.0195 188.038 56.825 188.32 56.69C188.65 56.5438 189.009 56.4721 189.37 56.48C189.745 56.4702 190.117 56.5563 190.45 56.73C190.75 56.8919 191.001 57.1299 191.18 57.42C191.369 57.7192 191.47 58.0659 191.47 58.42H190.61C190.599 58.2157 190.538 58.0173 190.432 57.8427C190.325 57.6681 190.177 57.5228 190 57.42C189.809 57.3087 189.591 57.2533 189.37 57.26C189.126 57.2532 188.884 57.3119 188.67 57.43C188.481 57.5306 188.325 57.6833 188.22 57.87C188.109 58.0588 188.032 58.2651 187.99 58.48C187.942 58.7034 187.918 58.9314 187.92 59.16V59.36C187.925 59.5755 187.952 59.7899 188 60C188.041 60.2152 188.118 60.4216 188.23 60.61C188.34 60.7896 188.49 60.9405 188.67 61.05C188.885 61.1689 189.125 61.2341 189.37 61.24V61.2ZM194.68 61.94C194.338 61.9438 193.999 61.8827 193.68 61.76C193.391 61.6316 193.129 61.4482 192.91 61.22C192.697 60.9851 192.534 60.7096 192.43 60.41C192.31 60.0903 192.249 59.7515 192.25 59.41V59.21C192.245 58.8176 192.313 58.4278 192.45 58.06C192.559 57.7414 192.733 57.4487 192.96 57.2C193.171 56.9743 193.427 56.794 193.71 56.67C193.981 56.5503 194.274 56.489 194.57 56.49C194.914 56.4758 195.256 56.5408 195.57 56.68C195.839 56.8032 196.073 56.9924 196.25 57.23C196.435 57.4737 196.568 57.7528 196.64 58.05C196.729 58.3759 196.772 58.7123 196.77 59.05V59.45H192.77V58.72H195.82V58.65C195.801 58.4143 195.751 58.1823 195.67 57.96C195.595 57.7463 195.459 57.5588 195.28 57.42C195.071 57.262 194.812 57.184 194.55 57.2C194.352 57.1957 194.156 57.2403 193.98 57.33C193.804 57.422 193.65 57.5518 193.53 57.71C193.399 57.8977 193.304 58.1079 193.25 58.33C193.175 58.607 193.138 58.893 193.14 59.18V59.38C193.139 59.621 193.176 59.8606 193.25 60.09C193.315 60.2994 193.417 60.4956 193.55 60.67C193.686 60.8353 193.857 60.9685 194.05 61.06C194.255 61.1602 194.482 61.2082 194.71 61.2C194.992 61.2107 195.272 61.145 195.52 61.01C195.75 60.8745 195.951 60.6943 196.11 60.48L196.65 60.92C196.529 61.1018 196.385 61.2666 196.22 61.41C196.031 61.579 195.81 61.7082 195.57 61.79C195.289 61.9137 194.987 61.9849 194.68 62V61.94ZM200.88 60.44C200.881 60.3143 200.85 60.1904 200.79 60.08C200.711 59.9406 200.588 59.8315 200.44 59.77C200.192 59.6548 199.93 59.5741 199.66 59.53C199.37 59.46 199.1 59.39 198.86 59.31C198.648 59.2312 198.447 59.1271 198.26 59C198.103 58.8892 197.976 58.7415 197.89 58.57C197.795 58.3953 197.747 58.1989 197.75 58C197.751 57.7953 197.799 57.5935 197.89 57.41C197.985 57.219 198.122 57.0517 198.29 56.92C198.472 56.7661 198.683 56.6505 198.91 56.58C199.169 56.4974 199.439 56.4568 199.71 56.46C200.086 56.4474 200.459 56.5227 200.8 56.68C201.08 56.8132 201.319 57.0207 201.49 57.28C201.649 57.5276 201.732 57.8159 201.73 58.11H200.82C200.82 57.9569 200.775 57.8072 200.69 57.68C200.598 57.5328 200.466 57.4148 200.31 57.34C200.125 57.2423 199.919 57.1941 199.71 57.2C199.5 57.192 199.291 57.2331 199.1 57.32C198.963 57.3805 198.848 57.4817 198.77 57.61C198.699 57.7206 198.661 57.8488 198.66 57.98C198.661 58.0689 198.678 58.157 198.71 58.24C198.754 58.3257 198.819 58.3982 198.9 58.45C199.015 58.5258 199.139 58.5863 199.27 58.63C199.47 58.6945 199.674 58.7479 199.88 58.79C200.249 58.8686 200.608 58.9894 200.95 59.15C201.201 59.2579 201.418 59.4305 201.58 59.65C201.716 59.865 201.786 60.1155 201.78 60.37C201.783 60.5923 201.731 60.812 201.63 61.01C201.535 61.2066 201.394 61.3779 201.22 61.51C201.021 61.65 200.802 61.758 200.57 61.83C200.3 61.9053 200.02 61.9423 199.74 61.94C199.332 61.955 198.927 61.8692 198.56 61.69C198.259 61.5491 198.003 61.3276 197.82 61.05C197.662 60.7979 197.576 60.5075 197.57 60.21H198.48C198.48 60.4267 198.558 60.6362 198.7 60.8C198.826 60.9478 198.993 61.0556 199.18 61.11C199.361 61.1699 199.55 61.2003 199.74 61.2C199.951 61.2077 200.162 61.1737 200.36 61.1C200.513 61.0539 200.646 60.9591 200.74 60.83C200.823 60.7314 200.872 60.6087 200.88 60.48V60.44ZM210.24 61.94C209.898 61.9458 209.558 61.8847 209.24 61.76C208.948 61.6368 208.685 61.4527 208.47 61.22C208.254 60.9855 208.087 60.7101 207.98 60.41C207.867 60.0887 207.809 59.7506 207.81 59.41V59.21C207.802 58.8183 207.867 58.4284 208 58.06C208.117 57.7427 208.293 57.4507 208.52 57.2C208.728 56.9746 208.98 56.7942 209.26 56.67C209.531 56.5512 209.824 56.4899 210.12 56.49C210.463 56.4775 210.805 56.5425 211.12 56.68C211.386 56.8086 211.619 56.9968 211.8 57.23C211.977 57.4783 212.109 57.7559 212.19 58.05C212.274 58.3768 212.317 58.7126 212.32 59.05V59.45H208.32V58.72H211.32V58.65C211.311 58.4129 211.261 58.1793 211.17 57.96C211.095 57.7463 210.959 57.5588 210.78 57.42C210.571 57.262 210.312 57.184 210.05 57.2C209.855 57.1979 209.661 57.2432 209.487 57.332C209.313 57.4208 209.163 57.5505 209.05 57.71C208.916 57.8971 208.818 58.1073 208.76 58.33C208.688 58.6075 208.655 58.8934 208.66 59.18V59.38C208.656 59.6204 208.69 59.86 208.76 60.09C208.825 60.3016 208.93 60.4985 209.07 60.67C209.2 60.8371 209.368 60.9709 209.56 61.06C209.769 61.1591 209.999 61.2071 210.23 61.2C210.512 61.2107 210.792 61.145 211.04 61.01C211.265 60.872 211.462 60.6921 211.62 60.48L212.17 60.92C212.046 61.102 211.898 61.2668 211.73 61.41C211.543 61.5811 211.321 61.7106 211.08 61.79C210.815 61.9099 210.53 61.9811 210.24 62V61.94ZM216.43 60.44C216.431 60.3143 216.4 60.1904 216.34 60.08C216.265 59.9413 216.145 59.8321 216 59.77C215.748 59.6568 215.482 59.5762 215.21 59.53C214.92 59.46 214.65 59.39 214.42 59.31C214.204 59.2333 213.999 59.1291 213.81 59C213.656 58.8864 213.529 58.7394 213.44 58.57C213.348 58.3945 213.303 58.1981 213.31 58C213.308 57.796 213.352 57.5942 213.44 57.41C213.539 57.2212 213.675 57.0545 213.84 56.92C214.022 56.7661 214.233 56.6505 214.46 56.58C214.722 56.4966 214.995 56.4561 215.27 56.46C215.642 56.4482 216.012 56.5235 216.35 56.68C216.63 56.8132 216.869 57.0207 217.04 57.28C217.199 57.5276 217.282 57.8159 217.28 58.11H216.38C216.377 57.956 216.328 57.8064 216.24 57.68C216.15 57.5352 216.022 57.4177 215.87 57.34C215.685 57.2436 215.479 57.1954 215.27 57.2C215.06 57.1909 214.851 57.232 214.66 57.32C214.518 57.3776 214.399 57.4793 214.32 57.61C214.252 57.7214 214.218 57.8497 214.22 57.98C214.216 58.0694 214.234 58.1584 214.27 58.24C214.306 58.3275 214.369 58.4012 214.45 58.45C214.566 58.5238 214.69 58.5842 214.82 58.63C214.98 58.63 215.19 58.74 215.43 58.79C215.8 58.867 216.159 58.9879 216.5 59.15C216.751 59.2579 216.968 59.4305 217.13 59.65C217.274 59.862 217.347 60.1139 217.34 60.37C217.343 60.5923 217.291 60.812 217.19 61.01C217.087 61.2048 216.944 61.3753 216.77 61.51C216.575 61.65 216.359 61.758 216.13 61.83C215.856 61.9048 215.574 61.9418 215.29 61.94C214.882 61.9538 214.477 61.868 214.11 61.69C213.812 61.5489 213.559 61.3272 213.38 61.05C213.218 60.7999 213.131 60.5082 213.13 60.21H214C213.997 60.4255 214.072 60.6348 214.21 60.8C214.336 60.9478 214.503 61.0556 214.69 61.11C214.871 61.1683 215.06 61.1987 215.25 61.2C215.461 61.2085 215.672 61.1745 215.87 61.1C216.024 61.0509 216.16 60.9569 216.26 60.83C216.355 60.7359 216.415 60.6125 216.43 60.48V60.44ZM206.05 60.44C206.051 60.3143 206.02 60.1904 205.96 60.08C205.881 59.9406 205.758 59.8315 205.61 59.77C205.362 59.6548 205.1 59.5741 204.83 59.53C204.54 59.46 204.27 59.39 204.03 59.31C203.818 59.2312 203.617 59.1271 203.43 59C203.273 58.8892 203.146 58.7415 203.06 58.57C202.965 58.3953 202.917 58.1989 202.92 58C202.921 57.7953 202.969 57.5935 203.06 57.41C203.159 57.2212 203.295 57.0545 203.46 56.92C203.642 56.7661 203.853 56.6505 204.08 56.58C204.339 56.4974 204.609 56.4568 204.88 56.46C205.256 56.4474 205.629 56.5227 205.97 56.68C206.25 56.8132 206.489 57.0207 206.66 57.28C206.819 57.5276 206.902 57.8159 206.9 58.11H206C206 57.9569 205.955 57.8072 205.87 57.68C205.78 57.5352 205.652 57.4177 205.5 57.34C205.311 57.2436 205.102 57.1955 204.89 57.2C204.68 57.192 204.471 57.2331 204.28 57.32C204.143 57.3805 204.028 57.4817 203.95 57.61C203.879 57.7206 203.841 57.8488 203.84 57.98C203.825 58.066 203.825 58.154 203.84 58.24C203.884 58.3257 203.949 58.3982 204.03 58.45C204.146 58.5238 204.27 58.5842 204.4 58.63C204.6 58.6945 204.804 58.7479 205.01 58.79C205.379 58.8686 205.738 58.9894 206.08 59.15C206.331 59.2579 206.548 59.4305 206.71 59.65C206.846 59.865 206.916 60.1155 206.91 60.37C206.911 60.591 206.863 60.8096 206.77 61.01C206.667 61.2048 206.524 61.3753 206.35 61.51C206.155 61.65 205.939 61.758 205.71 61.83C205.436 61.9048 205.154 61.9418 204.87 61.94C204.462 61.955 204.057 61.8692 203.69 61.69C203.389 61.5491 203.133 61.3276 202.95 61.05C202.792 60.7979 202.706 60.5075 202.7 60.21H203.61C203.618 60.4252 203.695 60.6322 203.83 60.8C203.956 60.9478 204.123 61.0556 204.31 61.11C204.491 61.1691 204.68 61.1995 204.87 61.2C205.081 61.2077 205.292 61.1737 205.49 61.1C205.644 61.0509 205.78 60.9569 205.88 60.83C205.971 60.7334 206.03 60.6113 206.05 60.48V60.44Z" fill="#010101"/>
<path d="M77.35 71V0" stroke="#010101"/>
<path d="M9.1 32.76L0 17.29L9.1 1.82H27.3L36.4 17.29L27.3 32.76H9.1Z" fill="#014269"/>
<path d="M9.1 69.16L0 53.69L9.1 38.22H27.3L36.4 53.69L27.3 69.16H9.1Z" fill="#014269"/>
<path d="M40 51L30.9 35.53L40 20H58.2L67.3 35.47L58.24 51H40Z" fill="#014269"/>
</svg>
