<svg width="16" height="10" viewBox="0 0 16 10" fill="none" xmlns="http://www.w3.org/2000/svg">
<g clip-path="url(#clip0_25_6)">
<path d="M16 0H0V10H16V0Z" fill="white"/>
<path fill-rule="evenodd" clip-rule="evenodd" d="M-0.941162 1.19568V3.36959H2.94119L-0.941162 1.19568Z" fill="#012169"/>
<path fill-rule="evenodd" clip-rule="evenodd" d="M3.76472 3.36957L-0.941162 0.76087V0L5.17649 3.36957H3.76472Z" fill="#C8102E"/>
<path fill-rule="evenodd" clip-rule="evenodd" d="M6.23534 0H1.17651L6.23534 2.82609V0Z" fill="#012169"/>
<path fill-rule="evenodd" clip-rule="evenodd" d="M9.76477 0H14.7059L9.76477 2.82609V0Z" fill="#012169"/>
<path fill-rule="evenodd" clip-rule="evenodd" d="M9.76477 3.36957L15.6001 0H16.9412L10.9883 3.36957H9.76477Z" fill="#C8102E"/>
<path fill-rule="evenodd" clip-rule="evenodd" d="M16.9412 1.19568V3.36959H13.0588L16.9412 1.19568Z" fill="#012169"/>
<path d="M9.05881 0H6.94116V10H9.05881V0Z" fill="#C8102E"/>
<path d="M16.9412 4.02173H-0.941162V5.97825H16.9412V4.02173Z" fill="#C8102E"/>
<path fill-rule="evenodd" clip-rule="evenodd" d="M-0.941162 8.80428V6.63037H2.94119L-0.941162 8.80428Z" fill="#012169"/>
<path fill-rule="evenodd" clip-rule="evenodd" d="M6.23543 6.63037L0.400137 9.99994H-0.94104L5.0119 6.63037H6.23543Z" fill="#C8102E"/>
<path fill-rule="evenodd" clip-rule="evenodd" d="M6.23536 10H1.29419L6.23536 7.17395V10Z" fill="#012169"/>
<path fill-rule="evenodd" clip-rule="evenodd" d="M9.76465 10H14.8235L9.76465 7.17395V10Z" fill="#012169"/>
<path fill-rule="evenodd" clip-rule="evenodd" d="M12.2353 6.63037L16.9412 9.23907V9.99994L10.8235 6.63037H12.2353Z" fill="#C8102E"/>
<path fill-rule="evenodd" clip-rule="evenodd" d="M16.9412 8.80428V6.63037H13.0588L16.9412 8.80428Z" fill="#012169"/>
<g clip-path="url(#clip1_25_6)">
<rect width="16" height="10" fill="white"/>
<path d="M0 0H16V10H0V0Z" fill="#E30A17"/>
<path d="M6.83533 5.00005L9.14291 4.20887L7.71666 6.28033V3.71977L9.14291 5.79123L6.83533 5.00005ZM6.99265 6.43971C6.69709 6.93263 6.25783 7.31091 5.74097 7.51762C5.22411 7.72434 4.65762 7.74832 4.12674 7.58594C3.59586 7.42356 3.1293 7.08362 2.79729 6.61726C2.46528 6.1509 2.28577 5.58336 2.28577 5.00005C2.28577 4.41673 2.46528 3.84919 2.79729 3.38283C3.1293 2.91648 3.59586 2.57653 4.12674 2.41416C4.65762 2.25178 5.22411 2.27575 5.74097 2.48247C6.25783 2.68919 6.69709 3.06747 6.99265 3.56038C6.71664 3.23626 6.35397 3.00811 5.95252 2.90607C5.55108 2.80404 5.12974 2.83292 4.74417 2.98889C4.3586 3.14486 4.02694 3.42059 3.79297 3.77967C3.55901 4.13874 3.43375 4.56427 3.43375 5.00005C3.43375 5.43582 3.55901 5.86135 3.79297 6.22043C4.02694 6.5795 4.3586 6.85523 4.74417 7.01121C5.12974 7.16718 5.55108 7.19605 5.95252 7.09402C6.35397 6.99198 6.71664 6.76384 6.99265 6.43971V6.43971Z" fill="white"/>
</g>
</g>
<defs>
<clipPath id="clip0_25_6">
<rect width="16" height="10" fill="white"/>
</clipPath>
<clipPath id="clip1_25_6">
<rect width="16" height="10" fill="white"/>
</clipPath>
</defs>
</svg>
