<svg width="186" height="90" viewBox="0 0 186 90" fill="none" xmlns="http://www.w3.org/2000/svg">
<g clip-path="url(#clip0_34_12)">
<path d="M57.3157 27.6919H69.0927V31.54H63.4904V58.5777H57.3157V27.6919ZM76.0749 46.9828L77.1332 31.54H77.4876L78.5458 46.9828H76.0749ZM69.237 58.5777H75.2827L75.8546 50.3751H78.766L79.3406 58.5777H85.3835L82.1635 27.6919H72.4571L69.237 58.5777ZM94.2262 47.7678V53.5903C94.2262 54.3752 94.834 54.603 95.1884 54.603C95.7711 54.603 96.1756 54.122 96.1756 53.5903V46.401C96.1756 45.4387 95.9984 44.3755 93.6946 44.3755H91.1886V40.9834H93.7957C95.5428 40.9834 96.1756 40.5782 96.1756 38.6794V32.5527C96.1756 32.021 95.7711 31.54 95.1884 31.54C94.834 31.54 94.2262 31.7424 94.2262 32.5527V37.5906H88.0493V33.211C88.0493 31.059 88.3024 27.6919 92.6312 27.6919H97.7455C102.074 27.6919 102.353 31.059 102.353 33.211V38.1474C102.353 41.5145 99.9983 42.426 98.1501 42.3499V42.6538C102.302 42.5526 102.353 45.7421 102.353 46.831V53.0589C102.353 55.2359 102.074 58.5777 97.7455 58.5777H92.6312C88.3024 58.5777 88.0493 55.2357 88.0493 53.0586V47.7678H94.2262ZM106.404 27.6919H120.708V58.5777H114.53V31.54H112.581V58.5777H106.404V27.6919ZM130.935 44.6792V31.5402H131.745C132.403 31.5402 132.884 32.0968 132.884 33.0844V43.1347C132.884 44.1224 132.403 44.6789 131.745 44.6789L130.935 44.6792ZM124.758 58.5777H130.935V48.0715H134.479C138.783 48.0715 139.061 44.7297 139.061 42.5523V33.211C139.061 31.059 138.783 27.6919 134.479 27.6919H124.758V58.5777ZM151.238 53.5903C151.238 54.122 150.833 54.603 150.251 54.603C149.896 54.603 149.29 54.3752 149.29 53.5903V32.5527C149.29 31.7424 149.896 31.54 150.251 31.54C150.833 31.54 151.238 32.021 151.238 32.5527V53.5903ZM143.112 53.0589C143.112 55.2359 143.39 58.5777 147.695 58.5777H152.833C157.137 58.5777 157.416 55.2357 157.416 53.0586V33.211C157.416 31.059 157.137 27.6919 152.833 27.6919H147.695C143.39 27.6919 143.112 31.059 143.112 33.211V53.0589ZM177.517 27.6919H185.567V58.5777H179.39V39.2108H179.162L175.972 58.5777H171.035L167.871 39.2108H167.643V58.5777H161.466V27.6919H169.491L173.516 49.4131L177.517 27.6919ZM49.3106 16.2998C47.4197 8.02136 42.6803 1.28737 42.0272 0.198547C40.9943 1.74271 37.2147 7.69234 35.2932 14.2743C33.1944 21.6413 32.8856 28.1728 33.6099 34.5778C34.3287 41.0081 37.045 47.6158 37.045 47.6158C38.4881 51.0588 40.65 54.7801 42.0577 56.603C44.1207 53.9196 48.8626 45.9195 50.341 35.4893C51.1638 29.6666 51.1994 24.5782 49.3106 16.2998ZM42.0272 54.5272C41.0982 52.7803 39.655 49.4636 39.5183 44.2992C39.4829 39.3374 41.4753 35.0588 42.0577 34.173C42.5766 35.0591 44.2929 38.7803 44.4981 43.8689C44.6373 48.831 42.9866 52.7546 42.0272 54.5272ZM48.7614 30.3499C48.6905 33.5147 48.3132 36.8564 47.8322 38.8564C48.0044 35.4135 47.5919 30.578 46.8018 26.7806C46.0119 23.0084 43.7765 16.6796 41.992 13.768C40.3439 16.5529 38.3133 22.021 37.2501 26.7553C36.1817 31.4892 36.1515 37.2361 36.1515 38.9576C35.8677 37.5145 35.159 32.3249 35.3589 27.1351C35.5262 22.8567 36.5285 18.4264 37.0779 16.4009C39.174 9.64166 41.5462 5.31253 41.9917 4.62885C42.4375 5.31253 45.4245 10.6543 46.9739 16.2491C48.5159 21.844 48.8272 27.2109 48.7614 30.3502" fill="#0079C2"/>
<path d="M45.2347 58.527H30.8578V68.1725C30.8706 68.1725 30.8807 68.1471 30.8932 68.1471C34.2805 64.7549 39.7742 64.7549 43.164 68.1471C46.5513 71.5142 46.5513 77.0077 43.164 80.4003C43.1488 80.4253 43.1335 80.4253 43.1184 80.4507C43.1007 80.4507 43.083 80.4761 43.0677 80.5015C39.6881 83.8432 35.273 85.5139 30.8578 85.5139C26.4225 85.5139 21.987 83.8432 18.6049 80.4507C12.6403 74.5014 11.9339 65.261 16.4807 58.527C17.1049 57.6006 17.8162 56.7359 18.6049 55.9448C21.987 52.5525 26.4225 50.8815 30.8578 50.8815V27.6919C13.815 27.6919 0 41.4892 0 58.527C0 75.5648 13.815 89.3874 30.8578 89.3874C39.7437 89.3874 47.7488 85.6152 53.3789 79.6153V58.527H45.2347ZM185.567 67.6012H57.3157V89.3874H185.567V67.6012ZM174.477 82.8103H176.104V79.5218H174.477V82.8103ZM174.477 77.0555H176.939L178.588 77.8777L178.994 78.6997L179.402 80.344V81.166C179.359 87.0559 175.569 84.8998 171.586 85.2769V71.7117H174.477V77.0555ZM153.089 71.7117V74.178H151.034V85.2769H147.758V74.178H145.703V71.7117H153.089ZM123.094 81.5771H123.501L124.314 81.166V75.4112H123.094V81.5771ZM119.797 75.4115H118.555V81.166L119.39 81.5771H119.797V75.4115ZM123.094 71.7117V72.9449H125.149L126.37 73.7669L127.204 74.5892L127.612 76.2334V80.7552L127.205 82.3995L126.37 83.2214L125.149 84.0434H123.094V85.2766H119.797V84.0434H117.741L116.5 83.2214L115.686 82.3995L115.28 80.7552V76.2334L115.686 74.5892L116.5 73.7669L117.741 72.9449H119.797V71.7117H123.094ZM96.3668 71.7117V74.178H93.9006V77.0555H96.3668V79.5218H93.9006V82.8103H96.7778V85.2766H90.6119V71.7117H96.3668ZM66.7703 77.0555H68.4145V71.7117H71.292V85.2769H68.4145V79.5218H66.7703V85.2769H63.4816V71.7117H66.7703V77.0555Z" fill="#0079C2"/>
</g>
<defs>
<clipPath id="clip0_34_12">
<rect width="185.567" height="90" fill="white"/>
</clipPath>
</defs>
</svg>
