<svg width="261" height="70" viewBox="0 0 261 70" fill="none" xmlns="http://www.w3.org/2000/svg">
<path d="M68.9869 1.37085H0.561401V69.759H68.9869V1.37085Z" fill="#ED1A3A"/>
<path d="M57.9362 8.18366C56.3637 8.18366 55.173 9.22633 54.5797 10.4793L45.964 24.6558C45.3665 25.9669 44.9304 27.4397 44.9304 28.4148C44.9304 29.2861 45.0501 30.0559 45.3695 30.7654L54.6893 53.0177H18.4983C17.1955 53.0177 16.1202 51.71 16.1202 50.5027V12.1713C15.8465 6.93115 8.31086 6.93397 8.1449 12.336L8.30953 53.0177C8.30953 57.4407 11.7306 60.984 16.1202 60.984H65.4635L53.4363 30.2257C53.1045 29.0806 52.9566 28.0421 53.7656 26.677L61.7226 13.7445C61.8348 13.4747 61.9971 12.3345 61.9971 12.0067C61.8394 9.65839 59.9983 8.07994 57.9362 8.18366ZM38.4002 8.20195C36.4647 8.21491 34.5314 9.55125 34.5314 12.1713V39.6004C34.5314 43.5836 29.1717 43.2557 29.1717 39.6004V12.1713C29.1717 6.93115 21.4159 6.93115 21.4159 12.1713V39.82C21.4159 46.1431 26.14 50.3471 31.7785 50.3471C37.5704 50.3471 42.2781 46.1431 42.2781 39.82V12.1713C42.2781 9.4994 40.3357 8.18898 38.4002 8.20195Z" fill="white"/>
<path d="M82.3922 9.40747V27.5013C82.3922 32.0237 81.9317 34.538 78.2473 34.538C77.5586 34.538 77.098 34.538 76.4093 34.2891V42.0768C77.7869 42.5829 78.7079 42.5829 79.8613 42.5829C90.2173 42.5829 90.6778 34.7911 90.6778 30.2646V17.1994H96.6607V42.0768H104.942V9.40747H82.3922Z" fill="black"/>
<path d="M107.705 9.40747L118.982 33.0319L114.842 42.0768H123.816L137.164 9.40747H128.189L123.355 23.2278L117.601 9.40747H107.705Z" fill="black"/>
<path d="M139.694 42.0768H147.98V28.0033L156.494 42.0768H167.078L155.344 25.2402L166.85 9.40747H156.954L147.98 23.2278V9.40747H139.694V42.0768Z" fill="black"/>
<path d="M180.658 43.085C191.703 43.085 196.765 34.538 196.765 25.7421C196.765 17.1994 191.703 8.6524 180.658 8.6524C169.842 8.6524 164.78 17.1994 164.78 25.7421C164.78 34.538 169.842 43.085 180.658 43.085ZM180.658 35.2933C176.973 35.2933 173.293 32.0237 173.293 25.7421C173.293 19.4605 176.973 16.4442 180.658 16.4442C184.571 16.4442 188.251 19.4605 188.251 25.7421C188.251 32.0237 184.571 35.2933 180.658 35.2933Z" fill="black"/>
<path d="M200.909 9.40747V42.0769H208.962L220.468 22.4768V42.0769H228.524V9.40747H220.468L208.962 29.0116V9.40747H200.909ZM214.945 7.64829C218.397 7.64829 221.849 6.39115 223.463 2.61969L218.629 0.611572C217.936 3.12588 215.866 3.37481 214.945 3.37481C214.256 3.37481 211.953 3.12588 211.493 0.611572L206.663 2.61969C208.041 6.39115 211.725 7.64829 214.945 7.64829Z" fill="black"/>
<path d="M237.27 9.40747V27.5013C237.27 32.0237 236.806 34.538 233.126 34.538C232.438 34.538 231.976 34.538 231.284 34.2891V42.0768C232.666 42.5829 233.586 42.5829 234.736 42.5829C245.092 42.5829 245.552 34.7911 245.552 30.2646V17.1994H251.535V42.0768H259.821V9.40747H237.27Z" fill="black"/>
<path d="M76.4758 60.4113H77.6417V54.3496H84.4503V60.4113H85.6161V48.5286H84.4503V53.3954H77.6417V48.5286H76.4758V60.4113Z" fill="black"/>
<path d="M88.5829 60.4113H94.9683V59.457H89.7488V54.2334H94.7608V53.2792H89.7488V49.4869H94.9683V48.5286H88.5829V60.4113Z" fill="black"/>
<path d="M102.652 60.4113H103.805V58.7766H104.291C108.133 58.7766 109.722 56.503 109.722 54.1214C109.722 51.3332 107.66 49.4869 104.291 49.4869H103.805V48.0597H102.652V49.4869H102.183C98.7934 49.4869 96.7355 51.3332 96.7355 54.1214C96.7355 56.503 98.3246 58.7766 102.183 58.7766H102.652V60.4113ZM103.805 50.4412C107.66 50.491 108.506 52.2917 108.506 54.1214C108.506 56.9759 106.61 57.7187 103.805 57.8182V50.4412ZM102.652 57.8182C99.8472 57.7187 97.9511 56.9759 97.9511 54.1214C97.9511 52.2917 98.7933 50.491 102.652 50.4412V57.8182Z" fill="black"/>
<path d="M113.933 60.4113H115.053V49.4869H118.215V48.5286H110.776V49.4869H113.933V60.4113Z" fill="black"/>
<path d="M119.592 60.4113H120.903L124.065 55.1919H125.069V60.4113H126.239V48.5286H123.497C119.899 48.5286 119.381 50.9143 119.381 51.968C119.381 53.9763 120.953 55.1919 122.804 55.1254L119.592 60.4113ZM125.069 54.2334H123.385C122.43 54.2334 120.534 54.1214 120.534 51.8519C120.534 49.6488 122.542 49.4869 123.497 49.4869H125.069V54.2334Z" fill="black"/>
<path d="M129.222 60.4113H130.388V54.3496H137.196V60.4113H138.363V48.5286H137.196V53.3954H130.388V48.5286H129.222V60.4113Z" fill="black"/>
<path d="M140.063 60.4113H141.233L142.867 56.5527H147.876L149.515 60.4113H150.68L145.348 48.2214L140.063 60.4113ZM143.291 55.615L145.348 50.7523L147.456 55.615H143.291Z" fill="black"/>
<path d="M152.03 60.4113H153.34L156.502 55.1919H157.507V60.4113H158.672V48.5286H155.934C152.337 48.5286 151.818 50.9143 151.818 51.968C151.818 53.9763 153.391 55.1919 155.237 55.1254L152.03 60.4113ZM157.507 54.2334H155.821C154.863 54.2334 152.967 54.1214 152.967 51.8519C152.967 49.6488 154.98 49.4869 155.934 49.4869H157.507V54.2334Z" fill="black"/>
<path d="M165.597 60.4113H166.762V54.6567L172.094 60.4113H173.617L167.863 54.2832L173.521 48.5286H172.094L166.762 54.0717V48.5286H165.597V60.4113Z" fill="black"/>
<path d="M181.138 60.7847C184.673 60.7847 187.574 58.2413 187.574 54.4947C187.574 50.7523 184.673 48.2214 181.138 48.2214C177.653 48.2214 174.754 50.7523 174.754 54.4947C174.754 58.2413 177.653 60.7847 181.138 60.7847ZM181.138 59.7806C178.238 59.7806 175.968 57.6065 175.968 54.4947C175.968 51.383 178.238 49.1633 181.138 49.1633C184.043 49.1633 186.358 51.383 186.358 54.4947C186.358 57.6065 184.043 59.7806 181.138 59.7806Z" fill="black"/>
<path d="M189.179 60.4113H190.3L191.4 51.6403L195.777 60.9466L200.104 51.6403L201.273 60.4113H202.323L200.689 48.0597L195.777 58.677L190.815 48.0597L189.179 60.4113Z" fill="black"/>
<path d="M204.514 48.5286V60.4113H205.679V49.4869H212.489V60.4113H213.654V48.5286H204.514Z" fill="black"/>
<path d="M215.36 60.4113H216.525L218.16 56.5527H223.173L224.808 60.4113H225.973L220.641 48.2214L215.36 60.4113ZM218.584 55.615L220.641 50.7523L222.749 55.615H218.584Z" fill="black"/>
<path d="M227.628 60.4113H228.795V54.3496H235.603V60.4113H236.772V48.5286H235.603V53.3954H228.795V48.5286H227.628V60.4113Z" fill="black"/>
<path d="M239.734 48.5286V60.9466L247.875 51.0097V60.4113H249.025V48.0597L240.905 57.9302V48.5286H239.734Z" fill="black"/>
<path d="M251.651 60.4113H252.962L256.123 55.1919H257.128V60.4113H258.297V48.5286H255.56C251.958 48.5286 251.44 50.9143 251.44 51.968C251.44 53.9763 253.012 55.1919 254.862 55.1254L251.651 60.4113ZM257.128 54.2334H255.443C254.489 54.2334 252.594 54.1214 252.594 51.8519C252.594 49.6488 254.602 49.4869 255.56 49.4869H257.128V54.2334Z" fill="black"/>
</svg>
