<svg width="308" height="60" viewBox="0 0 308 60" fill="none" xmlns="http://www.w3.org/2000/svg">
<path d="M10.4773 8.7133C11.8444 8.6442 13.2175 8.68326 14.5846 8.68927C15.3478 8.62918 15.6783 9.43741 15.9607 9.99627C20.2452 18.8958 24.617 27.7535 28.8624 36.6681C29.0518 36.4878 29.214 36.2866 29.3492 36.0641C33.9072 27.1886 38.5043 18.3311 43.0712 9.45844C43.2726 9.08887 43.6031 8.66523 44.0747 8.69829C45.3427 8.69227 46.6197 8.60514 47.8786 8.75537C48.1701 9.04381 48.2332 9.45844 48.3023 9.84303C50.03 22.6848 51.7546 35.5294 53.4821 48.3711C53.6024 48.9329 53.5332 49.8403 52.7671 49.8223C50.2583 49.8643 47.7464 49.8343 45.2346 49.8374C44.6457 49.9335 44.0207 49.4947 43.9906 48.8818C43.3297 40.538 42.6415 32.1672 41.0761 23.9377C36.8727 31.8998 32.8226 39.9461 28.6492 47.9234C28.0723 48.996 26.6571 49.0231 25.6266 48.7406C24.8032 48.4792 24.4938 47.6109 24.1572 46.9048C20.702 39.7569 17.2286 32.6149 13.7643 25.4669C13.4609 24.818 13.1544 24.1689 12.7758 23.5591C11.1233 31.8788 10.27 40.3367 9.5489 48.7828C9.51885 49.2784 9.17933 49.7983 8.6355 49.8103C7.18426 49.8974 5.72703 49.8072 4.27582 49.8463C6.11763 36.602 8.06162 23.3728 9.90643 10.1285C9.99357 9.6297 10.0206 9.0348 10.4773 8.7133ZM147.361 11.0479C147.643 10.1104 148.77 10.3598 149.518 10.3118C150.423 10.2637 151.606 10.3568 151.958 11.3634C154.146 16.7717 156.378 22.162 158.526 27.5852C155.837 28.2552 153.103 28.7269 150.411 29.376C149.431 26.8341 148.515 24.2681 147.613 21.6961C146.246 24.794 145.486 28.1561 144.161 31.2658C142.16 32.1792 140.183 33.1978 138.482 34.6069C137.996 35.0155 137.521 35.4392 136.983 35.7758C140.486 27.5521 143.882 19.2804 147.361 11.0479ZM215.962 10.5281C220.725 10.0413 225.722 10.4199 230.092 12.4961C235.206 14.9418 239.269 19.6591 240.562 25.2206C241.525 29.4511 241.398 33.9911 239.923 38.0923C237.977 43.3954 233.482 47.626 228.188 49.5128C223.638 51.0752 218.675 51.2044 213.968 50.3872C208.532 49.4226 203.555 46.1206 200.626 41.4364C197.877 37.0468 197.231 31.5963 198.072 26.5517C198.775 22.2611 201.042 18.2649 204.352 15.4497C207.546 12.5832 211.72 10.9638 215.962 10.5281ZM216.986 14.0074C214.195 14.4912 211.729 16.2398 210.178 18.5864C207.657 22.1438 207.048 26.6388 207.12 30.8963C207.066 35.3251 207.943 40.0003 210.834 43.5006C214.832 48.6806 223.688 48.7888 227.854 43.7651C230.394 40.8384 231.523 36.9595 231.722 33.1497C231.851 29.4992 231.86 25.7404 230.615 22.258C229.694 19.7252 228.172 17.3364 225.986 15.72C223.417 13.8692 220.045 13.4486 216.986 14.0074ZM60.6512 12.5802C60.5791 12.0604 60.8975 11.4084 61.4835 11.4054C63.6978 11.3514 65.9152 11.3814 68.1297 11.3904C68.7726 11.3213 69.1723 12.0154 69.1332 12.5862C69.1481 20.8158 69.1361 29.0455 69.1392 37.2751C69.5147 36.9897 69.8543 36.6621 70.1667 36.3075C77.1404 28.5827 83.4981 20.3291 89.7958 12.0514C90.8684 10.9307 92.5931 11.5046 93.9632 11.3964C94.5131 11.2882 94.7204 11.8171 94.6754 12.2678C94.6874 24.2981 94.6692 36.3286 94.6843 48.3591C94.7594 48.9991 94.4469 49.8763 93.6687 49.8252C91.5415 49.8583 89.4112 49.8403 87.2809 49.8343C86.7492 49.9124 86.1903 49.4888 86.2054 48.9329C86.1512 40.5891 86.2384 32.2394 86.1603 23.8926C79.1686 31.1668 73.2164 39.3512 66.9758 47.2594C66.1826 48.1368 65.6778 49.4767 64.4371 49.7892C63.2652 49.8794 62.0784 49.8884 60.9095 49.7801C60.5491 49.5128 60.6932 49.002 60.6452 48.6234C60.6601 36.608 60.6452 24.5957 60.6512 12.5802ZM104.221 12.5892C104.137 11.9523 104.636 11.2552 105.33 11.3874C109.142 11.3724 112.961 11.3844 116.777 11.3844C119.86 11.4655 123.039 11.763 125.845 13.1481C129.619 15.041 132.128 19.1814 132.098 23.3998C132.158 26.2601 131.491 29.2468 129.67 31.5152C127.867 33.8048 125.127 35.1448 122.354 35.8478C119.208 36.6291 115.93 36.8484 112.7 36.7041C112.712 40.6763 112.712 44.6514 112.703 48.6234C112.787 49.2334 112.339 49.9124 111.672 49.8314C109.461 49.8374 107.244 49.8734 105.035 49.8132C104.476 49.7832 104.167 49.1492 104.221 48.6475C104.215 36.6261 104.215 24.6077 104.221 12.5892ZM112.709 14.8427C112.709 21.1012 112.697 27.3598 112.715 33.6184C115.458 33.7627 118.433 33.2849 120.536 31.38C122.768 29.4 123.489 26.2692 123.459 23.3938C123.498 21.0172 122.732 18.4752 120.827 16.9369C118.583 15.0831 115.521 14.7195 112.709 14.8427ZM167.522 11.3784C176.838 11.4144 186.16 11.3213 195.471 11.4235C195.54 11.4986 195.675 11.6488 195.742 11.7239C195.798 13.082 195.858 14.4641 195.708 15.8192C195.392 16.4171 194.638 16.1918 194.106 16.1346C191.366 15.6238 188.578 15.4737 185.795 15.4346C185.786 26.5035 185.802 37.5724 185.789 48.6415C185.855 49.2634 185.345 49.9664 184.669 49.8343C182.557 49.8434 180.445 49.8523 178.332 49.8314C177.677 49.9034 177.229 49.2454 177.308 48.6444C177.295 37.5724 177.314 26.5006 177.298 15.4286C174.331 15.4617 171.362 15.684 168.435 16.2098C167.855 16.384 167.215 15.9574 167.275 15.3264C167.288 14.0194 166.994 12.6163 167.522 11.3784ZM247.991 12.5592C247.895 11.9943 248.306 11.3574 248.926 11.3934C252.748 11.3604 256.569 11.3904 260.394 11.3814C263.615 11.4685 266.974 11.748 269.865 13.3043C273.6 15.2724 275.934 19.4938 275.862 23.6852C275.849 26.75 274.994 29.9678 272.803 32.2063C270.297 34.8354 266.649 35.932 263.152 36.4248C260.948 36.6741 258.712 36.8664 256.494 36.6892C256.44 40.6792 256.506 44.6724 256.465 48.6624C256.522 49.3144 255.957 49.9424 255.286 49.8343C253.168 49.8434 251.046 49.8554 248.929 49.8283C248.309 49.8614 247.883 49.2243 247.991 48.6535C247.988 36.6231 247.985 24.5897 247.991 12.5592ZM256.474 14.8517C256.478 21.1043 256.474 27.3598 256.477 33.6155C259.117 33.7477 261.957 33.318 264.051 31.5843C266.115 29.8988 266.998 27.2006 267.166 24.6166C267.406 21.9757 266.875 19.0131 264.829 17.1563C262.588 15.1221 259.382 14.7105 256.474 14.8517ZM282.469 12.5802C282.394 11.9853 282.838 11.3123 283.494 11.3904C290.112 11.3784 296.735 11.3664 303.357 11.3964C303.975 11.3634 303.952 12.1416 303.988 12.5682C303.997 13.6378 304.22 14.7766 303.817 15.7952C303.495 16.4412 302.685 16.1737 302.128 16.1317C298.435 15.5308 294.686 15.4797 290.954 15.4466C290.954 26.5155 290.96 37.5846 290.951 48.6535C291.029 49.2875 290.509 49.9544 289.837 49.8343C287.722 49.8434 285.606 49.8554 283.494 49.8283C282.863 49.8824 282.403 49.2334 282.466 48.6475C282.466 36.6261 282.46 24.6017 282.469 12.5802ZM162.297 37.3561L162.432 37.26C164.054 40.9588 165.472 44.7504 167.042 48.4763C167.285 48.9209 167.423 49.8703 166.66 49.8192C164.151 49.8763 161.638 49.8223 159.128 49.8434C158.418 49.9214 157.688 49.5218 157.477 48.8217C156.657 46.5714 155.789 44.3329 155.043 42.0584C156.432 41.4094 157.931 40.9286 159.194 40.0123C160.365 39.2941 161.291 38.2726 162.297 37.3561Z" fill="#575656"/>
<path d="M161.434 28.4294C162.972 27.8855 164.325 26.9572 165.592 25.9506C164.848 29.8897 163.258 33.8106 160.458 36.7432C158.237 39.0508 155.191 40.3728 152.081 40.9497C148.752 41.6317 145.251 41.3943 142.036 42.6172C142.773 41.5775 143.575 40.556 144.626 39.8169C147.219 37.8729 150.434 37.1488 153.454 36.1512C155.509 35.4872 157.618 34.6369 159.103 33.0054C155.578 34.8082 151.51 34.8292 147.826 36.1632C145.212 37.0526 142.782 38.7082 141.352 41.1149C139.888 43.5637 139.254 46.3909 138.164 49.0049C137.953 49.4977 137.452 49.8492 136.911 49.8312C134.985 49.8583 133.062 49.8463 131.139 49.8222C132.821 46.0063 134.053 41.878 136.806 38.6482C139.432 35.4242 143.163 33.2819 147.096 32.0591C151.789 30.5117 156.802 30.1722 161.434 28.4294Z" fill="#64AF41"/>
</svg>
