<svg width="288" height="90" viewBox="0 0 288 90" fill="none" xmlns="http://www.w3.org/2000/svg">
<path d="M100.086 5.73754H100.945L102.262 7.81928H103.061L101.688 5.68391C102.432 5.62767 102.946 5.23403 102.946 4.38997C102.946 3.43449 102.376 2.98566 101.231 2.98566H99.3443V7.81928H100.086V5.73754H100.086ZM100.086 3.6032H101.116C101.632 3.6032 102.203 3.71567 102.203 4.33479C102.203 5.0648 101.631 5.12103 101.002 5.12103H100.085V3.6032H100.086Z" fill="#C8102E"/>
<path d="M101.001 9.67469C103.288 9.67469 105.292 7.81943 105.292 5.40183C105.292 2.98527 103.288 1.24146 101.001 1.24146C98.6573 1.24146 96.5974 2.98527 96.5974 5.40183C96.5974 7.81891 98.6573 9.67469 101.001 9.67469ZM101.001 1.9168C102.945 1.9168 104.434 3.43411 104.434 5.40183C104.434 7.42631 102.945 8.88739 101.001 8.88739C99.055 8.88739 97.5127 7.42579 97.5127 5.40183C97.5133 3.43411 99.0555 1.9168 101.001 1.9168Z" fill="#C8102E"/>
<path d="M95.7031 66.9316C95.7031 69.4893 93.6276 71.5637 91.071 71.5637C88.5138 71.5637 86.4426 69.4893 86.4426 66.9316C86.4426 64.375 88.5138 62.3041 91.071 62.3041C93.6276 62.3041 95.7031 64.375 95.7031 66.9316Z" fill="#C8102E"/>
<path d="M153.11 10.7456C146.283 6.94243 115.912 15.5417 106.167 48.3774C105.02 48.6926 99.5082 50.1254 99.5082 50.1254L97.0989 56.615L105.645 54.0083C105.645 54.0083 104.707 69.75 119.037 70.2203C130.29 69.8 136.176 53.799 132.571 42.542C131.885 42.905 122.893 47.2314 122.893 47.2314C122.893 47.2314 124.976 59.586 119.975 61.0981C118.355 61.3054 116.455 56.3599 118.197 48.9513C142.103 36.5217 157.259 13.0747 153.11 10.7456ZM143.576 18.251C148.159 17.8376 126.123 41.2903 120.493 42.4359C118.671 41.395 134.457 20.4931 143.576 18.251Z" fill="#C8102E"/>
<path d="M139.979 40.718V45.3553C139.979 45.3553 146.076 41.3949 146.544 42.1255C146.699 44.2093 138.992 61.8286 138.835 64.4847C138.677 66.1015 140.188 72.2004 147.324 69.0204C150.819 67.5104 160.183 59.8327 160.183 59.8327C160.183 59.8327 158.674 63.75 159.314 66.8815C159.949 70.014 163.836 70.8387 167.339 69.5417C170.843 68.242 174.843 65.5787 176.567 63.4949C176.306 62.8153 175.314 59.689 175.314 59.689C175.314 59.689 172.174 62.6523 171.401 62.266C170.626 61.8776 180.317 33.4735 180.317 33.4735C180.317 33.4735 170.38 33.0887 169.389 33.0887C167.751 40.5503 158.473 59.4797 152.07 60.315C149.877 60.1582 159.833 37.9546 160.2 35.4516C160.929 32.167 158.473 30.657 155.56 31.3345C152.486 32.3785 139.979 40.718 139.979 40.718Z" fill="#C8102E"/>
<path d="M208.256 32.7728C208.256 32.7728 207.051 35.745 206.827 36.2574C205.57 34.0871 201.223 29.858 192.247 35.4591C182.879 41.5174 178.876 51.8637 180.137 62.8354C181.509 71.9231 191.336 73.0061 197.964 65.2904C197.28 67.2941 190.249 88.8978 190.249 88.8978L201.164 88.9545L219 33.0004L208.256 32.7728ZM196.289 59.8048C194.747 60.6604 192.349 62.0871 192.009 56.6583C191.834 50.2584 196.986 43.1035 197.97 41.982C200.541 39.0681 203.749 39.0144 203.667 43.6288C203.327 48.9421 199.891 57.3435 196.289 59.8048Z" fill="#C8102E"/>
<path d="M32.9675 69.485C27.509 63.7167 31.7543 53.0971 32.6696 43.6901C31.4533 44.9054 19.3143 73.1247 8.39003 71.9057C-1.31942 68.879 -0.1062 57.9506 2.92791 49.7588H18.705C13.8506 63.108 20.5259 57.6474 25.0789 49.1528C34.1823 30.643 34.7899 29.1267 44.804 1.20691C50.5686 1.20691 56.3323 1.20691 62.101 1.20691C56.943 16.9877 52.0855 32.4634 49.9646 48.8487C49.9646 49.4548 50.2662 50.062 50.8737 49.7588C54.5125 49.1528 74.5416 4.24518 76.3609 1.20691C81.5216 1.20691 87.5909 1.20691 93.0487 1.20691C93.0487 2.72422 74.5416 53.3996 77.5762 58.2536C79.0952 60.9841 81.2206 55.8281 83.0383 53.7016L85.772 56.4343C80.3099 62.5056 73.9392 73.4251 64.8342 71.6068C63.6195 71.3027 62.4057 70.6998 61.4976 69.7866C52.086 61.5948 69.0805 31.9791 67.2622 30.0354C66.6967 30.0984 66.1307 31.6037 65.1352 33.6756C59.9746 44.2978 48.1463 72.213 38.4296 72.213C36.9155 72.213 33.8766 70.6993 32.9675 69.485Z" fill="#C8102E"/>
<path d="M229.581 61.1613C249.811 50.5296 254.667 37.0426 248.44 33.2696C239.236 28.1256 214.036 37.3273 216.893 62.5343C215.631 63.2759 213 64.7056 213 64.7056L214.833 69.7346C214.833 69.7346 218.547 67.5076 219.506 66.842C232.381 77.2804 246.509 60.1646 246.509 60.1646L244.037 56.3599C244.039 56.3599 233.346 66.6447 229.581 61.1613ZM232.264 45.7283C235.179 40.5843 239.869 36.5843 242.153 38.1849C244.439 39.786 239.809 47.9006 228.911 56.5234C228.476 55.772 229.349 50.8733 232.264 45.7283Z" fill="#C8102E"/>
<path d="M262.731 33.669L274.447 33.3273C274.447 33.3273 257.989 46.3141 260.387 58.589C262.279 66.0506 269.241 62.4161 273.076 53.9594C273.813 52.3016 278.446 41.042 275.53 41.042C272.616 41.042 269.571 46.815 269.571 46.815L266.384 43.6147C266.384 43.6147 272.843 34.411 280.196 31.947C281.076 31.67 286.386 30.5849 286.446 38.1844C286.679 41.7277 282.851 61.1623 269.534 68.0189C257.319 74.3006 251.959 66.778 250.991 64.5329C244.3 47.9189 262.731 33.669 262.731 33.669Z" fill="#C8102E"/>
</svg>
